<?xml version="1.0" encoding="UTF-8"?>
<svg id="_レイヤー_1" data-name="レイヤー_1" xmlns="http://www.w3.org/2000/svg" width="120" height="50" version="1.1" viewBox="0 0 120 50">
  <!-- Generator: Adobe Illustrator 29.6.1, SVG Export Plug-In . SVG Version: 2.1.1 Build 9)  -->
  <path d="M3.58,28.92s7.29-7.29,32.26-3.64c24.98,3.64,30.7,6.76,42.15,8.33,11.45,1.56,22.38-1.56,22.38-1.56,0,0-14.05,6.24-27.58,4.68-13.53-1.56-20.82-4.16-38.51-7.29-17.69-3.12-24.98-2.08-30.7-.52Z" fill="#286300"/>
  <path d="M.98,35.69c10.98-2.9,20.97-5.31,32.32-2.83,20.71,4.53,46.81,17.04,68.06,8.94,6.16-2.35,11.51-9.84,11.11-16.47-.36-5.93-4.17-12.78-11.15-11.23-3.59.8-6.07,5.12-3.34,8.23,3.04,3.45,8.79-1.58,4.57-3.57,4-.64,4.86,5.03,2.33,7.12-3.76,3.1-11.29-.29-12.78-4.46-1.51-4.21.49-9.18,4.42-11.26,7.31-3.87,17.32-.97,20.81,6.49,6.74,14.41-7.91,27.84-21.09,30.12-16.58,2.87-34.87-2.05-50.69-6.86-13.56-4.12-26.24-5.43-40.41-4.75l-4.16.52Z" fill="#286300"/>
  <path d="M89.09,9.7c-4.31,4.84-5.55,15.8,1.21,19.25-7.88-4.21-10.72-17.76-2.79-23.55,7.32-5.35,18.9-3.12,25.09,3-6.7-4.63-17.69-5.23-23.51,1.3Z" fill="#286300"/>
</svg>