<svg
  xmlns="http://www.w3.org/2000/svg"
  viewBox="0 0 24 24"
  fill="none"
  stroke="currentColor"
  stroke-width="2"
  stroke-linecap="round"
  stroke-linejoin="round"
>
  <!-- 雪の結晶（6方向） -->
  <!-- 縦線 -->
  <line x1="12" y1="3" x2="12" y2="21" stroke="#29B6F6" stroke-width="2"/>
  <!-- 斜め線（右上から左下） -->
  <line x1="17.5" y1="6.5" x2="6.5" y2="17.5" stroke="#29B6F6" stroke-width="2"/>
  <!-- 斜め線（左上から右下） -->
  <line x1="6.5" y1="6.5" x2="17.5" y2="17.5" stroke="#29B6F6" stroke-width="2"/>

  <!-- 小さな枝（上） -->
  <line x1="12" y1="3" x2="10" y2="5" stroke="#29B6F6" stroke-width="1.5"/>
  <line x1="12" y1="3" x2="14" y2="5" stroke="#29B6F6" stroke-width="1.5"/>

  <!-- 小さな枝（下） -->
  <line x1="12" y1="21" x2="10" y2="19" stroke="#29B6F6" stroke-width="1.5"/>
  <line x1="12" y1="21" x2="14" y2="19" stroke="#29B6F6" stroke-width="1.5"/>

  <!-- 小さな枝（右上） -->
  <line x1="17.5" y1="6.5" x2="16" y2="5" stroke="#29B6F6" stroke-width="1.5"/>
  <line x1="17.5" y1="6.5" x2="16" y2="8" stroke="#29B6F6" stroke-width="1.5"/>

  <!-- 小さな枝（左下） -->
  <line x1="6.5" y1="17.5" x2="8" y2="16" stroke="#29B6F6" stroke-width="1.5"/>
  <line x1="6.5" y1="17.5" x2="8" y2="19" stroke="#29B6F6" stroke-width="1.5"/>

  <!-- 小さな枝（左上） -->
  <line x1="6.5" y1="6.5" x2="8" y2="5" stroke="#29B6F6" stroke-width="1.5"/>
  <line x1="6.5" y1="6.5" x2="8" y2="8" stroke="#29B6F6" stroke-width="1.5"/>

  <!-- 小さな枝（右下） -->
  <line x1="17.5" y1="17.5" x2="16" y2="16" stroke="#29B6F6" stroke-width="1.5"/>
  <line x1="17.5" y1="17.5" x2="16" y2="19" stroke="#29B6F6" stroke-width="1.5"/>
</svg>
