<?xml version="1.0" encoding="UTF-8"?>
<svg id="_レイヤー_1" xmlns="http://www.w3.org/2000/svg" width="180" height="180" version="1.1" viewBox="0 0 180 180">
  <!-- Generator: Adobe Illustrator 29.6.1, SVG Export Plug-In . SVG Version: 2.1.1 Build 9)  -->
  <g>
    <path d="M151.2,43.12c-.4-1.68-2.78-4.42-3.8-4.78s-5.08.98-5.08.98l-2.03.67-35.31,8.44-28.87,5.63c-.04.06-.08.11-.12.17.06.14.18.29.32.44.23.07.45.19.63.36,7.36-1.47,25.1-5.03,28.43-5.83,4.23-1.01,38.63-9.21,38.63-9.21,0,0,2,4.88,3.21,5.85,1.21.97,2.72,2.17,4.11,1.4.83-.46.26-2.44-.14-4.11h.02Z" fill="#286300"/>
    <path d="M80.15,76.44s-4.62-7.34-5.37-11.97c-.75-4.62-.95-4.62.75-6.19,1.7-1.56,2.31-2.99,2.38-4.01.07-1.02-1.84-1.84-2.99-1.84s-1.65.15-2.13.41c-.48.26-1.19.05-1.65.24s-1.58,3.64-1.58,5.63,1.18,7.25,2.09,9.88c.91,2.63,4.44,7.07,4.44,7.07l2.72,2.27,1.34-1.5h0Z" fill="#286300"/>
    <path d="M70.63,61.79l3.65-.52s-.55-1.53,1.25-2.99c1.81-1.46,2.48-3.56,2.38-4.01-.1-.45-.2-2.07-3.64-1.84-3.43.24-3.74.71-3.74.71,0,0-.92,2.6-1.17,3.37s.11,2.43.2,2.66,1.06,2.61,1.06,2.61h.01Z" fill="#286300"/>
    <path d="M77.89,75.8s-.84-2.74-2.74-5.8c-1.9-3.06-3.88-9.79-4.28-10.95-.41-1.16,1.5-2.45,2.24-2.99.75-.54-.27-3.67-1.56-3.88-1.29-.2-4.56.54-5.51,1.29-.95.75-.68,3.13,0,4.83.68,1.7,1.43,1.96,1.56,5.5.14,3.54,1.02,7.42,2.38,10.07s5.45,10.02,5.45,10.02c0,0,2.46-8.09,2.46-8.09Z" fill="#286300"/>
    <path d="M81.61,109.19s-4.11,9.88-5.2,13.33c-1.09,3.45-2.99,5.76-3.67,11.61s-2.31,11.02-3.26,13.6c0,0-2.31,11.36-2.31,17.61s-.88,8.23-.88,8.23c0,0,5.1,1.22,6.46,3.06,0,0,2.18-2.45,2.52-8.7.34-6.26,1.56-9.66,2.24-13.12.68-3.47,2.31-7.62,3.94-11.02,1.63-3.4,1.84-5.85,3.2-7.48,1.36-1.63,5.64-7.82,5.64-7.82l-8.68-19.29h0Z" fill="#286300"/>
    <path d="M100.81,106.29s4.17,5.26,3.9,9.16c-.27,3.9-1.18,18.32-.54,24.48.63,6.17,2.18,8.89,3.76,12.42,1.59,3.54,3.58,13.46,4.4,17.41.82,3.94.91,3.13.91,3.13,0,0-4.62,2.86-5.3,4.22,0,0-3.99-4.35-5.76-11.2-1.77-6.85-2.95-12.24-4.76-14.6-1.81-2.36-2.81-3.4-3.4-9.2-.59-5.8-3.63-15.41-8.16-20.67-4.53-5.26-4.23-12.24-4.23-12.24,0,0,12.21,4.53,19.19-2.9h0Z" fill="#286300"/>
    <path d="M66.35,173.4s-.91,1.9-1.99,2.99c-1.09,1.09-1.81,1.77-1.86,2.67-.05.91.09.91.73.91s3.58-.05,4.76,0,1.86-.18,2.77,0,1.36-.73,1.5-1.45c.14-.73.18-2.49-.5-3.13-.68-.63-1.31-1.9-5.39-1.99h-.02Z" fill="#286300"/>
    <path d="M113.04,173.4s.91,1.9,1.99,2.99c1.09,1.09,1.81,1.77,1.86,2.67.05.91-.09.91-.73.91s-3.58-.05-4.76,0-1.86-.18-2.77,0-1.36-.73-1.5-1.45c-.14-.73-.18-2.49.5-3.13.68-.63,1.31-1.9,5.4-1.99h0Z" fill="#286300"/>
    <path d="M86.22,75.78s-2.23,1.17-4.56,1.27c-1.36.06-2.66-.61-3.4-1.75h0s-5.35,1.41-2.99,9.11c0,0,.86,2.09,2.58,2.27,0,0,1.41,3.81,1.5,8.34s.86,13.92,3.85,16.59c0,0,2.27,2.31,9.88-.36s7.75-4.58,7.89-5.44-1.9-6.3-1.9-9.25,0-17.37-.27-19.84c-.27-2.47-1.54-7.54-8.98-7.54l-2.99,5.71-.6.88h-.01Z" fill="#fff"/>
    <path d="M89.7,69.91s1.41,1.72.41,2.58-3.72,1-3.72,1l-2.54,2.9s2.84,2.15,7-.92c.23-.17.4-.4.49-.67.22-.67.57-2.05.3-3.49-.36-1.99-2.04-2.13-2.04-2.13l.09.73h.01Z" fill="#fff"/>
    <g>
      <path d="M89.83,69.56l.87,2.42s0,.92-3.25,1.75c0,0,.59-1.63.75-2.44.16-.82,1.63-1.72,1.63-1.72h0Z" fill="#286300"/>
      <path d="M76.52,70.81s1.63,2.86,2.13,4.08,2.36,3.22,4.03,2.63c1.68-.59,5.26-3.85,5.58-4.53s.41-2.18.41-2.18c0,0,1.63.18,2.09-1.41.45-1.59.49-3.08,0-3.08s-1.31,1.13-1.31,1.13l-12.92,3.35h-.01Z" fill="#286300"/>
      <path d="M90.26,66.54s-1.18,1.54-3.35,2.22c0,0-2.54,5.3-4.76,4.94s-4.62-2.49-6.85-2.22c-2.22.27-2.13-1-1.22-2.31.91-1.31,1.86-3.04,1.86-3.04,0,0-.09-8.25,6.35-9.48,6.44-1.22,7.93,5.3,7.98,6.35.05,1.04,0,3.54,0,3.54h-.01Z" fill="#fff"/>
    </g>
  </g>
  <path d="M70.86,59.05c-.52-1.11,1.5-2.45,2.24-2.99.75-.54-.27-3.67-1.56-3.88-1.29-.2-4.56.54-5.51,1.29-.95.75-.68,3.13,0,4.83.28.71.58,1.16.83,1.71.05.11,1.44.2,2.41-.07s1.7-.63,1.58-.89h0Z" fill="#fff"/>
</svg>