<?xml version="1.0" encoding="UTF-8"?>
<svg id="_レイヤー_1" xmlns="http://www.w3.org/2000/svg" width="180" height="180" version="1.1" viewBox="0 0 180 180">
  <!-- Generator: Adobe Illustrator 29.6.1, SVG Export Plug-In . SVG Version: 2.1.1 Build 9)  -->
  <g>
    <path d="M88.27,84.63s-2.63,5.98-7.12,8.48c0,0-5.85-.36-9.48-1.63s-8.43-3.45-11.11-5.17c-2.67-1.72-6.12-2.67-6.94-2.67s-1.25-1.84-.52-2.54c.73-.7.29-.75.82-1.18,0,0,.43.05.36-.63s-.14-1.2.57-1.38c0,0,.36.91.82,1.41s1.72.07,2.31.61,1.01.63,2.5,3.08c0,0,2.96,1.33,4.35,1.5s13.23.41,13.23.41l5.98-5.24,4.22,4.96h0Z" fill="#286300"/>
    <polygon points="54.44 89.49 54.57 91.91 55.74 91.85 55.62 89.63 54.44 89.49" fill="#286300"/>
    <path d="M54.71,80.61s-1.87-27.88-2.32-32.21-4.13-39.5-4.13-39.5c0,0,5.1-1.35,6.22-2.43s2.92-1.66,1.92-3.89c-.39-.87-2.38-.57-4.1-.39-1.71.18-4.74,2.18-5.23,3.15s.31,5.16.31,5.16l.4,2.1,3.8,36.1,2.02,32.03,1.12-.12h-.01Z" fill="#286300"/>
    <path d="M84.99,70.17s-2.61,4.26-4.15,10.84l3.85,1.97s1.95-13.55.3-12.81Z" fill="#fff"/>
    <path d="M84.93,107.25s-2.15,6.22-3.1,11.93-2.58,15.1-2.58,16.59-2.04,7.48-2.72,9.66c0,0-3.04,10.38-3.49,18.36s-.45,9.61-.45,9.61l6.8,1.9s1.9-5.53,2.9-12.78,1.36-9.43,2.54-12.78c1.18-3.35,3.54-6.62,4.26-10.52s2.18-6.08,2.63-7.44,3.17-8.7,4.44-8.61c1.27.09,3.72,4.08,4.81,7.34s-.54,6.26,1.18,11.02c1.72,4.76,3.26,7.57,3.99,10.29s4.35,17.77,4.35,17.77l1.99,5.35,6.53-2.45s-.54-5.26-1.81-13.15-4.81-16.68-4.81-19.22-1-12.69-.82-14.78-2.09-8.34-2.27-11.15c-.18-2.81-.18-6.26-1.09-9.07,0,0-15.12,7.66-23.28,2.13h0Z" fill="#286300"/>
    <path d="M73.71,173.4s-.91,1.9-1.99,2.99c-1.09,1.09-1.81,1.77-1.86,2.67-.05.91.09.91.73.91s3.58-.05,4.76,0,1.86-.18,2.77,0c.91.18,1.36-.73,1.5-1.45.14-.73.18-2.49-.5-3.13-.68-.63-1.31-1.9-5.4-1.99h-.01Z" fill="#286300"/>
    <path d="M118.14,172.72s.91,1.9,1.99,2.99c1.09,1.09,1.81,1.77,1.86,2.67.05.91-.09.91-.73.91s-3.58-.05-4.76,0-1.86-.18-2.77,0-1.36-.73-1.5-1.45c-.14-.73-.18-2.49.5-3.13.68-.63,1.31-1.9,5.39-1.99h.02Z" fill="#286300"/>
    <path d="M108.24,105.25s-1.26-3.21-2.09-7.95c-.84-4.74.7-13.95-.7-17.64-1.39-3.7-5.51-11.37-8.3-12.55-2.79-1.19-11.02-1.53-13.32,5.37s-.15,15.27.15,21.54c.33,6.8-.15,13.46,2.64,15.48s15.41.98,21.62-4.25Z" fill="#fff"/>
    <path d="M92.4,90.01s-8.77-1.16-12.99-.95c-4.22.2-19.93.46-19.93.46,0,0-2.38.99-4.6.26-2.22-.73-1.72-2.9-1.88-3.38-.16-.48-.5-1.75,0-2.45s1.86-1.07,2.77-1.2c.91-.14,2.09.86,2.47,1.2,0,0,1.63,1.68,4.71,1.31,3.08-.36,18.5-3.13,24.48-3.35l4.96,8.09h0Z" fill="#286300"/>
    <path d="M92.76,79.65s3.17-1.63,6.8,0c3.63,1.63,5.8,5.8,3.26,9.16-2.54,3.35-8.25,1.45-10.61,1.9,0,0-2.54-1.36-4.9-6.35,0,0-.54-1.5-.59-2.63l6.03-2.09h0Z" fill="#fff"/>
    <path d="M89.12,69.04s-1.53,1.27,0,5.49c0,0-.06.31.54.26.6-.04,2.71-.23,3.65-.67.94-.44.19-3.27.19-3.27,0,0-4.38-1.81-4.38-1.81Z" fill="#286300"/>
    <path d="M99.63,67.7s.61.24.99,3.64c0,0-1.33,2.24-4.86,4.05-3.54,1.8-5.37,1.53-5.37,1.53,0,0-.07-2.11-1.09-2.11,0,0,4.05.11,6.5-2.04s3.6-4.28,3.84-5.07h0Z" fill="#fff"/>
    <path d="M87.77,68.9s-1.12,2.12.08,6.26c0,0,1.09-.75,1.44-.35.35.4-.17-.28-.17-.28,0,0-1.28-3.1-.2-4.85l-1.15-.77h0Z" fill="#fff"/>
    <g>
      <path d="M88.95,69.92s1.7,4.76,5.51,4.15,4.01-7.28,4.01-7.28l-9.52,3.13Z" fill="#286300"/>
      <path d="M99.77,59.94c.39-2.01-.18-4.12-1.62-5.59-1.03-1.05-2.61-1.91-4.99-1.84-5.95.17-6.87,5.24-6.87,5.44s-.27,4.22.2,5.92c.48,1.7,1.02,4.62,1.43,5.44s.82,1.19,2.11.78,3.91-.99,6.26-.58c2.35.41,3.3-.44,3.37-2.01.07-1.56-.54-4.08-.54-4.39,0-.19.38-1.78.65-3.18h0Z" fill="#fff"/>
    </g>
  </g>
  <path d="M61.71,89.48c-1.37.02-2.23.04-2.23.04,0,0-2.38.99-4.6.26-2.22-.73-1.72-2.9-1.88-3.38-.16-.48-.5-1.75,0-2.45s1.86-1.07,2.77-1.2c.91-.14,2.09.86,2.47,1.2,0,0,1.15,1.18,3.35,1.35,0,0,.43,1.15.48,2.11s-.35,2.07-.35,2.07h-.01Z" fill="#fff"/>
</svg>