<?xml version="1.0" encoding="UTF-8"?>
<svg id="_レイヤー_1" data-name="レイヤー_1" xmlns="http://www.w3.org/2000/svg" width="800" height="466.7" xmlns:xlink="http://www.w3.org/1999/xlink" version="1.1" viewBox="0 0 800 466.7">
  <!-- Generator: Adobe Illustrator 29.6.1, SVG Export Plug-In . SVG Version: 2.1.1 Build 9)  -->
  <defs>
    <filter id="drop-shadow-1" x="37.7" y="26.3" width="715.2" height="417.4" filterUnits="userSpaceOnUse">
      <feOffset dx="2.6" dy="6.5"/>
      <feGaussianBlur result="blur" stdDeviation="2.6"/>
      <feFlood flood-color="#000" flood-opacity=".5"/>
      <feComposite in2="blur" operator="in"/>
      <feComposite in="SourceGraphic"/>
    </filter>
    <linearGradient id="_名称未設定グラデーション_94" data-name="名称未設定グラデーション 94" x1="143" y1="22.9" x2="143" y2="425.2" gradientUnits="userSpaceOnUse">
      <stop offset="0" stop-color="#286300"/>
      <stop offset=".3" stop-color="#355e0f"/>
      <stop offset=".5" stop-color="#415a1d"/>
      <stop offset=".6" stop-color="#476916"/>
      <stop offset=".9" stop-color="#599105"/>
      <stop offset="1" stop-color="#609f00"/>
    </linearGradient>
    <linearGradient id="_名称未設定グラデーション_941" data-name="名称未設定グラデーション 94" x1="274.8" y1="22.9" x2="274.8" y2="425.2" xlink:href="#_名称未設定グラデーション_94"/>
    <linearGradient id="_名称未設定グラデーション_942" data-name="名称未設定グラデーション 94" x1="366.2" y1="22.9" x2="366.2" y2="425.2" xlink:href="#_名称未設定グラデーション_94"/>
    <linearGradient id="_名称未設定グラデーション_943" data-name="名称未設定グラデーション 94" x1="454.4" y1="22.9" x2="454.4" y2="425.2" xlink:href="#_名称未設定グラデーション_94"/>
    <linearGradient id="_名称未設定グラデーション_944" data-name="名称未設定グラデーション 94" x1="125.9" y1="22.9" x2="125.9" y2="425.2" xlink:href="#_名称未設定グラデーション_94"/>
    <linearGradient id="_名称未設定グラデーション_945" data-name="名称未設定グラデーション 94" x1="133.6" y1="22.9" x2="133.6" y2="425.2" xlink:href="#_名称未設定グラデーション_94"/>
    <linearGradient id="_名称未設定グラデーション_946" data-name="名称未設定グラデーション 94" x1="166.5" y1="22.9" x2="166.5" y2="425.2" xlink:href="#_名称未設定グラデーション_94"/>
    <linearGradient id="_名称未設定グラデーション_947" data-name="名称未設定グラデーション 94" x1="313.6" y1="22.9" x2="313.6" y2="425.2" xlink:href="#_名称未設定グラデーション_94"/>
    <linearGradient id="_名称未設定グラデーション_948" data-name="名称未設定グラデーション 94" x1="113.8" y1="22.9" x2="113.8" y2="425.2" xlink:href="#_名称未設定グラデーション_94"/>
    <linearGradient id="_名称未設定グラデーション_949" data-name="名称未設定グラデーション 94" x1="362.8" y1="22.9" x2="362.8" y2="425.2" xlink:href="#_名称未設定グラデーション_94"/>
    <linearGradient id="_名称未設定グラデーション_9410" data-name="名称未設定グラデーション 94" x1="349" y1="22.9" x2="349" y2="425.2" xlink:href="#_名称未設定グラデーション_94"/>
    <linearGradient id="_名称未設定グラデーション_9411" data-name="名称未設定グラデーション 94" x1="444" y1="22.9" x2="444" y2="425.2" xlink:href="#_名称未設定グラデーション_94"/>
    <linearGradient id="_名称未設定グラデーション_9412" data-name="名称未設定グラデーション 94" x1="656.7" y1="22.9" x2="656.7" y2="425.2" xlink:href="#_名称未設定グラデーション_94"/>
    <linearGradient id="_名称未設定グラデーション_9413" data-name="名称未設定グラデーション 94" x1="698.2" y1="22.9" x2="698.2" y2="425.2" xlink:href="#_名称未設定グラデーション_94"/>
    <linearGradient id="_名称未設定グラデーション_9414" data-name="名称未設定グラデーション 94" x1="556.6" y1="22.9" x2="556.6" y2="425.2" xlink:href="#_名称未設定グラデーション_94"/>
    <linearGradient id="_名称未設定グラデーション_9415" data-name="名称未設定グラデーション 94" x1="551.1" y1="22.9" x2="551.1" y2="425.2" xlink:href="#_名称未設定グラデーション_94"/>
    <linearGradient id="linear-gradient" x1="568.1" y1="199.2" x2="627.4" y2="199.2" gradientUnits="userSpaceOnUse">
      <stop offset="0" stop-color="#873a14"/>
      <stop offset=".2" stop-color="#c08537"/>
      <stop offset=".3" stop-color="#c58d21"/>
      <stop offset=".3" stop-color="#d1a44d"/>
      <stop offset=".3" stop-color="#e1c488"/>
      <stop offset=".3" stop-color="#eeddb7"/>
      <stop offset=".4" stop-color="#f7efd8"/>
      <stop offset=".4" stop-color="#fcfbed"/>
      <stop offset=".4" stop-color="#fffff5"/>
      <stop offset=".4" stop-color="#fefce8"/>
      <stop offset=".4" stop-color="#fdf5c6"/>
      <stop offset=".4" stop-color="#fcea8f"/>
      <stop offset=".4" stop-color="#fadb44"/>
      <stop offset=".4" stop-color="#fada3f"/>
      <stop offset=".6" stop-color="#df9d25"/>
      <stop offset=".8" stop-color="#de9526"/>
      <stop offset="1" stop-color="#873a14"/>
    </linearGradient>
    <linearGradient id="linear-gradient1" x1="717.9" y1="199.2" x2="788.4" y2="199.2" gradientUnits="userSpaceOnUse">
      <stop offset="0" stop-color="#873a14"/>
      <stop offset=".2" stop-color="#de9526"/>
      <stop offset=".4" stop-color="#df9d25"/>
      <stop offset=".6" stop-color="#fada3f"/>
      <stop offset=".6" stop-color="#fadb44"/>
      <stop offset=".6" stop-color="#fcea8f"/>
      <stop offset=".6" stop-color="#fdf5c6"/>
      <stop offset=".6" stop-color="#fefce8"/>
      <stop offset=".6" stop-color="#fffff5"/>
      <stop offset=".6" stop-color="#fcfbed"/>
      <stop offset=".6" stop-color="#f7efd8"/>
      <stop offset=".7" stop-color="#eeddb7"/>
      <stop offset=".7" stop-color="#e1c488"/>
      <stop offset=".7" stop-color="#d1a44d"/>
      <stop offset=".7" stop-color="#c58d21"/>
      <stop offset=".8" stop-color="#c08537"/>
      <stop offset="1" stop-color="#873a14"/>
    </linearGradient>
    <filter id="drop-shadow-2" x="599.8" y="73.8" width="158.9" height="174.2" filterUnits="userSpaceOnUse">
      <feOffset dx="2.6" dy="6.5"/>
      <feGaussianBlur result="blur1" stdDeviation="2.6"/>
      <feFlood flood-color="#000" flood-opacity=".5"/>
      <feComposite in2="blur1" operator="in"/>
      <feComposite in="SourceGraphic"/>
    </filter>
    <linearGradient id="_名称未設定グラデーション_9416" data-name="名称未設定グラデーション 94" x1="745.4" y1="170" x2="587.7" y2="170" xlink:href="#_名称未設定グラデーション_94"/>
    <linearGradient id="_名称未設定グラデーション_9417" data-name="名称未設定グラデーション 94" x1="654.8" y1="122.9" x2="608.2" y2="122.9" xlink:href="#_名称未設定グラデーション_94"/>
    <linearGradient id="_名称未設定グラデーション_9418" data-name="名称未設定グラデーション 94" x1="1187.5" y1="94" x2="647.3" y2="94" xlink:href="#_名称未設定グラデーション_94"/>
    <linearGradient id="_名称未設定グラデーション_9419" data-name="名称未設定グラデーション 94" x1="691.9" y1="84.9" x2="691.9" y2="223.9" xlink:href="#_名称未設定グラデーション_94"/>
    <linearGradient id="_名称未設定グラデーション_9420" data-name="名称未設定グラデーション 94" x1="638.8" y1="84.9" x2="638.8" y2="223.9" xlink:href="#_名称未設定グラデーション_94"/>
    <linearGradient id="_名称未設定グラデーション_9421" data-name="名称未設定グラデーション 94" x1="641.5" y1="84.9" x2="641.5" y2="223.9" xlink:href="#_名称未設定グラデーション_94"/>
    <linearGradient id="_名称未設定グラデーション_9422" data-name="名称未設定グラデーション 94" x1="644.9" y1="84.9" x2="644.9" y2="223.9" xlink:href="#_名称未設定グラデーション_94"/>
    <linearGradient id="_名称未設定グラデーション_9423" data-name="名称未設定グラデーション 94" x1="639.6" y1="84.9" x2="639.6" y2="223.9" xlink:href="#_名称未設定グラデーション_94"/>
    <linearGradient id="_名称未設定グラデーション_9424" data-name="名称未設定グラデーション 94" x1="672.6" y1="84.9" x2="672.6" y2="223.9" xlink:href="#_名称未設定グラデーション_94"/>
    <linearGradient id="_名称未設定グラデーション_9425" data-name="名称未設定グラデーション 94" x1="685.4" y1="84.9" x2="685.4" y2="223.9" xlink:href="#_名称未設定グラデーション_94"/>
    <linearGradient id="_名称未設定グラデーション_9426" data-name="名称未設定グラデーション 94" x1="660.8" y1="84.9" x2="660.8" y2="223.9" xlink:href="#_名称未設定グラデーション_94"/>
    <linearGradient id="_名称未設定グラデーション_9427" data-name="名称未設定グラデーション 94" x1="686.2" y1="84.9" x2="686.2" y2="223.9" xlink:href="#_名称未設定グラデーション_94"/>
    <linearGradient id="_名称未設定グラデーション_9428" data-name="名称未設定グラデーション 94" x1="627.2" y1="84.9" x2="627.2" y2="223.9" xlink:href="#_名称未設定グラデーション_94"/>
    <linearGradient id="_名称未設定グラデーション_9429" data-name="名称未設定グラデーション 94" x1="692.1" y1="84.9" x2="692.1" y2="223.9" xlink:href="#_名称未設定グラデーション_94"/>
    <linearGradient id="_名称未設定グラデーション_9430" data-name="名称未設定グラデーション 94" x1="719.2" y1="84.9" x2="719.2" y2="223.9" xlink:href="#_名称未設定グラデーション_94"/>
    <linearGradient id="linear-gradient2" x1="621.1" y1="188.7" x2="732.1" y2="188.7" xlink:href="#linear-gradient"/>
  </defs>
  <g filter="url(#drop-shadow-1)">
    <path d="M81.7,212.4c26.3-1.8,35.2-19.9,67.7-23.1,32.6-3.2,43.8,14.1,54,16.3,10.1,2.3,26.3-.6,30.8-9.4,5.8-11.1-1.2-20.8-18.5-29-10.5-5-12.8-9.6-13.2-16.1-.2-3.6.5-6.1-.3-6.6-.8-.5-1.7,3.3-2.3,6.1-1.4,7-7.2,10.5-22.7,13-10.6,1.7-20.7,4.1-31.2,6.3-1.6-11.3-2.2-24.4-1.6-37.7,5.7,3.2,14.4,7.1,23.2,7.6,15,.8,28.2-8.6,30.4-21.1s-3-18.8-7.9-20.7c-3.9-1.5-12.6-2.9-18-1.7-6.4,1.5-13.9,5-14.1,6.5-.2,1.6.9-1.1,4.9-.8,1.8.1,4,1,4.4,2,2.4,6-11.2,9.4-21.3,8.8.2-1.3.4-2.5.6-3.8.7-4.4,4.6-6.2,6-10.1,5-13.4-11.5-24-24.2-28.2-14.2-4.7-27.9-5.4-34.8-3.5-4.2,1.2-10.1,2.4-10.3,3.5-.2,1.1,2.4,4.5,5.4,8.2,5.6,6.9,14.6,13.5,22.6,18.4,16.3,10,14.5,33.2,12.6,47.7-1.6,12.3-3.2,22.6-1.8,29.5-2.1.3-4.2.7-6.3.9-12.8,1.8-25.9,2.1-32.1.4-2.8-.7-6.3-2.9-5.5-7,1.1-5.4,4.5-6.7,3.7-7.7-.8-1-10.7,3.9-16.3,7.7-9.3,6.3-16,11.4-16,22.4s9.5,22.6,31.9,21Z" fill="#fff" stroke="#fff" stroke-linecap="round" stroke-linejoin="round" stroke-width="13.7"/>
    <path d="M247.4,161.1c9.3-5.5,18.3-15.3,31.8-18.4,1,24-3.8,48.5-12.4,66.7-10.3,21.9-23.8,28.6-39.3,26.2-8.2-1.2-14.5-8.4-12.7-15.9,1.3-5.7,5.7-7.6,4.7-8.5-1-.9-17.7,6.9-17.7,22.6,0,15.7,13.6,28.5,34.5,31.3,23.4,3.2,44.9-5.1,55.4-18.2,10.5-13.1,15.7-33.4,15.5-65.4,0-11.1-2.6-24.7-6.6-38.5,11.9,2.5,17.1,7.2,29.3,6.6,15.4-.8,19.7-8.7,17.4-15.2-2.5-7.1-7.1-11.7-20.3-14.1-9.3-1.7-15.3-5.4-15.7-4.3-.2.6,1.4,1.2,2.3,2.4.6.8,0,1.9-2.3,2.4-5.6,1.1-11,2.2-17.1,3.6-1.5-3.9-3.2-7.8-4.9-11.5,8.7-2.5,15.9-3.1,21.4-3.2,12.2-.2,18.3,2.9,23.1-1.9,7.5-7.6-3.7-19.4-15.5-18.9-11.8.5-18.3,2.8-35.1,11.5,0,0-.2,0-.3.1-3.8-6.5-7.7-12.2-11.7-16.4,10.3-4.5,19.6-8.2,23.3-10.5,14.9-8.9,15.7-23.7,8.3-32.6-7.4-8.8-26.5-7.4-34.7-3.7-8.4,3.8-13.1,9.3-12,9.8,1.3.7,5.6-5.6,15.7-5.4,5.9.1-1,8.2-5.9,16-4.9,7.9-12.6,17.3-22.9,29.1-7.8,8.9-27.4,30.8-12,42.4,15.6,11.8,34.7-6.9,41.6-10.2,1.1-.5,2.3-1,3.4-1.5.8,3.5,1.5,7.2,2,11-20.5,5.9-40.7,13.6-47.2,15.3-6.5,1.7-11.3,1.2-10.1-2.5,1.4-4.1,8.2-6.2,7.6-7-.8-.9-16,6.2-13.7,17.7,2.1,10.8,21.3,15.6,32.8,8.9ZM248.5,111.3c-11.7,1.6-16.6-.5-13.7-5.1,4-6.3,16.6-13.1,29.4-18.9,2.6,4.1,5.5,10.4,8.1,18-10,3.9-18.1,5.3-23.8,6.1Z" fill="#fff" stroke="#fff" stroke-linecap="round" stroke-linejoin="round" stroke-width="13.7"/>
    <path d="M333.6,180.9c-2.3,3-3.1,6.4-1.1,11.3,2.4,5.9,13.4,8.9,26,19,9.7,7.8,14.3,15.5,21.7,21,5.1,3.7,9.6,4.1,13.2,2.6,4-1.8,6.7-6.1,7.4-10.9,1-7.1-2.2-9.4-5.1-16.3-2.9-6.9-1.3-15.8-2.3-16.1-.8-.2-2.3,7.2-3,10.9-.3,1.7-2.1,4-5.1,2.5-3.7-1.9-8-3.9-13.1-5.8-12.5-4.7-22.9-8.7-22.9-15.3s16.4-19.4,29.7-29.2c12.9-9.4,16.4-19.2,13.6-26.9-4.2-11.3-15.6-12.2-24.4-10.4-8.8,1.8-12.6,4.6-12.3,5.4.3,1.1,2.4.9,4,.7,3.6-.5,6,1,7.5,3.3,3.1,4.6,1.9,16.5-10.1,32.1-7.8,10.1-19.2,16.7-23.6,22.3Z" fill="#fff" stroke="#fff" stroke-linecap="round" stroke-linejoin="round" stroke-width="13.7"/>
    <path d="M434.6,176.9c2.2-8.4,17.7-31.2,24.5-38.5,6.9-7.3,15.7-11.3,19.4-8.8,3.7,2.5,2,11.9-6.2,17.6-8.2,5.8-22.6,10.7-22.2,15,.5,4.3,8.5,2.4,13.4,2.5,6.1.1,8,8.1,6.5,15.7-4-1-7.9-1.7-10.9-2-11.8-1.4-18.3,1.2-21.5,5-4.1,4.9-3.9,10.8.6,15.7,7.5,8.1,21.1,9.6,33.5,5.5,2.7-.9,5-2.6,6.9-4.8,2.3,2,4.3,3.8,6,4.7,7.9,3.9,15-4.2,11.5-10.5-4.8-8.7-3.9-13-4.8-13-.9,0-1.3,3.6-1.5,5.3,0,.8-.9,1-2.1.4-.9-.5-1.9-1-2.9-1.4.2-1.1.3-2.2.3-3.2.3-8.7-2-16.1-7.3-20.7-3.9-3.4-8.1-4.5-9.7-5-.6-.2-.3-.6,0-.7,3.3-1.7,20.9-10.4,29.8-19.4,10.4-10.5,2.9-21.8-7.9-22.2-9.8-.3-22.8,8.5-32.5,20.8-9.7,12.3-19.9,25.9-22.8,26.7-1.5.4-1.9-2.3.3-9.5,1.6-5.2,4.2-12,7.1-19.1,1.9-.6,3.7-1.3,5.5-2.1,14.7-6.7,17.7-29.1,16.1-29.1-1.6,0-.9,4.1-6.7,9.9-2.2,2.2-5,4-8.2,5.4,2.3-5.4,4.3-10.1,5.5-13.4,3.8-10.2-2.1-12-9.3-12.3-4.3-.2-8.2.6-9.6,2.3-.8,1-1.2,1.8-.4,2,.7.1,1.6-.9,3.6-.8,4.6,0,2.7,10.5-2.1,21.8-.4,1-.9,2.1-1.5,3.2-1.5,0-3,0-4.6-.2-10.4-1.1-9.7-6.2-12.1-5.5-1.5.5-7.1,5.8-5.8,10.1,2.1,6.5,7.4,9.8,14.2,10.6-5.6,9.3-12,19-16.4,24.9-7.5,10.2-5.7,19.6,2.3,27.4,8.2,7.9,19.3-1.3,21.7-10.1ZM447.7,196c-5.5-1.7-7.2-5.4-6.2-7.6,1.8-4,6.1-4.8,12-3.1,5.3,1.5,9.1,3.3,12.3,5.2-5,6.3-12.5,7.3-18,5.6Z" fill="#fff" stroke="#fff" stroke-linecap="round" stroke-linejoin="round" stroke-width="13.7"/>
    <path d="M512.5,199.1c6.8.2,9.6-8.7,20.6-17.2,10.9-8.5,28.3-9.2,34.7.8,3.7,5.7,3.4,12,.7,17.3-1-1.3-1.9-2.3-2.8-3-7.1-5.5-18.1-6.6-27.3-3.8-8.9,2.7-14.4,11.3-12.5,21.2,2.3,12,14.9,16.1,33.3,15.2,18.4-.9,39.2-17.3,38.3-34.2-.8-16.9-12.1-26.1-32.7-28.1-15.9-1.5-24.3,4-28.6,6.6-4.4,2.5-5.6,3.4-6.2,3.3-.7-.1-1.5-.2-1.2-1.7.4-2,4.8-7.9,13.1-13.9,8.3-6,14.4-8,23-10.5,8.4-2.4,12.6-3.8,15.7-7.6,9.1-11.3-7.5-19.8-18.9-18.6-6.4.7-13.7,6.1-17.6,9.2-5.7,4.5-13.5,4.1-17.5,2.2-4-1.9-5.4-4.2-4-7.1.5-1,1.6-1.9,1-2.5s-12.1,5-12.6,13.7c-.4,7.1,3.4,14.1,12.4,14.9,10.2.9,15.6-6.3,20.3-10.1,5.2-4.2,10.2-6.9,10.9-5.3,1,2.2-19.4,21-34.9,31.4-6.7,4.5-11,4.3-12.9,8.3-3.2,6.7-3.3,19.4,5.8,19.7ZM539,213.4c-5.2-2.6-5.7-6.9-3.4-9.4,2.3-2.5,7.5-2.6,12.2.3,2.2,1.4,3.8,4.4,5,7.9-5.3,2-10.7,2.8-13.8,1.2Z" fill="#fff" stroke="#fff" stroke-linecap="round" stroke-linejoin="round" stroke-width="13.7"/>
    <path d="M180.1,245.3c-2.8-5-9.5-8.2-15.5-9.6-6-1.3-12.9,7.3-19.8,11.8-4.6,3-12.8,6.4-20.2,8.6,2.5-10.6,1.5-21.4-6.8-24.6-11.4-4.4-20.9.6-23.4,3.7-.2.3-.2.9.3.9,1.2,0,3.5,0,4.7.2,1.7.3,5.4,4.8,3.2,13.8-2.2,9-14.5,27.7-19.3,26.8-5.3-1-3.6-4.4-2.4-6,.4-.5-.6-.5-1.3-.2-9.4,4-11.9,15.1-8.1,19.5,14.7,17.6,39.8-6.7,47.2-19.4.4-.7.8-1.5,1.2-2.2,5,1.2,11.6,2.3,18.9,2.3,16.5,0,33.5-6.9,38.7-10.9,5.2-4,5.2-9.7,2.4-14.7Z" fill="#fff" stroke="#fff" stroke-linecap="round" stroke-linejoin="round" stroke-width="13.7"/>
    <path d="M118,280.1c-6.7,4.3-10.1,6.8-11.6,10.6-1.6,4.1,3,11.3,13.3,9.1,8.8-1.9,12.5-9,22.4-10.3,9.9-1.3,16-1.5,18.1-5.9,3.5-7.5-8.3-11.8-14-10.9-2.8.5-3,2.8-7.2,5-4.1,2.2-12.3,4.9-16.1,5.5-5.9.9-5.6-1-4.6-2.5.7-1.1.1-1-.4-.6Z" fill="#fff" stroke="#fff" stroke-linecap="round" stroke-linejoin="round" stroke-width="13.7"/>
    <path d="M240.7,311.8c-12.1-5.7-27.4-7.9-32.6-7.4-1.1.1-1.8.4-1.8.7,0,.3,1.2.7,2.3,1,3.8.9,10.4,1.4,23.4,7.6,13,6.2,19.4,19.9,16.7,29.1-2.7,9.2-16.4,18.5-43.2,14-26.8-4.5-39.7-19.5-27.3-30.3,5.1-4.4,15.3-10.9,16.5-18.1,1.2-7.2-6.5-15-12.3-18.3-10.6-6-27.1-1.4-33.5,1.9-6.4,3.4-20.8,13.1-31.4,16.9s-27.5,10-31.5,6.8c-2.8-2.2,2.2-5.9,6.3-9,1.8-1.4,1.9-1.8-.1-.9-4.6,1.9-12.9,5.3-17.5,6.1-10,1.9-15.5,9.1-13.6,17.2,1.4,6.2,7.1,11.9,15.3,13.3,23.2,4,31.6-10.7,42.5-19.9,11.6-9.8,29.2-19.9,37.1-13.4s4.9,13.1.7,25.8c-5.4,16.5-.4,37.1,19.8,49.7,13.4,8.4,49.7,14.2,72.3,4.9,14.7-6,25.4-21.9,22.7-42.2-2.8-20.3-25.3-32.9-30.9-35.6Z" fill="#fff" stroke="#fff" stroke-linecap="round" stroke-linejoin="round" stroke-width="13.7"/>
    <path d="M326.8,322.2c-3.6,0-6.5.2-9.2.7,4.6-8.5,7.1-9.3,8.6-15.6.9-3.9-.5-7.2-6.8-8.8-6.2-1.6-12.7,1.9-15.4,3.9-2.7,2-3.5,2.9-2.9,3.6.6.8,4.8-1.7,6.7,1,1.3,1.9-.5,10.4-3.7,19.9-7.2,2.3-9.7,1.6-11.6-.3-1.4-1.4-1.4-3.3-1.3-4.4,0-.6-.6-.9-1.2-.8-1.5.5-4,1.7-5.7,5-2.9,5.5,1.2,11.5,7,11.8,4.1.3,6.9-1,9.6-2.9-1.2,2.8-2.4,5.6-3.7,8.1-6.7,13.1-12.5,19.4-16.3,25.5-3.8,6.1-3,15.7,3.7,18.5,6.7,2.8,11.9-1.9,13.2-4.5.9-1.8,1.8-7.5,4.5-17.7.6,1.8,1.9,4.1,2.2,7.2.5,5.5,2.9,8.2,7.6,11,11.1,6.6,23.2.4,29.3-10.2,6.1-10.6,8.5-30.1,6.2-37.9-3-10.3-12.3-13.1-20.9-13.2ZM317.1,364.9c-5.4,6.2-13.7.3-14-1.9,0,0,0-.1,0-.2,1.2-4.2,2.6-9.1,4.5-14.8,2.6-8,4.9-13.9,6.9-18.4,4.2-.5,8.3,0,10,1.8,5.9,6.3-1.8,27.4-7.2,33.5Z" fill="#fff" stroke="#fff" stroke-linecap="round" stroke-linejoin="round" stroke-width="13.7"/>
    <path d="M142,350.9c-.2-.1-.4-.3-.6-.4,4.7-15.2,6.7-21.6,1.2-26.9-4.5-4.4-10.9-3.7-14.5-1.9-1.7.8-3,1.9-3.8,2.9-.9,1-.5,1.6.7,1.4,1.6-.2,3.7,0,4.6,1.6,1.8,3.3.5,11.1-1.7,16-8.9-2.9-18.6-3-27.6.3-20.9,7.6-29.5,20-29.8,30.1-.3,10.1,5.6,19,17.4,23.2,13.8,3.1,28.1-5.8,38.5-17.7,3.6,7.6,7.2,13.7,18,14,7,.2,11.5-6.2,12.8-14,1.3-7.8-2.7-19-15-28.5ZM96.6,370.6c-12.6,2.8-12.9-4.7-12.3-8.7.6-4,3.6-8.7,14.1-9.6,5.5-.5,11.1,3.2,15.8,8.2-5.4,4.8-11.6,8.8-17.6,10.1Z" fill="#fff" stroke="#fff" stroke-linecap="round" stroke-linejoin="round" stroke-width="13.7"/>
    <path d="M343.5,318.3c-.5.1-.8.6.2,1.1,1.7.8,6.6,2.3,12.6,7.6,6,5.3,6.9,10.3,6,18.3-.3,2.4-1.2,4-2.2,5.1s-7.2.5-7.3,1.5,5.3,1.8,9.9,5.2c4.6,3.4,2.8,6,7.5,6.7,2.9.4,16.4-5.7,11-23.9-4.8-16.3-28.3-23.9-37.7-21.6Z" fill="#fff" stroke="#fff" stroke-linecap="round" stroke-linejoin="round" stroke-width="13.7"/>
    <path d="M353.3,298.6c3.1,3.8,3.3,8.7,8.1,9.1,5.1.5,8.2-7.1,1.4-11.4-4.8-3-8.6-3.4-11.8-3.3-2.1,0-3.2.5-3.8,1.1-.5.4-.4,1.4,0,2.6,1,2.9,1.2,4.2-.4,4.4s-2.9-3-7.6-3.9c-2.8-.5-5.5,0-7.8,1.4-.4.3-.8.9,0,1,1.3.3,3,0,4.8,1.6,2.9,2.7,2.9,5.5,5,8.4,3.7,5.5,10.6,4.1,12-.5,1.4-4.5-.7-5.6-3.7-9.9-1.2-1.7-1.7-3.5-1.1-4.1s2.5.2,4.9,3.2Z" fill="#fff" stroke="#fff" stroke-linecap="round" stroke-linejoin="round" stroke-width="13.7"/>
    <path d="M480.4,298.7c22,4.7,29.4-5.9,29.7-14.5.3-8.6-7.1-17-22.9-19.7-7.2-1.2-16.2-4.3-24.1-7.8-2.8-5.1-6.6-9.1-11.5-13.3-9.1-7.8-21.9-8.1-25.6-5-3.7,3.2-.2,7.2,2.6,8,2.8.8,9.5,9.1,14.3,17.8,2.8,5,5.4,12.3,6.8,22.6-22.3,5-46.1,5.4-53,5.2-3.2-.1-5-1.1-5.7-2.4-.7-1.3-.2-2.1,1-3.6.4-.5.7-1.9-1.3-1.5-4.3.8-5.9,1.9-8.4,4.2-4.6,4.3-8.2,13.3,3.3,21.5,7.8,5.5,24.2,6.5,34.3,1.5,7.3-3.6,13.7-7.9,21.1-10.4,3.3-1.1,6.5-1.9,9.7-2.6.1,4.2,0,8.7-.2,13.7-4.8-2.5-9.3-3.6-12.7-3.5-11.6.3-24.9,10.3-26.3,31.7-1.2,18.9,15.5,38.2,30.5,35.3-.6,1.8-1.2,3.6-1.9,5.3-5.8,13.5-20.2,22.6-32.6,21.9-7.6-.4-11.3-6.9-10-13.1,1.3-6,4.9-7.9,4.7-8.5s-5,.9-9.9,8.4c-5,7.6-2.7,27.9,21.5,31.8,29.4,4.7,59.6-24.5,60.6-62,.3-13-2.6-23.2-7-30.9,1.8-10.7,2.7-21.7,2.7-31.6,3.5.2,7,.7,10.3,1.4ZM433.5,354.3c-6.6-.7-12.1-10.1-11.1-20,1-9.9,5.2-15.2,9.9-16.2,4.7-1,11.7,4.5,12.7,17.8.1,1.7.2,3.5.3,5.3-3.4,9-7.9,13.5-11.7,13.1ZM464.7,259.9c6.4,3.5,12,6.6,14.3,7.7,4.7,2.2,5.1,4.6,4.4,6.3-.5,1.2-2.9,3.7-14,7.4-.8-9.3-2.3-16-4.7-21.4Z" fill="#fff" stroke="#fff" stroke-linecap="round" stroke-linejoin="round" stroke-width="13.7"/>
    <path d="M659.7,333.8c-3.8,1.1-7.1,3.2-10,6-1.4,1.4-6.2,9.6-8.2,8.4-5.7-3.3,2.6-13.6,5.1-15.9,2.7-2.5,5.4-4,9.4-5.6,7.4-2.8,10.4-5.9,9.4-9.7-1-3.8-7-4.5-10.1-3.9-2.8.5-5.5,1.9-8.1,3.1-3.6,1.7-11.3,5.4-15.3,3.6-1.3-.6-1.6-1.6-2.4-1.7-.8-.1-1.9,1.5-1.5,2.9.5,2,2.4,4.1,5.1,5.7,2.5,1.5,5.9,2.1,8.8,2.3.3,0,.4.7,0,1-6.5,6.6-12.2,15.9-9.8,25.6,1.4,5.4,6.9,10.5,12.4,9.1,3.3-.8,7.1-6.1,6.7-12-.4-5.9,2.8-11.1,6.7-11.9s7.3,1.5,9.1,7.3c1.8,5.8,1.8,14.9-2.4,22.2-4.1,7.3-13.3,15.9-25.1,20.3-.7.3-1.6.6-1.4,1.2.2.6,1.4.9,3.3.5,13.1-3.3,24.8-8.6,33.4-16.9,8.6-8.3,13.6-18.7,9-31.1-4.6-12.4-17.6-12.2-24.1-10.3Z" fill="#fff" stroke="#fff" stroke-linecap="round" stroke-linejoin="round" stroke-width="13.7"/>
    <path d="M729.2,285.6c-9.2-11.8-23.1-7.1-29.5-2.7-3.7,2.5-6.6,5.9-8.7,9.9-1,2-3.3,12.5-5.9,11.9-7.3-1.6-1.9-15.5,0-18.8,2.1-3.6,4.4-6.2,8.2-9.3,6.9-5.6,9.1-10,6.7-13.7-2.4-3.8-9.1-2.4-12.2-.7-2.9,1.6-5.2,3.9-7.6,6.1-3.3,3.1-10.2,9.7-15.2,9.2-1.6-.2-2.2-1.2-3.1-1.1-.9.1-1.5,2.3-.6,3.7,1.2,1.9,4.1,3.6,7.5,4.3,3.2.7,7,.2,10.2-.6.4,0,.6.6.4,1-4.7,9.3-7.6,21.3-1.6,30.8,3.3,5.3,11.1,8.8,16.5,5.5,3.2-2,5.5-9,3-15.2-2.5-6.2-.9-12.9,3.1-15.2,4-2.3,8.3-.9,12.3,4.7,4,5.6,7,15.4,5.1,24.6-1.9,9.2-8.7,21.7-20,30.6-.7.5-1.5,1.2-1.1,1.8.4.6,1.8.5,3.7-.6,12.9-8,23.7-17.9,30-29.8,6.3-11.9,8.1-24.8-1.1-36.5Z" fill="#fff" stroke="#fff" stroke-linecap="round" stroke-linejoin="round" stroke-width="13.7"/>
    <path d="M612,361c-3.4.1-6.6,1.2-9.5,2.9-1.5.8-7.1,6.7-8.6,5.3-4-3.9,5-10.7,7.6-12.1,2.8-1.5,5.3-2.2,9-2.6,6.7-.8,9.8-2.8,9.8-6.1,0-3.4-4.9-5.2-7.6-5.3-2.5-.1-4.9.4-7.3.9-3.3.7-10.4,2.1-13.5-.2-1-.7-1-1.7-1.6-1.9-.6-.3-1.9.9-1.9,2.1s1.2,3.9,3.1,5.8c1.8,1.7,4.4,2.9,6.8,3.7.3,0,.2.6-.1.8-6.7,4.1-13.4,10.7-13.4,19.1s3.6,10.1,8.4,10.1,7.1-3.6,8-8.5c.9-5,4.6-8.6,8-8.5s5.7,2.8,6,7.9-1.6,12.7-6.6,17.8c-4.9,5.2-12.9,10.3-23.6,10.3-7.4,0-15.1-1.5-23.4-6.1-.4-.2-.7-.4-1.1-.6,5-3.5,8.9-7.7,11.1-12.4,9.3-20.2-5-34.7-15.4-38.9-10.3-4.2-23.3-1.2-30.4,1.5-7.1,2.6-15,9.2-16.9,7.6s6.3-11.2,23.6-18.9c17.3-7.7,30-1.5,33.1-9.8,3-8.3-6.3-17.4-20.1-18.1-14.8-.8-10,4.8-19.9,10.5-9.8,5.7-16.6,6.3-22.9,3.3-5.3-2.5-1.7-5.2-3.4-4.9-11,1.9-12.2,18.4-.8,22.2,17.1,5.7,37.1-22.8,40.9-20.5,3.8,2.3-19.6,18.4-38.5,28.5-7.2,3.8-10.8,4.8-13.9,8.7-5.1,6.5-4.8,14.6-1.3,20,5.7,8.7,17.3-6.8,26.2-13.6,8.9-6.9,15.1-10,23.8-9.8,8.7.2,16.9,11.6,7.1,28.4-.3.4-.5.9-.8,1.3-4.1-3.7-8.1-7-12.5-9-6.7-3-15.1-2.4-20.8-.3-14.9,5.4-15.7,23.4-6.9,30.1,12.6,9.6,37.4,6.6,54.3-3.1,7.5,3.6,16.4,6.2,28.5,7,11.5.8,22.3-2,31.1-7.1,8.8-5.1,15.1-12.6,13.9-23.9-1.2-11.2-12-13.8-17.8-13.6ZM511.1,393.3c-5.8-5.4-4.1-14.1,5-15.4,8.9-1.2,16.1,3.9,21.7,8.4-9.3,9.6-21.9,11.5-26.7,7Z" fill="#fff" stroke="#fff" stroke-linecap="round" stroke-linejoin="round" stroke-width="13.7"/>
  </g>
  <g>
    <path d="M81.7,212.4c26.3-1.8,35.2-19.9,67.7-23.1,32.6-3.2,43.8,14.1,54,16.3,10.1,2.3,26.3-.6,30.8-9.4,5.8-11.1-1.2-20.8-18.5-29-10.5-5-12.8-9.6-13.2-16.1-.2-3.6.5-6.1-.3-6.6-.8-.5-1.7,3.3-2.3,6.1-1.4,7-7.2,10.5-22.7,13-10.6,1.7-20.7,4.1-31.2,6.3-1.6-11.3-2.2-24.4-1.6-37.7,5.7,3.2,14.4,7.1,23.2,7.6,15,.8,28.2-8.6,30.4-21.1s-3-18.8-7.9-20.7c-3.9-1.5-12.6-2.9-18-1.7-6.4,1.5-13.9,5-14.1,6.5-.2,1.6.9-1.1,4.9-.8,1.8.1,4,1,4.4,2,2.4,6-11.2,9.4-21.3,8.8.2-1.3.4-2.5.6-3.8.7-4.4,4.6-6.2,6-10.1,5-13.4-11.5-24-24.2-28.2-14.2-4.7-27.9-5.4-34.8-3.5-4.2,1.2-10.1,2.4-10.3,3.5-.2,1.1,2.4,4.5,5.4,8.2,5.6,6.9,14.6,13.5,22.6,18.4,16.3,10,14.5,33.2,12.6,47.7-1.6,12.3-3.2,22.6-1.8,29.5-2.1.3-4.2.7-6.3.9-12.8,1.8-25.9,2.1-32.1.4-2.8-.7-6.3-2.9-5.5-7,1.1-5.4,4.5-6.7,3.7-7.7-.8-1-10.7,3.9-16.3,7.7-9.3,6.3-16,11.4-16,22.4s9.5,22.6,31.9,21Z" fill="url(#_名称未設定グラデーション_94)"/>
    <path d="M247.4,161.1c9.3-5.5,18.3-15.3,31.8-18.4,1,24-3.8,48.5-12.4,66.7-10.3,21.9-23.8,28.6-39.3,26.2-8.2-1.2-14.5-8.4-12.7-15.9,1.3-5.7,5.7-7.6,4.7-8.5-1-.9-17.7,6.9-17.7,22.6,0,15.7,13.6,28.5,34.5,31.3,23.4,3.2,44.9-5.1,55.4-18.2,10.5-13.1,15.7-33.4,15.5-65.4,0-11.1-2.6-24.7-6.6-38.5,11.9,2.5,17.1,7.2,29.3,6.6,15.4-.8,19.7-8.7,17.4-15.2-2.5-7.1-7.1-11.7-20.3-14.1-9.3-1.7-15.3-5.4-15.7-4.3-.2.6,1.4,1.2,2.3,2.4.6.8,0,1.9-2.3,2.4-5.6,1.1-11,2.2-17.1,3.6-1.5-3.9-3.2-7.8-4.9-11.5,8.7-2.5,15.9-3.1,21.4-3.2,12.2-.2,18.3,2.9,23.1-1.9,7.5-7.6-3.7-19.4-15.5-18.9-11.8.5-18.3,2.8-35.1,11.5,0,0-.2,0-.3.1-3.8-6.5-7.7-12.2-11.7-16.4,10.3-4.5,19.6-8.2,23.3-10.5,14.9-8.9,15.7-23.7,8.3-32.6-7.4-8.8-26.5-7.4-34.7-3.7-8.4,3.8-13.1,9.3-12,9.8,1.3.7,5.6-5.6,15.7-5.4,5.9.1-1,8.2-5.9,16-4.9,7.9-12.6,17.3-22.9,29.1-7.8,8.9-27.4,30.8-12,42.4,15.6,11.8,34.7-6.9,41.6-10.2,1.1-.5,2.3-1,3.4-1.5.8,3.5,1.5,7.2,2,11-20.5,5.9-40.7,13.6-47.2,15.3-6.5,1.7-11.3,1.2-10.1-2.5,1.4-4.1,8.2-6.2,7.6-7-.8-.9-16,6.2-13.7,17.7,2.1,10.8,21.3,15.6,32.8,8.9ZM248.5,111.3c-11.7,1.6-16.6-.5-13.7-5.1,4-6.3,16.6-13.1,29.4-18.9,2.6,4.1,5.5,10.4,8.1,18-10,3.9-18.1,5.3-23.8,6.1Z" fill="url(#_名称未設定グラデーション_941)"/>
    <path d="M333.6,180.9c-2.3,3-3.1,6.4-1.1,11.3,2.4,5.9,13.4,8.9,26,19,9.7,7.8,14.3,15.5,21.7,21,5.1,3.7,9.6,4.1,13.2,2.6,4-1.8,6.7-6.1,7.4-10.9,1-7.1-2.2-9.4-5.1-16.3-2.9-6.9-1.3-15.8-2.3-16.1-.8-.2-2.3,7.2-3,10.9-.3,1.7-2.1,4-5.1,2.5-3.7-1.9-8-3.9-13.1-5.8-12.5-4.7-22.9-8.7-22.9-15.3s16.4-19.4,29.7-29.2c12.9-9.4,16.4-19.2,13.6-26.9-4.2-11.3-15.6-12.2-24.4-10.4-8.8,1.8-12.6,4.6-12.3,5.4.3,1.1,2.4.9,4,.7,3.6-.5,6,1,7.5,3.3,3.1,4.6,1.9,16.5-10.1,32.1-7.8,10.1-19.2,16.7-23.6,22.3Z" fill="url(#_名称未設定グラデーション_942)"/>
    <path d="M434.6,176.9c2.2-8.4,17.7-31.2,24.5-38.5,6.9-7.3,15.7-11.3,19.4-8.8,3.7,2.5,2,11.9-6.2,17.6-8.2,5.8-22.6,10.7-22.2,15,.5,4.3,8.5,2.4,13.4,2.5,6.1.1,8,8.1,6.5,15.7-4-1-7.9-1.7-10.9-2-11.8-1.4-18.3,1.2-21.5,5-4.1,4.9-3.9,10.8.6,15.7,7.5,8.1,21.1,9.6,33.5,5.5,2.7-.9,5-2.6,6.9-4.8,2.3,2,4.3,3.8,6,4.7,7.9,3.9,15-4.2,11.5-10.5-4.8-8.7-3.9-13-4.8-13-.9,0-1.3,3.6-1.5,5.3,0,.8-.9,1-2.1.4-.9-.5-1.9-1-2.9-1.4.2-1.1.3-2.2.3-3.2.3-8.7-2-16.1-7.3-20.7-3.9-3.4-8.1-4.5-9.7-5-.6-.2-.3-.6,0-.7,3.3-1.7,20.9-10.4,29.8-19.4,10.4-10.5,2.9-21.8-7.9-22.2-9.8-.3-22.8,8.5-32.5,20.8-9.7,12.3-19.9,25.9-22.8,26.7-1.5.4-1.9-2.3.3-9.5,1.6-5.2,4.2-12,7.1-19.1,1.9-.6,3.7-1.3,5.5-2.1,14.7-6.7,17.7-29.1,16.1-29.1-1.6,0-.9,4.1-6.7,9.9-2.2,2.2-5,4-8.2,5.4,2.3-5.4,4.3-10.1,5.5-13.4,3.8-10.2-2.1-12-9.3-12.3-4.3-.2-8.2.6-9.6,2.3-.8,1-1.2,1.8-.4,2,.7.1,1.6-.9,3.6-.8,4.6,0,2.7,10.5-2.1,21.8-.4,1-.9,2.1-1.5,3.2-1.5,0-3,0-4.6-.2-10.4-1.1-9.7-6.2-12.1-5.5-1.5.5-7.1,5.8-5.8,10.1,2.1,6.5,7.4,9.8,14.2,10.6-5.6,9.3-12,19-16.4,24.9-7.5,10.2-5.7,19.6,2.3,27.4,8.2,7.9,19.3-1.3,21.7-10.1ZM447.7,196c-5.5-1.7-7.2-5.4-6.2-7.6,1.8-4,6.1-4.8,12-3.1,5.3,1.5,9.1,3.3,12.3,5.2-5,6.3-12.5,7.3-18,5.6Z" fill="url(#_名称未設定グラデーション_943)"/>
    <path d="M180.1,245.3c-2.8-5-9.5-8.2-15.5-9.6-6-1.3-12.9,7.3-19.8,11.8-4.6,3-12.8,6.4-20.2,8.6,2.5-10.6,1.5-21.4-6.8-24.6-11.4-4.4-20.9.6-23.4,3.7-.2.3-.2.9.3.9,1.2,0,3.5,0,4.7.2,1.7.3,5.4,4.8,3.2,13.8-2.2,9-14.5,27.7-19.3,26.8-5.3-1-3.6-4.4-2.4-6,.4-.5-.6-.5-1.3-.2-9.4,4-11.9,15.1-8.1,19.5,14.7,17.6,39.8-6.7,47.2-19.4.4-.7.8-1.5,1.2-2.2,5,1.2,11.6,2.3,18.9,2.3,16.5,0,33.5-6.9,38.7-10.9,5.2-4,5.2-9.7,2.4-14.7Z" fill="url(#_名称未設定グラデーション_944)"/>
    <path d="M118,280.1c-6.7,4.3-10.1,6.8-11.6,10.6-1.6,4.1,3,11.3,13.3,9.1,8.8-1.9,12.5-9,22.4-10.3,9.9-1.3,16-1.5,18.1-5.9,3.5-7.5-8.3-11.8-14-10.9-2.8.5-3,2.8-7.2,5-4.1,2.2-12.3,4.9-16.1,5.5-5.9.9-5.6-1-4.6-2.5.7-1.1.1-1-.4-.6Z" fill="url(#_名称未設定グラデーション_945)"/>
    <path d="M240.7,311.8c-12.1-5.7-27.4-7.9-32.6-7.4-1.1.1-1.8.4-1.8.7,0,.3,1.2.7,2.3,1,3.8.9,10.4,1.4,23.4,7.6,13,6.2,19.4,19.9,16.7,29.1-2.7,9.2-16.4,18.5-43.2,14-26.8-4.5-39.7-19.5-27.3-30.3,5.1-4.4,15.3-10.9,16.5-18.1s-6.5-15-12.3-18.3c-10.6-6-27.1-1.4-33.5,1.9-6.4,3.4-20.8,13.1-31.4,16.9-10.5,3.8-27.5,10-31.5,6.8-2.8-2.2,2.2-5.9,6.3-9,1.8-1.4,1.9-1.8-.1-.9-4.6,1.9-12.9,5.3-17.5,6.1-10,1.9-15.5,9.1-13.6,17.2,1.4,6.2,7.1,11.9,15.3,13.3,23.2,4,31.6-10.7,42.5-19.9,11.6-9.8,29.2-19.9,37.1-13.4,7.8,6.5,4.9,13.1.7,25.8-5.4,16.5-.4,37.1,19.8,49.7,13.4,8.4,49.7,14.2,72.3,4.9,14.7-6,25.4-21.9,22.7-42.2-2.8-20.3-25.3-32.9-30.9-35.6Z" fill="url(#_名称未設定グラデーション_946)"/>
    <path d="M326.8,322.2c-3.6,0-6.5.2-9.2.7,4.6-8.5,7.1-9.3,8.6-15.6.9-3.9-.5-7.2-6.8-8.8-6.2-1.6-12.7,1.9-15.4,3.9-2.7,2-3.5,2.9-2.9,3.6.6.8,4.8-1.7,6.7,1,1.3,1.9-.5,10.4-3.7,19.9-7.2,2.3-9.7,1.6-11.6-.3-1.4-1.4-1.4-3.3-1.3-4.4,0-.6-.6-.9-1.2-.8-1.5.5-4,1.7-5.7,5-2.9,5.5,1.2,11.5,7,11.8,4.1.3,6.9-1,9.6-2.9-1.2,2.8-2.4,5.6-3.7,8.1-6.7,13.1-12.5,19.4-16.3,25.5s-3,15.7,3.7,18.5c6.7,2.8,11.9-1.9,13.2-4.5.9-1.8,1.8-7.5,4.5-17.7.6,1.8,1.9,4.1,2.2,7.2.5,5.5,2.9,8.2,7.6,11,11.1,6.6,23.2.4,29.3-10.2,6.1-10.6,8.5-30.1,6.2-37.9-3-10.3-12.3-13.1-20.9-13.2ZM317.1,364.9c-5.4,6.2-13.7.3-14-1.9,0,0,0-.1,0-.2,1.2-4.2,2.6-9.1,4.5-14.8,2.6-8,4.9-13.9,6.9-18.4,4.2-.5,8.3,0,10,1.8,5.9,6.3-1.8,27.4-7.2,33.5Z" fill="url(#_名称未設定グラデーション_947)"/>
    <path d="M142,350.9c-.2-.1-.4-.3-.6-.4,4.7-15.2,6.7-21.6,1.2-26.9-4.5-4.4-10.9-3.7-14.5-1.9-1.7.8-3,1.9-3.8,2.9-.9,1-.5,1.6.7,1.4,1.6-.2,3.7,0,4.6,1.6,1.8,3.3.5,11.1-1.7,16-8.9-2.9-18.6-3-27.6.3-20.9,7.6-29.5,20-29.8,30.1-.3,10.1,5.6,19,17.4,23.2,13.8,3.1,28.1-5.8,38.5-17.7,3.6,7.6,7.2,13.7,18,14,7,.2,11.5-6.2,12.8-14,1.3-7.8-2.7-19-15-28.5ZM96.6,370.6c-12.6,2.8-12.9-4.7-12.3-8.7.6-4,3.6-8.7,14.1-9.6,5.5-.5,11.1,3.2,15.8,8.2-5.4,4.8-11.6,8.8-17.6,10.1Z" fill="url(#_名称未設定グラデーション_948)"/>
    <path d="M343.5,318.3c-.5.1-.8.6.2,1.1,1.7.8,6.6,2.3,12.6,7.6,6,5.3,6.9,10.3,6,18.3-.3,2.4-1.2,4-2.2,5.1-1.1,1-7.2.5-7.3,1.5-.2,1,5.3,1.8,9.9,5.2,4.6,3.4,2.8,6,7.5,6.7,2.9.4,16.4-5.7,11-23.9-4.8-16.3-28.3-23.9-37.7-21.6Z" fill="url(#_名称未設定グラデーション_949)"/>
    <path d="M353.3,298.6c3.1,3.8,3.3,8.7,8.1,9.1,5.1.5,8.2-7.1,1.4-11.4-4.8-3-8.6-3.4-11.8-3.3-2.1,0-3.2.5-3.8,1.1-.5.4-.4,1.4,0,2.6,1,2.9,1.2,4.2-.4,4.4-1.6.2-2.9-3-7.6-3.9-2.8-.5-5.5,0-7.8,1.4-.4.3-.8.9,0,1,1.3.3,3,0,4.8,1.6,2.9,2.7,2.9,5.5,5,8.4,3.7,5.5,10.6,4.1,12-.5,1.4-4.5-.7-5.6-3.7-9.9-1.2-1.7-1.7-3.5-1.1-4.1.6-.6,2.5.2,4.9,3.2Z" fill="url(#_名称未設定グラデーション_9410)"/>
    <path d="M480.4,298.7c22,4.7,29.4-5.9,29.7-14.5.3-8.6-7.1-17-22.9-19.7-7.2-1.2-16.2-4.3-24.1-7.8-2.8-5.1-6.6-9.1-11.5-13.3-9.1-7.8-21.9-8.1-25.6-5-3.7,3.2-.2,7.2,2.6,8,2.8.8,9.5,9.1,14.3,17.8,2.8,5,5.4,12.3,6.8,22.6-22.3,5-46.1,5.4-53,5.2-3.2-.1-5-1.1-5.7-2.4-.7-1.3-.2-2.1,1-3.6.4-.5.7-1.9-1.3-1.5-4.3.8-5.9,1.9-8.4,4.2-4.6,4.3-8.2,13.3,3.3,21.5,7.8,5.5,24.2,6.5,34.3,1.5,7.3-3.6,13.7-7.9,21.1-10.4,3.3-1.1,6.5-1.9,9.7-2.6.1,4.2,0,8.7-.2,13.7-4.8-2.5-9.3-3.6-12.7-3.5-11.6.3-24.9,10.3-26.3,31.7-1.2,18.9,15.5,38.2,30.5,35.3-.6,1.8-1.2,3.6-1.9,5.3-5.8,13.5-20.2,22.6-32.6,21.9-7.6-.4-11.3-6.9-10-13.1,1.3-6,4.9-7.9,4.7-8.5-.2-.5-5,.9-9.9,8.4-5,7.6-2.7,27.9,21.5,31.8,29.4,4.7,59.6-24.5,60.6-62,.3-13-2.6-23.2-7-30.9,1.8-10.7,2.7-21.7,2.7-31.6,3.5.2,7,.7,10.3,1.4ZM433.5,354.3c-6.6-.7-12.1-10.1-11.1-20,1-9.9,5.2-15.2,9.9-16.2,4.7-1,11.7,4.5,12.7,17.8.1,1.7.2,3.5.3,5.3-3.4,9-7.9,13.5-11.7,13.1ZM464.7,259.9c6.4,3.5,12,6.6,14.3,7.7,4.7,2.2,5.1,4.6,4.4,6.3-.5,1.2-2.9,3.7-14,7.4-.8-9.3-2.3-16-4.7-21.4Z" fill="url(#_名称未設定グラデーション_9411)"/>
    <path d="M659.7,333.8c-3.8,1.1-7.1,3.2-10,6-1.4,1.4-6.2,9.6-8.2,8.4-5.7-3.3,2.6-13.6,5.1-15.9,2.7-2.5,5.4-4,9.4-5.6,7.4-2.8,10.4-5.9,9.4-9.7-1-3.8-7-4.5-10.1-3.9-2.8.5-5.5,1.9-8.1,3.1-3.6,1.7-11.3,5.4-15.3,3.6-1.3-.6-1.6-1.6-2.4-1.7-.8-.1-1.9,1.5-1.5,2.9.5,2,2.4,4.1,5.1,5.7,2.5,1.5,5.9,2.1,8.8,2.3.3,0,.4.7,0,1-6.5,6.6-12.2,15.9-9.8,25.6,1.4,5.4,6.9,10.5,12.4,9.1,3.3-.8,7.1-6.1,6.7-12-.4-5.9,2.8-11.1,6.7-11.9,4-.9,7.3,1.5,9.1,7.3,1.8,5.8,1.8,14.9-2.4,22.2-4.1,7.3-13.3,15.9-25.1,20.3-.7.3-1.6.6-1.4,1.2.2.6,1.4.9,3.3.5,13.1-3.3,24.8-8.6,33.4-16.9,8.6-8.3,13.6-18.7,9-31.1-4.6-12.4-17.6-12.2-24.1-10.3Z" fill="url(#_名称未設定グラデーション_9412)"/>
    <path d="M729.2,285.6c-9.2-11.8-23.1-7.1-29.5-2.7-3.7,2.5-6.6,5.9-8.7,9.9-1,2-3.3,12.5-5.9,11.9-7.3-1.6-1.9-15.5,0-18.8,2.1-3.6,4.4-6.2,8.2-9.3,6.9-5.6,9.1-10,6.7-13.7-2.4-3.8-9.1-2.4-12.2-.7-2.9,1.6-5.2,3.9-7.6,6.1-3.3,3.1-10.2,9.7-15.2,9.2-1.6-.2-2.2-1.2-3.1-1.1-.9.1-1.5,2.3-.6,3.7,1.2,1.9,4.1,3.6,7.5,4.3,3.2.7,7,.2,10.2-.6.4,0,.6.6.4,1-4.7,9.3-7.6,21.3-1.6,30.8,3.3,5.3,11.1,8.8,16.5,5.5,3.2-2,5.5-9,3-15.2s-.9-12.9,3.1-15.2c4-2.3,8.3-.9,12.3,4.7,4,5.6,7,15.4,5.1,24.6-1.9,9.2-8.7,21.7-20,30.6-.7.5-1.5,1.2-1.1,1.8.4.6,1.8.5,3.7-.6,12.9-8,23.7-17.9,30-29.8,6.3-11.9,8.1-24.8-1.1-36.5Z" fill="url(#_名称未設定グラデーション_9413)"/>
    <path d="M612,361c-3.4.1-6.6,1.2-9.5,2.9-1.5.8-7.1,6.7-8.6,5.3-4-3.9,5-10.7,7.6-12.1,2.8-1.5,5.3-2.2,9-2.6,6.7-.8,9.8-2.8,9.8-6.1,0-3.4-4.9-5.2-7.6-5.3-2.5-.1-4.9.4-7.3.9-3.3.7-10.4,2.1-13.5-.2-1-.7-1-1.7-1.6-1.9s-1.9.9-1.9,2.1,1.2,3.9,3.1,5.8c1.8,1.7,4.4,2.9,6.8,3.7.3,0,.2.6-.1.8-6.7,4.1-13.4,10.7-13.4,19.1,0,4.8,3.6,10.1,8.4,10.1s7.1-3.6,8-8.5c.9-5,4.6-8.6,8-8.5,3.5.1,5.7,2.8,6,7.9.3,5.2-1.6,12.7-6.6,17.8-4.9,5.2-12.9,10.3-23.6,10.3-7.4,0-15.1-1.5-23.4-6.1-.4-.2-.7-.4-1.1-.6,5-3.5,8.9-7.7,11.1-12.4,9.3-20.2-5-34.7-15.4-38.9-10.3-4.2-23.3-1.2-30.4,1.5-7.1,2.6-15,9.2-16.9,7.6-1.9-1.5,6.3-11.2,23.6-18.9,17.3-7.7,30-1.5,33.1-9.8,3-8.3-6.3-17.4-20.1-18.1-14.8-.8-10,4.8-19.9,10.5-9.8,5.7-16.6,6.3-22.9,3.3-5.3-2.5-1.7-5.2-3.4-4.9-11,1.9-12.2,18.4-.8,22.2,17.1,5.7,37.1-22.8,40.9-20.5,3.8,2.3-19.6,18.4-38.5,28.5-7.2,3.8-10.8,4.8-13.9,8.7-5.1,6.5-4.8,14.6-1.3,20,5.7,8.7,17.3-6.8,26.2-13.6,8.9-6.9,15.1-10,23.8-9.8,8.7.2,16.9,11.6,7.1,28.4-.3.4-.5.9-.8,1.3-4.1-3.7-8.1-7-12.5-9-6.7-3-15.1-2.4-20.8-.3-14.9,5.4-15.7,23.4-6.9,30.1,12.6,9.6,37.4,6.6,54.3-3.1,7.5,3.6,16.4,6.2,28.5,7,11.5.8,22.3-2,31.1-7.1,8.8-5.1,15.1-12.6,13.9-23.9-1.2-11.2-12-13.8-17.8-13.6ZM511.1,393.3c-5.8-5.4-4.1-14.1,5-15.4,8.9-1.2,16.1,3.9,21.7,8.4-9.3,9.6-21.9,11.5-26.7,7Z" fill="url(#_名称未設定グラデーション_9414)"/>
    <path d="M512.5,199.1c6.8.2,9.6-8.7,20.6-17.2,10.9-8.5,28.3-9.2,34.7.8,3.7,5.7,3.4,12,.7,17.3-1-1.3-1.9-2.3-2.8-3-7.1-5.5-18.1-6.6-27.3-3.8-8.9,2.7-14.4,11.3-12.5,21.2,2.3,12,14.9,16.1,33.3,15.2,18.4-.9,39.2-17.3,38.3-34.2-.8-16.9-12.1-26.1-32.7-28.1-15.9-1.5-24.3,4-28.6,6.6-4.4,2.5-5.6,3.4-6.2,3.3-.7-.1-1.5-.2-1.2-1.7.4-2,4.8-7.9,13.1-13.9,8.3-6,14.4-8,23-10.5,8.4-2.4,12.6-3.8,15.7-7.6,9.1-11.3-7.5-19.8-18.9-18.6-6.4.7-13.7,6.1-17.6,9.2-5.7,4.5-13.5,4.1-17.5,2.2-4-1.9-5.4-4.2-4-7.1.5-1,1.6-1.9,1-2.5s-12.1,5-12.6,13.7c-.4,7.1,3.4,14.1,12.4,14.9,10.2.9,15.6-6.3,20.3-10.1,5.2-4.2,10.2-6.9,10.9-5.3,1,2.2-19.4,21-34.9,31.4-6.7,4.5-11,4.3-12.9,8.3-3.2,6.7-3.3,19.4,5.8,19.7ZM539,213.4c-5.2-2.6-5.7-6.9-3.4-9.4,2.3-2.5,7.5-2.6,12.2.3,2.2,1.4,3.8,4.4,5,7.9-5.3,2-10.7,2.8-13.8,1.2Z" fill="url(#_名称未設定グラデーション_9415)"/>
  </g>
  <g>
    <path d="M596.2,215.7s0,3.6,4.1,2.5c4.2-1.1,7.5-3,10.6-.4v-25c0,0-13.8,5.8-14.6,22.9Z" fill="#41281b"/>
    <path d="M635.8,211.7s1.6,5.2-6.6,4.6c-8.2-.6-27.9-8.2-32.7-.8v-27.2s1.6-6,7.5-5.9c5.9.1,24.6,4.6,26.2.2,1.6-4.4,5.6,29.1,5.6,29.1Z" fill="url(#linear-gradient)"/>
    <path d="M621,209.4s0,3.6,4.2,2.5c4.2-1.1,7.5-3,10.6-.4v-25c0,0-13.9,5.8-14.7,22.9Z" fill="#41281b"/>
    <path d="M756.6,215.5s1.3,3.8-2.9,2.7c-4.2-1.1-7.5-3-10.6-.4v-25c0,0,12.7,5.6,13.5,22.7Z" fill="#41281b"/>
    <path d="M718.1,211.7s-1.8,5.2,6.4,4.6c8.2-.6,28.4-8.2,32.6-.8v-27.2s-1.4-6-7.3-5.9c-5.9.1-24.5,4.6-26.1.2-1.6-4.4-5.5,29.1-5.5,29.1Z" fill="url(#linear-gradient1)"/>
    <path d="M731.8,209.5s.6,3.6-3.5,2.4c-4.2-1.1-8.3-3.1-10.4.6v-26c0,0,13.1,5.8,13.9,22.9Z" fill="#41281b"/>
  </g>
  <path d="M729.7,86.1c-10.9-5-29-10.9-53.1-10.9s-42.1,5.9-53.1,10.9c-12.8,5.8-20.2,19.5-18.2,33.4,1.5,10,4.4,26.5,10.1,48.1,11.1,42.3,52.7,62.6,54.5,63.4l4.4,2.1c.7.3,1.5.5,2.3.5s1.6-.2,2.3-.5l4.4-2.1c1.8-.8,43.4-21.1,54.5-63.4,5.7-21.6,8.6-38.1,10.1-48.1,2.1-13.9-5.4-27.6-18.2-33.4Z" fill="#fff" filter="url(#drop-shadow-2)"/>
  <g>
    <path d="M741.5,111.8c.3,2.2.3,4.5,0,6.8-1.5,9.8-4.4,26.1-10,47.4-10.3,39.4-49.3,58.4-51,59.2l-3.9,1.8-3.9-1.8h0c-1.7-.8-40.7-19.8-51-59.2-.3-1.2-.6-2.3-.9-3.5,0,0,0,0,0,0-.4.4-.7.6-1,.7.3,1,.5,2,.8,3.1,10.4,39.9,49.9,59.1,51.6,59.9l4.4,2.1,4.4-2.1c1.7-.8,41.2-20,51.6-59.9,5.6-21.4,8.5-37.6,10-47.5.3-2.2.4-4.4.1-6.6-.2,0-.4,0-.5-.1-.2,0-.5-.1-.7-.3Z" fill="url(#_名称未設定グラデーション_9416)"/>
    <path d="M619.3,156.6c0,0,0,0,.1-.1-4.1-16.7-6.3-29.6-7.6-37.9-1.6-11,4.3-21.9,14.4-26.5,1.7-.8,3.6-1.6,5.6-2.3,0-.3-.2-.7-.2-1.2-2.2.8-4.2,1.7-5.9,2.5-10.6,4.8-16.8,16.2-15.1,27.7,1.3,8.4,3.6,21.5,7.7,38.4.1,0,.2,0,.3.1.2-.2.4-.5.6-.7Z" fill="url(#_名称未設定グラデーション_9417)"/>
    <path d="M645.5,85.5c8.7-2.1,19.1-3.7,31.2-3.7,22.9,0,40,5.6,50.4,10.3,6.5,3,11.3,8.6,13.5,15.1.6.1,1.1.2,1.3.2,0,0,0,0,0,0-2.1-7.1-7.2-13.2-14.2-16.4-10.4-4.7-27.7-10.4-50.9-10.4s-22.8,1.6-31.6,3.8c0,.2.2.4.3.6,0,.2.1.3.2.5Z" fill="url(#_名称未設定グラデーション_9418)"/>
  </g>
  <g>
    <path d="M691.9,193.1s0,0,0,0c0,0,0,0,0,0Z" fill="url(#_名称未設定グラデーション_9419)"/>
    <path d="M635.7,88.8c.4-.6,1.2-1.8,2.7-2.3,0,0-.8.7-1.1,1.5-.3.8,0,1,.2.9.4-.1.8-.7,1.7.4.4.5.9.7,1.1.6.2,0,.8-.2.8-.2,0,0-.7-.5-.8-1.1,0-.6.4-1.1,1.1-.8.8.3.9,1.9.7,2.2,0,0,.8,0,1.3.6,0,0,.4-.3.2-1.1-.1-.4,0-.4.2-.9.2-1.4,0-2.2-.3-3-.5-1.3-1.6-2.3-3.4-2,0,0-1-1.1-3.2-.2-1.8.7-2.9,2.3-3.1,2.9,0,0,1-1.4,3.8-1.8,0,0-3.4,1.6-4.1,3.3-.4,1,.3,2.1.3,2.1.8-.1,1.4-.6,1.8-1.2Z" fill="url(#_名称未設定グラデーション_9420)"/>
    <path d="M641.8,88.4s-.2-.3-.4-.3c-.2,0-.5,0-.5.4,0,.3.2.4.5.5.2.1,0,.4.1.6s.3,0,.4-.4c.1-.4,0-.4-.2-.6-.1,0-.5,0-.4-.3,0,0,.2-.1.4,0Z" fill="url(#_名称未設定グラデーション_9421)"/>
    <path d="M644.2,91.3c-.1.5-.5.8-1,1.5-.4-.9-1-1.5-1-1.5,0,0,.6,1.2.5,1.9,0,.6-.8,1.5-1.3,2.3-.4.6-1.1.9-1.2.7,0-.3-.3-.6-.4-.6-.1,0-.3,0-.4,0,0-.1,0-.2.3-.5.3-.2.2-.9.1-.9-.1,0,0,0-.2.2-.2.2-.5.3-.7.3-.2,0-.5,0-.5,0,0-.2.2-.5.3-.7s.2-.3,0-.4c0-.1-.5-.1-.5-.1,0,0,.3.1.1.3-.2.3-.8.5-.9.5-.1,0-.4-.8-.3-1.2,0-.4-.2-.4,0-.5.2-.1.5-.3.7-.5.1-.2,0-.4,0-.5,0-.2.4-.6.4-.6l-.5.3c-.5.3-.9.8-.9.8,0,0-.4-.1-.1-.5.2-.4,1.2-1,1.2-1-.4-.2-1.2.2-1.5.6-.4.4-.5.6-.7.4-.2-.2-.3-.8-.8-1.2,0,0,.4,1.3.8,2,.2.4.8.4.8.4,0,0,.1.2.2.6,0,.3.3,1.3.5,1.4.2.1.7,0,.7,0,0,0,0,.1.2.4.1.3.4.2.4.2,0,.5.6.6.8.7.2.2.2.7.4,1.2,0,0,0,0,0,0-.1.5,0,1.3,0,2h.5c0-.5,0-.8,0-1.1,0,0,.2.3.4.8l1.3-.3c0-.1,0-.2,0-.3.2-.5.3-1,.3-1.2.4,0,.8,0,.9,0-.2.4-.4.9-.5,1.3l11.9-2.9c-2.1-2-4.8-3.7-6-4.2-.7-.2-1.1-.4-1.5-.6,0,0,0,.2,0,.3.2.9-.3,2-.3,2,0,0,0-1-.2-1.5-.2-.4-.3-.7-.5-1,0,.4,0,1.1-.2,1.6-.3.7-.9,1-1.6,1.8,0,0-.2.2-.6.7-.3.5-1.4,1.5-1.4,1.5,0,0,.9-2.1,1.4-2.8s1.4-1.2,1.6-1.9c.2-.6,0-.9-.5-1.2-.3-.2-1.1-.2-1.1-.2,0,0,.4.8.2,1.4Z" fill="url(#_名称未設定グラデーション_9422)"/>
    <path d="M640.1,131.7l.2-.3c.6,0,.8-.5,1-.7.2-.4.7-.3,1-1.1,0,0,.4-.1.7-.4.3-.3.5-.9.7-1.1.1,0,.3-.2.4-.3,0,0,.7.2,1-.6,1,0,1.1-1.1,1.2-1.1,0,0,.4,0,.7-.7,0-.1.3-.5.2-1.3,0-.8-.2-.6-.6-1.3,0,0,0,0,0,0l1.7-2.4c.1-.2,0-.5-.1-.6-.2-.1-.5,0-.6.1l-1,1.4v-.4c0,0,.8-2.9,1.4-4.1.8-1.6.6-4.1.5-5.2-.1-1.2,0-1.8,0-1.8v-.7c.1-.1,1.1,3.1,1.6,4.3.2.3.5,1,1.1,1.6.1.1,1.6.5,3.2.4,0,0-1.3.7-3,.6,0,0-1.7,4-1.8,4.8h0c0,.1-.2.3-.3.5-.7,1.5-1.1,6.2-1.2,7.2,0,1-.4,1.9-.4,1.9,0,0,.2,0,.5.1-.1.8-.5,2.8-.7,4.2-.3,1.8-.1,3,.5,4.4.5,1.1,1.4,5.1,2,8.5.4,2.6.4,6.1.4,7.4-1,1-2.6,2.8-3,3.1-.5.5-3.4,1.2-4.5,1.8-.7.4-1,.7-1.2,1.1s-.3,1.3.8,1.3h4c.5,0,.6-.3.6-.5s0-.4.3-.6.6-.4.6-.4c.3-.1.5-.2.7-.3l.7-.3c.9-.4,1.8-.8,2.7-1.2.2-.1.4-.2.6-.3.2-.1.4-.2.6-.4.4-.3.7-.6,1.1-1,0,0,.1-.1.2-.2l-3.7.6c2.1-.8,3.9-1.3,4.5-1.9h.1s0-.1,0-.1c0,0,0,0,0,0,0,0,0,0,0,0l-.3-.6c-.1-.2-.3-.8-.5-1.5v-3.7c.1-.1.2-.6.3-1.1,0-.6.2-1.1.3-1.7.8,2.1,1.5,4.1,1.6,5,.2,1.2.2,2.4.2,3.3,0,0-.2,0-.3,0-.2.2-.3.4-.4.6-.1.2-.3.4-.4.6-.2.3-.4.5-.6.8-.1.1-.2.3-.3.4-.3.4-.7.8-1.1,1.1-.4.3-.9.6-1.4.8-.5.2-.9.4-1.4.6-.5.2-1,.3-1.4.5-.1,0-.3,0-.4.1,0,0-.1,0-.2,0,0,0,0,0,0,0-.3,0-.5,0-.7.2,0,0-.2,0-.3.1-.1,0-.2.1-.3.3,0,0,0,.2,0,.3,0,.2.3.4,1.5.5,1.2,0,11.1,0,11.8,0,1.6,0,1.9-.2,2.2-.6.4-.4,0-1.9-.1-2.2-.2-.5-.5-1-.5-1,0,0-1,.7-2.6.8-1.5,0-1.9,0-1.9,0,0,0,2.6-.6,3-1.3l.4-.7s-1.9.8-2.8.5c0,0-.2,0-.3-.1,0,0,0,0,.1,0,.5,0,.9-.1,1.2-.4,1.1-.7,1.4-2.3,1.5-2.5h0c0-.1,0-.3,0-.3,0,0-.8-4.2-.8-6.8s0-.5,0-.7c0-2.7-.3-5.1-.7-6.5-1-3.2-2.5-5.3-2.5-5.3.6-.9.9-1.6,1.2-1.9l.5-.5s-1.1-2.1-2.7-2.8c.2,0,.4,0,.6.1,1.3.3,2.8,1.9,2.8,1.9,0,0,.5-.8.8-1.7.3-.9,1.3-4,1.3-4-.7.4-2,.2-2,.2,1.9-.7,3.1-2.5,3.1-2.5,0,0-.3,0-1.4.6-1.2.5-3.8.6-3.8.6,0,0,.7-.4,2.5-1,1.8-.6,4.1-2.8,4.2-3.1s1.1-1.5-.4-1.3c-1.4.2-6.7.6-6.7.6,0,0,.9-.7,2.8-1.2,2-.6,5.1-2.3,5.1-3.4,0-.4,0-.7,0-1-.3.1-.6.2-.9.2l-.2-.6c-.5.3-1,.6-1.7.8-1.2.4-2.3.5-3,.5s-1,0-1.1,0l-3.9-.8,3.2-2.4c0,0,.4-.4.3-.5,0-.2-.1-.4-.2-.5-1.1-.1-2.1-.3-2.1-.3.3,0,1.1,0,2-.2-.2-1.3,0-2.6.5-3.7,0,0-.2,0-.3,0-.9,0-2.1-.4-3.1-.7,1,.2,1.8.3,2.4.3.4,0,.9,0,1.3-.1.2-.4.5-.7.8-.9.5-.4,1.1-.7,1.6-.8-.2-.4-.4-.9-.6-.9-.3-.1-1.8.4-3.2.6-1.4.2-3.9,0-3.9,0,0,0,2.4-.2,3.5-.8,1.1-.6,3.1-1.4,3.1-1.4,0,0-.5-1.4-1.7-3.4-2.5.6-5.3,1.3-8,1.9.5.9.7,1.8.6,2.2-.4.9,0,1.4-.2,1.8,0,.1-.1.3-.3.5,0,0,0,0,0,0,0-.1,0-.2,0-.3v-.9s-.3,0-.3,0c0-.1-.1,0-.5.1h0s-.9.2-1.9.2c.5-.2,1-.4,1.4-.6.8-.5,1-.6,1.2-1.2,0-.3,0-1-.1-1.8-2.2.5-4.3,1-6,1.5,0,.3,0,.7,0,1.1,0,.2,0,.3-.1.5,0,0-.2,0-.3-.1,0-.3,0-.7,0-1.2,0,0,0-.1,0-.2-.3,0-.6.1-.8.2,0,0,0,.1,0,.2,0,.3.2.6.3.9-.4-.1-.7-.2-.8-.3-.2,0-.5-.2-.7-.4,0,0,0,0,0-.1-.5.1-1,.2-1.2.3v.2c.2.4.6,1,1,1.1,0,0,0,0,0,0,.2.9.4,1.8.5,2.3.1.6.3,1.6.1,2.4,0,.6,0,2.5-.1,3.2,0,.7-.5,9.2-.5,9.6,0,.4-.1.7-.2.9,0,.1,0,.2,0,.3-.2,1-.2,1.4-.8,2,0,0-.2.2-.2.3-.7.8-1.4,1.6-1.2,2.7.2.9.4,1.4.8,2,0,0,.1.2.2.3l-.2.2c0,0,0,.2,0,.3-1.7,2.5-15.7,22.6-17.7,25.3,0,0,0,0,0,0,0,0,0,0,0,0,0,0,0,.1-.1.2-.2.2-.4.5-.5.7h-.2c0,0-1.1,1.6-1.8,1.6-1.3-.2-2.9-1.5-3.7-1.2-.5.3-.7.6-.8,1.2-.1.7,0,1.4.3,1.6.2.1.3.2.6.3l3.3.3s0,0,0,0c.1,0,.3,0,.4,0,.2,0,.3-.2.5-.3.1-.1.3-.3.4-.5.6-1,1.6-2.6,1.6-2.6.2-.3.5-.8.6-.9,0,0,0,0,0,0,1.9-2.8,15.9-22.9,17.6-25.3.1,0,.2,0,.3-.2ZM652.4,150.3c.3.8.6,1.9,1,2.9,0,.3.2.5.2.7.1.5.3.9.4,1.2,0,.1.1.3.1.4-.1,0-.2,0-.3,0,0,0,0,0-.1,0,0,0-.1,0-.2,0,0,0,0,0-.1,0,0,0-.1,0-.2,0s0,0-.1,0c0,0-.1,0-.2,0,0,0,0,0,0,0,0,0-.1,0-.2,0,0,0,0,0,0,0-.7-.3-1.3-.7-1.8-1.2,0-.5,0-1.1,0-1.7,0-.2,0-.4,0-.6,0-.2,0-.4,0-.7,0-.3,0-.7,0-1,0-.2,0-.5,0-.7,0-.2,0-.5,0-.7,0-.6-.1-1.2-.2-1.7,0-.5-.2-1.1-.3-1.7,0-.2,0-.4-.1-.7,0,0,0,0,0,0-.2-1.1-.5-3.5-.6-4.6,0-1.4.3-3,.7-4.6-.7.9-1.3,2-1.7,3h0s0,0,0,0c-.2-.5-.3-.9-.4-1.3,0-.2,0-.5,0-.7,0,0,0-.2,0-.3,0-.2,0-.3,0-.5,0-.4,0-.8.1-1.2,0-.2,0-.3,0-.5,0-.1,0-.2,0-.4,0-.2,0-.4,0-.6s0-.4,0-.6c0-.2,0-.4,0-.6.1-.7.2-1.2.3-1.6,0,0,0,0,0,0,0,.2,0,.4-.1.6.8.5,1.4,1.1,2,1.7,0,.6-.1,1.2-.2,1.8-.1,1.5.5,2.7,1,3.8,0,.2.2.3.2.5.3.6,1.5,3.6,2.7,6.6-.2,1.9-.6,3.9-.6,4.3,0,0-1.2-3.2-2.2-6.3,0,0,.4,5,1,6.7ZM655.3,140.7c0-.4,0-.8.1-1.3,0-.1,0-.2,0-.3,0-.1,0-.2,0-.3,0-.2,0-.5.1-.7,0-.3.1-.5.2-.7,0-.1,0-.3,0-.4,0-.1,0-.2,0-.3,0,0,0-.1,0-.1s0,0,0,0c0,0,1.5,1.4,2.6,4.5.5,1.3.6,4.2.6,6.9s0,1.2.1,1.9c0,.2,0,.4,0,.6,0,0,0,.2,0,.3,0,.1,0,.2,0,.3,0,.2,0,.3,0,.5,0,.1,0,.2,0,.3,0,.3,0,.5.1.8,0,.2,0,.5.1.7,0,0,0,0,0,0,0,.3,0,.5.1.7,0,0,0,0,0,0,0,.4.1.7.1.7,0,0,0,.4-.3.8,0,.1,0,.2-.2.3,0,0,0,.1,0,.2,0,.1-.1.2-.2.3-.1.2-.3.3-.4.4,0,0-.1,0-.2.1,0,0,0,0,0,0,0,0,0,0-.1,0,0,0,0,0,0,0,0,0-.1,0-.2,0,0,0-.1,0-.2,0,0,0,0,0,0,0,0,0,0,0,0,0,0,0,0,0-.1,0,0,0,0,0,0,0-.1,0-.2,0-.3,0,0,0,0,0,0,0,0,0,0,0,0,0,0,0,0,0,0,0,0,0,0,0-.1,0,0,0,0,0,0,0,0,0,0-.2,0-.2,0-.6.4-2.7,0-4.8-.2-.9-.7-2.5-1.4-4.5-.1-.3-.3-.7-.4-1.1-.1-.3-.2-.6-.3-.9,0,0,0-.1,0-.2-.1-.4-.3-.7-.4-1.1,0-.1,0-.2-.1-.3-.2-.6-.5-1.2-.7-1.7-.1-.3-.3-.6-.4-.9,0-.1-.1-.3-.2-.4-.1-.3-.2-.5-.3-.8,0-.2-.2-.5-.3-.6-.1-.3-.2-.5-.3-.7,0,0,0,0,0-.1,0-.1-.1-.3-.2-.4-.1-.3-.3-.6-.4-.9,0,0,0-.2-.1-.2,0-.2-.1-.3-.2-.5,0-.2-.1-.3-.1-.5,0-.3-.1-.5-.1-.8,0-.2,0-.4,0-.5,0-1.1.2-2.3.4-3.5,0-.2,0-.5.1-.7,0-.3,0-.5.1-.8,0,0,0,0,0,0,0,0,.2,0,.6,0,0,0,0,0,.1,0,.1,0,.2,0,.4,0,.4,0,.9.2,1.3.3.2,0,.3.1.5.2.1,0,.3.1.4.2.8.6.5,4.6,0,6.1-.5,1.6.4,4,.4,4ZM655,118.7s-1.1.9-1.9,2.1c-.8,1.2-.2,2.1-.2,2.1.7-.9,1.4-.7,1.4-.7-1.3.8-1.8,2-2.2,3-.4,1.1-1.2,4.5-1.2,4.5,0,0,0,0,0,0,0,.2,0,.4-.1.6-.2,0-.3-.1-.5-.2,0-.4.3-2,.5-2.6,0,0-.2.3-1.6.7,0,0,.9-1.3,1.6-2.7.7-1.4,1.2-2.7,1.2-2.7h-1c0,0,1.3-1.4,1.4-2.2,0-.3.2-.7.4-1.1.8-.5,2.2-.9,2.2-.9ZM644.8,108.9c.2-1.2.1-1.9.7-1.9,0,0,0,0,0,0,2,0,3.4-.4,3.4-.4,0,0,0,0,0,.1,0,.1,0,.2-.1.4,0,0,0,.2-.1.3-.1.3-.3.5-.5.8-.2.2-.4.4-.7.6-.3.2-.5.5-.7.7-.5.8-.6,1.6-.6,1.6h0c0,0,.1,0,.1-.1,0,0,.2-.1.3-.2,0,0,.2-.2.2-.2.4-.4.6-.8.6-.8,0,0,0,0,0,.3,0,.1,0,.3,0,.5,0,.1,0,.3,0,.5,0,.2,0,.4,0,.6,0,.3,0,.8,0,1.2,0,.2,0,.3,0,.5,0,.1,0,.2,0,.3,0,.5,0,1-.1,1.5,0,.5-.2.9-.4,1.3,0,0,0,.1,0,.2,0,0,0,.1,0,.2-.2.5-.4,1.1-.6,1.7,0,.2-.1.5-.2.7-.2.8-.4,1.5-.4,1.5,0,0-.1-.8.4-2.4,0-.2.1-.4.2-.6,0-.2,0-.4.1-.6,0-.3.1-.6.1-.9.1-.8.1-1.5.1-1.5,0,0-.1.2-.4.7,0,.1-.1.3-.2.4-.1.2-.2.5-.3.8,0,.1,0,.2-.1.3-.1.3-.2.7-.3,1.1-.2.8-.3,1.5-.2,2.2,0,.4,0,.8.1,1.1,0,.2,0,.3,0,.4,0,0,0,.1,0,.1,0,.1,0,.2,0,.2,0,0,0,.1.2.4,0,.1.1.3.2.4,0,0,0,.1.1.2,0,.1.1.2.2.3,0,0,0,0,0,0,0,0,0,0,0,.1.1.2.2.3.2.6,0,0,0,.1,0,.2,0,.1,0,.2,0,.3s0,.2,0,.2c0,0,0,0,0,.1,0,0,0,0,0,0h0c-.2-.5-.5-.6-.5-.6,0,0,0,.5,0,.9,0,.3-.3.7-.3.7-.2-.8-.6-.9-.6-.9,0,0,0,1.1,0,1.3,0,0,0,.2-.1.3,0,0,0,0,0,.1-.2.3-.5.4-.5.4,0,0,0,0,0-.1.1-.6,0-.9,0-1,0,0,0,0,0,0,0,0,0,.2-.1.4,0,.3-.2.6-.3.8,0,0,0,.1-.1.2,0,0,0,0-.2,0,0,0,0,0,0,0,0,0,0,0,0,0,0,0,0,0-.1,0,0,0-.1,0-.2,0,0,0,0,0,0,0,0,0-.1-.4-.3-.9,0,0,0-.2,0-.3,0-.1,0-.2-.1-.3,0-.2-.1-.3-.1-.4,0-.1,0-.2,0-.3,0,0,0-.2,0-.3,0-.1.1-.2.2-.4,0,0,0-.2.1-.3s0-.2.1-.3c0-.1,0-.2.1-.4,0,0,0-.2,0-.3,0-.2,0-.3.1-.5,0-.2,0-.4.1-.5s0-.2,0-.3c0-.2,0-.4,0-.6,0-.2,0-.4,0-.6,0-.3,0-.6.1-1,0-.2,0-.5,0-.8,0-.1,0-.3,0-.4,0-.3,0-.6,0-.9,0-1.2,0-2.4,0-3.4,0-.1,0-.3,0-.4,0-.3,0-.5,0-.8,0-.3,0-.5.1-.8s.1-.5.2-.8c.1-.4.2-.8.3-1.1.2-.6.4-1.2.4-1.6ZM642.8,105.2c0,0,.2,0,.2,0,0,.2,0,.3,0,.3.1.1.6.4,1.1.6,0,0,0,.1,0,.2,0,.8,0,1.8,0,2.4,0,.3-.2.8-.4,1.3-.1.4-.3.9-.4,1.5-.1.5-.2,1.1-.3,1.7,0-.4-.1-.8-.2-1.2-.1-.8-.2-1.3-.2-1.3,0,0-.2,3.7-.4,5.2,0,0,0,0,0,0,0,.2,0-3.8,0-5.3,0-1.7.1-2.5-.1-3.7,0-.4-.2-1.1-.4-1.9.4,0,.7,0,1.1.1ZM639.4,128.4c0-.1-.2-.2-.2-.4h0s0,0,0-.1c0-.2.2-.5.4-.7,0,0,.1-.2.2-.3.1-.1.2-.3.4-.5,0-.1.2-.2.3-.3.1-.2.2-.3.3-.5.2-.3.3-.6.4-.9,0-.1,0-.2,0-.3,0-.3.1-.6.2-1,.2-1.1,1.3-4.7,1.6-6.9,0,1.3-.1,2.7-.3,3.8v.5c-.2,1.2-.5,2.5-.9,3.1-.2.3-.3.5-.3.8h0c-.4.8-.2,1.4-.4,2.5,0,.3,0,.5,0,.7,0,.2,0,.3.1.5-.3.1-.5.2-.6.3,0,0-.1,0-.2,0-.4.1-.9,0-1.1-.3Z" fill="url(#_名称未設定グラデーション_9423)"/>
    <path d="M673.5,103.1c-.2.1-.4.2-.4.2.1-.2.2-.5.2-.5,0,0-.3,0-.6.2-.1,0-.2,0-.3.2-.7.4-.8.8-.8.8,0,0,.4.3.8.3.4,0,.9-.3.9-.3,0,0,0,0,0,0,0,0,0,0,0,0-.2,0-.8,0-.8,0,.2,0,.4-.2.6-.4.2-.2.4-.5.4-.5Z" fill="url(#_名称未設定グラデーション_9424)"/>
    <path d="M684.3,90.9l1.9-.5c.3,0,.4-.3.3-.6,0-.3-.3-.4-.6-.3l-1.6.4c0,.2.1.4,0,.7,0,0,0,.2,0,.2Z" fill="url(#_名称未設定グラデーション_9425)"/>
    <path d="M683.6,182c-.3.9-.2,1.7.2,2.3.4.6.6.5.6,1.3s0,.2,0,.3c0,.5,1,.6,2.5.6s2.2-.2,2.3-.6c0-.4-.2-1-.4-1.4-.3-.6-.7-1.5-.8-1.8,0,.1.1.4,0,1-.2.8-1,.8-1,.8,0,0,.6-.7.6-1.8s.2-1.1-.2-1.8c-.4-.7-.9-1.1-1.7-.8-.1,0-.3.1-.4.2.8-.9,2.1-1.5,2.1-1.5,0-1.4.2-5.2.4-10.2.2-5-.9-6.6-.9-6.6-.6,2.3-1.8,5.5-1.8,5.5,0,0,.3-3.4.9-6,.6-2.6,1.2-4.7,1.2-4.7,0,0,0-2.8.6-4.4.6-1.6.5-3.4-.6-3.7.4-.2.7-.4.7-.4,0,0,.1-1.3-.6-1.8-.7-.5-2.7-.6-3.1-.6s.5-.4,1.5-1.1c1-.7,1.3-1.1,1.3-1.1,0,0-1.5.1-2.5.8-1,.6-1.3,1.2-1.3,1.2,0,0,.9-2.3,1.9-3.6,1.1-1.3,2.1-2.2,2.1-2.2,0,0-.9,0-2.3.9l-1.5.9s.9-2.9,1.2-4.5c.2-1.2.1-2.5,0-3.1,0,0,0-.1,0-.2,0,0,0-.1,0-.1,0,0,0,0,0,0,0,0,.1.2.3.3.4.4,1.1,1.2,1.5,1.7.6.7,0,.9.1,2.1,0,0,.5-1.1.8-2.1.3-1-.6,0-1.1-1.5,0,0,0-.1,0-.2-.5-1.5-1.1-2.3-1.1-2.3h0s-1.7.9-1.7.9c0,.2,0,.6.1,1.3-1.2,0-2.1-.1-2.6-.2-.4,0-.7,0-1.1,0-.9,0-1.9-.1-2.7,0,2.2-1,5.3-2.5,5.5-4,.3-2.7,1.2-4.3,1.1-7.1-.3,3-3.4,6.9-6.1,8.2,1.2-1.7,2.4-2.9,3.6-6.1.5-1.2,1.8-4.5.3-7,0,2.1-.7,4-1.4,6,.3-1.7.3-3.8-.1-5.3-.4.4-1,.6-1.3,0,0,0,0-.1,0-.2.9-.6,1.2-1.9,1.6-3.1.1-.5.2-.9.4-1.2.1-.3.3-.7.5-1.1.4.3.7.5,1,.7.5.3.9.6,1.1,1.2.1.3.2.6.3.9.2,1.2,0,2.6,0,2.6,0,0,.2-.8.4-1.8,0-.4.1-.7.1-1.1,0-.3,0-.5,0-.7,0-.7-.7-1.2-1.4-1.8-.3-.2-.7-.5-1-.7,0,0-.2,0-.2-.1-.2,0-.4-.2-.6-.5,0,0,0,0,0,0,0,0-.2-.2-.3-.3,0,0-.1-.2-.2-.3,0,0-.1-.2-.2-.3,0,0,0,0,0,0-.3-.5-.7-.9-1-1.2-.8-.8-1.5-1.3-1.5-1.3.4.2.9.5,1.4.8.5.3,1,.7,1.5,1,.2.1.4.3.5.4,0,0,.2.2.3.2.2.2.5.4.6.6,0-.2.1-.4.1-.4,0-.2,0-.4-.1-.6,0,0,0,0-.2-.2,1.2-1.5,2.6-3.1,3.1-3.9.1-.2.2-.3.3-.4.5-.7.5-2.9.4-4.6,0-1.3-.1-4,0-5.8-.3.8-.5,1.8-.6,3.2-.2,1.9-.5,3.5-.5,3.5,0,0-.2-2.1-.1-3.4.1-2.8.5-4.3.6-4.7-.6,0-1.7.2-2.4.5.2,1.6-.3,4.6-.7,6.2,0,.3-.2.6-.2.9,0,1.5-.2,5.4-.4,7.9-.2-.2-.4-.3-.5-.5,0-.4,0-.9,0-1.4,0-1.1.2-2.3.2-3.2,0-.8.1-1.5.1-1.6,0-.7-.3-2-1-3.6-.2-.4-.4-.8-.5-1.2,0,0,0,0,0,0,0,0,0,0,0,.1.3,1.8.8,3.4.8,4.3,0,.8-.2,2.4-.2,3.3,0,.4,0,.8,0,.8,0,0,0-.3,0-.7,0-1.1,0-3.1-.2-4-.1-.6-.5-2.1-.7-3.4-.3-1.3-.5-2.4-.6-2.7,0,0,0,0,0,0-.5.5-1.3.9-1.3.9,0,0,.2-.6.7-1.2,0-.1.2-.3.3-.4,0,0,0,0,0,0,0,0,0,0,0,0,.2-.4.3-1,.3-1.6,0,0,0-.2,0-.2h0s.2,0,.2,0l1.5-.4c.1.3.3.7.6.9.7.6,1,.6,1,.6,0,0,.1.5.3.7,0,0,.3.1.4.2.2-.2.6-.4.9-.6.6-.4,2-.4,2.3-.2,0-.2.2-.4.2-.6,0-.3-.5-.3-.6-.6-.1-.4-.2-1.1-.4-1.4,0,0,0,0,0,0-.2.6-.8.6-.8.6,0-.2.1-.3.1-.5,0-.4,0-.7,0-1,0,0,0,0,0-.1-.1-.1-.2-.2-.4-.3-.5-.2-.5,0-.5,0,0,0-.2-.3-.7-.2-.5.1-.4.3-.4.3,0,0-.2-.3-.7-.2-.5.2-.6.4-.6.4,0,0-.4-.3-.8-.1-.4.2-.6.6-.4.9,0,0,.1.2.2.3l-1.4.3c0,0,0-.2,0-.3,0-.5-1.1-.2-1.1-.2,0,0,0-.3-.4-.3-.4,0-.8.4-.8.4,0,0-.2-.2-.6-.2-.2,0-.4.2-.6.3-.2.1-.3.3-.3.3h-.3c-.3,0-.9,0-1.1.3,0,.2,0,.6,0,1l-6.1,1.5c-.1,0-.2.1-.3.2-3.1.8-23.9,5.8-27.4,6.7,0,0,0,0,0,0-.2,0-.8.2-1.1.2,0,0-2,.4-3.2.6-1.2.3-1.2.5-1.3.9-.3,1.3-1.2,3.5-.8,4.6,0,.4.8.8,1.5.9.6.2,1,0,1.5-.3.5-.7-.2-3.3,0-4.6.2-.6,2.3-1.1,2.3-1.1v-.2c.2,0,.6-.2.9-.3,0,0,.1,0,.2,0,0,0,0,0,0,0,0,0,0,0,0,0,3.5-.8,24.3-5.9,27.4-6.7.1,0,.2,0,.3,0l6.2-1.5c.4.5,1.4.6,1.7,1,.5.8,1.3,2.9,1.1,4.7-.2,1.8.5,3.2.5,4.1s-.3,1.7-.5,2.5c-.4,0-.6.3-.6.3,0,0-.1.1-.1.2,0,0,0,.2-.1.3-.1.3-.3.7-.5,1,.3.3.5.5.7.8.1.2.3.4.4.6.7,1.4,1.1,3,1.6,4.2.7,1.7.9,2.3.9,2.3-.1-.1-1.5-1.9-2.4-3.4-.2-.4-.4-.7-.5-1-.4-.9-.5-1.4-.5-1.4,0,0,0,.8,0,1.8,0,1.1,0,2.4,0,3.1,0,0-.4-1.2-.9-2.5-.2-.5-.4-1-.6-1.4-.2-.4-.3-.7-.5-.9,0,0,0,0,0,0,0,0,0,0,0,0-.1-.2-.2-.5-.1-.7.2,0,.4-.2.6-.2,0,0,0,0,0,0,0,0,0,0,.1,0,.1,0,.2-.1.3-.3,0,0-.2-.1-.3-.2-.2-.1-.3-.2-.5-.3,0,0-.1,0-.1,0,0,0,0,0,0,0,0,0,.1-.2.2-.3,0,0,.1-.1.2-.2.4-.2.4-.7.4-.7,0,0-.2.2-.5.3-.1,0-.3.1-.4.2-.3.1-.6.2-.6.2,0,0,.1-.2.3-.4.2-.2.4-.3.6-.4.2,0,.4-.2.5-.3,0,0-.2-.4-.6-.3s-.6.1-.6.1v-.5c0-.3.2-.5.2-.5l-1.5-1.3s-.4.1-.7.2c-.5.2-.8.2-.8.2l.7-.7h-.4c.4-.8.6-1.7.9-2.4,0,0,0-.1,0-.2.3,0,1.5.6,1.5.6l-.7-1c.2,0,.4-.2.5-.3.7-.4,1.3-.5,1.3-.8-.4-.3-.9-.5-1.8,0-.5.3-.9.6-1.2,1,0,0-.1.1-.2.2-.1.2-.3.4-.4.6-.1.3-.3.5-.4.9,0,.2-.2.4-.4.6-.2.2-.4.4-.7.6-.6.5-1.3.9-1.6,1-.1,0-.2,0-.2,0,0,.5-.2.9-.4,1.2l-.2-.2c.1-.4.2-.9.2-1.3,0,0,.2,0,.4-.2.5-.2,1.2-.6,1.8-1.1.2-.2.5-.5.6-.8h0c0-.2.2-.4.3-.5.1-.3.3-.5.4-.8,0,0,0-.2.1-.2.5-.7,1.1-1.2,1.7-1.5,0,0,.1,0,.2,0,0,0,.1,0,.2,0,.2,0,.3,0,.4-.1.4,0,.7,0,.9.2,0,0,0,0-.2-.2-.2-.2-.7-.5-1.4-.3-.9.2-1.5.7-1.5.7-.8.4-1.4,1.2-1.8,1.6,0,0,0,0,0,0-.2.3-.3.4-.3.4,0,0,0-.1,0-.2,0,0,0-.1,0-.2,0-1.1.8-1.9.8-1.9-2.2.3-3.4,2.1-3.4,2.1.3-2.3,1.7-3,2.2-3.1-.4,0-.9,0-1.4,0-2.2.6-4.1,2.5-4,4.8,0,1.2.5,2.1,1,2.9-1.2.2-2.4.2-3.6,1.1-.8.6-1.3,2.5-.7,4,.6,1.5-.9,2.6-.9,2.6,0,0,1.3.3,3.1-.4,2.2-.8,2.9-2.3,2.9-2.3,0,0,.1,1.3-.7,1.9,0,0,1.8-.3,2-1.6.2-1,0-2.2,0-3.1.7.6,1.5,1.1,1.9,1.2,0,0,.4,0,.7.1,0,0,0,0,.1.1.1.2.3.3.4.5-.2.3-.5.6-.6,1-1.6,3.4,0,5.7,2,8.6,1.2,1.6,1.8,4.3,1.9,7,.1,2.7-.3,5.5-1.2,7.4-.5,1.1-1.8,2.6-.7,3.5-.2,1,0,1.4.1,2.6.1,1.3.1,3.3.2,5.2,0,1.8.1,4.5.1,4.5,0,0,.4,0,1,.2-.1,2.2.2,6.3-.5,7.8-.7,1.5-3.1,2.6-4.1,4.5-1.1,1.9-3.6,9.1-4.3,10.7-.8,1.5-1.7,1.8-1.7,1.8l-.8.3c-.8.3-.9,1.8-.9,1.8-.5-.8,0-1.5,0-1.5-.9.6-1.1,2.5-1.1,2.5-.6-1.3.2-3.2.3-3.5s-.5-.7-.9-.6c-.4.2-.7,1.1-.8,1.9s-.1,1.7.1,2c.3.3,0,1-.5,1.8-.5.8-.6,2.7-.6,4.1,0,.9.2,1.5.5,1.8.2.3.8.4,1.6.4s1.6-.1,1.4-.5c-.2-.4-.5-.9-.5-1.4,0-.6.6-1,1-1.9.3-.9,1.2-2.7,1.2-2.7-.1.7,0,1.7,0,1.7.5-1,1.4-1.8,1.6-1.9s-.2-.3-.6-.7c0,0-.2-.2-.3-.4.5.1,1.2,0,1.5,0,1.1,0,2-3.4,4.3-6.1,2.3-2.7,6.2-8.1,6.2-8.1,0,0-2.7,1.2-4.4,3.5-1.7,2.2-2.3,2.6-2.3,2.6,0,0,1.7-3.6,4.1-5.6,2.4-2,5-4,5.5-4.5.6-.5,1-1.2,1-1.2l-3.8,1.6s1.8-1.2,3.5-2.8c1.6-1.5,2.6-4.1,3.2-5.9l-5.3-1.2c.3,0,.7,0,1,0h4.7s0-.2.1-.5c0,.1,0,.3,0,.4.2,1.9.6,3.2,1.4,5.3.9,2.1,1.3,6.6,1.3,6.6-.3-2.5-1.7-4.7-1.7-4.7,0,0,.2,1.2.4,3.8.2,2.7.3,6.4,1,9.7.5,2.7,1.1,7.5,1.3,9.2-.4.3-.7.7-.9,1.2ZM680.9,149.6s0,0,0,0c0,0,0,0,0,0,0-.4.2-.8.2-1,0,0-3.3.6-6.5.8,0,0,.1-.3,1.6-.9s2.6-1.6,2.6-1.6c0,0-2.1.4-3.8.9-1.6.5-2.3.9-2.3.9,0,0,1.4-1.3,3.2-2.8,4.3-3.6,5.9-5.8,5.9-6.1,0,0-.2.4-2.2,1.3-2.2,1-6.2,2.5-6.2,2.5,0,0-.5-1.1,2.9-2.5,3.4-1.4,4.8-2.3,6.2-3.6,0,0-.7.6-3.9,1.6-3.3.9-4.8,1-4.8,1,0,0,.4-.9,1.8-2.3,1.4-1.4,1.3-1.7,2.9-2.6.2-.1.4-.2.6-.3,1.6-.4,3.2.1,4.2-.1,0,.7,0,1.4-.2,2.3-.4,2.3-.6,4.4-.9,6.2s-1.4,6.3-1.4,6.3Z" fill="url(#_名称未設定グラデーション_9426)"/>
    <path d="M746.7,110.5c-.1-.4-.2-.6-1.2-.8-1.1-.2-2.9-.4-2.9-.4-.3,0-.8-.1-1-.2,0,0,0,0,0,0-3.2-.6-28.3-4.9-31.1-5.4,0,0-.2-.1-.3-.2l-1.3-.2s0,0,0,0c.2-.7.2-1,0-1.2-.3-.2-.7-.1-.7-.1,0,0,0,.5-.4,1.1,0,0-.1-.7-.5-1.1s-.6-.5-.6-.5c0,0,.2.5,0,.9-.3.5-.4.5-.5.5h0s0,0,0,0c0,0-.2-1-.6-1.5,0,0,0,.5-.3,1.3,0,0,0-.6-.6-1.1-.4-.4-.7.2-1,.9h-.1c0-.1,0-.2,0-.3,0-.9-.2-.8-.2-.8-.1.5-.5.9-.5.9.2-1-.8-1.3-.8-1.3-.1.7-.6,1.1-.6,1.1.2-.7-.4-1.2-.4-1.2,0,.6-.5,1.1-.5,1.1,0,0-.2-.5-.5-.9-.3-.3-.5.3-.5.3,0,0,.2.1.3.3,0,0,0,0,0,0l-2.7-.5c-.2,0-.4.1-.5.3,0,.2.1.4.3.5l1.5.3c0,.3-.2.9,0,1.3.2.4.1.8.1.8-.3-.4-.7-.6-.9-.5-.2.2-.3.4.2.9.3.4.6.9,1,1.4l-1.5-1.2s-2.2,5-2.7,7c-.4,2,0,5.2,0,5.2,0,0-1.3-1.4-1.4-2.6,0,0-.6,1.9,0,3.6,0,0-.6-.3-1.1-1.1,0,0-.2,1.3-.5,2.6-.3,1.2,0,2.1,1.3,3.1,1.3,1.1,5.6,2.9,5.6,2.9,0,0-.5-1.4-.5-3.3,0-1.9.5-2.6.5-2.6-.4-.2-.9-.6-1.9-.1-1,.5-1.7,1-1.7,1,0,0,.6-1.5,2-2,0,0,.3-1.3.2-2.9-.1-1.6,2.5-8.8,2.5-8.8,0,0,.6-.9.7-1,0-.1.5-.2,1-.4.5-.2.9-.7,1.3-1.1,0,.2,0,.4,0,.7,0,.9-1.4,8-.6,10,.7,2,1,2.5,1.7,3.4.7,1,4.4,5.9,5.1,7.4.3.7.9,1.6,1.4,2.3-.2-.1-.4-.3-.6-.4-1.5-.9-1.9-2.8-1.9-2.8-.4-.3-1.6-1.9-2.2-2.7-.6-.8-1.1-1.6-1.1-1.6,0,0-.8,0-1.3.4-.4.4-1.9,2.3-2.1,3.1,0,0-.3-2.1.1-3,0,0-1.2-.2-1.7,1-.4.8-.9,2.4-.8,3.5.1,1.2.1,1.8.4,1.9.2.1.9.4,1.1.4.7-.8,1.4-1.1,1.4-1.1h0s0,0,0,0c-2.3,6.7,2.1,13.3,2.1,13.3,0,0-.9-.3-1.9-1.2.8,3.4,1.8,6.8,2.7,8.5,0,0-6.9-7-6.7-11.9,0,0-1.6,4.8-.6,8.3,0,0-.7.2-1.5-2.1,0,0-1.6,2.1-1.5,3,.2.9,1.5,1.8,4.3,3.3,2,1,7.3,1.4,10.6,1.5-2.8.1-5.2.8-11,0-2.2-.3-2.8-.8-2.8-.8,0,0-.6,1.8.9,5.9,1.3,3.6,3.2,5.5,3.2,5.5,0,0-1-.9-3.2-2.9-2.2-2-2.8-3-2.8-3,0,0-.3,4.2,2.7,8,0,0-2.2-1.1-3.8-4.5,0,0-.5,6.1,2.7,10.3,2.2,2.8,2.5,4.1,2.5,4.1,0,0-5.2-.7-6.4-2.7,0,0-.2,1,0,3.6,1.5.7,4.2,1.1,6.3,1.2-.8.2-2,.4-2.5.4-.5,0-2.2,0-2.2,0,0,0,.5.8.5,2.5,0,1.3-.3,3,.3,4.7,1,2.8,2.4,6.6,2.4,6.6-1-.9-2.9-4.1-2.9-4.1,0,0,.2,1.9,1.1,5.1.4,1.4.8,3.5,1.2,5.4h0c.3,1.2,1,2.1,1.7,2.7-.4.4-.8.7-1.4,1.2-.4.3-.7.7-1.1,1-7.7,6.7-14.8,10.8-17.8,12.5-3.1-1.7-10.1-5.8-17.8-12.5-12.8-11.2-21.2-23.8-24.8-37.7-1.3-5.1-2.5-9.9-3.5-14.3-2.4,3.5-4.7,6.7-5.9,8.5.6,2.5,1.3,5.1,2,7.8,4,15.4,13.2,29.3,27.2,41.5,11,9.6,20.8,14.3,21.2,14.5l1.7.8,1.8-.8c.4-.2,10.2-4.9,21.2-14.5,2.6-2.3,5.1-4.7,7.4-7.1,0,0,0,0,0,0,1.4-1.5,2.8-3.1,4.2-4.8,0,0,0,0,.1-.1,0,0,0,0,0,0,0,0,0,0,0,0,7.5-9.1,12.6-19,15.4-29.5,5.5-21.1,8.4-37.1,9.9-46.9.4-2.4.3-4.7-.2-7-2.4-.4-5.5-.9-8.7-1.5,1.1,2.2,1.6,4.8,1.2,7.4-1.4,9.5-4.3,25.3-9.7,46-1.4,5.5-3.7,10.9-6.6,16-.3.7-.7,1.3-1.1,1.9-.9-2.2-2-3-2-3l-.2-3c.6-.2,1.1-.3,1.5-.6.5-1.3.3-2,.4-3.8.1-2.1-.2-5.7-.2-5.7,0,0-.8-1.4-2.2-2.6-2.2-1.9-5.2-5.5-5.2-5.5,0,0,4.3,2.7,6,3.9l1.7,1.2s.9-.8.8-2.8c0-2-.7-5.4-1.4-5.8-.7-.4-3.5.8-6.3,0-2.7-.9-3.2-1.1-3.2-1.1,0,0,5.5.6,7.5.5,2-.1,2.9-2.4,2.9-2.4,0,0-2.2-1.7-3.9-4.8-1.9-3.5-2.4-6.8-2.4-6.8,0,0,2.5,6.8,6.2,8.4,0,0-1-2.7-1.5-5.7-.5-3-.5-8.1-.5-8.1,0,0,1.5,9.1,2.7,10.7,0,0,2.8-4.7,3.4-5.5.6-.8,1.2-.9,2-2.8.3-.5.6-1,.8-1.5,0,0,.1,0,.2,0,.6-.2,1.6-1,1.9-2.8.1-.8-.2-2.1-.6-3.3-.4-1.2-1.4-3.2-2.5-3.6,0,0-.1,0-.2,0,.6,0,1-.3,1-.3,1.6-.5,2.8-2.3,3.4-2.7.5-.4.7-1.7,1-2.6,0,0,0,0,0-.1.5,0,1.5-.2,1.7-.4.3-.9.8-2-.9-3.5-1.3-1.2-3-.9-4.3-.6-1.2.3-2.9,0-3.1,0,0,0,0,0,0,0,.1,0,1.8-.2,3.2-.6,1.4-.4,3.2-.3,4.1.3-.2-.5-.6-1.5-1.4-2.2-1.8-1.3-3.7-1.1-5.2-.7-.6.2-1.1.5-1.5,1,1.2-.2,2.8.1,2.8.1-3.4,1.1-3.9,1.6-4.3,2.5,0,.2-.1.4-.1.4v.2c0,0-.1,0-.2,0-.4,0-.5.7-.4,1,0,.4.4,1.1.5,1.2,0,0,0-.2-.1-.4,0-.2-.1-.5-.1-.7,0-.2,0-.5.2-.5.3-.2.5,0,.6.2,0,0-.1,0-.2,0,0,0,0,0-.1.1-.3,0-.3.3,0,.8,0,0,0,0,0,0,0,0,0,0,0,0,0,0,0,0,0,.1,0,0,0,.1,0,.2,0,0,0,0,0,0,0,.1,0,.3,0,.5,0,0,0,.1,0,.2,0,.1,1-.9,1.1-1.1.2-.3.2-1.1.3-1.6.1-.5,1.5-1,1.2-1.1,0,0,0,0,0,0,.4.1,1,.3,1.8.3,0,0,0,0,0,0,.8,1.1,2.5,2,3.7,2.2,0,.2.1.5,0,.8,0,0-.8-.5-1.2-.4-.4.1-.4.8-.4,1.3,0,.5,0,1.3,0,1.5,0,.2-.8,0-1.1-.1-.3-.2-.5-.2-.5-.1,0,0,.2.4.2.6,0,.2-.2.2-.5,0-.3,0-.8-.2-1-.3-.2-.1-.2-.4-.2-.4,0,0-.3.1,0,.6.2.3,1.2.6,1.4.7.2.1.1.3,0,.4,0,0-.7-.1-.8,0,0,.2.1.5,0,.8,0,.4-.6,0-.9.1,0,0,0,0,0,0,0,0-.2,0-.3,0-1.2.2-2.1-.7-2.6-1.4-.7-1-1-2.7-1-2.7,0,0,0,1.6,0,2.8-.4-.5-.9-1.2-.9-1.2,0,0,0,.9,0,1.4.1,1.1.1,1.2.6,1.8,0,0,1.9,2.4,2.4,3.9.5,1.5.4,1.7.4,1.7,0,0-1.2-.9-1.8-2.1-.6-1.3-1.1-2.5-1.1-2.5.1,1.1.2,2-.1,2.8,0,.2-.2.4-.4.5,0-.1,0-.3.1-.4.2-1.3-1.2-4.2-1.7-5.3-.6-1.2-1.2-2.1-2.2-3.4,0,0,.2,1.4.9,3.3,0,0-1.9-2.8-2.4-4.3-.5-1.5-.6-2.9-1.6-4.3-1-1.4,0-5.1-.5-5.9-.5-.8-1.3-1.9-1.3-1.9,0,0,1.1.5,1.6.9l.5.4s1.1-.4,1.5-.7c.2-.2.7-.7,1-1.3l1.5.3c.1,0,.2,0,.3,0,2.8.5,27.9,4.8,31.1,5.4,0,0,0,0,0,0,0,0,0,0,0,0,0,0,.1,0,.2,0,.2,0,.6.1.8.2v.2s1.9.3,2.1.9c.4,1.2,0,3.1.4,3.7.5.3.8.4,1.4.2.7-.2,1.2-.6,1.3-.9.3-1-.7-2.5-1.1-3.6ZM703.6,170.8c0,0,.1,0,.2.1,2.6,2.1,3.4,2.4,3.6,2.4-.3,0-2.1-.3-4.1-1.7-.2-.1-.4-.2-.5-.4-1-.8-1.5-1.4-1.7-1.6.1,1.4.4,3.6.7,5,.2,0,.5.2.7.2,0,0,0,0,0,0,1.5.8,2.6.9,4.7,1.1,0,0-1.2.3-3.6.3-.3,0-.6,0-.8,0,.2.9.4,1.6.5,1.8,1.8,3,3,5.2,4.6,7,.2.2.4.3.6.5-.4.5-.7,1-1.1,1.4-1.9,2.6-4.1,5-6.4,7.5-.7.8-1.3,1.3-1.8,1.8-.1-3.2,0-7.2.1-10.4,0-2.1,0-4.3-.2-6.4,0-.9-.6-1.8-.7-2.5,0-.8.2-1.6.3-2.2.6,0,1.1,0,1.4,0,.1-.5.1-1.2.2-1.7.7-2.3.7-2.4.8-3.9-.1-2,.2-3.7.2-3.7,0,0,0,3.4,2.5,5.4Z" fill="url(#_名称未設定グラデーション_9427)"/>
    <path d="M623.2,151.3c1.7-2.4,3.9-5.5,6-8.6-2.4-11.1-3.9-19.8-4.9-26-.8-5.3,2-10.5,6.7-12.9,0-.2,0-.3.1-.5,0-.3.2-.6.2-.8.4-1.5,1.4-2,2.7-2.2,1.2-.3,3.2-.6,3.2-.6h0c0,0,.2,0,.3,0,0-.1,0-.2,0-.3,0-.9,0-1.5,0-2,0,0,0,0,0-.1-.3-.2-.5-.4-.6-.5-.1,0-.3-.2-.4-.4,0,0-.2,0-.3,0-.3-.1-1.1-.5-1.5-2.3,0,0,0,0,0,0-2.5.9-4.7,1.8-6.7,2.7-8.1,3.7-12.9,12.4-11.6,21.3,1.1,7.6,3.1,18.9,6.5,33.5Z" fill="url(#_名称未設定グラデーション_9428)"/>
    <path d="M656.5,95.1l9-2.2c.2-.1.4-.2.7-.3l4.7-1.2c0-.1,0-.3.1-.4.4-.8,1.2-1.3,2.4-1.3.4-.3.8-.4,1.1-.5.2,0,.4,0,.6,0s.1,0,.2,0c.3-.1.6-.2,1-.2s.2,0,.3,0c.3,0,.5.1.8.2h0c0,0,.2,0,.3,0,.3-.4.7-.7,1.1-.8.3-.1.6-.2,1-.2s0,0,.1,0c.1,0,.2-.1.4-.2.3,0,.6-.1.8-.1s.1,0,.2,0c0,0,.2,0,.3,0,.2,0,.4,0,.6,0,.3,0,.6,0,.9.2.3,0,.6.1.9.2,0,0,0,0,.1,0l1.5-.4c.2,0,.4,0,.6,0,1.1,0,2,.7,2.2,1.7.3,1.1-.3,2.2-1.3,2.7.1.3.2.5.2.7,0,.7-.2,1.2-.3,1.5,0,.1-.1.2-.2.3,0,0,0,.1,0,.2,15.6,1.3,27.4,5.3,35.1,8.7.3.2.7.3,1,.5,4.1.7,8.5,1.5,12,2.1-2-4.2-5.4-7.7-9.8-9.7-9.9-4.5-26.3-9.8-48.4-9.8s-19.5,1.2-27.3,2.9c1.6.6,4.4,2.5,6.6,4.5.3.2.4.6.5.9Z" fill="url(#_名称未設定グラデーション_9429)"/>
    <path d="M718,117.1s.5.3.8.4c.4,0,.5.1.5.1,0,0-.1.2-.2.3,0,0,.4,0,.8-.3.4-.3.4-.5.4-.5-.1-.3-.4-.7-1.1-.9-.8-.2-1,0-1,0,0,0,.6.2.9.4,0,0-.3,0-.5.2-.2.1-.6.3-.6.3Z" fill="url(#_名称未設定グラデーション_9430)"/>
  </g>
  <g>
    <path d="M676.6,167.9c-7.6-.3-52,1.1-55.5,12.1v29.4s6-10.2,55.5-10.3c50.1.1,55.5,10.3,55.5,10.3v-29.4c-2.1-11-47.9-12.4-55.5-12.1Z" fill="url(#linear-gradient2)"/>
    <g>
      <path d="M664.8,181c0,2.1-.6,3.6-1.7,4.6s-2.9,1.5-5.3,1.5h-1.8v3.7h2.3v3.3h-8.8v-3.3h2.1v-12.7h-2.1v-3.3h8.1c2.4,0,4.2.5,5.3,1.5,1.2,1,1.8,2.5,1.8,4.6ZM660.2,181c0-.8-.1-1.4-.4-1.8s-.7-.7-1.2-.8c-.5-.1-1.1-.2-1.8-.2h-.7v5.8h.7c.9,0,1.6-.1,2.1-.3.5-.2.9-.5,1-1,.2-.4.3-1,.3-1.6Z"/>
      <path d="M682.4,180.2c0,1.2-.2,2.2-.7,3-.5.8-1.2,1.5-2.2,2l2.7,5.8h2.2v3.3h-5.1l-3.8-8.4h-1.9v5.1h2.1v3.3h-8.8v-3.3h2.3v-12.7h-2.3v-3.3h9.5c1.9,0,3.3.4,4.3,1.3,1,.9,1.6,2.2,1.6,3.9ZM677.9,180.4c0-.7-.2-1.3-.6-1.6-.4-.4-1-.5-1.7-.5h-2v4.5h1.6c1.8,0,2.7-.8,2.7-2.3Z"/>
      <path d="M686,184.5c0-1.9.4-3.7,1.2-5.2s1.9-2.6,3.3-3.5c1.4-.8,3-1.2,4.9-1.2s3.5.4,4.9,1.2c1.4.8,2.5,2,3.3,3.5.8,1.5,1.2,3.2,1.2,5.1s-.4,3.7-1.2,5.2c-.8,1.5-1.9,2.7-3.3,3.5-1.4.8-3,1.2-4.8,1.2s-3.4-.4-4.8-1.2c-1.4-.8-2.5-2-3.3-3.5-.8-1.5-1.2-3.2-1.2-5.2ZM699.9,184.5c0-1.2-.2-2.2-.6-3.2s-.9-1.7-1.6-2.3c-.7-.6-1.5-.8-2.5-.8s-1.8.3-2.5.8c-.7.6-1.2,1.3-1.6,2.3-.4,1-.6,2-.6,3.2s.2,2.3.6,3.3c.4,1,.9,1.7,1.6,2.3.7.6,1.5.8,2.4.8s1.8-.3,2.5-.8c.7-.6,1.2-1.3,1.6-2.3s.6-2.1.6-3.3Z"/>
    </g>
  </g>
</svg>