<?xml version="1.0" encoding="UTF-8"?>
<svg id="_レイヤー_1" xmlns="http://www.w3.org/2000/svg" width="90" height="60" version="1.1" viewBox="0 0 90 60">
  <!-- Generator: Adobe Illustrator 29.6.1, SVG Export Plug-In . SVG Version: 2.1.1 Build 9)  -->
  <path d="M48.4,14.4c-.7-1.2-2-2-3.4-2s-2.7.8-3.4,2l-17.8,30.9c-.7,1.1-.7,2.6,0,3.9s2,2,3.4,2h35.6c1.3,0,2.7-.7,3.4-2,.7-1.2.7-2.7,0-3.9l-17.8-30.9ZM45,48.3c-2.1,0-3.9-1.8-3.9-3.9s1.8-3.9,3.9-3.9,3.9,1.8,3.9,3.9-1.8,3.9-3.9,3.9ZM48.9,22.6l-2.7,15.1c-.1.6-.6,1-1.2,1s-1.2-.4-1.2-1l-2.7-15.1h0v-.7c0-2.1,1.8-3.9,3.9-3.9s3.9,1.7,3.9,3.9v.7Z" fill="#b31630"/>
  <path d="M69.6,43.3l-17.8-30.9c-1.4-2.4-4-3.9-6.8-3.9s-5.4,1.5-6.8,3.9l-17.8,30.9c-1.4,2.4-1.4,5.4,0,7.8,1.4,2.4,4,3.9,6.8,3.9h35.6c2.8,0,5.4-1.5,6.8-3.9,1.4-2.4,1.4-5.4,0-7.8ZM68.6,50.5c-1.2,2.1-3.4,3.4-5.8,3.4H27.2c-2.4,0-4.6-1.3-5.8-3.4-1.2-2-1.2-4.6,0-6.7l17.8-30.9c1.2-2.1,3.4-3.4,5.8-3.4s4.6,1.3,5.8,3.4l17.8,30.9c1.2,2,1.2,4.6,0,6.7Z" fill="#b31630"/>
</svg>