<?xml version="1.0" encoding="UTF-8"?>
<svg id="_レイヤー_1" xmlns="http://www.w3.org/2000/svg" width="90" height="60" version="1.1" viewBox="0 0 90 60">
  <!-- Generator: Adobe Illustrator 29.6.1, SVG Export Plug-In . SVG Version: 2.1.1 Build 9)  -->
  <path d="M86.8,50v-24c0,1-.3,2-.4,3.1v1.7s0-.2-.2-.2v-.6c-.2-4.1-.9-7.9-1.3-9.2,0,0-.4,4.7-.6,8.1,0-.2-.3-.3-.5-.4h-.2c0-.3,0-.7-.2-1.1,0-1.9.4-4,.8-6.4,0,0-.5,1.2-1,3.3,0-.5,0-1,0-1.2,0,.7-.2,1.3-.3,1.9,0,.5-.2,1.1-.3,1.6-.4,0-1-.3-1.5-.3h-.4c-.2-3.5,0-6.8-.6-10.9,0,.9.3,2.8,0,5-.3,2.3-.5,3.7-.5,6h-1.5c.2-2.2.4-4.6.4-4.6-.4.7-1.1,2.5-1.7,4.6h-.8c.8-1.8,1.6-3.2,1.6-3.2,0,0-1.1.9-2.2,2.9h0c0,.2-.2.3-.2.5-.2,0-.5.3-.8.7-.3.3-.5.7-.8,1.3h0c0,0,0,.3-.2.5h0v.2c0-.8-.2-1.5-.3-2.5-.2-1.7,0-3.2,0-3.9-.4,2.2-.4,4.2-.5,6.1-.8-.4-1.4-.6-1.7-.8-.3-1.8-.7-3.2-.9-4,.2-.3.2-.4.2-.4,0,0,0,0-.3.2,0-.5-.2-.8-.2-.8,0,.3,0,.6,0,.9-.4.3-.9.8-1.5,1.5-.6-2.1-.6-3.6-.6-3.6,0,0-.3,1.1.3,3.9-.2.2-.3.5-.5.7-.2-1.2-.5-2.4-.8-3.4v-1.2.9c-.6-1.8-1.2-3-1.2-3,0,.6.4,3,.7,5.4v.3c-.6-.7-1.1-1.2-1.5-1.5,0-.3,0-.6,0-.9,0,0,0,.3-.2.8-.2,0-.3-.2-.3-.2,0,0,0,.2.2.4-.2.9-.6,2.3-.9,4.1-.6.6-1.1,1.5-1.6,2.6h0c0-1.3,0-2.6,0-4,.6-.9,1.3-1.7,2.1-2.4,0,0-.9.6-2.1,1.8,0-1-.2-2.1-.4-3.3,0,.6.2,2,0,3.7-.5.5-1,1.1-1.5,1.9-.7-2.1-1.6-3.4-2.2-4.3.3-1.7.5-3.2.6-3.7,0,0,0,.1-.2.4h0c-.2.5-.7,1.3-1.1,2.4-.2-.2-.3-.2-.3-.2,0,0,0,0,.2.4,0,0,0,.3-.2.5-.4-1-.7-1.8-.9-2.2,0,0,0,2,.3,4-.3,1.1-.5,2.3-.6,3.5v1.7s0-.2-.2-.2v-.6c-.2-4.1-.9-7.9-1.3-9.2,0,0-.4,5-.6,8.3-.2,0-.4-.3-.6-.4,0-.6-.2-1.1-.3-1.9v-1.8c0-.9,0-1.9.2-3v-.3c0-.4,0-.9,0-1.3v-.3c0-.6,0-1.1.2-1.7,0-.9.2-1.8.4-2.7,0,0-1.2,3.8-1.9,9.8v.8c-.2,0-.4,0-.6,0,0-2.2,0-4.5-.2-7.2,0,.8.2,2.5-.2,4.5s-.4,1.8-.5,2.7c-.4-1.8-.8-2.9-.8-2.9,0,.7.2,1.4.3,2.1v.8h-2.1c.2-2.2.4-4.6.4-4.6-.4.7-1.1,2.5-1.7,4.6h-.8c.8-1.8,1.6-3.2,1.6-3.2,0,0-1.1.9-2.2,2.9h0c0,.2-.2.3-.2.5-.2,0-.5.3-.8.7-.3.3-.5.7-.8,1.3h0c0,.2,0,.3-.2.5h0v.2c0-.8-.2-1.5-.3-2.5-.2-1.7,0-3.2,0-3.9-.4,2.2-.4,4.2-.5,6.1-.8-.4-1.4-.6-1.7-.8-.3-1.9-.7-3.4-1-4.2,0,0,0-.2,0-.2h-.2c0-.3-.2-.5-.2-.5,0,.3,0,.5,0,.7-.3.2-.9.7-1.5,1.5-.6-2-.5-3.4-.5-3.4,0,0-.3,1.1.3,3.7-.3.4-.6.8-.9,1.4-.3-.5-.6-1-.9-1.4.5-2.7.3-3.7.3-3.7,0,0,0,1.4-.5,3.4-.6-.8-1.2-1.2-1.5-1.5,0-.2,0-.5,0-.7,0,0,0,.2-.2.6,0,0-.2,0-.2,0v.2c-.1.8-.5,2.3-.9,4.2-.3,0-.9.3-1.7.8,0-1.9,0-3.9-.5-6.1,0,.7.2,2.1,0,3.9-.1,1-.3,1.7-.3,2.5v-.2h0c0-.2-.1-.3-.2-.5h0c-.2-.6-.5-1.1-.8-1.3-.4-.4-.6-.6-.8-.7,0-.2-.2-.3-.2-.5h0c-1.1-2-2.2-2.9-2.2-2.9,0,0,.8,1.4,1.6,3.2h-.8c-.6-2.1-1.3-3.9-1.7-4.6,0,0,.2,2.4.4,4.6h-2.1v-.8c0-.7.2-1.4.3-2.1,0,0-.4,1.1-.8,2.9-.1-.8-.3-1.6-.5-2.7-.4-2-.3-3.7-.2-4.5-.4,2.6-.3,4.9-.2,7.2-.2,0-.4,0-.6,0v-.8c-.6-6-1.9-9.8-1.9-9.8.1.9.3,1.8.4,2.7,0,.6.1,1.1.2,1.7v.3c0,.5,0,.9.1,1.3v.3c0,1,.1,2,.2,3v1.8c0,.7-.2,1.3-.3,1.9-.2,0-.4.2-.6.4-.2-3.3-.6-8.3-.6-8.3-.4,1.3-1,5.2-1.3,9.2v.6s-.1,0-.2.2v-1.7c0-1.2-.3-2.4-.6-3.5.2-2,.3-4,.3-4-.2.4-.6,1.2-.9,2.2,0-.2-.1-.3-.2-.5.1-.3.2-.4.2-.4,0,0-.1,0-.3.2-.4-1.1-.8-2-1.1-2.4h0c-.1-.3-.2-.4-.2-.4,0,.5.3,2,.6,3.7-.7.8-1.6,2.2-2.2,4.3-.5-.7-1-1.3-1.5-1.9-.2-1.7,0-3,0-3.7-.2,1.2-.3,2.3-.4,3.3-1.2-1.2-2.1-1.8-2.1-1.8.8.7,1.4,1.5,2.1,2.4,0,1.4,0,2.7-.1,4h0c-.5-1-1-1.9-1.6-2.6-.3-1.8-.7-3.2-.9-4.1.2-.3.2-.4.2-.4,0,0-.1,0-.3.2-.1-.5-.2-.8-.2-.8,0,.3,0,.6.1.9-.4.3-.9.8-1.5,1.5v-.3c.4-2.4.7-4.8.7-5.4,0,0-.6,1.2-1.2,3v-.9,1.2c-.3,1-.6,2.2-.8,3.4-.2-.3-.3-.5-.5-.7.6-2.8.3-3.9.3-3.9,0,0,0,1.5-.6,3.6-.4-.5-.8-.9-1.1-1.2v.8c.2.4.5.9.7,1.5,0,0,0,.2,0,.4,0-.2,0-.3,0-.3v.5h0s0-.2,0-.3v.4s0,0-.2,0v.3s0,0,.2-.2v.3c0,0,0,.2-.2.4v1.5h0v10h0c0,0,0,10.4,0,10.4h83.7l-.8-.2ZM3.3,41.6h0v-.5h0v-.7h0v1.1h0ZM86.2,34s0,0,.2,0h-.2ZM86.2,36.2h0c0,0,0,0,0,0ZM86.5,42.7v-.4h0v.3h0ZM86.6,46.4h0v.3-.6.3ZM86.5,41.7h0c0-.5,0-.9,0-1.3v-1.2c0,0,.2.3.3.4v2.1h-.2ZM86.5,38v1.3c0,0-.2-.2-.3-.3v-1.3h0c0,0,0,.2.2.3h.1ZM86.4,33.7h-.2v-.7s0-.2.2-.3v1.1h0ZM86.3,31.9v.3s0,0-.2.2v-.8s0,.2.2.3ZM85.3,44.1h0v-.7c0-.6-.2-1.3-.4-2,0,0,.2,0,.3.2,0,.8,0,1.6.2,2.5h0ZM84.7,37.7v.4h0v-.5h0ZM84.6,39.9c0,0,.2-.3.2-.4,0,.4,0,.7,0,1.1,0,0-.2-.2-.4-.3v-.3h.1ZM83.6,42v1.3c0-.3,0-.7-.2-1,0,0,0-.2,0-.3h0ZM82.9,38.1c0,.2,0,.4,0,.5,0,0,0,0-.2,0v-.4h0ZM77.9,47h0v-.2.5-.2h0ZM78,44.1v-1.4h0c0,.4,0,.9,0,1.4ZM78.1,42.3h0q0,0-.2,0v-1.1c0-.2.2-.4.2-.6v1.6ZM78.2,40.1c0,0-.2.3-.2.4v-1.6s0,0,.2-.2v1.4ZM78.3,37.5s0,0-.2,0v-1.6s0,.2,0,.2v1.2h0ZM78.4,34h-.2v-.4h0c0-.3.3-.5.4-.8,0,.4,0,.8,0,1.3h-.1ZM79.5,41.2h0v.4c0,.6-.3,1.2-.3,1.7,0-1,.2-1.9.4-2.9v.8h0ZM79.6,39.8v-.6.2c0,0,0,.2-.2.3h.2ZM80,37.4h0v-.8c0,.4.2.9.3,1.3,0-.2-.2-.4-.3-.5ZM79.9,33.5c0,0,.3-.2.4-.2,0,.2,0,.4-.2.6h-.2c0,0,0-.2,0-.4ZM80.2,34.9h.3v1.1c0-.4-.2-.7-.3-1.1ZM81.2,38.6h0v-.7h0c0,.2,0,.4,0,.7h-.2,0ZM81.5,39.7h0ZM82.2,35.9c0-.2,0-.4,0-.6h.2c0,.2,0,.4,0,.6ZM82.3,33.9h-.4c0-.4,0-.9-.2-1.3,0-.6,0-1.2,0-1.8,0-.4,0-.8-.2-1.2h.2c.3,0,.5,0,.7-.2-.2,1.6-.2,3.1,0,4.5ZM81,27.2h1.5c0,.4,0,.8-.2,1.2-.5,0-1-.2-1.4,0,0-.2,0-.5,0-.7h0l.2-.5ZM80.9,42.5c0,.5-.2,1-.3,1.5v-2.4c0,.3.2.6.3.9ZM80.6,33.9h-.2v-.6.6h.2ZM80.4,32.7v.3c0,0-.3,0-.5.2,0-.7,0-1.6-.2-2.4,0,0,.3-.2.4-.3,0,.6.2,1.4.3,2.2ZM79.5,27.5h.3c0,.4,0,.9,0,1.4,0,0-.2.2-.3.4,0-.7,0-1.3-.2-1.7h0ZM78.1,27.6c.4,0,.8,0,1.2,0-.2.6-.3,1.5-.5,2.5l-.2.2c-.2-.5-.4-.9-.7-1.3,0-.4,0-.9.2-1.4h0ZM77.8,29.8c0,.3.3.6.4.9-.2.2-.3.3-.5.5h0v-.3c0-.4.2-.7.2-1.1h0ZM77.6,41.3h0c0-.5-.2-1.1-.4-1.7h0c0,0,.2-.2.3-.3v2h0ZM77.3,35.7c0,.7,0,1.4.2,2.4,0,0,0,0-.2.2,0-.6,0-1.1,0-1.7,0-.3,0-.6.2-.9h0ZM73.1,42.2h0s0-.2,0-.3h0s0,0,0,.2h0ZM74.3,37h0c0,0,0,0,0,0ZM74.3,34.4v-.2s0,0,0,.2h0ZM74.8,35.4h0ZM75,40.1h0v-.3.2h0ZM74.9,33.6v-.2.2h0c0-.1-.2-.2-.3-.4h.7c0,0-.2.3-.3.4h0ZM75.3,45.2h0ZM75.3,34.2h-.2c0-.2.2-.3.3-.5v.5h-.1ZM75.6,43.5h0ZM75.8,31.2h0c0-.4,0-.7-.2-1,.2,0,.3-.2.5-.3,0,.4-.2.9-.3,1.3ZM76.7,33.8s0,.2.2.2v.2h-.2c0,0,0-.3,0-.4h0ZM76.6,27.7c0,0,0,.3,0,.4,0,0,0-.3-.2-.4h.3ZM76.5,34.5h.2c0,.3-.2.7-.3,1.1,0,0-.2,0-.2.2v-.3c0-.3.2-.7.3-1ZM74.9,29.6c.2-.6.4-1.2.6-1.8h.3c0,.4.2,1,.3,1.6v.2c-.2,0-.4.2-.6.3,0-.4,0-.6,0-.6v.7c-.2,0-.4.3-.7.5h0c0-.2,0-.4.2-.7v-.2ZM75.5,30.9c0,0-.3-.2-.4-.3,0,0,.2-.2.4-.3v.6ZM74.3,32.2c0-.3,0-.7.2-1.1h0c.3.3.6.7.9,1v.5c-.4.2-.8.3-1.1.4h0v-.8h0ZM74,29.7c0-.3.2-.5.3-.7,0,.2,0,.5-.2.7h-.1ZM73.5,31.5c0-.4.3-.8.4-1.2h0v.5c0,.2,0,.4,0,.5,0,.2-.2.3-.3.5v-.3h0ZM73.4,33v-.2h0v.2h0,0ZM73.3,33.9v-.2c0,.4,0,.8-.2,1h0c0-.3,0-.6,0-.8h0ZM71.3,30.9v-.8c.3.3.6.6.9.9-.2.2-.4.4-.7.7,0-.3,0-.5-.2-.8ZM72.4,32.5c0,.3-.2.5-.2.8-.2-.4-.4-.7-.6-1.1v-.2c.2-.3.4-.6.6-.8,0,0,0,.2.2.2v1h0ZM72.5,31.1h0ZM72.6,29.3v1.4s-.2,0-.3.2c-.5-.4-.9-.7-1.1-.8,0-.7-.2-1.3-.3-1.9.6.3,1.1.7,1.7,1.1ZM68.4,30.4v-.2c0-.7.3-1.5.4-2v.2c0,.6-.3,1.3-.4,2.1h0ZM69.2,41.1h0v.4h0v-1h0v.7h0ZM69.8,38.8v.2c-.2.2-.4.5-.4.7,0-.3,0-.6,0-.9h.4,0ZM69.8,38.7h-.4v-.6c0,0,.2.2.3.4v.4-.2ZM70,37.6v.6c0,0-.3-.2-.4-.3v-.9h0c0,0,.2,0,.4,0,0,.3,0,.5,0,.8h0ZM70.8,40.8c-.2.8-.3,1.5-.5,2v-.4c.2-.5.3-1.1.5-1.6h0ZM70.2,34.5s0-.2,0-.2v.3h0ZM70.4,32.3h0,0v.6c-.3.3-.5.7-.8,1.1,0-1.2-.2-2.9-.3-4.3.3.8.7,1.6,1.1,2.4,0,0,0,0,0,.2ZM70.4,29.2v1c-.5-.7-.9-1.5-1.2-2.2v-.3c.4.3.8.7,1.1,1.3v.2h0ZM69.9,24.3c0,.3,0,.6,0,.9v.3c0,.5,0,1,.2,1.5v1.3c-.4-.5-.8-.8-1.1-.9v-.4s0,.2,0,.4h0v-.6.3c0,0,0-.3-.2-.4.4-1,.9-1.8,1.2-2.3h0ZM68.4,27.2c0,0,0,.2,0,.3-.2.3-.4.8-.6,1.2v-.2c.2-.5.4-.9.6-1.4h0ZM67.3,37.1v.3h0v-.4h0ZM67,31.2h0c0,0,0,0,0-.1h0ZM67,31.4h0ZM64.5,37.9v-.3c0-.2,0-.5,0-.8,0,0,.2,0,.4,0h0v.9c0,0-.2.2-.4.3v-.3h0ZM64.1,35.2h0v-.9c.2.3.4.7.5,1.1h-.4v-.2ZM64.6,38.4c0,0,.2-.2.3-.4v.6h-.4v-.4.2ZM64.7,39v-.2h.4c0,.3,0,.6,0,.9,0-.2-.2-.5-.4-.7h0ZM64.9,30.2c0-.2,0-.3.2-.4v.4h-.2ZM65.2,41.6h0v-.5h0v-.8c0,.2,0,.5,0,.7v.5h0ZM66.6,28.6c-.2.4-.3.9-.5,1.4h-.2c0-.6-.2-1.2-.3-1.7,0-.4.3-.8.4-1.1.2.4.4.9.6,1.4ZM64.2,27.9c.2-.3.3-.5.3-.5,0,0-.2,0-.3.2v-.5c0-.5,0-1,.2-1.5v-.3c0-.3,0-.6,0-.9.3.5.7,1.3,1.2,2.3,0,.2-.2.5-.3.7h0c0,0,0-.3,0-.4v.4c-.3,0-.7.4-1.1.9v-.5h0ZM64.1,29.3v-.4c.4-.7.8-1.1,1.1-1.3v.3c-.3.7-.7,1.4-1.2,2.2v-.8h.1ZM64,32.1h0c0,0,0,0,.2,0h0c.2,0,.4-.2.6-.3,0,.9,0,1.7,0,2.4-.2-.4-.5-.8-.8-1.1v-.9ZM63.7,40.8c.2.5.3,1.1.5,1.6v.4c-.2-.5-.3-1.1-.5-2h0ZM63.4,29.3c0,.4,0,.9-.2,1.3-.2,0-.3,0-.5,0,.2-.5.5-1,.7-1.5h0ZM62.6,32.5c-.2.3-.3.7-.5,1,0-.3,0-.6,0-.8.2,0,.4,0,.6-.2ZM61.3,42.2h0ZM61.2,27.5c0,.9-.2,1.6-.3,2.5-.2,0-.4-.2-.4-.2,0,0,.2.2.4.3v1h-.3v-.3c0-.5-.2-1-.3-1.5.3-.6.7-1.2,1-1.8h-.1ZM56.6,36.8v-.2h0c0,0,0-.2,0-.3.2-.2.3-.4.5-.5,0,.4-.2.7-.3,1.1h-.1ZM57,43.6v-.6c0,0,0,.3,0,.4l-.2.2h.1ZM57.5,43.1h0c0,0,0-.3,0-.4h.2v.4h-.1ZM57.5,42.5h0,0ZM57.2,42.1c0-.3,0-.5,0-.8,0,.2.2.4.2.7,0,0-.2,0-.3,0ZM58.2,35.8s-.2,0-.2-.2h0c0-.2,0-.3,0-.4,0,0,0,.3,0,.4v.3h0ZM58.5,30.8c0-.3,0-.6-.2-.9,0,0,.3.2.5.3,0,.2-.2.4-.3.6ZM58.9,43.7h0ZM58.9,44h0q0,0,0,0ZM59.1,45.1h0v.2h0v-.2ZM59.3,34.2h-.2v-.5h0c0,.2.2.3.2.5h0ZM59.9,36.1v-.2.7c0-.3,0-.5-.2-.7,0-.2,0-.4-.2-.7h.2s.2,0,.2,0c0,0,0,.2,0,.3v.5ZM59.4,33.5h0v.2h0v-.2ZM60.2,34.4h-.3c0-.2-.3-.5-.4-.7v-.2c.2,0,.4,0,.6-.2v1.2h.1ZM59.7,30.4h0ZM59.9,31.1v.2c-.3,0-.5,0-.7,0,0-.2.2-.5.3-.7l.3.3h.1ZM57.4,25v-.3.3ZM57.6,24.7c.6,1.2,1.3,2.8,1.8,4.5,0,.2-.3.4-.4.7v-.7s0,.2,0,.6c-.2,0-.4-.2-.6-.3,0-.4-.2-.9-.3-1.3-.2-.8-.4-1.7-.7-2.4,0-.4,0-.8.2-1.1h0ZM56.5,31.2h0c0-.3,0-.8.2-1.3.2,1.2.5,2.3.9,3.4v.2-.3.3h0c-.3-.6-.6-1.2-1-1.7v-.7h-.1ZM56.3,33.3c.2.4.3.8.5,1.2-.2,0-.3-.3-.5-.4v-.8ZM56.2,34.8c0,0,.2.2.3.3,0,0-.2.2-.3.3v-.6ZM56.1,38.6h0c0,.2,0,.4,0,.6v-.7h0ZM55.3,36.2h0c0,0,0,0,0,0ZM55.6,42.7v-.4h0v.3h0ZM55.7,46.4h0v.3-.6.3ZM55.7,41.7h0c0-.5,0-.9,0-1.3v-1.2c0,0,.2.3.3.4v2.1h-.2ZM55.6,38v1.3c0,0-.2-.2-.3-.3v-1.3h0c0,0,0,.2.2.3h0ZM55.5,34.6l-.2-.2v-.4s0,0,.2,0v.5ZM55.5,33.7h-.2v-.7s0-.2.2-.3v1.1h0ZM55.5,31.9v.3l-.2.2v-.8s0,.2.2.3ZM54,39.5c0,.4,0,.7,0,1.1h0c0-.3,0-.5-.2-.8,0,0,0,0,0-.2h0ZM53.8,38.1h0v-.3.2h0ZM53.6,36.4v.7c0,0,0-.3-.2-.4v-.3h.2ZM53.2,36.1v-.2h0v-.5h.4c0,.2-.2.5-.3.7h-.1ZM52.8,28.9c.2,0,.4.3.6.5v3.4h-.3s.2,0,.3,0v1.1h-.6v-.8c.2-1.9,0-3,0-4.2h0ZM52.6,42.2v.5-.4h0ZM52.2,37.1v.3c0,.3,0,.7.2,1,0,0,0,.2,0,.4h0s-.2,0-.3-.2c0-.5.2-1,.2-1.4h0ZM51.4,35.3h0ZM50.8,27h.6v1.5c-.2,0-.4.2-.6.3v-1.8ZM51.3,28.5c0,1.9,0,3.7.4,5.4h-.5c0-.5-.2-1-.2-1.5-.2-1.2-.2-2.3-.2-3.5.2-.2.4-.3.6-.4h0ZM50.6,39.7h0ZM50.3,38.3v-.4h0v-.4c0,.3,0,.7,0,1.1h-.3v-.3h.2ZM47.1,47h0v-.2.5-.2h0ZM47.1,44.1v-1.4h0c0,.4,0,.9,0,1.4ZM47.3,42.3h0q0,0-.2,0v-1.1c0-.2.2-.4.2-.6v1.6ZM47.4,40.1c0,0-.2.3-.2.4v-.8s0,0,.2,0v.6h0ZM47.4,37.5s0,0-.2,0v-1.6s0,.2,0,.2v1.2h.1ZM47.5,34h-.2v-.4h0c0-.3.3-.5.4-.8,0,.4,0,.8,0,1.3h-.1ZM48.7,41.2h0v.4c0,.6-.3,1.2-.3,1.7,0-1,.2-1.9.4-2.9v.8h-.1ZM48.8,39.8v-.5.2c0,0,0,.2-.2.3h.2ZM49.3,33.8h-.2v-.4c0,0,.3-.2.4-.2,0,.2,0,.4-.2.6ZM49.6,35.9c0-.3-.2-.6-.3-.9h.3v.8h0ZM49.6,33.8c0-.3,0-.5,0-.8h.2v.9h-.3ZM50,42.5c0,.5-.2,1-.3,1.5v-2.4c0,.3.2.6.3.9ZM49.9,32.5v.4h-.2v-1.2.7h.2ZM49.8,31.6c0,.2,0,.8-.3,1.4,0,0-.3,0-.5.2,0-.8,0-1.6-.2-2.4.3-.3.5-.6.8-.9v1.7h.2ZM48.7,27.5h1v2.1c-.3.2-.6.4-.9.7,0-1.1-.2-2.1-.2-2.6h0v-.2ZM47.2,27.6c.4,0,.8,0,1.2,0-.2.7-.4,1.8-.6,3.1-.3-.6-.5-1.1-.8-1.6,0-.4,0-.9.2-1.4ZM46.9,29.8c.2.5.5,1,.7,1.6-.2.2-.4.5-.6.8,0-.4-.2-.8-.3-1.2,0-.4.2-.7.2-1.1h0ZM46.7,41.3h0c0-.4-.2-.9-.3-1.3,0,0,.2,0,.3,0v1.4ZM46.5,35.7c0,.7,0,1.4.2,2.4l-.2.2c0-.6,0-1.1,0-1.7,0-.3,0-.6.2-.9h-.1ZM43.4,37h0c0,0,0,0,0,0ZM43.4,34.4v-.2.2h0ZM43.8,35.4h0c0,0,0,0-.2,0h.2ZM44.2,40.1h0v-.3.2h0ZM44.4,45.2h0ZM44.4,34.2h-.2c0-.2.2-.3.3-.5v.5h0ZM44.7,43.5h0ZM44.9,31.2h0c0-.4,0-.7-.2-1,.2,0,.3-.2.5-.3,0,.4-.2.9-.3,1.3ZM45.9,33.8s0,.2.2.2v.2h-.2c0,0,0-.3,0-.4h0ZM45.7,27.7c0,0,0,.3,0,.4,0,0,0-.3-.2-.4h.3ZM45.7,34.4h0v.2c0,.3-.2.7-.3,1.1,0,0-.2,0-.2.2v-.3c0-.4.2-.7.4-1.1h0ZM44.1,29.6c.2-.6.4-1.2.6-1.8h.3c0,.4.2,1,.3,1.6v.2c-.2,0-.4.2-.6.3,0-.4,0-.6,0-.6v.7c-.2,0-.4.3-.7.5h0c0-.2,0-.4.2-.7v-.2ZM44.6,30.9c0,0-.3-.2-.4-.3,0,0,.2-.2.4-.3v.6ZM43.7,31.1h0c.3.3.6.7.9,1v.8c-.2.2-.3.5-.5.8v-.2.2h0c-.2-.2-.4-.5-.6-.7,0-.6,0-1.2.3-1.9h-.1ZM43.2,29.7c0-.3.2-.5.3-.7,0,.2,0,.5-.2.7h0ZM42.6,31.5c0-.4.3-.8.4-1.2h0v1c0,.2-.2.3-.3.5v-.3h-.2ZM42.4,33.5s0-.2,0-.2c0,.6-.2,1.1-.3,1.4h0c0-.4,0-.8,0-1.2h.1ZM42.4,41.9h0s0,0,0,.2h0s0-.2,0-.3h0ZM40.4,30.9v-.8c.3.3.6.5.8.8l-.6.6c0-.2,0-.4,0-.7h-.1ZM41.6,32.5c0,.3-.2.5-.2.8-.2-.4-.4-.7-.6-1.1v-.2h0q0,0,0,0c.2-.3.5-.6.7-.9,0,0,.2.2.3.4v1h-.2ZM41.7,31.1h0c0,0,0-.2,0-.3v.3ZM41.7,29.3v1.2c0,0-.2.2-.3.3-.4-.4-.8-.6-1-.8,0-.7-.2-1.3-.3-1.9.6.3,1.1.7,1.7,1.1h-.1ZM37.6,30.4c0-.2,0-.4-.2-.6,0-.7.3-1.4.4-2,0,.2,0,.3.2.5,0,.6-.3,1.3-.4,2.1ZM38.4,41.1h0v.4h0v-1h0v.7h0ZM38.9,38.8v.2c-.2.2-.4.5-.4.7,0-.3,0-.6,0-.9h.3-.3v-.7c0,0,.2.2.3.4v.4h0ZM39.3,36.8c0,.3,0,.5,0,.8v.6c0,0-.3-.2-.4-.3v-1c.2,0,.3,0,.5-.2h0ZM39.2,34.4c0-.2.2-.4.3-.6v.7h-.3ZM39.9,40.8c-.2.8-.3,1.5-.5,2v-1.3c0-.4.2-.8.3-1.1v.5h.2ZM39.6,32.3h0,0v.3h0c-.3.3-.5.7-.8,1.1,0-1.2-.2-2.7-.3-4,.3.8.7,1.6,1.1,2.4v.2ZM39.5,29.2v1c-.5-.7-.9-1.5-1.2-2.2v-.3c.4.3.8.7,1.1,1.3v.2h.1ZM39,24.1c0,.4,0,.8.2,1.2v.3c0,.5,0,1,.2,1.5v1.3c-.4-.5-.8-.8-1.1-.9v-.4s0,.2,0,.4h0c0-.2,0-.3-.2-.5h0c0-.2,0-.4,0-.5.5-1,.9-1.9,1.2-2.3h-.1ZM37.5,26.9c0,0,0,.2,0,.4-.2.3-.4.7-.6,1.2v-.2c.2-.5.4-1,.6-1.4h0ZM36.3,30.2h0ZM36.3,36.4v1.8-1.8ZM33.4,37.9v-.3c0-.3,0-.5,0-.8h0c.2,0,.3,0,.5.2v1c0,0-.2.2-.4.3v-.3h0ZM33,34.5v-.7c0,.2.2.4.3.6h-.3ZM33.6,39v-.6c0,0,.2-.2.3-.4v.7h-.3.3c0,.3,0,.6,0,.9,0-.2-.2-.5-.4-.7h0ZM34.2,41.6h0v-.5h0v-.7h0v1.1h0ZM34.9,30.4c0-.8-.2-1.5-.4-2.1,0-.2,0-.3.2-.5,0,.5.2,1.2.4,2,0,.2,0,.4-.2.6ZM35,26.9c.2.4.4.9.6,1.4v.2c-.2-.5-.4-.9-.6-1.2,0,0,0-.2,0-.4h0ZM33.2,27.6v-.5c0-.5,0-1,.2-1.5v-.3c0-.4,0-.8.2-1.2.3.5.7,1.3,1.2,2.3,0,0,0,.3,0,.4h0c0,.3,0,.4-.2.6h0c0,0,0-.3,0-.4v.4c-.3,0-.7.4-1.1.9v-.8h-.1ZM33,29.3v-.4c.4-.7.8-1.1,1.1-1.3v.3c-.3.7-.7,1.4-1.2,2.2v-.8h.1ZM33,32.3v-.2c.4-.8.7-1.6,1.1-2.4,0,1.3-.2,2.8-.3,4-.3-.4-.5-.8-.8-1.1h0v-.2h0q0,0,0,0ZM32.7,40.4c0,.4.2.8.3,1.1v1.3c-.2-.5-.3-1.1-.5-2v-.5h.2ZM30.8,30.8s.1,0,.1.2h-.1c0,0,0-.1,0-.2ZM31.8,32.2h0q0,0,0,.1c-.2.3-.4.7-.6,1.1,0-.3-.2-.5-.2-.8v-1c0,0,.2-.2.3-.4.2.3.5.6.7.9h0c0,0-.2,0-.2,0ZM32.1,30.7v.2c0,.2,0,.4-.1.7-.2-.2-.4-.4-.6-.6.3-.3.5-.6.8-.8v.6h0ZM32.5,28.2c0,.6-.2,1.2-.3,1.9-.2,0-.6.4-1,.8-.1,0-.2-.2-.3-.3v-1.2c.6-.4,1.1-.8,1.7-1.1h-.1ZM27.6,31.2h0c0-.4-.2-.9-.3-1.3.2,0,.3.2.5.3,0,.3,0,.6-.2,1ZM27.8,43.5h0ZM28.1,45.2h0ZM28.3,34.2h-.2v-.5c0,.2.2.3.3.5h0ZM28.4,40.1v-.2.3h0ZM28.5,35.4h0q0,0,.1,0h-.2.1ZM29.1,36.9h0c0,0,0,0,0,0ZM29.1,34.4h0v-.2.2ZM30.2,42.2s0,0-.1-.2h0s0,.2.1.3h0ZM30.1,33.5c0,.3,0,.7.1,1.2h0c0-.3-.2-.7-.3-1.4,0,0,0,.2.1.2h0ZM29.6,30.4c.1.3.2.7.4,1.2v.3c-.1-.2-.2-.3-.3-.5v-.9h.1c0,0-.2,0-.2,0ZM29.4,29.7h0c0-.2-.1-.5-.2-.7,0,.2.2.4.3.7h0ZM28.9,31.1c.2.7.2,1.3.3,1.9-.2.3-.4.5-.6.8h0v-.3.2c-.2-.3-.3-.5-.5-.8v-.8c.3-.4.6-.7.9-1h0ZM27.9,30.9v-.6c.1,0,.2.2.4.3-.1,0-.2.2-.4.3ZM27.5,27.8h.3c.2.6.4,1.2.6,1.8,0,.3.1.5.2.7h0c-.2-.2-.4-.3-.7-.5v-.7s0,.2-.1.6c-.2,0-.4-.2-.6-.3v-.2c.1-.6.2-1.2.3-1.6v.2ZM27.2,35.5v.3s-.2,0-.2-.2c0-.4-.2-.8-.3-1.1v-.2h.1c.1.4.2.7.4,1.1h0ZM27.1,27.7c0,0-.1.3-.2.4,0,0,0-.3-.1-.4h.3ZM26.7,33.8c0,0,0,.3.1.4h-.2v-.2s.1-.2.2-.2h-.1ZM22.9,35.9h0v-.8h.3c0,.3-.2.6-.3.9h0ZM22.7,33.9v-.9h.2c0,.2,0,.5.1.8h-.3ZM23.4,33.8h-.2c0-.2-.1-.4-.2-.6.1,0,.3.2.4.2,0,0,0,.2,0,.4ZM23.6,39.4v-.2.5s0-.2-.2-.3h.2ZM23.9,41.6v-.4h0v-.8c.1.9.3,1.9.4,2.9,0-.5-.2-1.1-.3-1.7h-.1ZM25,34c0-.4,0-.9-.1-1.3.1.3.3.5.4.8h0v.4h-.3ZM25.1,36.3s0-.2.1-.2v1.6s-.1,0-.2,0v-1.2h.1ZM25.2,39.5s.1,0,.2,0v.8c0,0-.2-.3-.2-.4v-.6h0ZM25.3,42.3v-1.6c0,.2.2.4.2.6v1.1h-.2ZM25.3,42.6h.1v1.4c0-.5,0-1-.1-1.4ZM25.4,47.2v-.5.2h0v.2h0ZM26.1,35.7c0,.3.1.6.2.9,0,.6-.1,1.1-.1,1.7,0,0-.1,0-.2-.2,0-1,0-1.8.2-2.4h-.1ZM26.1,40c-.1.5-.2.9-.3,1.3h0v-1.4s.2,0,.3.1ZM25.8,30.9c-.1.4-.2.8-.3,1.2-.2-.3-.4-.5-.6-.8.2-.5.4-1.1.7-1.6,0,.4.1.7.2,1.1h0ZM25.3,27.6c0,.5.1,1,.2,1.4-.3.5-.5,1-.8,1.6-.2-1.3-.4-2.4-.6-3.1.4,0,.8,0,1.2,0ZM22.9,27.7v-.4h1c0,.5-.1,1.5-.2,2.6-.3-.3-.6-.5-.9-.7v-1.7.2ZM22.8,31.2v-1.3c.3.3.5.6.8.9,0,.8-.1,1.7-.2,2.4-.2,0-.3,0-.5-.2-.1-.6-.2-1.2-.3-1.4v-.4h.2ZM22.7,31.8v1.2h-.2v-1.1h.2ZM22.8,41.7v2.4c-.1-.5-.2-1-.3-1.5,0-.3.2-.6.3-.9ZM21.1,35.3h0ZM22.1,37.5v.4h0v.6h0c0,0-.2,0-.3,0,0-.4,0-.7.1-1.1h.2ZM21.9,39.7h0ZM21.3,26.9h.5v1.6c-.2,0-.4-.2-.6-.3v-1.5h.1v.2ZM21.2,28.5c.2,0,.4.3.6.4,0,1.1,0,2.3-.2,3.5,0,.5-.2,1-.2,1.5h-.5c.2-1.7.4-3.5.4-5.4h0ZM20.3,37.5v-.3c0,.5.2.9.2,1.4,0,0-.2,0-.3.2h0c0,0,0-.2-.1-.4,0-.3.1-.7.2-1h0ZM19.9,42.2h0v.5-.5ZM19.2,32.8s.2,0,.3,0h-.3v-3.4c.2-.2.4-.3.6-.5-.1,1.2-.2,2.3,0,4.2v.8h-.6v-1.1h0ZM19.4,35.3v.8c0-.3-.2-.5-.3-.7h.4-.1ZM18.9,36.4v.3c0,0-.1.3-.2.4v-.7h.2ZM18.7,37.9v.3h0v-.2h0ZM18.5,39.5s0,0,.1.2c0,.3-.1.5-.2.8h0c0-.4,0-.7.1-1.1h0ZM16.9,42.7v-.3h0v.4h0ZM17.2,36.2h0c0,0,0,0,0,0ZM17.1,31.9s.1-.2.2-.3v.8s-.1,0-.2-.2v-.3ZM17.1,32.6s.1.2.2.3v.7h-.2v-1.1h0ZM17,34.2s.1,0,.2,0v.4s-.1,0-.2.2v-.5ZM16.9,38c0,0,.1-.2.2-.3h0v1.3l-.3.3v-1.3h0ZM17.1,39.2v1.2c0,.4,0,.8-.1,1.3h0v-2.1c0-.2.2-.3.3-.4h-.2ZM16.8,46.4v-.3.6-.3h0ZM13,36c0,.2-.1.5-.2.7v-.7.2-.3s0-.2.1-.3c0,0,.2,0,.2,0h.3c0,.2-.1.5-.2.7l-.2-.2ZM13,33.5h0c0-.1,0,0,0,0ZM13.4,45.2v-.2h0v.2ZM13.4,34.2h-.2c0-.2.2-.3.2-.5h0v.5ZM13.7,44h0q0,0,0,0ZM13.7,43.7h0ZM14,30.8c0-.2-.2-.4-.3-.6.2,0,.3-.2.5-.3,0,.3-.1.6-.2.9ZM14.5,35.6s-.2,0-.2.2v-.3c0,0,0-.3.1-.4,0,0,0,.3.1.4h0ZM15,42.4h.1-.1ZM15,42c0-.2.2-.4.2-.7,0,.3,0,.5.1.8-.1,0-.2,0-.3,0ZM15.1,43.1h0v-.4h.2c0,0,0,.3-.1.4h0ZM15.2,45.3c0,0,.1.3.2.4h-.1v-.3h0ZM15.4,43.4c0,0,0-.3.1-.4v.6s-.1,0-.2-.2h0ZM16,36.5h0v.2c0-.4-.2-.7-.3-1.1.2.2.3.3.5.5,0,0,0,.2-.1.3h-.1ZM16.4,38.6v.7c0-.2,0-.4-.1-.6h.1ZM16.3,35.4c-.1,0-.2-.2-.3-.3,0,0,.2-.2.3-.3v.6ZM16.3,34.2c-.2,0-.3.2-.5.4.1-.4.3-.8.5-1.2v.8ZM15.9,29.8c0,.5.2,1,.2,1.3h0v.7c-.4.5-.7,1.1-1,1.8h0v-.4.3-.2c.3-1.1.6-2.2.9-3.4h-.1ZM15.2,24.8v.3-.3ZM15,24.7c0,.4.1.8.2,1.1-.2.8-.5,1.6-.7,2.4-.1.4-.2.9-.3,1.3-.2,0-.4.2-.6.3,0-.4-.1-.6-.1-.6v.7c-.1-.2-.3-.5-.4-.7.5-1.6,1.2-3.3,1.8-4.5h.1ZM12.8,30.4h0ZM12.6,31.1c.1,0,.2-.2.3-.3.1.2.2.5.3.7-.2,0-.4,0-.7,0v-.2h0ZM12.4,33.3c.2,0,.4,0,.6.2v.2c-.1.2-.3.4-.4.7h-.3v-1.2h0ZM12.3,29.3c-.1.5-.2,1-.3,1.5v.3h-.3v-1c.1,0,.2-.2.4-.3,0,0-.1,0-.4.2,0-.9-.1-1.6-.3-2.5.4.6.7,1.2,1,1.8h0ZM11.2,42.2h0ZM10.5,32.7c0,.3,0,.6-.1.8-.2-.4-.3-.7-.5-1,.2,0,.4,0,.6.2ZM9.9,30.7c-.2,0-.4,0-.5,0,0-.5-.1-.9-.2-1.3.2.4.5.9.7,1.5h0ZM7.3,41.1h0v.4h0v-.4c0-.2,0-.5,0-.7v.8h0ZM7.9,38.8v.2c-.2.2-.4.5-.4.7,0-.3,0-.6,0-.9h.4,0ZM7.5,29.7c0,.2,0,.3.2.4h-.2v-.4ZM7.9,38.7h-.4v-.6c0,0,.2.2.3.4v.4-.2ZM8.1,37.6v.6c-.1,0-.3-.2-.4-.3v-.9h0c0,0,.2,0,.4,0,0,.3,0,.5-.1.8h0ZM7.9,35.3c.2-.4.3-.7.5-1.1v.9h-.4v.2ZM8.9,40.8c-.2.8-.3,1.5-.5,2v-.4c.2-.5.3-1.1.5-1.6h0ZM8.5,32.4v.5c-.3.3-.5.7-.8,1.1,0-.7,0-1.5,0-2.4.2,0,.4.2.6.3h.2v.5ZM8.5,29.2v1c-.5-.7-.9-1.5-1.2-2.2v-.3c.4.3.8.7,1.1,1.3v.2h0ZM7.9,24.3c0,.3,0,.6,0,.9v.3c0,.5.1,1,.2,1.5v.5c-.1,0-.2-.2-.3-.2,0,0,0,.2.3.5v.5c-.4-.5-.8-.8-1.1-.9v-.4s0,.2,0,.4h0c0-.3-.2-.5-.3-.7.4-1,.9-1.8,1.2-2.3h0ZM6.5,27.2c0,.3.2.7.4,1.1,0,.5-.2,1-.3,1.7h-.2c0-.5-.3-1-.5-1.4.2-.5.4-.9.6-1.4ZM5.5,31.4h0ZM5.5,31.2v.2h0v-.2ZM5.3,37.1v.5h0v-.4h0ZM4.1,30.4c0-.8-.2-1.5-.4-2.1v-.2c0,.6.2,1.3.4,2v.2h0ZM4.1,27.2c.2.4.4.9.6,1.4v.2c-.2-.5-.4-.9-.6-1.2,0,0,0-.2,0-.3h0Z" fill="#286300"/>
</svg>