<?xml version="1.0" encoding="UTF-8"?>
<svg id="_レイヤー_1" data-name="レイヤー_1" xmlns="http://www.w3.org/2000/svg" width="600" height="340" version="1.1" viewBox="0 0 600 340">
  <!-- Generator: Adobe Illustrator 29.6.1, SVG Export Plug-In . SVG Version: 2.1.1 Build 9)  -->
  <g>
    <path d="M33.3,156.5c22.1-1.5,29.6-16.7,57-19.4,27.4-2.7,36.9,11.8,45.4,13.7,8.5,1.9,22.1-.5,25.9-7.9,4.9-9.3-1-17.5-15.5-24.4-8.8-4.2-10.8-8.1-11.1-13.6-.2-3,.5-5.2-.2-5.6-.7-.4-1.4,2.8-1.9,5.1-1.1,5.9-6.1,8.8-19.1,10.9-8.9,1.5-17.4,3.4-26.2,5.3-1.3-9.5-1.9-20.6-1.4-31.7,4.8,2.7,12.1,6,19.5,6.4,12.6.6,23.7-7.3,25.6-17.7s-2.5-15.8-6.6-17.4c-3.3-1.3-10.6-2.4-15.2-1.4-5.3,1.2-11.7,4.2-11.8,5.4-.2,1.4.8-.9,4.1-.7,1.5,0,3.4.8,3.7,1.7,2,5-9.4,7.9-17.9,7.4.1-1.1.3-2.1.5-3.2.6-3.7,3.9-5.2,5.1-8.5,4.2-11.3-9.7-20.2-20.4-23.7-11.9-3.9-23.5-4.5-29.2-2.9-3.5,1-8.5,2-8.7,2.9-.2.9,2.1,3.8,4.6,6.9,4.7,5.8,12.2,11.3,19,15.5,13.7,8.4,12.2,27.9,10.6,40.1-1.4,10.3-2.7,19-1.5,24.8-1.7.3-3.5.6-5.3.8-10.8,1.5-21.7,1.8-27,.3-2.3-.6-5.3-2.5-4.6-5.9.9-4.6,3.8-5.6,3.1-6.4-.6-.8-9,3.3-13.7,6.4-7.8,5.3-13.4,9.6-13.4,18.9s8,19,26.8,17.7Z" fill="#fff"/>
    <path d="M172.7,113.3c7.8-4.6,15.4-12.9,26.7-15.5.8,20.2-3.2,40.8-10.4,56.1-8.6,18.4-20.1,24-33.1,22.1-6.9-1-12.2-7-10.7-13.3,1.1-4.8,4.8-6.4,3.9-7.2-.8-.8-14.9,5.8-14.9,19,0,13.2,11.5,24,29,26.3,19.7,2.7,37.8-4.3,46.6-15.3,8.8-11,13.2-28.1,13-55,0-9.3-2.2-20.8-5.6-32.4,10,2.1,14.4,6.1,24.7,5.5,12.9-.7,16.6-7.3,14.6-12.8-2.1-6-5.9-9.8-17.1-11.9-7.8-1.5-12.9-4.6-13.2-3.6-.2.5,1.2,1,1.9,2,.5.7,0,1.6-1.9,2-4.7.9-9.3,1.8-14.4,3-1.3-3.3-2.7-6.5-4.1-9.6,7.3-2.1,13.4-2.6,18-2.7,10.2-.2,15.4,2.5,19.4-1.6,6.3-6.4-3.1-16.3-13-15.9-10,.5-15.4,2.3-29.5,9.7,0,0-.2,0-.2.1-3.2-5.5-6.5-10.2-9.8-13.8,8.6-3.8,16.5-6.9,19.6-8.8,12.6-7.5,13.2-20,7-27.4-6.2-7.4-22.3-6.3-29.2-3.2-7.1,3.2-11,7.8-10.1,8.3,1.1.5,4.7-4.7,13.2-4.6,5,0-.8,6.9-4.9,13.5-4.1,6.6-10.6,14.5-19.3,24.4-6.6,7.5-23,25.9-10.1,35.7,13.1,9.9,29.2-5.8,35-8.6,1-.5,1.9-.9,2.8-1.3.7,2.9,1.3,6,1.7,9.2-17.3,5-34.2,11.4-39.7,12.8-5.4,1.4-9.5,1-8.5-2.1,1.1-3.5,6.9-5.2,6.4-5.9-.7-.7-13.4,5.2-11.5,14.9,1.8,9.1,17.9,13.2,27.6,7.5ZM173.6,71.5c-9.8,1.4-14-.4-11.5-4.3,3.3-5.3,14-11,24.7-15.9,2.2,3.5,4.6,8.7,6.8,15.1-8.4,3.3-15.3,4.4-20,5.1Z" fill="#fff"/>
    <path d="M245.2,130c-2,2.5-2.6,5.4-.9,9.5,2,4.9,11.3,7.5,21.9,16,8.1,6.5,12,13.1,18.3,17.6,4.3,3.1,8.1,3.5,11.1,2.2,3.4-1.5,5.7-5.1,6.2-9.2.8-6-1.9-7.9-4.3-13.7-2.4-5.8-1.1-13.3-2-13.6-.7-.2-1.9,6-2.5,9.1-.3,1.4-1.8,3.4-4.3,2.1-3.1-1.6-6.7-3.3-11.1-4.9-10.5-3.9-19.2-7.3-19.3-12.9s13.8-16.3,25-24.6c10.8-7.9,13.8-16.2,11.4-22.6-3.5-9.5-13.1-10.3-20.5-8.7-7.4,1.5-10.6,3.8-10.3,4.5.3.9,2,.8,3.3.6,3.1-.4,5,.9,6.3,2.8,2.6,3.9,1.6,13.9-8.5,27-6.5,8.5-16.2,14.1-19.8,18.7Z" fill="#fff"/>
    <path d="M330.1,126.6c1.9-7.1,14.9-26.2,20.6-32.4,5.8-6.2,13.2-9.5,16.3-7.4,3.1,2.1,1.6,10-5.2,14.8s-19,9-18.6,12.7c.4,3.6,7.1,2,11.3,2.1,5.2.1,6.7,6.8,5.5,13.2-3.4-.8-6.7-1.4-9.2-1.7-9.9-1.2-15.4,1-18.1,4.2-3.5,4.1-3.2,9.1.5,13.2,6.3,6.8,17.8,8,28.2,4.6,2.3-.8,4.2-2.2,5.8-4,1.9,1.7,3.6,3.2,5.1,3.9,6.7,3.3,12.6-3.5,9.7-8.8-4.1-7.3-3.2-10.9-4-10.9-.7,0-1.1,3.1-1.2,4.5,0,.7-.7.9-1.7.3-.8-.4-1.6-.8-2.5-1.2.1-.9.2-1.8.3-2.7.3-7.3-1.7-13.5-6.2-17.4-3.3-2.9-6.9-3.8-8.2-4.2-.5-.2-.2-.5,0-.6,2.8-1.4,17.5-8.8,25-16.4,8.7-8.8,2.4-18.3-6.6-18.6-8.2-.3-19.2,7.1-27.3,17.5-8.1,10.3-16.7,21.8-19.1,22.5-1.2.4-1.6-1.9.3-8,1.3-4.4,3.5-10.1,6-16,1.6-.5,3.1-1.1,4.7-1.8,12.4-5.6,14.9-24.5,13.5-24.5s-.8,3.4-5.6,8.4c-1.8,1.9-4.2,3.4-6.9,4.6,1.9-4.5,3.6-8.5,4.6-11.3,3.2-8.6-1.7-10.1-7.8-10.4-3.6-.2-6.9.5-8.1,1.9-.7.8-1,1.5-.3,1.7.6,0,1.3-.7,3.1-.7,3.9,0,2.3,8.8-1.7,18.3-.4.8-.8,1.8-1.2,2.7-1.3,0-2.6,0-3.8-.2-8.7-1-8.2-5.2-10.2-4.6-1.2.4-6,4.9-4.8,8.5,1.7,5.4,6.3,8.2,11.9,8.9-4.7,7.8-10.1,16-13.8,20.9-6.3,8.6-4.8,16.5,1.9,23,6.9,6.7,16.3-1.1,18.3-8.5ZM341.1,142.7c-4.6-1.4-6.1-4.6-5.2-6.4,1.5-3.4,5.1-4,10.1-2.6,4.4,1.2,7.6,2.8,10.4,4.4-4.2,5.3-10.5,6.1-15.2,4.7Z" fill="#fff"/>
    <path d="M116,184.2c-2.3-4.2-8-6.9-13-8.1-5.1-1.1-10.8,6.2-16.6,9.9-3.9,2.5-10.8,5.4-17,7.2,2.1-8.9,1.3-18-5.7-20.7-9.6-3.7-17.6.5-19.7,3.1-.2.3-.2.7.3.7,1,0,3,0,4,.2,1.4.3,4.6,4.1,2.7,11.6-1.9,7.5-12.2,23.3-16.2,22.6-4.4-.8-3-3.7-2.1-5.1.3-.5-.5-.4-1.1-.2-7.9,3.4-10,12.7-6.8,16.4,12.3,14.8,33.5-5.7,39.7-16.3.4-.6.7-1.2,1-1.9,4.2,1,9.8,1.9,15.9,1.9,13.9,0,28.2-5.8,32.6-9.2,4.4-3.3,4.3-8.2,2-12.4Z" fill="#fff"/>
    <path d="M63.8,213.4c-5.7,3.6-8.5,5.8-9.7,8.9-1.3,3.4,2.5,9.5,11.2,7.6,7.4-1.6,10.5-7.5,18.9-8.7,8.4-1.1,13.5-1.3,15.2-5,3-6.3-7-9.9-11.8-9.1-2.4.4-2.5,2.4-6,4.2-3.5,1.8-10.3,4.1-13.6,4.6-5,.8-4.7-.8-3.8-2.1.6-.9.1-.8-.3-.5Z" fill="#fff"/>
    <path d="M167,240.1c-10.2-4.8-23-6.7-27.4-6.2-.9,0-1.5.3-1.5.6,0,.3,1,.6,2,.8,3.2.7,8.8,1.2,19.7,6.4,10.9,5.2,16.3,16.7,14.1,24.5-2.3,7.7-13.8,15.6-36.3,11.8-22.5-3.8-33.4-16.4-23-25.4,4.3-3.7,12.8-9.2,13.9-15.2,1-6-5.5-12.6-10.4-15.4-8.9-5-22.8-1.2-28.1,1.6-5.4,2.8-17.5,11-26.4,14.2-8.9,3.2-23.1,8.4-26.5,5.8-2.3-1.8,1.8-4.9,5.3-7.6,1.5-1.2,1.6-1.5,0-.8-3.9,1.6-10.9,4.4-14.7,5.2-8.4,1.6-13.1,7.7-11.5,14.5,1.2,5.2,6,10,12.9,11.2,19.5,3.3,26.6-9,35.7-16.7,9.8-8.2,24.6-16.7,31.2-11.2,6.6,5.5,4.1,11,.6,21.7-4.6,13.9-.3,31.2,16.7,41.8,11.3,7,41.8,11.9,60.8,4.2,12.4-5.1,21.4-18.4,19.1-35.5-2.3-17.1-21.3-27.7-26-29.9Z" fill="#fff"/>
    <path d="M239.4,248.8c-3,0-5.5.2-7.7.5,3.8-7.1,6-7.8,7.2-13.1.8-3.3-.4-6.1-5.7-7.4s-10.7,1.6-12.9,3.3c-2.3,1.7-3,2.4-2.4,3.1.5.6,4.1-1.4,5.6.8,1.1,1.6-.4,8.8-3.1,16.8-6,1.9-8.2,1.3-9.8-.2-1.2-1.2-1.2-2.7-1.1-3.7,0-.5-.5-.8-1-.6-1.2.4-3.4,1.5-4.8,4.2-2.4,4.6,1,9.6,5.9,9.9,3.5.2,5.8-.8,8.1-2.4-1,2.4-2,4.7-3.1,6.8-5.6,11-10.5,16.3-13.7,21.4-3.2,5.1-2.5,13.2,3.1,15.6,5.7,2.3,10-1.6,11.1-3.8.8-1.5,1.5-6.3,3.8-14.9.5,1.5,1.6,3.4,1.8,6,.5,4.6,2.4,6.9,6.4,9.3,9.3,5.5,19.5.3,24.6-8.6,5.2-8.9,7.2-25.3,5.2-31.9-2.5-8.6-10.4-11-17.6-11.1ZM231.3,284.8c-4.5,5.2-11.6.3-11.8-1.6,0,0,0-.1,0-.2,1-3.6,2.2-7.7,3.7-12.4,2.2-6.7,4.1-11.7,5.8-15.5,3.5-.4,7,0,8.4,1.5,4.9,5.3-1.5,23-6.1,28.2Z" fill="#fff"/>
    <path d="M84,273c-.2-.1-.3-.2-.5-.4,3.9-12.8,5.6-18.2,1-22.7-3.8-3.7-9.2-3.1-12.2-1.6-1.4.7-2.5,1.6-3.2,2.4-.8.9-.4,1.3.6,1.2,1.3-.2,3.1,0,3.9,1.4,1.5,2.8.5,9.3-1.5,13.4-7.5-2.4-15.7-2.5-23.2.2-17.6,6.4-24.8,16.8-25.1,25.3-.3,8.5,4.7,16,14.6,19.5,11.6,2.6,23.6-4.9,32.3-14.9,3,6.4,6.1,11.5,15.2,11.8,5.9.2,9.7-5.2,10.8-11.8,1.1-6.5-2.3-16-12.6-23.9ZM45.8,289.5c-10.6,2.3-10.9-4-10.3-7.4.5-3.4,3-7.3,11.9-8.1,4.6-.4,9.3,2.7,13.3,6.9-4.5,4-9.7,7.4-14.8,8.5Z" fill="#fff"/>
    <path d="M253.5,245.5c-.4.1-.7.5.2.9,1.4.7,5.6,1.9,10.6,6.4,5,4.5,5.8,8.7,5.1,15.4-.2,2-1,3.4-1.9,4.3-.9.9-6,.4-6.2,1.3-.1.8,4.5,1.5,8.4,4.4,3.9,2.8,2.3,5.1,6.3,5.7,2.5.4,13.8-4.8,9.2-20.1-4.1-13.7-23.8-20.1-31.7-18.2Z" fill="#fff"/>
    <path d="M261.8,229c2.6,3.2,2.8,7.3,6.9,7.7,4.3.4,6.9-6,1.2-9.6-4-2.6-7.3-2.8-9.9-2.7-1.7,0-2.7.5-3.2,1-.4.4-.4,1.2,0,2.2.8,2.4,1,3.5-.4,3.7-1.3.1-2.4-2.5-6.4-3.2-2.4-.4-4.6,0-6.6,1.2-.4.2-.6.7,0,.9,1.1.2,2.5,0,4,1.3,2.5,2.2,2.5,4.6,4.2,7.1,3.1,4.6,8.9,3.4,10.1-.5,1.2-3.8-.6-4.7-3.1-8.3-1-1.4-1.4-2.9-.9-3.4.5-.5,2.1.2,4.1,2.7Z" fill="#fff"/>
    <path d="M368.6,229.1c18.5,3.9,24.7-4.9,25-12.2.2-7.2-6-14.3-19.2-16.6-6-1-13.6-3.6-20.3-6.6-2.4-4.3-5.6-7.6-9.7-11.2-7.6-6.5-18.4-6.8-21.5-4.2-3.1,2.7-.2,6.1,2.2,6.8,2.4.7,8,7.7,12,14.9,2.3,4.2,4.5,10.3,5.7,19-18.8,4.2-38.8,4.5-44.6,4.4-2.7,0-4.2-.9-4.8-2-.6-1.1-.2-1.8.9-3,.4-.4.6-1.6-1.1-1.3-3.6.7-5,1.6-7,3.6-3.8,3.7-6.9,11.2,2.7,18.1,6.6,4.7,20.3,5.4,28.8,1.3,6.1-3,11.5-6.7,17.8-8.7,2.7-.9,5.5-1.6,8.2-2.2.1,3.5,0,7.4-.1,11.5-4-2.1-7.8-3-10.7-2.9-9.8.3-21,8.7-22.2,26.7-1,15.9,13,32.2,25.6,29.7-.5,1.5-1,3-1.6,4.4-4.9,11.3-17,19-27.4,18.5-6.4-.3-9.5-5.8-8.4-11,1.1-5.1,4.1-6.7,3.9-7.1-.2-.5-4.2.8-8.3,7.1-4.2,6.4-2.3,23.5,18.1,26.8,24.8,4,50.2-20.6,51-52.1.3-11-2.2-19.5-5.9-26,1.5-9,2.2-18.3,2.3-26.6,3,.2,5.9.5,8.7,1.1ZM329.2,275.8c-5.6-.6-10.2-8.5-9.4-16.8.8-8.4,4.4-12.8,8.3-13.6,3.9-.8,9.9,3.8,10.7,14.9.1,1.5.2,2.9.3,4.5-2.9,7.6-6.6,11.4-9.9,11ZM355.5,196.4c5.3,3,10.1,5.6,12,6.5,3.9,1.9,4.3,3.9,3.7,5.3-.4,1-2.5,3.1-11.8,6.2-.7-7.8-2-13.5-4-18Z" fill="#fff"/>
    <path d="M519.4,258.6c-3.2.9-6,2.7-8.4,5-1.2,1.2-5.2,8.1-6.9,7.1-4.8-2.8,2.2-11.4,4.3-13.4,2.3-2.1,4.5-3.4,7.9-4.7,6.2-2.4,8.7-5,7.9-8.2-.8-3.2-5.9-3.8-8.5-3.3-2.4.4-4.6,1.6-6.8,2.6-3,1.5-9.5,4.6-12.9,3.1-1.1-.5-1.3-1.3-2-1.5-.7-.1-1.6,1.3-1.3,2.5.4,1.6,2.1,3.5,4.3,4.8,2.1,1.2,5,1.7,7.4,1.9.3,0,.3.6,0,.8-5.4,5.5-10.3,13.4-8.2,21.5,1.1,4.6,5.8,8.8,10.4,7.6,2.7-.7,6-5.1,5.6-10.1-.3-5,2.3-9.3,5.6-10.1,3.3-.7,6.1,1.3,7.6,6.1,1.5,4.9,1.5,12.5-2,18.6-3.5,6.1-11.2,13.4-21.2,17.1-.6.2-1.3.5-1.2,1,.1.5,1.2.8,2.7.4,11-2.8,20.9-7.3,28.1-14.2,7.2-7,11.4-15.7,7.6-26.2-3.8-10.4-14.8-10.3-20.3-8.7Z" fill="#fff"/>
    <path d="M577.9,218.1c-7.7-9.9-19.4-5.9-24.8-2.3-3.1,2.1-5.5,5-7.3,8.3-.9,1.7-2.8,10.5-5,10-6.1-1.4-1.6-13,0-15.8,1.7-3,3.7-5.2,6.9-7.8,5.8-4.7,7.6-8.4,5.7-11.5-2-3.2-7.6-2-10.3-.6-2.4,1.3-4.4,3.3-6.4,5.2-2.7,2.6-8.6,8.2-12.8,7.8-1.3-.1-1.9-1-2.6-.9-.8.1-1.3,1.9-.5,3.1,1,1.6,3.4,3,6.3,3.6,2.7.6,5.9.1,8.6-.5.3,0,.5.5.4.9-3.9,7.8-6.4,18-1.4,25.9,2.8,4.5,9.3,7.4,13.8,4.6,2.7-1.7,4.6-7.6,2.5-12.8-2.1-5.2-.7-10.8,2.6-12.8,3.3-1.9,7-.8,10.3,3.9,3.3,4.7,5.9,12.9,4.3,20.7-1.6,7.8-7.3,18.3-16.8,25.7-.6.4-1.3,1-1,1.5.3.5,1.5.4,3.1-.5,10.8-6.8,19.9-15,25.2-25,5.3-10,6.8-20.8-.9-30.7Z" fill="#fff"/>
    <path d="M479.3,281.5c-2.8.1-5.5,1-8,2.4-1.2.7-6,5.6-7.2,4.4-3.4-3.3,4.2-9,6.4-10.2,2.3-1.3,4.4-1.9,7.5-2.2,5.6-.7,8.3-2.3,8.3-5.1,0-2.8-4.1-4.3-6.4-4.5-2.1-.1-4.1.3-6.2.8-2.8.6-8.8,1.8-11.3-.2-.8-.6-.8-1.4-1.3-1.6s-1.6.7-1.6,1.8,1,3.3,2.6,4.8c1.5,1.5,3.7,2.5,5.7,3.1.2,0,.1.5-.1.7-5.7,3.5-11.3,9-11.3,16.1,0,4,3,8.5,7,8.5s6-3,6.7-7.2c.8-4.2,3.9-7.2,6.8-7.1,2.9,0,4.8,2.3,5.1,6.7.3,4.4-1.4,10.7-5.5,15-4.1,4.3-10.8,8.7-19.9,8.7-6.2,0-12.7-1.3-19.7-5.1-.3-.2-.6-.4-.9-.5,4.2-3,7.5-6.5,9.3-10.4,7.8-17-4.2-29.2-12.9-32.7-8.7-3.5-19.6-1-25.6,1.2-6,2.2-12.6,7.7-14.2,6.4-1.6-1.3,5.3-9.4,19.9-15.9,14.6-6.4,25.3-1.3,27.8-8.2,2.5-6.9-5.3-14.6-16.9-15.2-12.5-.6-8.4,4-16.7,8.8-8.2,4.8-14,5.3-19.3,2.8-4.5-2.1-1.5-4.3-2.8-4.1-9.2,1.6-10.2,15.5-.7,18.6,14.4,4.8,31.2-19.2,34.4-17.2,3.2,2-16.5,15.4-32.3,23.9-6,3.2-9.1,4-11.7,7.3-4.3,5.5-4.1,12.3-1.1,16.9,4.8,7.3,14.6-5.7,22-11.4,7.5-5.8,12.7-8.4,20-8.3,7.3.2,14.2,9.8,6,23.8-.2.4-.4.7-.7,1.1-3.4-3.1-6.8-5.9-10.5-7.6-5.7-2.6-12.7-2-17.5-.2-12.5,4.5-13.2,19.7-5.8,25.3,10.6,8.1,31.5,5.5,45.6-2.6,6.3,3.1,13.8,5.2,24,5.9,9.6.7,18.8-1.7,26.2-6,7.4-4.3,12.7-10.6,11.7-20.1-1-9.4-10.1-11.6-15-11.4ZM394.5,308.7c-4.8-4.5-3.5-11.9,4.2-12.9,7.5-1,13.5,3.3,18.2,7-7.8,8.1-18.4,9.6-22.4,5.9Z" fill="#fff"/>
    <path d="M395.6,145.3c5.7.2,8.1-7.3,17.3-14.4,9.2-7.1,23.8-7.7,29.2.6,3.1,4.8,2.9,10.1.6,14.5-.8-1.1-1.6-2-2.3-2.5-5.9-4.7-15.2-5.5-23-3.2-7.5,2.2-12.1,9.5-10.5,17.8,1.9,10.1,12.5,13.5,28,12.8,15.5-.8,33-14.6,32.3-28.7-.7-14.2-10.2-22-27.5-23.6-13.4-1.3-20.4,3.4-24.1,5.5-3.7,2.1-4.7,2.9-5.2,2.8-.6,0-1.3-.2-1-1.4.3-1.7,4-6.7,11-11.7,7-5.1,12.1-6.8,19.3-8.9,7.1-2,10.6-3.2,13.2-6.4,7.6-9.5-6.3-16.6-15.9-15.6-5.4.5-11.6,5.1-14.8,7.7-4.8,3.8-11.4,3.5-14.7,1.8-3.4-1.6-4.6-3.5-3.3-6,.4-.8,1.4-1.6.9-2.1s-10.2,4.2-10.6,11.5c-.3,5.9,2.9,11.9,10.4,12.5,8.6.7,13.1-5.3,17.1-8.5,4.4-3.5,8.6-5.8,9.1-4.5.8,1.8-16.3,17.7-29.4,26.4-5.7,3.8-9.3,3.6-10.8,7-2.7,5.7-2.8,16.3,4.9,16.6ZM417.9,157.3c-4.3-2.2-4.8-5.8-2.8-7.9,2-2.1,6.3-2.2,10.2.2,1.9,1.2,3.2,3.7,4.2,6.7-4.5,1.7-9,2.3-11.6,1Z" fill="#fff"/>
  </g>
  <g>
    <g>
      <path d="M588.3,71.9c.2,1.9.2,3.8,0,5.7-1.2,8.3-3.7,21.9-8.4,39.8-8.7,33.2-41.5,49.1-42.9,49.8l-3.2,1.6-3.2-1.6h0c-1.4-.7-34.2-16.7-42.9-49.8-.3-1-.5-2-.8-2.9,0,0,0,0,0,0-.3.3-.6.5-.8.6.2.8.4,1.7.7,2.6,8.8,33.6,42,49.7,43.4,50.4l3.7,1.7,3.7-1.7c1.4-.7,34.6-16.8,43.4-50.4,4.7-18,7.2-31.6,8.4-39.9.3-1.9.3-3.7.1-5.5-.2,0-.3,0-.5-.1-.2,0-.4-.1-.6-.2Z" fill="#fff"/>
      <path d="M485.5,109.5s0,0,.1-.1c-3.4-14-5.3-24.9-6.4-31.9-1.4-9.2,3.6-18.4,12.1-22.3,1.4-.6,3-1.3,4.7-2,0-.3-.1-.6-.1-1-1.8.7-3.5,1.4-5,2.1-8.9,4-14.1,13.6-12.7,23.3,1.1,7.1,3,18.1,6.5,32.3,0,0,.2,0,.3.1.2-.2.3-.4.5-.6Z" fill="#fff"/>
      <path d="M507.5,49.7c7.3-1.8,16.1-3.1,26.2-3.1,19.3,0,33.7,4.7,42.4,8.6,5.5,2.5,9.5,7.2,11.3,12.7.5,0,.9.2,1.1.2,0,0,0,0,0,0-1.8-6-6.1-11.1-12-13.8-8.8-4-23.3-8.7-42.8-8.7s-19.2,1.3-26.6,3.2c0,.2.2.3.2.5,0,.1.1.3.1.4Z" fill="#fff"/>
    </g>
    <g>
      <path d="M499.3,52.5c.4-.5,1-1.5,2.3-1.9,0,0-.7.6-.9,1.3-.2.7,0,.8.2.8.4-.1.7-.6,1.5.4.3.4.7.6.9.5.1,0,.7-.2.7-.2,0,0-.6-.4-.6-.9s.3-.9.9-.7c.7.3.7,1.6.6,1.9,0,0,.6,0,1.1.5,0,0,.4-.3.2-.9,0-.3,0-.4.1-.7.2-1.1,0-1.8-.2-2.6-.4-1.1-1.4-1.9-2.8-1.7,0,0-.8-.9-2.7-.2-1.5.6-2.5,1.9-2.6,2.5,0,0,.9-1.1,3.2-1.5,0,0-2.9,1.3-3.4,2.7-.3.8.2,1.7.2,1.7.7-.1,1.2-.5,1.5-1Z" fill="#fff"/>
      <path d="M504.4,52.2s-.1-.2-.3-.3c-.2,0-.4,0-.4.3,0,.3.2.3.4.4s0,.4.1.5c.1.2.2,0,.3-.3.1-.3,0-.4-.1-.5-.1,0-.4,0-.3-.2,0,0,.1,0,.4,0Z" fill="#fff"/>
      <path d="M506.4,54.7c-.1.4-.4.7-.8,1.2-.3-.7-.9-1.3-.9-1.3,0,0,.5,1,.4,1.6,0,.5-.6,1.2-1.1,1.9-.3.5-1,.8-1,.6,0-.2-.2-.5-.3-.5-.1,0-.3,0-.3,0,0-.1,0-.2.3-.4.2-.2.2-.7.1-.8,0,0,0,0-.2.2-.2.2-.4.2-.6.2-.2,0-.4,0-.4,0,0-.1.2-.4.2-.5,0-.1.1-.3,0-.4,0-.1-.4,0-.4,0,0,0,.2.1.1.3-.2.2-.7.4-.8.4-.1,0-.3-.6-.3-1s-.1-.3,0-.4c.2-.1.5-.2.6-.4.1-.2,0-.3,0-.4,0-.1.3-.5.3-.5l-.4.2c-.4.2-.8.7-.8.7,0,0-.3,0-.1-.5s1-.8,1-.8c-.3-.2-1,.2-1.3.5-.3.4-.4.5-.6.4-.2-.2-.2-.7-.7-1,0,0,.3,1.1.7,1.7.2.3.6.3.6.3,0,0,.1.2.2.5,0,.3.2,1.1.4,1.2.2,0,.6,0,.6,0,0,0,0,.1.1.3s.4.2.4.2c0,.4.5.5.7.6.2.1.2.6.3,1.1,0,0,0,0,0,0,0,.4,0,1.1,0,1.7h.4c0-.4,0-.7,0-.9,0,0,.2.3.4.7l1.1-.3c0-.1,0-.2,0-.3.1-.4.2-.8.3-1,.3,0,.6,0,.8,0-.2.4-.4.8-.4,1.1l10.1-2.4c-1.8-1.7-4-3.1-5-3.5-.6-.2-.9-.4-1.2-.5,0,0,0,.2,0,.3.2.8-.2,1.7-.2,1.7,0,0,0-.9-.2-1.2-.1-.4-.3-.6-.5-.8,0,.3,0,.9-.1,1.3-.3.6-.7.8-1.3,1.5,0,0-.2.1-.5.6-.3.4-1.1,1.2-1.1,1.2,0,0,.7-1.8,1.1-2.4s1.1-1,1.3-1.6c.2-.5,0-.8-.4-1-.3-.2-.9-.2-.9-.2,0,0,.3.7.2,1.2Z" fill="#fff"/>
      <path d="M503,88.6l.2-.3c.5,0,.7-.4.8-.6.2-.4.6-.2.8-.9,0,0,.3,0,.6-.4.2-.3.5-.7.6-.9.1,0,.2-.2.3-.2,0,0,.6.2.8-.5.8,0,1-.9,1-1,0,0,.3,0,.5-.6,0-.1.3-.5.2-1.1,0-.7-.2-.5-.5-1.1,0,0,0,0,0,0l1.4-2c.1-.2,0-.4,0-.5s-.4,0-.5,0l-.8,1.2v-.4s.6-2.4,1.2-3.5c.7-1.4.5-3.5.4-4.3,0-1,0-1.5,0-1.5v-.5c.1,0,.9,2.6,1.4,3.6.1.3.5.9.9,1.3,0,0,1.3.4,2.7.4,0,0-1.1.6-2.5.5,0,0-1.4,3.4-1.5,4.1h0c0,.1-.2.3-.2.4-.6,1.3-1,5.2-1,6,0,.8-.3,1.6-.3,1.6,0,0,.2,0,.4,0-.1.7-.4,2.3-.6,3.5-.2,1.5-.1,2.5.4,3.7.4,1,1.2,4.3,1.7,7.2.4,2.2.3,5.1.3,6.2-.8.8-2.2,2.3-2.5,2.6-.4.4-2.9,1-3.8,1.5-.6.3-.8.6-1,.9-.2.4-.3,1.1.7,1.1h3.3c.4,0,.5-.2.5-.4s0-.3.2-.5c.1-.1.5-.3.5-.3.2-.1.4-.2.6-.2l.6-.2c.8-.3,1.5-.6,2.3-1,.2,0,.4-.2.5-.3.2,0,.3-.2.5-.3.3-.2.6-.5.9-.8,0,0,.1-.1.2-.2l-3.1.5c1.7-.7,3.3-1.1,3.8-1.6h.1s0-.1,0-.1c0,0,0,0,0,0,0,0,0,0,0,0l-.3-.5c0-.2-.3-.7-.4-1.3v-3.1c.1-.1.2-.5.2-1,0-.5.1-.9.2-1.4.7,1.8,1.2,3.4,1.4,4.2.2,1,.2,2,.1,2.8,0,0-.1,0-.3,0-.1.2-.3.3-.4.5-.1.2-.2.4-.3.5-.1.2-.3.4-.5.7,0,.1-.2.2-.3.4-.3.3-.6.7-.9.9-.4.3-.7.5-1.1.7-.4.2-.8.3-1.2.5-.4.1-.8.3-1.2.4-.1,0-.2,0-.3,0,0,0-.1,0-.2,0,0,0,0,0,0,0-.2,0-.4,0-.6.1,0,0-.1,0-.2.1,0,0-.2.1-.2.2,0,0,0,.2,0,.3,0,.2.2.4,1.3.4,1,0,9.3,0,9.9,0,1.4,0,1.6-.2,1.9-.5.4-.3,0-1.6-.1-1.9-.2-.4-.4-.9-.4-.9,0,0-.9.6-2.2.7-1.3,0-1.6,0-1.6,0,0,0,2.2-.5,2.5-1.1l.3-.6s-1.6.7-2.4.4c0,0-.1,0-.2,0,0,0,0,0,.1,0,.4,0,.7-.1,1-.3.9-.6,1.2-1.9,1.2-2.1h0c0-.1,0-.2,0-.2,0,0-.7-3.6-.7-5.7s0-.4,0-.6c0-2.3-.2-4.3-.6-5.5-.8-2.7-2.1-4.5-2.1-4.5.5-.8.7-1.3,1-1.6l.4-.4s-1-1.7-2.3-2.4c.2,0,.4,0,.5,0,1.1.2,2.4,1.6,2.4,1.6,0,0,.4-.7.7-1.4.3-.7,1.1-3.4,1.1-3.4-.6.4-1.6.2-1.6.2,1.6-.6,2.6-2.1,2.6-2.1,0,0-.2,0-1.2.5-1,.4-3.2.5-3.2.5,0,0,.6-.4,2.1-.8,1.5-.5,3.5-2.4,3.5-2.6,0-.2.9-1.3-.3-1.1-1.2.2-5.7.5-5.7.5,0,0,.7-.5,2.4-1s4.3-2,4.3-2.8c0-.3,0-.6,0-.9-.3,0-.5.1-.7.2l-.2-.5c-.4.3-.9.5-1.4.7-1,.4-1.9.4-2.5.4s-.8,0-.9,0l-3.3-.7,2.7-2c0,0,.3-.3.3-.4,0-.1-.1-.3-.1-.5-1,0-1.7-.3-1.7-.3.3,0,.9,0,1.7-.1-.2-1.1,0-2.2.4-3.1,0,0-.2,0-.3,0-.8,0-1.7-.3-2.6-.6.8.1,1.5.2,2,.2.4,0,.7,0,1.1-.1.2-.3.4-.5.7-.7.5-.3.9-.6,1.3-.7-.1-.4-.3-.7-.5-.8-.3-.1-1.5.4-2.7.5-1.2.2-3.3,0-3.3,0,0,0,2-.1,2.9-.7.9-.5,2.6-1.2,2.6-1.2,0,0-.4-1.2-1.5-2.9-2.1.5-4.5,1.1-6.7,1.6.4.8.6,1.5.5,1.8-.3.8,0,1.2-.2,1.5,0,0-.1.2-.2.4,0,0,0,0,0,0,0-.1,0-.2,0-.2v-.8s-.3,0-.3,0c0,0-.1,0-.4,0h0s-.8.2-1.6.1c.4-.2.9-.4,1.2-.5.7-.4.9-.5,1-1,0-.3,0-.9-.1-1.5-1.9.5-3.6.9-5,1.2,0,.3,0,.6,0,.9,0,.2,0,.3,0,.4,0,0-.2,0-.3-.1,0-.3,0-.6,0-1,0,0,0,0,0-.1-.2,0-.5.1-.7.2,0,0,0,.1,0,.2,0,.2.2.5.3.7-.3,0-.6-.2-.7-.2-.2,0-.4-.2-.6-.3,0,0,0,0,0-.1-.5.1-.8.2-1,.2h0c.2.5.5.9.8,1.1,0,0,0,0,0,0,.2.7.4,1.5.4,1.9,0,.5.2,1.4.1,2,0,.5,0,2.1,0,2.7,0,.6-.4,7.7-.5,8.1,0,.3-.1.6-.1.8,0,0,0,.2,0,.3-.1.9-.2,1.2-.6,1.7,0,0-.1.2-.2.2-.6.7-1.2,1.4-1,2.3.2.8.3,1.2.7,1.7,0,0,.1.2.2.2v.2c-.2,0-.2.2-.2.3-1.4,2.1-13.2,19-14.8,21.3,0,0,0,0,0,0,0,0,0,0,0,0,0,0,0,.1-.1.2-.1.2-.3.4-.4.6h-.1c0,0-1,1.3-1.5,1.3-1.1-.1-2.5-1.2-3.1-1-.4.2-.6.5-.7,1-.1.6,0,1.2.2,1.4.1.1.3.2.5.3l2.8.2s0,0,0,0c.1,0,.2,0,.3,0,.2,0,.3-.1.4-.3,0-.1.2-.3.3-.5.5-.8,1.4-2.2,1.4-2.2.2-.3.4-.6.5-.8,0,0,0,0,0,0,1.6-2.3,13.4-19.2,14.8-21.3,0,0,.2,0,.2-.1ZM513.3,104.3c.3.7.5,1.6.8,2.4,0,.2.1.4.2.6.1.4.2.7.3,1,0,.1,0,.2.1.3,0,0-.2,0-.3,0,0,0,0,0,0,0,0,0-.1,0-.2,0,0,0,0,0,0,0,0,0-.1,0-.2,0,0,0,0,0,0,0,0,0-.1,0-.2,0,0,0,0,0,0,0,0,0-.1,0-.2,0,0,0,0,0,0,0-.6-.2-1.1-.6-1.5-1,0-.4,0-.9,0-1.4,0-.2,0-.3,0-.5,0-.2,0-.4,0-.6,0-.3,0-.6,0-.9,0-.2,0-.4,0-.6,0-.2,0-.4,0-.6,0-.5-.1-1-.2-1.4,0-.5-.2-.9-.2-1.4,0-.2,0-.4-.1-.6,0,0,0,0,0,0-.1-.9-.4-2.9-.5-3.9,0-1.2.2-2.6.6-3.9-.6.7-1.1,1.7-1.4,2.5h0s0,0,0,0c-.2-.4-.3-.7-.4-1.1,0-.2,0-.4,0-.6,0,0,0-.1,0-.2,0-.1,0-.3,0-.4,0-.3,0-.6,0-1,0-.1,0-.3,0-.4,0-.1,0-.2,0-.3,0-.2,0-.3,0-.5,0-.2,0-.3,0-.5,0-.2,0-.3,0-.5,0-.5.2-1,.2-1.3,0,0,0,0,0,0,0,.2,0,.3,0,.5.7.4,1.2.9,1.7,1.4,0,.5,0,1-.1,1.5,0,1.2.4,2.3.9,3.2,0,.1.1.3.2.4.3.5,1.3,3,2.2,5.6-.2,1.6-.5,3.3-.5,3.6,0,0-1-2.7-1.9-5.3,0,0,.3,4.2.8,5.6ZM515.8,96.2c0-.3,0-.7,0-1.1,0,0,0-.2,0-.3,0,0,0-.2,0-.3,0-.2,0-.4.1-.6,0-.2,0-.4.1-.6,0-.1,0-.2,0-.3,0,0,0-.2,0-.2,0,0,0,0,0-.1,0,0,0,0,0,0,0,0,1.3,1.2,2.2,3.8.4,1.1.5,3.6.5,5.8s0,1,0,1.6c0,.2,0,.3,0,.5s0,.2,0,.2c0,0,0,.2,0,.3,0,.1,0,.3,0,.4,0,0,0,.2,0,.3,0,.2,0,.5.1.7,0,.2,0,.4,0,.6,0,0,0,0,0,0,0,.2,0,.4.1.6,0,0,0,0,0,0,0,.4.1.6.1.6,0,0,0,.3-.2.7,0,0,0,.2-.1.3,0,0,0,0,0,.1,0,0-.1.2-.2.3-.1.1-.2.2-.4.3,0,0-.1,0-.2,0,0,0,0,0,0,0,0,0,0,0-.1,0,0,0,0,0,0,0,0,0-.1,0-.2,0,0,0-.1,0-.2,0,0,0,0,0,0,0,0,0,0,0,0,0,0,0,0,0-.1,0,0,0,0,0,0,0,0,0-.2,0-.3,0,0,0,0,0,0,0,0,0,0,0,0,0,0,0,0,0,0,0,0,0,0,0,0,0,0,0,0,0,0,0,0,0,0-.1,0-.2,0-.5.3-2.3,0-4-.1-.7-.6-2.1-1.2-3.7-.1-.3-.2-.6-.3-.9,0-.3-.2-.5-.3-.8,0,0,0,0,0-.1-.1-.3-.2-.6-.3-.9,0,0,0-.2-.1-.3-.2-.5-.4-1-.6-1.4-.1-.3-.2-.5-.3-.8,0-.1,0-.2-.1-.4,0-.2-.2-.4-.3-.6,0-.2-.2-.4-.2-.5-.1-.2-.2-.4-.2-.6,0,0,0,0,0-.1,0-.1-.1-.2-.2-.4-.1-.3-.3-.5-.4-.8,0,0,0-.1,0-.2,0-.1-.1-.3-.2-.4,0-.1,0-.3-.1-.4,0-.2,0-.4-.1-.7,0-.2,0-.3,0-.5,0-.9.2-1.9.3-3,0-.2,0-.4,0-.6,0-.2,0-.4.1-.6,0,0,0,0,0,0,0,0,.2,0,.5,0,0,0,0,0,0,0,0,0,.2,0,.3,0,.4,0,.8.2,1.1.3.1,0,.3,0,.4.1.1,0,.2.1.3.2.7.5.4,3.8,0,5.2-.4,1.3.3,3.4.3,3.4ZM515.5,77.7s-.9.8-1.6,1.8c-.7,1-.2,1.7-.2,1.7.6-.7,1.2-.5,1.2-.5-1.1.7-1.5,1.6-1.9,2.5-.4.9-1,3.8-1,3.8,0,0,0,0,0,0,0,.2,0,.4,0,.5-.1,0-.3,0-.4-.1,0-.3.3-1.6.4-2.2,0,0-.2.3-1.4.5,0,0,.8-1.1,1.4-2.2s1-2.3,1-2.3h-.8c0,0,1.1-1.1,1.2-1.9,0-.3.2-.6.3-.9.7-.4,1.8-.7,1.8-.7ZM506.9,69.4c.1-1,.1-1.6.6-1.6,0,0,0,0,0,0,1.7,0,2.8-.3,2.8-.3,0,0,0,0,0,0,0,0,0,.2,0,.3,0,0,0,.1,0,.2-.1.2-.2.4-.5.7-.1.2-.3.3-.6.5-.2.2-.4.4-.6.6-.4.7-.5,1.4-.5,1.4,0,0,0,0,.1,0,0,0,.2-.1.2-.2,0,0,.1-.1.2-.2.3-.3.5-.7.5-.7,0,0,0,0,0,.2,0,0,0,.2,0,.4,0,.1,0,.3,0,.4,0,.2,0,.3,0,.5,0,.3,0,.6,0,1,0,.1,0,.3,0,.4,0,0,0,.2,0,.3,0,.4,0,.8,0,1.2,0,.4-.2.8-.3,1.1,0,0,0,.1,0,.2,0,0,0,.1,0,.2-.2.4-.4.9-.5,1.4,0,.2-.1.4-.2.6-.2.7-.3,1.2-.3,1.2,0,0-.1-.7.3-2,0-.2,0-.3.1-.5,0-.2,0-.3.1-.5,0-.3,0-.5.1-.7,0-.7.1-1.2.1-1.2,0,0-.1.2-.3.6,0,.1-.1.2-.2.4,0,.2-.2.4-.3.7,0,0,0,.2,0,.3,0,.3-.2.6-.3.9-.2.7-.2,1.3-.2,1.9,0,.4,0,.7,0,1,0,.1,0,.2,0,.3,0,0,0,0,0,.1,0,.1,0,.2,0,.2,0,0,0,.1.2.3,0,0,.1.2.2.3,0,0,0,.1,0,.2,0,0,0,.2.1.2,0,0,0,0,0,0,0,0,0,0,0,0,.1.1.2.2.2.5,0,0,0,.1,0,.2,0,.1,0,.2,0,.3s0,.1,0,.2c0,0,0,0,0,0,0,0,0,0,0,0-.1-.5-.5-.5-.5-.5,0,0,0,.4,0,.8,0,.2-.3.6-.3.6-.2-.6-.5-.8-.5-.8,0,0,0,.9,0,1.1,0,0,0,.2,0,.2,0,0,0,0,0,0-.2.2-.4.3-.4.3,0,0,0,0,0,0,.1-.5,0-.7,0-.8,0,0,0,0,0,0,0,0,0,.1-.1.3,0,.2-.2.5-.2.7,0,0,0,.1-.1.1,0,0,0,0-.1,0,0,0,0,0,0,0,0,0,0,0,0,0,0,0,0,0,0,0,0,0-.1,0-.1,0,0,0,0,0,0,0,0,0-.1-.4-.2-.7,0,0,0-.2,0-.3,0,0,0-.2,0-.3,0-.1,0-.2-.1-.3,0,0,0-.2,0-.3,0,0,0-.1,0-.2,0,0,0-.2.2-.3,0,0,0-.1.1-.2,0,0,0-.2.1-.3,0,0,0-.2,0-.3,0,0,0-.2,0-.2,0-.1,0-.3.1-.4s0-.3,0-.5c0,0,0-.2,0-.2,0-.2,0-.3,0-.5s0-.3,0-.5c0-.2,0-.5,0-.8,0-.2,0-.4,0-.6,0-.1,0-.2,0-.3,0-.2,0-.5,0-.7,0-1,0-2,0-2.9,0-.1,0-.2,0-.3,0-.2,0-.4,0-.7,0-.2,0-.4,0-.7s0-.4.1-.6c0-.3.2-.7.3-1,.2-.5.3-1,.4-1.4ZM505.2,66.3c0,0,.1,0,.2,0,0,.1,0,.2,0,.3.1,0,.5.4.9.5,0,0,0,0,0,.2,0,.7,0,1.5,0,2,0,.3-.2.7-.3,1.1-.1.4-.2.8-.4,1.2-.1.5-.2.9-.2,1.4,0-.4,0-.7-.1-1,0-.6-.2-1.1-.2-1.1,0,0-.2,3.1-.3,4.3,0,0,0,0,0,0,0,.1,0-3.2,0-4.5,0-1.4.1-2.1,0-3.1,0-.4-.2-1-.4-1.6.3,0,.6,0,.9.1ZM502.4,85.8c0,0-.1-.2-.2-.3,0,0,0,0,0-.1,0-.2.2-.4.3-.6,0,0,.1-.2.2-.2,0-.1.2-.3.3-.4,0,0,.1-.2.2-.3.1-.1.2-.3.3-.4.2-.2.2-.5.3-.8,0,0,0-.2,0-.3,0-.2,0-.5.2-.9.2-1,1.1-4,1.4-5.8,0,1.1-.1,2.3-.2,3.2v.4c-.2,1-.4,2.1-.8,2.6-.1.2-.2.4-.3.6h0c-.3.7-.2,1.2-.3,2.1,0,.2,0,.4,0,.6,0,.2,0,.3.1.4-.2,0-.5.2-.5.2,0,0-.1,0-.2,0-.3.1-.7,0-.9-.2Z" fill="#fff"/>
      <path d="M531.1,64.6c-.1.1-.3.1-.3.1.1-.1.1-.4.1-.4,0,0-.2,0-.5.2,0,0-.2,0-.3.1-.5.4-.6.6-.6.6,0,0,.4.2.7.2.3,0,.7-.3.8-.3,0,0,0,0,0,0,0,0,0,0,0,0-.2,0-.7,0-.7,0,.2,0,.3-.2.5-.3.2-.2.3-.4.3-.4Z" fill="#fff"/>
      <path d="M540.1,54.3l1.6-.4c.2,0,.3-.3.3-.5,0-.2-.3-.3-.5-.3l-1.4.3c0,.1,0,.3,0,.6,0,0,0,.1,0,.2Z" fill="#fff"/>
      <path d="M592.6,70.8c-.1-.3-.2-.5-1-.6-.9-.1-2.4-.3-2.4-.3-.3,0-.7,0-.9-.1,0,0,0,0,0,0-2.7-.5-23.8-4.1-26.2-4.5,0,0-.1-.1-.2-.1l-1.1-.2s0,0,0,0c.1-.6.2-.8,0-1-.2-.2-.6,0-.6,0,0,0,0,.4-.3.9,0,0,0-.6-.4-.9-.3-.4-.5-.4-.5-.4,0,0,.2.4,0,.7-.2.4-.3.4-.4.4h0s0,0,0,0c0,0-.1-.8-.5-1.3,0,0,0,.4-.3,1.1,0,0,0-.5-.5-.9-.3-.3-.6.2-.9.8h-.1c0,0,0-.2,0-.2,0-.8-.2-.7-.2-.7-.1.5-.4.8-.4.8.2-.9-.7-1.1-.7-1.1-.1.6-.5.9-.5.9.2-.6-.3-1-.3-1,0,.5-.4.9-.4.9,0,0-.2-.5-.4-.7-.3-.3-.4.3-.4.3,0,0,.2.1.2.3,0,0,0,0,0,0l-2.3-.4c-.2,0-.4,0-.4.3,0,.2,0,.4.3.4l1.3.2c0,.2-.2.8,0,1.1.2.4.1.7.1.7-.3-.3-.6-.5-.8-.4-.2.1-.2.3.2.7.3.3.5.7.9,1.2l-1.3-1s-1.9,4.2-2.2,5.9c-.4,1.7,0,4.4,0,4.4,0,0-1.1-1.2-1.2-2.2,0,0-.5,1.6,0,3.1,0,0-.5-.3-.9-.9,0,0-.1,1.1-.4,2.1-.2,1,0,1.7,1.1,2.6s4.7,2.5,4.7,2.5c0,0-.5-1.2-.4-2.8,0-1.6.4-2.2.4-2.2-.4-.2-.7-.5-1.6,0-.8.4-1.4.8-1.4.8,0,0,.5-1.3,1.7-1.7,0,0,.3-1.1.2-2.4,0-1.3,2.1-7.4,2.1-7.4,0,0,.5-.7.6-.8,0-.1.4-.2.8-.3.4-.2.7-.6,1.1-.9,0,.2,0,.3,0,.6,0,.7-1.1,6.7-.5,8.4.6,1.7.8,2.1,1.4,2.9.6.8,3.7,5,4.3,6.3.3.6.7,1.4,1.1,2-.2-.1-.4-.2-.5-.3-1.2-.7-1.6-2.3-1.6-2.3-.4-.3-1.3-1.6-1.8-2.3-.5-.7-.9-1.4-.9-1.4,0,0-.7,0-1.1.3-.4.4-1.6,2-1.8,2.6,0,0-.3-1.8.1-2.5,0,0-1-.2-1.4.9-.3.7-.8,2-.7,3,0,1,0,1.5.3,1.6.2.1.8.3.9.4.6-.7,1.2-1,1.2-1,0,0,0,0,0,0-1.9,5.6,1.8,11.2,1.8,11.2,0,0-.7-.3-1.6-1,.7,2.9,1.5,5.7,2.3,7.1,0,0-5.8-5.9-5.6-10,0,0-1.4,4-.5,7,0,0-.6.1-1.3-1.7,0,0-1.4,1.8-1.2,2.5.2.7,1.3,1.5,3.6,2.8,1.7.9,6.1,1.2,8.9,1.2-2.3.1-4.4.7-9.3,0-1.9-.2-2.4-.6-2.4-.6,0,0-.5,1.5.7,4.9,1.1,3.1,2.7,4.7,2.7,4.7,0,0-.9-.7-2.7-2.5s-2.4-2.5-2.4-2.5c0,0-.2,3.5,2.3,6.7,0,0-1.9-.9-3.2-3.8,0,0-.4,5.2,2.3,8.7,1.8,2.4,2.1,3.4,2.1,3.4,0,0-4.4-.5-5.4-2.3,0,0-.2.8,0,3,1.3.6,3.6.9,5.3,1-.7.1-1.7.3-2.1.4-.4,0-1.9,0-1.9,0,0,0,.4.6.4,2.1,0,1.1-.2,2.5.3,3.9.3,1,.7,2.1,1.1,3-.3,0-.6,0-.9,0-.3-.5-.5-.9-.5-.9,0,0,0,.3.1.9-1.1,0-2.2,0-3.3-.1,0-.3-.2-.8-.4-1.2-.3-.5-.6-1.3-.7-1.5,0,0,0,.4,0,.9-.2.7-.9.6-.9.6,0,0,.5-.6.5-1.5,0-.9.2-.9-.2-1.5-.3-.6-.8-.9-1.4-.6-.1,0-.2.1-.4.2.7-.8,1.8-1.3,1.8-1.3,0-1.2.2-4.4.3-8.6.2-4.2-.7-5.6-.7-5.6-.5,1.9-1.5,4.6-1.5,4.6,0,0,.2-2.8.7-5s1.1-4,1.1-4c0,0,0-2.3.5-3.7.5-1.3.4-2.9-.5-3.1.4-.2.6-.3.6-.3,0,0,0-1.1-.5-1.6-.6-.4-2.3-.5-2.6-.5s.4-.4,1.3-1c.8-.6,1.1-.9,1.1-.9,0,0-1.2.1-2.1.7-.9.5-1.1,1-1.1,1,0,0,.7-2,1.6-3,.9-1.1,1.7-1.9,1.7-1.9,0,0-.7,0-2,.8l-1.3.8s.7-2.4,1-3.8c.2-1,0-2.1,0-2.6,0,0,0-.1,0-.1,0,0,0-.1,0-.1,0,0,0,0,0,0,0,0,.1.1.2.2.3.4.9,1,1.3,1.4.5.6,0,.8.1,1.8,0,0,.4-.9.7-1.8.2-.8-.5,0-1-1.3,0,0,0,0,0-.1-.5-1.2-.9-2-.9-2h0s-1.5.8-1.5.8c0,.1,0,.5.1,1.1-1,0-1.8-.1-2.2-.2-.3,0-.6,0-.9,0-.7,0-1.6,0-2.3,0,1.8-.9,4.5-2.1,4.6-3.4.3-2.2,1-3.6.9-5.9-.3,2.5-2.8,5.8-5.1,6.9,1-1.4,2-2.5,3-5.1.4-1,1.5-3.8.3-5.9,0,1.7-.6,3.4-1.2,5.1.2-1.5.2-3.2-.1-4.5-.4.3-.9.5-1.1,0,0,0,0-.1,0-.2.7-.5,1-1.6,1.3-2.6.1-.4.2-.7.3-1,.1-.3.3-.6.4-1,.3.3.6.5.8.6.4.3.7.5,1,1,.1.2.2.5.2.8.2,1,0,2.2,0,2.2,0,0,.2-.7.3-1.5,0-.3,0-.6.1-.9,0-.2,0-.4,0-.6,0-.6-.6-1-1.2-1.5-.3-.2-.6-.4-.9-.6,0,0-.1,0-.2,0-.1,0-.3-.2-.5-.4,0,0,0,0,0,0,0,0-.1-.2-.2-.3,0,0-.1-.2-.2-.3,0,0-.1-.2-.2-.2,0,0,0,0,0,0-.3-.4-.6-.7-.9-1-.7-.7-1.3-1.1-1.3-1.1.3.2.8.4,1.2.6.4.3.8.6,1.2.9.2.1.3.2.5.4,0,0,.1.1.2.2.2.2.4.4.5.5,0-.2.1-.3.1-.3,0-.2,0-.4-.1-.5,0,0,0,0-.1-.1,1-1.2,2.1-2.6,2.6-3.3.1-.2.2-.3.2-.3.4-.6.4-2.4.3-3.9,0-1.1,0-3.4,0-4.9-.2.7-.4,1.5-.5,2.7-.1,1.6-.4,3-.4,3,0,0-.1-1.7,0-2.9,0-2.4.4-3.7.5-4-.5,0-1.4.1-2,.4.2,1.3-.2,3.9-.6,5.2,0,.3-.1.5-.2.7,0,1.2-.2,4.5-.4,6.6-.1-.1-.3-.3-.5-.5,0-.4,0-.8,0-1.2,0-.9.1-1.9.2-2.7,0-.7,0-1.2,0-1.4,0-.5-.2-1.6-.9-3-.1-.3-.3-.7-.5-1,0,0,0,0,0,0,0,0,0,0,0,0,.3,1.5.6,2.9.6,3.6,0,.7-.1,2-.2,2.8,0,.4,0,.6,0,.6,0,0,0-.2,0-.6,0-.9,0-2.6-.2-3.4-.1-.5-.4-1.7-.6-2.9-.2-1.1-.4-2-.5-2.3,0,0,0,0,0,0-.4.4-1.1.7-1.1.7,0,0,.2-.5.6-1,0-.1.2-.2.2-.3,0,0,0,0,0,0,0,0,0,0,0,0,.2-.4.3-.8.3-1.4,0,0,0-.1,0-.2h0s.2,0,.2,0l1.3-.3c.1.3.3.6.5.8.5.5.8.5.8.5,0,0,0,.4.3.6,0,0,.2,0,.3.2.2-.2.5-.4.8-.5.5-.3,1.7-.4,2-.2,0-.2.1-.3.1-.5,0-.3-.4-.2-.5-.5-.1-.3-.1-1-.3-1.1,0,0,0,0,0,0-.2.5-.7.5-.7.5,0-.2,0-.3.1-.4,0-.3,0-.6,0-.8,0,0,0,0,0,0,0,0-.2-.2-.3-.2-.4-.2-.4,0-.4,0,0,0-.2-.3-.6-.2-.4,0-.4.3-.4.3,0,0-.2-.3-.6-.1-.4.1-.5.4-.5.4,0,0-.3-.3-.7,0-.4.2-.5.5-.3.7,0,0,.1.2.2.3l-1.2.3c0,0,0-.1,0-.2,0-.4-.9-.2-.9-.2,0,0,0-.2-.3-.3-.3,0-.7.3-.7.3,0,0-.2-.2-.5-.1-.2,0-.3.2-.5.3-.1.1-.3.2-.3.2h-.3c-.3,0-.8,0-.9.2,0,.2,0,.5,0,.8l-5.1,1.3c-.1,0-.2,0-.2.2-2.6.6-20.1,4.9-23.1,5.6,0,0,0,0,0,0-.2,0-.6.1-1,.2,0,0-1.7.3-2.7.5-1,.2-1,.4-1.1.8-.3,1.1-1,3-.7,3.9,0,.3.6.7,1.3.8.5.2.9,0,1.3-.3.5-.6-.2-2.8,0-3.9.2-.5,1.9-1,1.9-1v-.2c.2,0,.5-.2.7-.2,0,0,.1,0,.2,0,0,0,0,0,0,0,0,0,0,0,0,0,2.9-.7,20.4-5,23.1-5.6,0,0,.2,0,.3,0l5.2-1.3c.4.4,1.2.5,1.4.9.4.7,1.1,2.5.9,4-.2,1.5.4,2.7.4,3.5s-.2,1.5-.4,2.1c-.3,0-.5.2-.5.3s0,.1-.1.2c0,0,0,.2,0,.3-.1.3-.3.6-.4.9.2.2.4.5.6.7.1.2.2.3.3.5.6,1.1.9,2.5,1.3,3.6.6,1.4.8,1.9.8,2,0-.1-1.3-1.6-2-2.9-.2-.3-.3-.6-.5-.9-.3-.8-.4-1.2-.4-1.2,0,0,0,.7,0,1.5,0,.9,0,2,0,2.6,0,0-.3-1-.7-2.1-.2-.4-.3-.8-.5-1.2-.1-.3-.3-.6-.4-.8,0,0,0,0,0,0,0,0,0,0,0,0-.1-.2-.2-.4-.1-.6.2,0,.3-.2.5-.2,0,0,0,0,0,0,0,0,0,0,0,0,0,0,.2-.1.3-.2,0,0-.1,0-.2-.2-.1-.1-.3-.2-.4-.2,0,0-.1,0-.1,0,0,0,0,0,0,0,0,0,.1-.2.2-.2,0,0,.1-.1.2-.1.3-.2.3-.6.3-.6,0,0-.2.1-.5.3-.1,0-.2,0-.3.1-.3,0-.5.2-.5.2,0,0,0-.2.3-.4.1-.1.3-.3.5-.3.2,0,.4-.1.4-.3,0,0-.2-.3-.5-.2-.3,0-.5.1-.5.1v-.4c0-.2.2-.4.2-.4l-1.3-1.1s-.3.1-.6.2c-.4.2-.7.2-.7.2l.6-.6h-.3c.3-.7.5-1.4.8-2,0,0,0,0,0-.1.3,0,1.2.5,1.2.5l-.6-.9c.2,0,.3-.1.4-.2.6-.3,1.1-.5,1.1-.7-.3-.2-.8-.4-1.5,0-.4.2-.7.5-1,.9,0,0,0,.1-.1.2-.1.2-.2.3-.3.5-.1.2-.2.5-.4.7,0,.2-.2.4-.3.5-.2.2-.4.4-.6.5-.5.4-1.1.7-1.4.8,0,0-.1,0-.1,0,0,.4-.2.7-.3,1v-.2c0-.4,0-.7,0-1.1,0,0,.1,0,.3-.1.4-.2,1-.5,1.5-.9.2-.2.4-.4.5-.7h0c0-.2.1-.3.2-.5.1-.2.2-.5.4-.7,0,0,0-.1.1-.2.4-.6.9-1,1.5-1.3,0,0,0,0,.1,0,0,0,.1,0,.1,0,.1,0,.3,0,.4,0,.3,0,.6,0,.8.2,0,0,0,0-.1-.2-.2-.2-.6-.4-1.2-.3-.8.2-1.3.6-1.3.6-.7.4-1.2,1-1.5,1.3,0,0,0,0,0,0-.2.2-.3.4-.3.4,0,0,0,0,0-.1,0,0,0-.1,0-.2,0-.9.6-1.6.6-1.6-1.8.3-2.9,1.8-2.9,1.8.2-1.9,1.5-2.5,1.9-2.6-.4,0-.8,0-1.2,0-1.8.5-3.4,2.1-3.3,4,0,1,.4,1.8.8,2.4-1,.1-2,.2-3,.9-.7.5-1.1,2.1-.6,3.4.5,1.3-.8,2.2-.8,2.2,0,0,1.1.2,2.6-.3,1.8-.6,2.4-1.9,2.4-1.9,0,0,.1,1.1-.6,1.6,0,0,1.5-.2,1.7-1.3.2-.9,0-1.8,0-2.6.6.5,1.3.9,1.6,1,0,0,.3,0,.6.1,0,0,0,0,.1.1.1.1.2.3.3.4-.2.2-.4.5-.5.8-1.4,2.9,0,4.8,1.7,7.3,1,1.4,1.5,3.6,1.6,5.9,0,2.3-.3,4.6-1,6.2-.4.9-1.5,2.2-.6,2.9-.2.8,0,1.2,0,2.2.1,1.1.1,2.8.2,4.4,0,1.6.1,3.8.1,3.8,0,0,.3,0,.8.2-.1,1.9.2,5.3-.4,6.6-.6,1.3-2.6,2.2-3.5,3.8-.9,1.6-3,7.7-3.6,9-.6,1.3-1.4,1.5-1.4,1.5l-.7.3c-.7.3-.8,1.5-.8,1.5-.4-.7,0-1.3,0-1.3-.8.5-1,2.1-1,2.1-.5-1.1.1-2.7.3-2.9s-.4-.6-.7-.5c-.3.1-.6.9-.7,1.6-.1.7-.1,1.4.1,1.7s0,.8-.4,1.5c-.4.7-.5,2.3-.5,3.4,0,.8.2,1.3.4,1.5,0,0,.2.1.3.2-3,.2-6,.3-8.8.6-4.8-6.3-8.2-13.1-10.1-20.3-1.1-4.3-2.1-8.3-3-12-2,2.9-3.9,5.6-5,7.2.5,2.1,1.1,4.3,1.7,6.5,3.4,12.9,11.1,24.7,22.9,34.9,9.2,8,17.5,12,17.8,12.2l1.5.7,1.5-.7c.3-.2,8.6-4.1,17.8-12.2,2.2-1.9,4.3-3.9,6.2-6,0,0,0,0,0,0,1.2-1.3,2.4-2.6,3.5-4,0,0,0,0,0-.1,0,0,0,0,0,0,0,0,0,0,0,0,6.3-7.6,10.6-15.9,12.9-24.8,4.6-17.8,7.1-31.2,8.3-39.4.3-2,.2-4-.2-5.9-2-.4-4.6-.8-7.3-1.3.9,1.9,1.3,4,1,6.2-1.2,8-3.6,21.2-8.1,38.7-1.2,4.7-3.1,9.2-5.6,13.5-.3.6-.6,1.1-.9,1.6-.7-1.8-1.7-2.5-1.7-2.5l-.2-2.5c.5-.1.9-.3,1.3-.5.4-1.1.3-1.7.3-3.2,0-1.8-.2-4.8-.2-4.8,0,0-.6-1.2-1.8-2.2-1.8-1.6-4.4-4.6-4.4-4.6,0,0,3.6,2.3,5.1,3.3l1.4,1s.7-.7.7-2.4c0-1.7-.6-4.5-1.2-4.9-.6-.3-3,.7-5.3,0-2.3-.7-2.7-1-2.7-1,0,0,4.6.5,6.3.4,1.7,0,2.5-2,2.5-2,0,0-1.8-1.4-3.3-4-1.6-2.9-2-5.8-2-5.8,0,0,2.1,5.7,5.2,7.1,0,0-.8-2.3-1.2-4.8-.4-2.5-.4-6.8-.4-6.8,0,0,1.3,7.7,2.3,9,0,0,2.4-4,2.8-4.6.5-.7,1-.8,1.7-2.4.2-.5.5-.9.7-1.3,0,0,0,0,.1,0,.5-.2,1.3-.8,1.6-2.4.1-.6-.2-1.8-.5-2.8-.3-1-1.2-2.7-2.1-3,0,0,0,0-.1,0,.5,0,.9-.2.9-.2,1.4-.4,2.4-1.9,2.8-2.3.5-.4.6-1.4.9-2.2,0,0,0,0,0-.1.4,0,1.2-.1,1.4-.3.2-.8.6-1.7-.7-2.9-1.1-1-2.6-.7-3.6-.5-1,.2-2.4,0-2.6,0,0,0,0,0,0,0,.1,0,1.5-.2,2.7-.5,1.2-.4,2.7-.3,3.5.3-.1-.5-.5-1.3-1.2-1.8-1.5-1.1-3.1-.9-4.3-.5-.5.1-.9.5-1.3.8,1-.2,2.3,0,2.3,0-2.9.9-3.3,1.3-3.6,2.1,0,.2-.1.3-.1.3v.2c0,0-.1,0-.2,0-.3,0-.4.5-.4.9s.3.9.4,1c0,0,0-.2-.1-.4,0-.2,0-.4,0-.6,0-.2,0-.4.1-.5.3-.2.4,0,.5.2,0,0-.1,0-.2,0,0,0,0,0-.1,0-.2,0-.2.3,0,.6,0,0,0,0,0,0,0,0,0,0,0,0,0,0,0,0,0,.1,0,0,0,.1,0,.1,0,0,0,0,0,0,0,.1,0,.3,0,.4,0,0,0,0,0,.1,0,.1.9-.7.9-.9.2-.3.2-1,.3-1.4s1.3-.8,1-.9c0,0,0,0,0,0,.3.1.8.3,1.5.3,0,0,0,0,0,0,.6,1,2.1,1.6,3.1,1.9,0,.2.1.4,0,.7,0,0-.7-.4-1-.3-.3.1-.3.7-.3,1.1,0,.4,0,1.1,0,1.2,0,.2-.7,0-.9,0-.3-.2-.4-.1-.4,0s.1.3.2.5c0,.2-.2.1-.4,0-.3,0-.6-.1-.8-.3-.2-.1-.1-.3-.1-.3,0,0-.3.1,0,.5.2.2,1,.5,1.1.6.2.1.1.2,0,.3,0,0-.6-.1-.7,0,0,.2.1.4,0,.7,0,.3-.5,0-.7,0,0,0,0,0,0,0,0,0-.2,0-.3,0-1,.2-1.7-.6-2.1-1.2-.6-.9-.9-2.3-.9-2.3,0,0,0,1.4,0,2.4-.4-.5-.7-1-.7-1,0,0,0,.8,0,1.2.1.9.1,1,.5,1.5,0,0,1.6,2,2,3.3.4,1.2.4,1.4.4,1.4,0,0-1-.7-1.5-1.8-.5-1.1-.9-2.1-.9-2.1,0,1,.2,1.7,0,2.3,0,.1-.2.3-.3.4,0-.1,0-.2,0-.4.2-1.1-1-3.6-1.4-4.5-.5-1-1-1.8-1.9-2.9,0,0,.1,1.2.7,2.8,0,0-1.6-2.4-2.1-3.6-.4-1.3-.5-2.4-1.3-3.6-.8-1.2,0-4.3-.5-5-.4-.7-1.1-1.6-1.1-1.6,0,0,1,.4,1.4.8l.4.3s1-.3,1.3-.6c.2-.2.6-.6.8-1.1l1.3.2c0,0,.2,0,.3,0,2.4.4,23.5,4.1,26.2,4.5,0,0,0,0,0,0,0,0,0,0,0,0,0,0,.1,0,.2,0,.2,0,.5.1.7.2h0c0,.1,1.6.4,1.8.9.3,1,0,2.6.4,3.1.4.3.7.3,1.2.2.6-.1,1.1-.5,1.1-.8.2-.8-.6-2.1-.9-3ZM533.1,100.6c3.6-3,4.9-4.9,5-5.2,0,0-.2.3-1.9,1.1-1.9.8-5.3,2.1-5.3,2.1,0,0-.4-.9,2.4-2.1,2.8-1.2,4-1.9,5.3-3,0,0-.6.5-3.3,1.3-2.7.8-4.1.8-4.1.8,0,0,.4-.7,1.6-1.9,1.2-1.2,1.1-1.4,2.4-2.1.2,0,.4-.2.5-.3,1.4-.4,2.7,0,3.6,0,0,.6,0,1.2-.2,1.9-.4,1.9-.5,3.7-.7,5.3s-1.2,5.3-1.2,5.3c0,0,0,0,0,0,0,0,0,0,0,0,0-.4.1-.7.1-.9,0,0-2.7.5-5.4.7,0,0,.1-.2,1.3-.8s2.1-1.3,2.1-1.3c0,0-1.8.4-3.2.8-1.4.4-1.9.8-1.9.8,0,0,1.1-1.1,2.7-2.4ZM518.7,132.9c0-.5.5-.8.8-1.6.3-.8,1-2.3,1-2.3-.1.6,0,1.4,0,1.4.4-.8,1.1-1.5,1.4-1.6s-.1-.2-.5-.6c0,0-.2-.2-.3-.4.5,0,1,0,1.3,0,.9,0,1.7-2.8,3.6-5.1,1.9-2.3,5.2-6.8,5.2-6.8,0,0-2.3,1-3.7,2.9-1.5,1.9-1.9,2.2-1.9,2.2,0,0,1.4-3,3.4-4.7,2-1.7,4.2-3.4,4.6-3.8.5-.4.8-1,.8-1l-3.2,1.4s1.5-1.1,2.9-2.3c1.4-1.3,2.2-3.5,2.7-4.9l-4.5-1c.3,0,.6,0,.9,0h3.9s0-.2.1-.4c0,.1,0,.2,0,.3.2,1.6.5,2.7,1.2,4.4.7,1.8,1.1,5.6,1.1,5.6-.2-2.1-1.5-4-1.5-4,0,0,.2,1,.3,3.2.2,2.3.2,5.4.8,8.2.5,2.2,1,6.3,1.1,7.8-.3.3-.6.6-.7,1-.2.8-.2,1.4.2,1.9.3.5.5.4.5,1.1s0,0,0,0c-2.2,0-4.3,0-6.5,0-5,0-9.9.1-14.7.3,0,0,0,0,0-.1-.2-.4-.4-.7-.4-1.2ZM556.3,121.5c0,0,.1,0,.2.1,2.2,1.8,2.9,2,3,2-.2,0-1.8-.3-3.5-1.4-.2-.1-.3-.2-.4-.3-.9-.6-1.3-1.2-1.5-1.4.1,1.2.3,3.1.6,4.2.2,0,.4.1.6.2,0,0,0,0,0,0,1.3.6,2.2.8,3.9.9,0,0-1,.3-3,.2-.3,0-.5,0-.7,0,.1.7.3,1.3.4,1.5,1.5,2.5,2.6,4.4,3.9,5.9.1.2.3.3.5.4-.3.4-.6.7-.9,1.1-2.3-.2-4.6-.3-6.9-.5,0-.1,0-.2,0-.3,0-1.8,0-3.6-.2-5.3,0-.8-.5-1.5-.5-2.1,0-.7.2-1.3.2-1.8.5,0,.9,0,1.2,0,.1-.4,0-1,.2-1.4.6-1.9.6-2.1.6-3.3-.1-1.7.2-3.1.2-3.1,0,0,0,2.8,2.1,4.5Z" fill="#fff"/>
      <path d="M488.8,105.1c1.4-2.1,3.2-4.7,5.1-7.2-2-9.3-3.3-16.7-4.1-21.9-.7-4.4,1.7-8.8,5.7-10.8,0-.1,0-.3.1-.4,0-.2.1-.5.2-.7.3-1.2,1.1-1.6,2.3-1.9,1-.2,2.7-.5,2.7-.5h0c0,0,.2,0,.3,0,0,0,0-.2,0-.3,0-.8,0-1.3,0-1.7,0,0,0,0,0,0-.2-.1-.4-.3-.5-.5-.1,0-.2-.2-.3-.3,0,0-.1,0-.2,0-.3-.1-.9-.4-1.2-1.9,0,0,0,0,0,0-2.1.8-4,1.6-5.7,2.3-6.8,3.1-10.9,10.5-9.7,17.9.9,6.4,2.6,15.9,5.5,28.2Z" fill="#fff"/>
      <path d="M516.7,57.8l7.6-1.8c.2-.1.4-.2.6-.3l4-1c0-.1,0-.2.1-.3.4-.7,1-1.1,2-1.1.3-.2.6-.4.9-.4.2,0,.3,0,.5,0s.1,0,.2,0c.2,0,.5-.2.8-.2s.1,0,.2,0c.2,0,.5,0,.6.2h0c0,0,.2,0,.2,0,.2-.3.6-.6.9-.7.3-.1.5-.2.8-.2s0,0,.1,0c0,0,.2,0,.3-.1.2,0,.5-.1.7-.1s0,0,.1,0c0,0,.1,0,.2,0,.2,0,.3,0,.5,0,.3,0,.5,0,.7.1.2,0,.5,0,.7.2,0,0,0,0,0,0l1.3-.3c.2,0,.3,0,.5,0,.9,0,1.7.6,1.9,1.5.2.9-.3,1.9-1.1,2.2.1.2.2.4.2.6,0,.6-.1,1-.2,1.2,0,.1-.1.2-.2.3,0,0,0,.1,0,.2,13.1,1.1,23.1,4.4,29.5,7.3.3.1.6.3.8.4,3.4.6,7.1,1.2,10.1,1.7-1.7-3.5-4.6-6.4-8.3-8.1-8.3-3.8-22.1-8.3-40.7-8.3s-16.4,1-22.9,2.4c1.4.5,3.7,2.1,5.5,3.8.2.2.4.5.4.8Z" fill="#fff"/>
      <path d="M568.5,76.3s.4.2.7.3c.3,0,.4.1.4.1,0,0-.1.2-.2.2,0,0,.3,0,.7-.2.4-.3.4-.4.4-.4,0-.2-.3-.6-.9-.8-.6-.2-.8,0-.8,0,0,0,.5.2.7.3,0,0-.2,0-.4.1-.2,0-.5.2-.5.2Z" fill="#fff"/>
    </g>
  </g>
</svg>