<?xml version="1.0" encoding="UTF-8"?>
<svg id="_レイヤー_1" data-name="レイヤー_1" xmlns="http://www.w3.org/2000/svg" width="90" height="60" version="1.1" viewBox="0 0 90 60">
  <!-- Generator: Adobe Illustrator 29.6.1, SVG Export Plug-In . SVG Version: 2.1.1 Build 9)  -->
  <path d="M3.4,8.5c0,.3,0,0-.3-.3v.9c.5,1.1,1,2.5,1.2,4,.4,2.5.2,3.5-.2,6.5-.3,2.3-.7,2.7-1,2.4v38h21.4s0,0,0,0h23.4c0,0,.2-.2.2-.3,0,.1,0,.2,0,.3h23.2c0-.3.1-.6.2-.8,0,.2.2.4.3.6,0,0,0,.1,0,.2h1.3c0,0,0-.1,0-.2.1-.2.2-.4.3-.6,0,.3.2.6.2.8h13.2v-3.6c0,0-.1-.1-.2-.2,0-.2.1-.5.2-.7v-13.3c-.3,1-.6,1.9-.8,2.8,0,0-.1,0-.2.1,0-.1-.1-.2-.2-.3,0-1.2,0-2.2,0-3.1.3-.1.5-.2.7-.4,0,.1.2.3.3.4v-5.3c-.1-.3-.3-.6-.4-.8,0-.4.1-.8.2-1.2,0,.1.1.2.2.4v-1.1s0,0,0,0c0,0,0-.1,0-.2v-6.1c-.3.7-.6,1.4-.8,2.1,0,0,0,0,0,0,0,0-.1-.1-.2-.2,0,0-.1,0-.2-.1,0,0,0,0-.1,0,0,0,0,0-.1-.1,0,0,0,0,0,0,0,0,0,0-.1,0,0,0,0,0,0,0,0,0,0,0,0,0,0,0,0,0,0,0,0,0,0,0,0,0,0,0,0,0,0,0,0,0,0,0,0,0,0,0,0,0,0,.1,0,.2.3.8.5,1.2.1.2.2.3.3.4,0,.1,0,.2,0,.3,0,0-.1,0-.2,0,0,0,0,.2,0,.3,0,.2,0,.3-.1.5-.8-.9-1.3-1.2-1.1-1,.3.3.6.8,1,1.3-.2.8-.3,1.7-.4,2.5,0,.9,0,1.9,0,2.8,0,0-.2-.2-.3-.2,0-.5,0-1.1,0-1.6-.3-4.9-1.2-9.5-1.7-11.1,0,0-.7,6.8-.8,10.8-.2-.1-.4-.2-.6-.3,0-.1,0-.2,0-.4,0-.4,0-.8-.1-1.2,0,0,0,0,0,0,0,0,0,0,0,0-.1-1.8,0-3.2.2-3.7-.3,1.3-.4,2.6-.5,3.8,0,0,0,0-.1,0,0,0,0-.1,0-.2,0,0,0,0,0,0,0-.5,0-1,0-1.6,0,0,0-.2,0-.3,0-.5,0-.9,0-1.4,0-.1,0-.2,0-.3,0-1.1.1-2.3.2-3.6,0-.1,0-.3,0-.4,0-.5,0-1.1.2-1.6,0-.1,0-.2,0-.3,0-.7.2-1.3.2-2,.1-1,.3-2.1.5-3.2,0,0-1.6,4.6-2.5,11.8-.1,1.3-.2,2.5-.2,3.7-.5-.2-.9-.3-1.2-.4-.2-1-.4-1.7-.6-2.2-.2-4.3,0-8.5-.9-13.7.1.8.5,3.3,0,6.4-.5,3.7-.9,5.3-.4,10.4,0,.4,0,.8.1,1.2,0,0,0,0,0,0-.5.3-1.1.7-1.6,1.2-.7-1.4-1.4-2.5-2-3.4.7-1.2,1.4-2.2,1.8-2.6.3-.3-.8.5-2.1,2.3-1.3-1.8-2.4-2.6-2.1-2.3.4.5,1.1,1.4,1.8,2.6-.7.9-1.4,2-2,3.4-.3-.3-.6-.5-.9-.7,1.1-2.2,2.3-3.6,2.3-3.6-1,.5-2,1.7-2.9,3.1,0,0,0,0,0,0,0-.5.1-.9.1-1.2.2-1.6.2-2.9.2-4,.5-.6,1.1-1.1,1.6-1.6,0,0-.7.4-1.6,1.1,0-2.1-.3-3.6-.6-6-.4-3,0-5.5,0-6.4-1,5.1-.7,9.3-.9,13.7-.6.5-1.2,1.2-1.8,1.9,0-.9,0-1.9-.2-2.9-.8-7.2-2.5-11.8-2.5-11.8.2,1.1.3,2.2.5,3.2,0,.7.2,1.4.2,2,0,.1,0,.2,0,.3,0,.6.1,1.1.2,1.6,0,.1,0,.3,0,.4.1,1.2.2,2.4.2,3.6,0,.1,0,.2,0,.3,0,.5,0,.9,0,1.4,0,0,0,.2,0,.3,0,.5,0,1.1,0,1.6,0,0,0,0,0,0,0,0,0,.1,0,.2,0,0,0,0-.1,0,0-1.2-.2-2.5-.5-3.8,0,.5.3,1.9.2,3.7,0,0,0,0,0,0,0,0,0,0,0,0,0,.4,0,.8-.1,1.2-.1.9-.2,1.6-.3,2.2,0,.2-.2.4-.3.6,0-.3,0-.6,0-1,0-3.6-.9-11.9-.9-11.9-.5,1.6-1.4,6.2-1.7,11.1,0,0,0,0,0,0-.1,0-.2,0-.4,0,0-.4,0-.7,0-1.1-.2-2.9-1.3-5.9-2.3-7.9-.2-1-.4-1.7-.6-2.2,0,0,0,.3,0,.9-.2-.3-.3-.6-.5-.8,0,0,0,0,0,0h0c-.2-.3-.3-.5-.3-.5,0,.5.2,1.8.6,3.4,0,.5,0,1.1-.1,1.6-.3.2-.6.4-1,.7,0-.1,0-.2,0-.3,0,0,0,.2,0,.3-.2.1-.4.3-.6.5,0-.1,0-.3,0-.4,0-.1,0-.2,0-.3,0-1.1.1-2.3.2-3.6,0-.1,0-.3,0-.4,0-.5,0-1.1.2-1.7,0-.1,0-.2,0-.3,0-.7.2-1.4.2-2.1.1-1,.3-2.1.5-3.2,0,0-1.6,4.6-2.5,11.8,0,.5,0,1-.1,1.5-.2.2-.4.5-.7.7-.4-.5-.8-.9-1.2-1.2-.2-4.3,0-8.5-.9-13.7.1.8.5,3.3,0,6.4-.3,2.4-.6,3.9-.6,6-.7-.5-1.2-.9-1.5-1,.4-2.3.8-4.2.8-4.8,0,0-.1.2-.3.5h0s0,0,0,0c-.7,1.2-2.3,4.4-3,7.8-.4-.5-.8-1-1.1-1.3-.4-3.1-.9-5.6-1.3-6.7,0,0-.6,6.4-.8,10.4-.2,0-.4.2-.5.3,0-.2,0-.4,0-.6-.3-2.4,0-4.3,0-5-.4,1.9-.5,3.7-.6,5.4,0,0,0,0,0,0,0-.1,0-.2,0-.3,0-.5,0-.9,0-1.4,0,0,0,0,0,0,0-.5,0-1,0-1.6,0,0,0-.2,0-.3,0-.5,0-.9,0-1.4,0-.1,0-.2,0-.3,0-1.1.1-2.3.2-3.6,0-.1,0-.3,0-.4,0-.5,0-1.1.2-1.7,0-.1,0-.2,0-.3,0-.7.2-1.4.2-2.1.1-1,.3-2.1.5-3.2,0,0-1.6,4.6-2.5,11.8-.2,1.4-.2,2.7-.2,4-.3-.2-.6-.3-.9-.4,0,0,0,0,0,0,0-.5.2-.7.2-1.3,0-.2-.3-.3-.6-.3.4-.7.8-1.2,1.1-1.5.2-.2-.4.2-1.3,1.3,0-.3-.2-.6-.2-.8,0-.5,0-1,0-1.5.3-.3.3-.5.6-1,.4-.5.3-.7.2-1.4-.1-.7-.4-1-.5-1.7,0-.3-.2-.5-.4-.7,0-2.3-.2-4.8-.7-7.5.1.8.5,3.3,0,6.4,0,.1,0,.2,0,.3,0,0-.1-.1-.2-.2-.6-.7-.1-1.2-.8-1.1-.7,0-.4.3-1.3.4-.9.1-.5.6-.9.8-.4.2-.1.2-.4,1.1,0,0,0,.2,0,.2,0-.5-.2-1.1-.2-1.7-.4-3,0-5.5,0-6.4-.7,3.5-.7,6.5-.8,9.4-.2.8-.2,2-.2,2.2,0,.3,0,.7,0,1.3,0,.7-.5.4-.8,0-.3-.4,0-.8.2-1.3.2-.6-.1-.5-.4-.9-.3-.4-.1-.4-.4-.8-.2-.3-.5-.3-.8-.1-.2-1.1-.3-2-.5-2.9,0,0,.1,0,.2-.1.4-.3.9-.4.8-.8,0-.4-.1-.4-.2-.7,0-.2,0-.4-.3-.6-.3-.2-.6-.2-.7-.5,0-.3-.1-.4.2-.6.3-.2.6-.3.5-.5,0,.1.2.1.2.1,0,0,0-.7-.3-1-.4-.3-.1-.7-.6-.6-.5,0-.7.1-1,0-.1-.4-.2-.7-.2-.7,0,.2,0,.4,0,.6,0,0,0,0,0,0-.4-.1-1.2-.6-1.7-.4-.4.2-1.4.9-1.9,1.3,0,0,0,0,0,0-.6,0-.9.2-.9.2,0,0,.5-1,1.8-2.4,0,0,0,0,0,0,0,0,.1,0,.2,0,0,0,0,0,0,0,.1,0,.2,0,.3,0,0,0,0,0,0,0,.1,0,.2,0,.3,0,0,0,0,0,0,0,.1,0,.2,0,.3,0,.5,0,.4,0,.9.2.5.2.7,0,1.3.1.6,0,.9-.1,1.1-.6.2-.4,0-.3-.1-.8-.1-.4-.4-.4-.2-.6,0,0,0,0,.1-.1.2-.2.5-.4.4-.4.2,0,.4,0,.7-.2.6-.2.5-.2,1.1-.7.6-.5.3-.5.5-1.1.1-.6,0-.9-.3-1.2s-.7-.1-1.2-.1c-.5,0-.3-.4-.8-.6-.5-.2-.4.3-.9.6-.5.4-.4.7-.7,1.1-.2.4-.4.4-.7.4s-.4.4-.6.3c-.2,0,.2-1-.3-1.1-.1,0-.2,0-.3,0,0,0,0,0,0,0,0,0,0,0,0,0,0,0-.1.1-.2.2,0,0,0,0,0,0,0,0,0,.2-.1.2,0,0,0,0,0,0,0,.1,0,.2-.1.3,0,0,0,.2,0,.2-.1.3-.1.4-.4,1-.2.6-.2.5-.4,1.3,0,.2,0,.4-.1.5,0,0,0,.1,0,.2,0,0,0,.1,0,.2,0,0,0,.1,0,.2,0,0,0,0,0,0,0,0,0,0,0,0h0s0,0,0,0h0c-1.5,1.6-2.4,3.4-3.3,6,0,.1,0,.3-.1.4,0-.1-.1-.2-.1-.2,0,.1,0,.3,0,.5-.2.8-.3,1.3-.4,1.6,0-.2,0-.4,0-.6,0-.1,0-.2,0-.3,0,0,0-.1,0-.2,0,0,0-.1,0-.2,0,0,0-.3,0-.3,0,0,.1,0,0,0,0-.1-.1-.2-.1-.3,0-.2,0-.3.2-.3,0,0,0,0,0,0,0,0-.2-.1-.2-.3,0,0,0-.2,0-.3,0,0,0,0,0,0,0,0,0-.2,0-.2,0-1.1,0-2.2,0-3.3,0-.2,0-.4,0-.6,0,0,.3-.9.6-1,.2-.2.3.4.7-.3.4-.7.2-.8.7-1.1.4-.3,1-.4,1.2-.9.2-.5.3-.5,0-.8-.3-.3-.4-.3-.3-.8,0-.5,0-.9-.5-.9-.5,0-.8.1-1.1.4-.2.2-.5.3-.6.9,0,.3-.3.7-.5,1.2.1-.6.3-1.3.4-1.9,0,0,1.6-2.4,2.6-3.4,1-1,2.7-1.4,2.7-1.4,0,0-3.6-.2-5.3,4.8.1-.4.2-.8.3-1.1,0-.1.1-.3.2-.5.3-.8.8-2.3.7-3.2-.2-1.2-.3-1.3-.4-1.9,0,0,0-.2,0-.3-.2-.9-.4-2.6-.4-2.6,0,0-.4,1.2-.7,2.4,0,0,0,0,0,0,0,0,0,0,0,0,0,.2,0,.4-.1.6,0,0,0,0,0,0,0,.2,0,.4,0,.6h0c0,.8.2,1.4.5,2.2.2.7.5,1.4.4,2.5-.1.3-.2.7-.3,1-.3.8-.6,1.8-.9,3.6,0,0,0,0,0,0,0-.7-.4-.4-.5-.6-.2-.2-.1-.4-.4-.6-.3-.2-.4,0-.6.3,0,0,0,0,0,0-.2.1-.2-.2-.5-.7-.3-.5-.2-1.2-.4-1.9-.2-.7-.4-.5-1-.8-.6-.3-.6,0-.8.4-.3.4-.2.6-.2,1.3,0,.7-.2.5-.2,1.1,0,.6.6,1.2.7,1.8.1.7-.5.3-.7.5-.2.2,0,.4-.1,1,0,.6.1.3.6.7.4.5.4.6,1,.9.6.4.6.2,1,.4.4.2.1.3.4.7.2.3.6.3.9.3-.1,1.7-.2,3.4-.2,5,0,0,0-.2-.2-.3-.4-.4-.5,0-.9.2-.4.2-.2.4-.7.8-.4.3-.2.3-.2,1.1,0,.4.3,1,.5,1.6-.2.1-.3.3-.5.5,0,0,0-.1,0-.2,0,0,0-.2-.1-.2,0-.2,0-.3,0-.5-.1-1.1-.3-2.2-.4-3.2.2-.2.3-.4.3-.4,0,0,0,0,0,0,0,0-.2,0-.3.2,0,0,0-.2,0-.2.2-.1.4-.2.6-.4.7-.4.8-.9,1-1.4.2-.5,0-.9-.5-1.3-.4-.3-.4-.3-.9-.4-.4,0-.4.4-.6.8,0,.1,0,.2-.1.2-.7-3.6-1.5-5.7-1.5-5.7.2,1.1.3,2.2.5,3.2,0,.7.2,1.4.2,2.1,0,.1,0,.2,0,.3,0,0,0,0,0,0-.1.1-.2.4-.4.4,0,0,0-.2,0-.2,0-.1,0,0-.1.2-.3,0,0-.6,0-.9.1-.4.1-.9,0-1.3s-.3-.6-.3-1.1c0-.5-.5-1-1-1.5-.5-.5-1.1-1.1-1.6-.9,0,0,0,0,0,0,0,0,0,0,0,0,0,0,0,0,0,0,0,0,0,0,0,0,0,0,0,0,0,0,0,0,0,0,0,0,0,0,0,0,0,0,0,0,0,0,0,0,0,0,0,0,0,0,0,0,0,0,0,0,0,0,0,0,0,0,0,0,0,0,0,0,0,0,0,0,0,.1,0,0,0,.1,0,.2,0,0,0,0,0,0,0,0,0,.2,0,.2,0,.6-.2.9-.3,1.6-.5.4-1.3,1.1-1.8,1.3-.7.3,1.4-2.9,1.3-3.2,0-.3-1.4,2.4-1.8,3-.4.6-.2-.7-.4-.9-.2-.2,0,1-.1,1.5,0,.3-.3.7-.4,1.1,0,0,0-.1,0-.1,0,0,0,.1,0,.2,0,.1-.2.3-.2.4-.3.3.3-1.8.4-3.1.2-1.3.2-2.7,0-2.9-.2-.2-.1,1.9-.3,2.9-.1,1-.3,2.3-.5,2.7-.2.3,0-.8-.4-1.4-.3-.6.2,1.3.2,1.8,0,0,0,.2,0,.4,0-.2-.1-.4-.2-.5,0,0,0,.5-.1,1.4-.1.3-.2.6-.2.6,0,0-.1-.8-.3-1.7,0,0,0-.2,0-.3,0,0,0-.1,0-.2,0,0,0-.2,0-.3,0,0,0-.1,0-.2,0,0,0-.2,0-.3,0,0,0-.1,0-.2,0,0,0-.2,0-.3,0,0,0-.1,0-.2,0,0,0-.2,0-.3,0,0,0-.1,0-.2,0,0,0-.2,0-.3,0,0,0-.1,0-.2,0-.1,0-.2,0-.3,0,0,0,0,0-.1,0-.1,0-.3,0-.4,0-.2,0-.4,0-.5,0-.7.2-1.4.3-2.2,0-.1.1-.2.2-.4,0-.1.2-.3.2-.4.2-.3.4-.7.6-1.1.3-.7.6-1.4.6-1.9,0,0,0,0,0,0,0,0,0,0,0,0,0,0,0,0,0,0,0,0,0,0,0,0h0s0,0,0,0h0s0,0,0,0c-.2,0-1.2,2.7-1.8,3.1-.2.1-.2,0-.2,0,0,0,0,0,0,0,0,0,0,0,0,0,0,0,0-.1,0-.2,0,0,0,0,0,0,0,0,0-.2,0-.3,0-.3.1-.5.2-.8,0,0,0,0,0,0,.1-.4.2-.7.3-.9,0,0,0,0,0,0,0,0,0-.1,0-.2.2-.2.4,0,.7-.5,0,0,.1-.2.2-.3,0-.2.2-.4.2-.6,0,0,0,0,0,0,0-.2,0-.4.1-.5,0,0,0,0,0,0,0,0,0,0,0,0,0-.3,0-.6,0-.8,0,0,0,0,0,0,0,0,0,0,0,0,0,0,0-.2,0-.2-.1-.3-.3.1-.4,0-.1-.2,0-.3-.1-.2-.2.1-.3.3-.4.1,0-.2,0-.2-.2,0-.1,0-.1,0-.2,0s0,.1-.2,0c-.2,0,0-.3-.3-.1-.2.1-.2.3-.4.2-.2,0-.2,0-.3-.1-.2-.1-.2,0-.3.7,0,.2,0,.5,0,.8,0,0,0,0,0,0,0,0,0,0,0,0,0,.1,0,.2,0,.3,0,0,0,0,0,0,0,0,0,.1,0,.2,0,0,0,0,0,0,0,0,0,.1,0,.2,0,0,0,0,0,0,0,0,0,.1,0,.2,0,0,0,0,0,0,0,0,.1.1.2.2,0,0,0,0,0,0,0,0,0,0,0,0,0,0,.1,0,.2.1,0,0,0,0,.1,0,0,0,0,0,0,0,0,0,0,0,0,.1,0,.2-.4,2.2-.5,3.3,0,.6,0,1.5,0,2.5-.3,1.3-.7,3-1.1,5,0,0,0,.3,0,.5-.2,1-.3,2.1-.5,3.2,0,0,0,0-.1.1,0-1-.2-2.2-.3-2.3-.2-.2,0,1.5.1,2.5-.2.2-.4.3-.6.5-.4-.4-.8-.7-1.1-.9,0-.4.1-.9.2-1.4.2-1.2.3-2.2.4-3.1,0,0,0,0,0,0,0,0,0,0,0,0,0,0,0,0,0,0,0,0,.1-.1.2-.2.4-.3.3-.4-.2-.6,0-.4.1-.8.2-1.2,0,0,0,0,0,0,.2-.6.4-2,.5-3.4,0-.6.2-1.2.3-1.9.5-3.5,0-5.2.6-6.3.6-1.2,1.1-2.5,1.2-3.2,0-.7-.4.5-.7,1.2-.2.7-.5.9-.6,1.4s-.3.9-.4.5c0-.4-.3-.9-.2-1.2.2-.3.5-2,.5-2.3,0-.3-.4,1.3-.5,1.7-.2.4-.3-.2-.4-.5,0-.3,0-2.3-.4-2.5-.4-.3,0,2.3,0,2.7,0,.4.8,2.3.8,3.5,0,1.2-.4-.2-.6-1.3-.2-1.1-1-3.6-1.1-5.7,0-.6-.1-1.1-.2-1.5v2.8c0,.6.2,1,.3,1.4ZM86.4,57.6c0,0,.1.2.2.2,0,0,0,0,0,.1,0,0,0,0,0,0,0,0,0-.1,0-.2,0,0,0,0,0-.1ZM85.8,59.9s0,0,0,0c0,0,0,0,0,0,0,0,0,0,0,0ZM86.8,39.6s0,0,0,0c0,0,0,0,0,0,0,0,0,0,0,0ZM86.1,38.6s0,0,.1,0c0,0,.2.1.3.2.2.1,0,.1,0,.2,0,0,0,0,0,0,0-.1-.2-.2-.3-.3,0,0,0,0,0-.1ZM84.7,45.3c0-.1,0-.2,0-.4,0,.1.1.3.2.4,0,0-.1,0-.2,0ZM85.1,51c0-.9-.1-1.7-.2-2.5,0,0,.1,0,.2,0,0,.9,0,1.7,0,2.5ZM85.1,47.6c0,0-.2,0-.2.1,0-.1.2-.2.2-.3,0,0,0,.1,0,.2ZM85,42.2c0,.4,0,.9,0,1.3-.1-.2-.2-.3-.3-.5,0-.2,0-.4,0-.6,0,0,0,0,0,0,0,0,.2,0,.2-.1ZM84.9,39.2c0,.4,0,.9,0,1.3,0,0-.1,0-.2,0,0-.5,0-1.1,0-1.6,0,0,.1.2.2.3ZM82.5,44.3s0,0,0-.1c0,0,0,0,0,0,0,0,0,.1,0,.2ZM82.5,44s0,0-.1,0c-.1-.2-.2-.4-.4-.6.1,0,.3,0,.4-.1,0,.2,0,.5,0,.7ZM82.2,41.2c-.1,0-.2,0-.3,0,0-.3,0-.6,0-.9,0,0,.2.2.2.3,0,.2,0,.3,0,.5ZM82,36.3c0,0,0,.2,0,.3,0,1.2,0,2.4.1,3.5,0,0-.1-.1-.2-.2,0-1.5-.1-2.6-.3-3.9.1.1.3.2.4.3ZM81,33.7c0,.4,0,.8,0,1.1,0,0,0,0,0,0,0-.3,0-.7,0-1.1,0,0,0,0,.1,0ZM81,47.6c0,.1,0,.3,0,.4,0,.4,0,.8,0,1.3,0,0-.2-.1-.3-.2,0-.5.2-1,.3-1.5ZM79.4,41.8s0,0,0,0c0,0,0-.1.1-.2,0,0,0,0,.1.2,0,0-.2,0-.2,0ZM80,46s0,0,0-.1c0,0,0,0,0,0,0,0,0,0,0,0,0,0,0,0,0,.1ZM79.3,34.6c0,2.5.3,4.8.7,6.9,0,0,0,0,0,0,0,0,0,0,0,0,0,0,0,0,0,0,0,0-.1,0-.2,0,0,0-.2-.1-.3-.2,0,0,0,0,0,0,0,0,0,0-.1,0,0,0,0,0-.1,0,0,0,0,0,0,0,0,0,0,0,0,0,0-.6,0-1.2-.1-1.9-.2-1.7-.5-3.3-.7-4.6.3-.2.5-.4.8-.6ZM79.2,34.3c-.2.1-.5.2-.8.4,0-.3-.1-.6-.2-.9.3.2.6.3,1,.5ZM77.5,42.1c-.1,0-.2,0-.3,0,0-.6,0-1.2-.1-1.8,0,0,0,0,0-.1,0,.6.2,1.2.3,1.8ZM77.1,39.9s0,0,0,0c0-.3,0-.6,0-.9,0,.3,0,.6.1.9ZM77,49.3c0,.2.1.4.2.6-.2.2-.3.5-.4.7,0-.4.1-.8.2-1.2ZM76.8,51.3c0,.3,0,.6,0,1,0,0,0,0,0,0,0,0,0,0,0,0,0,.2,0,.3,0,.4,0,.1,0,.3,0,.4,0,0,0,0-.1,0,0-.7.2-1.3.3-1.9ZM69.8,43c0,0,0-.1,0-.2,0,0,0,0,0,.1,0,0,0,0,0,0ZM70,46.9c0,0,.1,0,.2,0,0,.4,0,.8,0,1.2,0,0-.1,0-.2,0,0-.4,0-.9,0-1.3ZM70.2,48.8c0,.1,0,.3,0,.4,0-.1,0-.2-.1-.4,0,0,0,0,.1,0ZM70,52c0,.3.2.6.3.9,0,0,0,0,0,0,0,0-.1,0-.2,0,0-.3,0-.6,0-1ZM70.2,54.8c0-.2,0-.3,0-.5,0,0,0,0,.1,0,0,.2,0,.4,0,.7,0,0,0,0,0-.1ZM70.3,59.7c0-.1,0-.3,0-.4,0,0,0-.2,0-.2,0,0,0,.2,0,.2,0,0,0,0,0,0,0,.1,0,.2,0,.3ZM72.3,38.8c0-.5.2-.9.3-1.3,0,.4.2.9.3,1.3,0,0-.2.2-.3.3,0,0-.2-.2-.3-.3ZM74,47.3c0,0,.1,0,.2,0,0,.2,0,.3,0,.5-.1,0-.3-.1-.4-.2.2-.2.3-.2.3-.2ZM71.5,47.5c-.2.1-.4.2-.6.3,0-.2,0-.4,0-.6,0,0,.2,0,.2,0,0,0,.1,0,.3.2ZM72.6,57.7s0,0,0,0c0,0,0,0,0,0,0,0,0,0,0,0,0,0,0,0,0,0ZM74.8,59.3s0,0,0,0c0,0,0-.2,0-.2,0,0,0,.2,0,.2,0,.1,0,.3,0,.4,0-.1,0-.2,0-.3ZM74.9,54.8s0,0,0,.1c0-.2,0-.4,0-.7,0,0,0,0,.1,0,0,.2,0,.3,0,.5ZM75.1,53c0,0-.1,0-.2,0,0,0,0,0,0,0,0-.3.2-.6.3-.9,0,.3,0,.7,0,1ZM75,49.2c0-.1,0-.3,0-.4,0,0,0,0,.1,0,0,.1,0,.2-.1.4ZM75.2,48.2c0,0-.1,0-.2,0,0-.4,0-.8,0-1.2,0,0,.1,0,.2,0,0,.4,0,.9,0,1.3ZM75.4,43s0,0,0,0c0,0,0,0,0-.1,0,0,0,.1,0,.2ZM76.2,37c-.1.6-.2,1.3-.4,2.1-.2-.4-.3-.9-.5-1.2.3-.3.6-.6.9-.8ZM75.2,39.8c.1.4.3.9.4,1.4,0,.1,0,.2,0,.3-.2.2-.4.5-.6.7-.1-1.1-.4-2.1-.8-3,.2-.2.4-.4.6-.6.2.4.3.8.4,1.2ZM72.6,34c.6,1,1.2,2.2,1.7,3.4-.2.2-.4.4-.6.5-.3-.7-.6-1.4-.9-1.9,0-.6.2-1,.2-1.2,0,0,0,.1-.2.4h0s0,0,0,0c0,.1-.1.2-.2.4,0-.1-.1-.3-.2-.4,0,0,0,0,0,0h0c-.1-.2-.2-.4-.2-.4,0,.2,0,.7.2,1.2-.3.5-.6,1.1-.9,1.9-.2-.2-.4-.4-.6-.5.5-1.2,1.1-2.4,1.7-3.4ZM70.5,38.5c.2.2.4.4.6.6-.3.9-.6,2-.8,3-.2-.3-.4-.5-.6-.7,0-.1,0-.2,0-.3.1-.5.3-.9.4-1.4.1-.4.3-.8.4-1.2ZM69.9,37.9c-.2.4-.3.8-.5,1.2-.1-.8-.2-1.5-.4-2.1.3.3.6.5.9.8ZM68.7,53.3s0,0-.1,0c0-.1,0-.3,0-.4,0-.1,0-.3,0-.4,0,0,0,0,0,0,0,0,0,0,0,0,0-.3,0-.7,0-1,0,.6.2,1.3.3,1.9ZM68.3,50.3c0,0,0,.2,0,.3,0,0,0-.2-.1-.3,0,0,0,0,0,0ZM68.1,50.1c0,0,0-.1-.1-.2,0-.2.1-.4.2-.6,0,.3,0,.5,0,.8,0,0-.1,0-.2,0ZM68.2,39c0,.3,0,.6,0,.9,0,0,0,0,0,0,0-.3,0-.6.1-.9ZM68,40.3s0,0,0,.1c0,.8-.1,1.6-.2,2.3,0,0-.2-.1-.3-.2.1-.8.3-1.5.4-2.2ZM65.7,42.4c-.2,0-.4,0-.5.1.2-.1.4-.2.6-.3,0,0,0,.1,0,.2ZM67.2,32.8c-.1.5-.3,1.1-.4,1.8-.2-.1-.4-.2-.6-.3.3-.5.6-1,1-1.5ZM65.2,41.6s0,0,0,0c0,0,0,0,0,0,.3-2,.6-4.2.6-6.5,0-.1.1-.2.2-.3.2.1.4.3.7.5-.3,1.3-.5,2.8-.7,4.6,0,.6-.1,1.3-.1,1.9,0,0-.2-.1-.2-.1,0,0,0,.1.2.3,0,.1,0,.3,0,.4-.2,0-.4.1-.8.3,0-.3,0-.6.1-.9ZM64.3,33.7c0,.4,0,.7,0,1.1,0,.1,0,.2,0,.3,0,0,0,0,0,0,0-.5,0-1,0-1.5,0,0,0,0,.1,0ZM62.9,42.3c.1-.4.3-.8.4-1.1,0,.4,0,.9.1,1.4,0,0,0,0,0,.1,0,0,0,.1,0,.2,0,.1,0,.2,0,.3-.2.1-.4.2-.6.3,0-.4.1-.8.1-1.3ZM62.6,44.3s0,0,0,0c0,0,0,0,0,0h0ZM62.4,46.5c0,.1,0,.3.1.4,0,0,0,.2,0,.3-.1.5-.2,1-.3,1.5,0,0,0,0,0-.1,0-.7.2-1.4.3-2.1ZM60.3,37.1s0,0,0,0c0,0,.1,0,.2,0,0,0,0,0,0,0,0,1.1,0,2.3,0,3.4,0,0,0,0,0,0,0,0-.1,0-.2,0,0-1.1,0-2.2,0-3.3ZM60.2,42c0,.1.2.3.3.4,0,1,0,2,0,2.8-.1.1-.2.2-.4.3,0-1.2,0-2.4.1-3.6ZM60,47.4c0,0,0,.1.1.2,0,.3,0,.6-.1.9,0-.3,0-.7,0-1ZM59.3,42.3s0,0,0,0c0,.9,0,1.9,0,3,0,0,0,0-.1-.1,0-.9,0-1.8,0-2.8,0,0,0,0,0,0ZM57.4,46.5c0,.7.2,1.4.3,2.1,0,0,0,0,0,.1,0-.5-.2-1-.3-1.5,0,0,0-.2,0-.3,0-.1,0-.3.1-.4ZM57.1,44.3s0,0,0,0c0,0,0,0,0,0,0,0,0,0,0,0ZM56.4,41.3s0,0,0,0c0,0,0,0,0,0,0,0,0,0,0,0ZM56.6,36.6c0,0-.2,0-.3,0,0-.1,0-.3,0-.4.1-.3.3-.5.4-.7,0,.4,0,.8,0,1.1,0,0,0,0,0,0ZM57,43.6c-.1,0-.3-.2-.4-.2.1,0,.2,0,.3-.1,0,.1,0,.2,0,.3ZM57,29.5c-.1,1.5-.3,3.2-.3,4.7-.2.3-.4.5-.6.8,0,0,0-.2,0-.3-.2-1.8-.2-3.3,0-4.2.3-.4.7-.7,1.1-1ZM55.4,31.5c0-.1,0-.3,0-.4.2-.2.3-.3.5-.5-.3,1.6-.4,3.1-.4,4.6,0,0,0,0,0,0,0,0,0-.2,0-.3,0-.5,0-.9,0-1.4,0,0,0,0,0,0,0-.5,0-1,0-1.6,0,0,0-.2,0-.3ZM54.9,44.2c0,.2,0,.4-.1.5,0-.2-.1-.4-.2-.6,0,0,.2,0,.3,0ZM54.4,40.6c0,.3,0,.6.1.8,0,0,0,0,0,0,0,0,0,0,0,0,0,0,0,0,0,0-.2,0-.3,0-.5,0,.1-.4.2-.7.3-1.1ZM53.9,33c0,0,0,.2,0,.2,0,0,0,0,0-.1,0,0,0,0,0-.1ZM53.3,34c.2.3.4.7.6,1,0,.7,0,1.4.1,2.1-.2,0-.4,0-.6.1-.2-1-.3-1.9-.5-2.7.1-.2.2-.4.4-.6ZM53,53.9c0,.2,0,.3-.1.5,0,0-.2-.2-.3-.3,0-.3,0-.5,0-.7,0-.3,0-.5.1-.8,0,.2.1.5.2.7,0,.2,0,.4.1.5ZM52.8,33.2c0,0,0,.1-.1.2,0-.2,0-.4-.1-.5,0,.1.2.2.3.4ZM51.7,40c.1.7.2,1.4.4,2.1-.1,0-.2,0-.3,0,0-.7,0-1.4-.1-2.1,0,0,0,0,0,0ZM51.7,49.7c0,0,0,.2,0,.2,0,0,0,.1-.1.2,0,0,0,0,0,0,0-.2,0-.3.1-.5ZM51.5,50.3s0,0,0,0c0,0,0,0,0,.1,0,0,0,0,0,0,0,0,0,0,0-.1ZM51.3,51.8s0,0,0,0c0,0,0,0,0,0,0,0,0,0,0,0ZM47.7,58.5s0,0,0,0c0,0,0,0,0,0,0,0,0,0,0,0ZM48,56.7s0,0,0,0c0,0,0,0,0,.1,0,0,0,0,0,0ZM48.8,51.8c0-.3-.2-.7-.2-1,0-.5.2-1.2.3-1.8,0,.8,0,1.7,0,2.7,0,0,0,0-.1.1ZM49.4,59.3s0,0,0,0c0,0,0-.2,0-.2,0,0,0,.2,0,.2,0,.1,0,.3,0,.4,0-.1,0-.2,0-.3ZM49.3,39.5c0,.2-.2.3-.2.5-.2-.7-.4-1.3-.7-1.9,0,0,.1,0,.2,0,.1,0,.2,0,.3.1,0,0,0,0,.1,0,.1,0,.2,0,.4.1,0,.2.1.3.2.5,0,.2-.1.3-.2.5ZM49.8,51.2c0,0-.2.1-.3.2,0-1.6.1-3.2.2-4.7,0,0,.1,0,.2-.1,0,1.7,0,3.3,0,4.6ZM50,43c0-.1-.2-.3-.3-.4.1-.5.3-.8.4-1.1,0,.5-.1,1-.1,1.5ZM49.2,29.1c.5.4,1,.9,1.5,1.4,0,1.1,0,2.3.2,4,0,.3,0,.8.1,1.2,0,0,0,0,0,0-.8-1.3-1.6-2.3-2.5-2.9.2-1.2.5-2.5.7-3.7ZM48.5,33c.4.6,1.3,1.9,2.1,3.5,0,0,0,0,0,.1-.5,0-.9-.2-1.3-.3-.3-.7-.7-1.3-1-1.8,0-.5.2-1,.3-1.6ZM48,35.5c.1.2.2.4.3.7-.2,0-.3,0-.4-.1,0-.2,0-.4.1-.6ZM47.5,39.1c0,.2,0,.3,0,.5,0,0,0,0-.1-.1,0-.1,0-.2,0-.3ZM47.3,41.4c.3.4.5.8.8,1.2,0,0,0,.1,0,.2-.1.4-.2.8-.3,1.2-.2,0-.4,0-.6,0,0-.9,0-1.7,0-2.5ZM47.2,44.8s0,0,0,0c0,0,.1,0,.2-.1,0,0,0,0,0,0,0,0,0,0,0,0,0,.2,0,.3-.1.5-.1.1-.2.2-.4.3,0-.2,0-.4,0-.6ZM46,35.7c0-.5,0-1.1-.1-1.6.2-.1.4-.2.6-.3,0,.3,0,.6,0,.9,0,.3,0,.7,0,1.1-.1,0-.2,0-.4,0,0,0,0,0,0,0ZM46.1,37s0,0,0,0c0,0,.1,0,.2,0,0,0,0,0,0,0,0,.4,0,.7,0,1.1,0,0-.2-.1-.2-.2,0-.3,0-.7,0-1ZM46.1,39.8c0,0,.2.2.2.3,0,.5,0,.9,0,1.4,0,.1-.2.2-.2.3,0-.6,0-1.3,0-2ZM46.2,44c0-.5,0-1,0-1.6,0-.2.2-.3.3-.4,0,.7,0,1.3,0,2,0,0-.2,0-.2,0,0,0,0,0-.1,0ZM46.6,51c0-1-.1-1.9-.2-2.7,0,0,.2,0,.3,0,0,1,0,1.9,0,2.8ZM46.6,55.2c0,.1,0,.2,0,.3,0,0,0,0,0,0,0,0,0,0,0,0,0,0,0-.1,0-.2,0,0,0-.2,0-.2ZM46.6,33c0,.2,0,.4,0,.6-.2,0-.4.1-.7.2,0-.8-.2-1.6-.3-2.4.3.4.6.9,1,1.5ZM44.2,46.8c0,0,.1,0,.2,0,0,.5.1.9.2,1.4,0,0,0,0,0,0,0-.1,0-.2-.1-.4,0-.2-.1-.5-.2-.8,0,0,0-.2,0-.3,0,0,0,0,0,0ZM43.9,43.8c0,.2,0,.4,0,.5,0-.1,0-.2-.2-.4,0,0,0-.1,0-.2ZM43.8,42.9c-.1.2-.2.3-.3.5,0,0-.1-.1-.2-.2,0-.1,0-.2,0-.3,0,0,0-.1,0-.2,0,0,0,0,0-.1,0-.5,0-1,.1-1.4.1.2.3.4.4.5,0,.4,0,.8.1,1.2ZM43.6,40.8c0,0-.2-.2-.3-.3,0-.2,0-.4,0-.6,0,0,.1-.1.2-.2,0,.4,0,.7,0,1ZM43.5,35.8s0,0,0,0c0,0,0,0,0,0,0,0,0,0,0,0ZM43.5,36.9c0,.9,0,1.7,0,2.5,0,0,0,0-.1.1,0-1.1,0-1.9-.2-2.9.1,0,.2.2.3.3ZM42.5,47.6c0,.1,0,.3,0,.4,0,.2,0,.5,0,.7,0,0-.1,0-.2,0,0-.4.1-.7.2-1.1ZM42.2,49c.1,0,.2,0,.3,0,0,.1,0,.2,0,.4,0,0-.2-.1-.3-.2,0,0,0-.1,0-.2ZM41.7,44.5c-.2,0-.4,0-.6-.1,0,0,0-.1,0-.2.1,0,.3,0,.4,0,0,0,.2,0,.3,0,0,.1,0,.2,0,.3ZM41.6,42.3c0,.1,0,.2,0,.3,0,0-.1,0-.2,0,0,0,0,0,0,0,0,0,0-.2.1-.2ZM41.1,38.7c-.1,0-.2-.1-.2-.1,0,0,.1.1.2.2.1.9.2,1.8.4,2.6-.1.1-.2.2-.3.4-.1-.3-.3-.5-.2-.8,0-.3,0-.4-.2-.5,0-.3,0-.5,0-.8,0-.4,0-.7-.1-1.1.1-.2.3-.3.4-.5,0,.2,0,.4,0,.6ZM39.9,34.2c.3.2.6.4.9.6,0,.7,0,1.4,0,2-.2.1-.4.3-.5.4-.2-1-.3-1.9-.5-2.8,0,0,0-.2,0-.3ZM39.6,52.7c0,0,0,.2,0,.3,0,0,0,.2,0,.3,0,0,0,0,0,0,0-.2,0-.4,0-.6ZM38.7,40.8c0,.2,0,.4.1.6,0,0-.1,0-.2,0,0-.1,0-.3,0-.4,0,0,0-.1.1-.2ZM38.6,49.5c0,.1.1.3.2.4-.1.1-.2.3-.3.4,0-.1,0-.3,0-.4,0-.2,0-.3,0-.5ZM38.5,39.1s0,0,0,0c0,0,0,0,0-.1,0,0,0,0,0,.1ZM38.2,52.1c0,0,0,.1,0,.2,0,0,0,0,0,0,0,0,0,0,0,0,0,.2,0,.3,0,.4,0,0,0,.1,0,.2,0,0,0,0,0,0,0-.3,0-.6.1-.8ZM37.6,31.9c0,.2,0,.3,0,.5,0,0-.1,0-.2-.1-.2-.2,0-.3.2-.3ZM37.7,35.3s0,0,0,0c0,0,.1,0,.2,0,0,.1,0,.2,0,.3-.1.4-.2,1-.4,1.7-.2.4-.3.8-.5,1.2-.1-.3-.3-.7-.4-1,.3-.8.7-1.6,1.1-2.3ZM36.2,35.7c.3-.4.5-.4.8-.4-.3.4-.5.9-.8,1.4,0-.2-.2-.4-.3-.6,0-.1,0-.3.2-.4ZM35.9,39.8c.1-.4.2-.7.4-1.1.1.4.3.7.4,1.1,0,0,0,0,0,.1,0,.2-.1.4-.2.7,0,0,0,0,0,0-.2-.3-.3-.4-.5-.4,0,0,0-.1,0-.2,0,0,0,0,0-.1ZM35.1,36c.3.5.5,1.1.7,1.6-.1.3-.3.6-.4,1-.2-.4-.3-.8-.5-1.2-.1-.7-.3-1.3-.4-1.7.1,0,.3.1.5.3ZM34,50c0,.1,0,.2,0,.4,0-.1-.2-.3-.3-.4,0-.1.1-.3.2-.4,0,.2,0,.3,0,.5ZM33.8,40.8s0,0,0,.1c0,0,0,0,0,0,0,0,0,0,0,0ZM31.5,38.1c0,.1.2.2.3.3,0,0,0,0-.1,0,0,0-.1,0-.2,0,0,0,0-.1,0-.2ZM31.4,38.8s0,0,0,0c0,0,0,0,0,0,0,0,0,0,0-.1ZM31.4,39.1c0,0,.1,0,.2-.1.1.1.2.3.3.5,0,0,0,.2,0,.2,0,.8-.1,1.6-.2,2.4-.2-.3-.4-.5-.6-.7.1-.7.2-1.5.3-2.3ZM30.9,42.3c0,0,.1.2.2.3,0,0-.1,0-.2,0,0-.1,0-.2,0-.3ZM23.4,59.7c0-.1,0-.3,0-.4,0,0,0-.2,0-.2,0,0,0,.2,0,.2,0,0,0,0,0,0,0,.1,0,.2,0,.3ZM23.7,40.6s0,0,0-.1c0,0,0,0,0-.1,0-.2,0-.3.1-.4-.1,0-.1-.1-.1-.2,0-.1,0-.3,0-.4,0,0,0,0,0-.1,0,0,0-.1,0-.2,0-.2,0-.4,0-.6.3-.8.6-1.6,1-2.3,0,.5.2.9.2,1.2,0,0,0,0,0,0-.4.9-.8,2.1-1.1,3.3ZM24.5,43.5c0-.3.1-.6.2-.9.1-.2.3-.5.4-.7,0,.6,0,1.2,0,2-.2,0-.4,0-.6,0,0-.1,0-.2,0-.4ZM24.9,45.1c0-.2,0-.3-.1-.5,0,0,0,0,0,0,0,0,0,0,0,0,0,0,.1,0,.2,0,0,0,0,0,0,0,0,.2,0,.4,0,.6-.1-.1-.2-.2-.4-.3ZM25.9,55.9c0-.1,0-.2,0-.4,0,0,0,0,0,0,0-.1,0-.2,0-.3,0,.1,0,.2,0,.3,0,.1,0,.3,0,.4,0,0,0,0,0,0ZM25.9,51c0-.6,0-1.3,0-1.9,0,0,0,0,0-.2,0,0,0,0,0,0,0,0,0,0,0,0,0-.1,0-.2,0-.2,0,0,0,0,0,0,0,.7-.1,1.5-.2,2.3ZM25.9,45.7c0-.2,0-.4,0-.6,0,0,.1,0,.2,0,0,0,0,0,0,0,0,.2-.2.3-.2.5ZM26.3,44s0,0-.1,0c0,0-.1,0-.2,0,0-.7,0-1.3,0-2,0,.1.2.3.3.4,0,.5,0,1.1,0,1.6ZM26.3,41.8c0-.1-.2-.2-.2-.3,0-.3,0-.6,0-.9,0-.1.2-.2.2-.3,0,.5,0,1,0,1.5ZM26.5,35.7c0,.9,0,1.8-.1,2.6,0,0-.1.2-.2.2,0-1.2,0-2.4,0-3.5,0,0,0-.2,0-.2,0,0,0,0,0,0,0,0,0-.1,0-.2,0-.3,0-.6,0-.9.2.1.4.2.6.3,0,.5,0,1.1-.1,1.6ZM26.6,33.9c-.2,0-.5-.2-.7-.2,0,0,0,0,0-.1.3-.5.6-1,.8-1.4,0,.6-.1,1.1-.2,1.7ZM28.2,47.8c0,0-.1,0-.2,0,0-.2,0-.3,0-.5,0,0,.2,0,.2-.1,0,.2,0,.4-.1.6ZM28.9,40c0-.1,0-.2,0-.3,0,0,.1.1.2.2,0,.1,0,.3,0,.4,0,0-.1-.2-.2-.2ZM29.1,39.5c0,0,0,0-.1-.1,0-.6,0-1.2,0-1.9,0,0,.1,0,.2,0,0,.6-.1,1.2-.1,1.9ZM30,47.8c0,0,0-.1,0-.2,0,0,0,.1,0,.2,0,0,0,0,0,0ZM30.2,31.8c0,.5,0,1.1,0,1.6,0,0,0,0,0,0,0,0,0,0,0,.1,0,0,0,0,0,0-.1,0,0,.3,0,.5,0-1.1-.2-2.3-.4-3.6,0,0,0,0,0,0,0,0,0,.1.1.2,0,.1.1.3.2.4,0,0,0,.1,0,.2,0,0,0,.2.1.3,0,0,0,.1,0,.2ZM23.1,24.1c.6-2.3,1.2-3.4,2-3.6h0s0,0,0,0h0s0,0,0,0h0s0,0,0,0h0s0,0,0,0c0,0,0,0,0,0h0s0,0,0,0h0s0,0,0,0h0s0,0,0,0c0,0,0,0,0,0h0s0,0,0,0c0,0,0,0,0,0,0,0,0,0,0,0,.2,0,.7.3.7.6s-.5.8-.5.9,0,.4.3.6c.3.2.6-.2.6.2s0,.3-.2.6-.1,0-.1.4c0,.4.4.4.4.6,0,.2-.3.3,0,.5.3.2,0,0,.6.2.6.2.5.7.7,0,.2-.6.1-.9.5-1.2.4-.3.3-.4.4-.3.1.2.2.1.3.4,0,.3.2.6.4.5.2,0,0,0,.4,0,0,0,0,0,0,0,0,.4,0,.8.1,1.2,0,.1,0,.3,0,.4,0,.8.1,1.6.2,2.3,0,0,0,0-.1.1-.5.4,0,.7-.3,1,0,0,0,0,0,0,0-.1,0-.2,0-.2,0,0,0,.1,0,.2,0,0,0,.2,0,.3,0,0,0,0,0,0,0,0,0,0,0,0,0,0,0,0,0,0,0,0,0,0,0,0,0,0,0,0,0,0,0,0,0,0,0,0,0,0,0,0,0,0,.1.9.2,2.5,0,4.3,0,.2,0,.4,0,.6-.2-.1-.4-.2-.5-.3-.2-4-.8-10.4-.8-10.4-.4,1.1-.9,3.9-1.3,7.1-.3.3-.6.7-1,1.2-.6-3.4-2.2-6.6-3-8,0-.3.1-.6.2-.9ZM22.7,25.9c.4,2.4,1.2,6.4,1.7,9.1-.3.5-.6,1-.9,1.6,0-.2,0-.4,0-.5,0-.6,0-1.2,0-1.8,0-.1.2-.2.2-.4.2-.4-.1-.3-.2-.9,0-.3-.1-.5-.3-.6,0-.2,0-.3,0-.5,0-.1,0-.3,0-.3,0,0,.1,0,0,0-.1,0-.2-.1-.2-.3,0-.2,0-.2.1-.3,0,0,0,0,0,0,0,0-.1,0-.2-.1,0,0,0-.3,0-.4,0,0,0-.2,0-.3,0,0,0,0-.1-.2,0-.2,0-.4-.1-.6,0-.1,0-.2,0-.4,0-.2,0-.3,0-.4,0,0,0,0,0,0-.1,0-.2,0-.2-.2,0-.2,0-.4-.1-.6,0-.4.1-1.1.3-1.9ZM22.2,30.9s0,0,0,.2c0,.3,0,.5,0,.8,0-.1-.1-.2-.2-.2,0-.3,0-.5,0-.7ZM21.9,35c.2-.1.4-.2.6-.3,0,1.1,0,2.2.1,3.3-.2-.4-.4-.8-.6-1.2,0-.4-.2-.8-.2-1.1,0-.2,0-.5,0-.7ZM21.7,53c0-.2-.1-.3-.2-.5,0,0,0-.1,0-.2,0,0,0,0,0,0,0,0,0,0,0,0,0,0,0-.1,0-.2,0,.2.1.3.2.5,0,.1,0,.3,0,.4ZM21.5,22.5s0,0,0,0c0,0,0,0,0,0,0,.2,0,.5,0,.7,0,0,0,0,0,0,0,0,0,0,0,0,0,0,0,0,0,.1,0-.3,0-.7,0-1,0,0,0,0,0,0ZM21.2,40.2s0,0,0,0c0,0,0,0,0,0,0,0,0,0,0,0ZM20.9,41.3c0,0,.1,0,.2.1,0,0,0,0,0,0,0,0,0,0,0,0,0,.4,0,.8,0,1.2-.1,0-.2,0-.3-.1,0-.4.1-.8.2-1.2ZM19.6,36.1c-.1-.3-.2-.5-.3-.8.1.1.3.2.4.3,0,.2,0,.3,0,.5ZM20.3,53.5c0,.2,0,.5,0,.7-.1,0-.2.2-.3.3,0-.2,0-.4-.1-.5,0-.2,0-.4.1-.5,0-.2.1-.5.2-.7,0,.3,0,.5.1.8ZM19.7,31.2c.2.4.4.7.4.9.1.4-.3,1-.5.7-.2-.3,0-.6-.2-.8s-.1-.2-.2-.3c.1-.2.3-.4.4-.5ZM18.9,35.4c.2.4.3.8.5,1.2,0,0,0,0,0,0,0,.2-.2.4-.3.6,0,0-.2,0-.3,0,0-.6,0-1.2.1-1.8ZM18.2,42.5s0,0,0,0c0,0,0,0,0,0,0,0,0,0,0,0,0,0,0,0,0,0ZM18.3,44.1c.1,0,.3,0,.4,0-.1.6-.2,1.2-.4,1.8-.1-.6-.2-1.2-.3-1.8.1,0,.3,0,.3,0ZM16.5,42.7c0,0,0,.1,0,.2,0,.1,0,.2,0,.3-.3.3-.6.8-.7,1.1,0-.5.1-1,.2-1.5.2-.1.4-.2.6-.3,0,0,0,0,0,.1,0,0,0,0,0,.1ZM16.5,41.9c0,.1,0,.3,0,.4-.1,0-.3,0-.4.2,0,0,.1-.1.2-.2,0-.1.1-.2.2-.3ZM16.3,36.7s0,0,0-.1c0,0,0,.1,0,.2,0,0-.1,0-.2,0ZM17,33.4c-.1.1-.2.3-.3.4,0,0,0-.2,0-.3,0-.2,0-.3.1-.4,0,0,0-.1,0-.2,0,0,0,.2,0,.2,0,0,0,.2,0,.2ZM17.1,31c.1.1.2.3.3.4,0,.1-.1.2-.2.4,0-.2,0-.5-.1-.8ZM17,30.4s0,0,0,0c0,0,.1,0,.2,0,0,0,0,.2,0,.3,0,0-.2-.1-.2-.2ZM17.4,31.9s0,0,0,0c0,.3-.1.4-.1.5,0,0,0,0,0-.1,0-.1.1-.3.2-.4ZM17.3,49.3s0,0,0,0c0-.5,0-.9,0-1.3,0-.1,0-.3,0-.4,0,.5.2,1,.3,1.4,0,0-.1.2-.2.2ZM17.4,34.8s0,0,0,0c0,0,0,0,0,.1,0,.1,0,.2,0,.3,0,0,0,0,0,0,0-.1,0-.3,0-.4ZM17.3,27.7s0,0,0,0c0,0,0,0-.1.1,0,0,0-.1.1-.2ZM17.1,28.5c0,0,.2-.2.3-.3,0,.5,0,1,0,1.6,0,.1,0,.2,0,.3,0,.1,0,.2,0,.3-.1-.4-.3-.9-.5-1.4,0,0,0-.3.1-.5ZM16.7,28.9c0,0,0,.2,0,.2,0,0,0,.2,0,.2,0,0,0,0,0,0h0c0,.2,0,.4.1.6,0,0,0,0,0,0,0,0,0,0-.2-.2,0-.1,0-.2,0-.2,0,0,0,.1,0,.2,0-.1-.2-.3-.4-.5,0,0,.2-.2.3-.3ZM16.9,30.4c0,0-.1,0-.2-.1,0,0,.1,0,.1,0,0,0,0,0,0,0ZM16.5,27.7c0,.1,0,.3.1.4,0,0,0,.1-.1.2,0,0,0-.2,0-.6ZM17,31c0,.3,0,.7,0,1.1,0,.1-.1.2-.1.3,0,0,0,0,0,.1,0,0,0,.2,0,.3,0,0,0,.2,0,.2,0,0,0,.2,0,.2,0,0,0,0,0,.1,0,.1,0,.2-.1.2,0,0-.1-.3-.3-.5,0-.5,0-1,0-1.4.1,0,.2-.2.3-.3,0,0,0-.1,0-.1,0,0-.2,0-.3,0,0-.4,0-.8,0-1.2,0,0,0-.1.1-.2.3.3.6.6.9,1ZM16.2,27s0,.1.1.2c0,.4,0,1-.1,1.4,0,0,0-.1-.1-.2-.1-.2-.2-.4-.3-.5,0-.5,0-.9-.1-1.3.1.1.3.2.5.5ZM15.5,46.5c0,.1,0,.2.1.4-.1.4-.2.7-.3,1.1,0-.5.1-1,.2-1.5ZM10.4,35.9s0,0,0,0c0,0,0,0,0-.1-.1-2.4-.4-4.7-.7-6.7.3,0,.5,0,.9,0,.2.9.4,1.9.5,2.8-.1.4-.3,1-.4,1.6-.2,1-.2,1.9-.2,2.4ZM10.1,28.2s0,0,0,0c0,0,0,0,.2-.1,0,.2,0,.4.1.5-.4,0-.4-.2-.3-.4ZM11.2,35.8c-.2,0-.4,0-.5,0,0-.7.2-1.5.3-2.1,0-.4.2-.8.3-1.1,0,.5.2.9.3,1.3-.1.4-.2,1.4-.3,1.8ZM11.6,34.6c0,.2,0,.5.1.7,0,.2-.1.3-.2.4-.1.2,0-.5.1-1.1ZM10.9,36.4c0,.2-.2.4-.2.4,0,0,0-.2,0-.6,0,0,0,0,0,0,0,0,0,0,.1,0,0,0,0,0,.1,0ZM10.5,39.5c0-.5,0-1.1,0-1.6,0,0,0-.2,0-.2.1-.2.3-.6.6-1,0,0,0,0,0,0,0,0,0,0,.1,0,0,0,.1,0,.2.1,0,0,.1,0,.2,0,0,0,.1,0,.2,0-.3.5-.5,1-.5,1.1,0,0,.1-1-.1-.9-.3,0,0,1.2-.3,1.7,0,.2-.2.5-.4.8,0,0,0-.1,0-.2ZM11.8,35.8s0,0,0,0c0,0,0,0,0,0h0ZM11,56c0-.4,0-.8,0-1.2,0,.3,0,.5,0,.7,0,0,0,0,0,0,0,.1,0,.3,0,.4ZM11,51.8c0-1.3-.1-2.5-.2-3.5,0-.1,0-.3,0-.4,0,0,0,0,0,0,.1.8.2,1.6.3,2.4,0,.6,0,1.1-.1,1.6ZM10.9,40.5c0-.2,0-.3-.2-.5.1-.2.2-.4.3-.5.3-.5.7-1.4,1.1-2.1,0,.3,0,.6.1,1-.5.8-.9,1.6-1.3,2.2ZM12.4,41.5c0,.3,0,.5,0,.8,0,0-.1,0-.2,0-.2,0-.3-.1-.3-.3,0-.1.2-.3.4-.5ZM11.9,40.4c0,0,.1-.2.2-.2,0,0,.1.1.2.2-.1,0-.3,0-.4,0ZM12.1,40.1s0,0,0,0c0,0,0,0,0,0,0,0-.1,0,0,0,0,0,0,0,0,0,0,0-.2.2-.3.3,0,0,0,0-.1,0,0-.1.2-.3.3-.5,0,0,0,0,0,0,0,0,0,0,0,0,0-.1.1-.2.2-.4,0,0,0,0,0,0,0,0,0-.2.1-.3,0,.3,0,.7,0,1.1-.1-.1-.2-.2-.3-.2ZM11.4,42s0,0,0,0c0,0,0,0,.1,0,0,0,0,0-.1.1ZM11.7,59.9s0,0,0,0c0,0,0,0,0,0,0,0,0,0,0,0ZM11.9,43.8c-.1-.4-.2-.9-.4-1.4,0,0,0,0,0,0,0,0,0,0,0,0,0,0,.1,0,.2,0,.2,0,.3,0,.4,0,.2,0,.2.1.2.3,0,.1-.2.3-.3.5,0,.2-.1.3-.2.5ZM12.1,44.6s0,0,0,0c0,0,0,0,0,0,0,0,0,0,0,0ZM12.1,44.3c0,0,0-.2,0-.3,0,0,0-.2,0-.3,0-.1,0-.2,0-.3,0-.2,0-.4.2-.4,0,0,0,0,0,.1-.1.4-.2.8-.3,1.2ZM12.5,59.9s0,0,0,0c0,0,0,0,0,0,0,0,0,0,0,0ZM13.1,55.6s0,0,0,0c0-.1,0-.2,0-.3,0,.1,0,.2,0,.3,0,.2,0,.3,0,.5,0-.1,0-.3,0-.4ZM13.4,48.3c0,.8-.2,1.7-.2,2.8,0-.5,0-1,0-1.5,0-.6.2-1.2.3-1.8,0,0,0,0,0,0,0,.1,0,.3,0,.4ZM13.6,39.4c0,0,0,.1,0,.2,0,0,0,.1,0,.2,0,0,0,0,0,0,0-.7,0-1.4,0-2.2,0,0,0,0,0,0,0,0,.1,0,.2,0,0,.5,0,1.1,0,1.6ZM13,21.8c0,.8.8,1.4,1.3,2,.6.5.5,1.2.8,2,0,.2-.1.5-.2.7,0,0,0,0,0-.1-.5-.9-.4-1.1-1.2-1.5-.8-.3-1.1-.3-1.3.2-.2.5-.2.6.1.9.3.2.3-.1.4.4,0,.5.2.7.4,1.2.2.4.7.3.9.7.1.4-.4.1-.3.5,0,.3.2.5.6.6-.2,1-.3,2.2-.4,3.4,0,0,0,0,0,0,0,0,0,0,0,0,0,.8-.2,1.5-.2,2.3-.1.3-.3.7-.4,1,0-.4,0-.7,0-1.1,0-.2.2-.4.2-.5,0-.1,0,0-.2.1,0-.2,0-.4,0-.6,0,0,.1-.2.2-.2.3-.5.2-.7.1-.8,0,0-.2.2-.3.4-.3-1.6-.7-3.2-1.2-4.5,0,0,0,0,0,0,0,0,.2,0,.3,0,.3,0,.5-.2.7-.4,0,0,0,0,0-.1,0,0,0,0,0,0,0,0,0,0,0,0,0,0,0,0,0,0,0,0,0,0,0,0h0c0,0-.5.2-1.1.3-.2-.4-.3-.8-.5-1.2.5-.4,1.1-.8,1.2-1.1.1-.3-.6.2-1.3.7-.4-1-.8-1.7-1.1-2.2.9-1.4,2.3-2.3,2.9-2.9ZM9.7,25.4c0,0,0-.2.1-.3,0,.6.3,1.5.4,2.5,0,0-.2.1-.2.2-.2.2-.4.3-.5.5,0-.2,0-.3,0-.5,0-.2.2-.3.2-.4,0-.1,0,0-.2,0,0-.4-.1-.7-.2-1.1.2-.3.3-.6.5-1ZM6.9,48.4c0,0-.1,0-.2,0,0-.1,0-.3,0-.4,0,0,0,0,.1-.1,0,0,0,0,0,.1,0,.1,0,.2,0,.4ZM6.7,34.8c0-.1,0-.3,0-.4,0,0,0,0,0,0,0,.2,0,.4,0,.6,0,0,0,0,0,0,0-.1,0-.2,0-.3ZM6.9,47.6s0,0,0,0c0,0,0,0,0,0,0,0,0,0,0,0ZM6.9,33.1c0,0-.1-.2-.2-.2,0-.2,0-.3,0-.5.1-.2.2-.4.3-.6,0,.4,0,.9-.1,1.3ZM7.4,33.8c0-.1-.2-.2-.3-.3.4-.5.6-.9.6-.9-.2.1-.5.3-.7.4,0-.6,0-1.1,0-1.5.3-.5.6-1,1-1.4,0,0,0,0,.1-.1,0,.6,0,1.2-.1,1.8,0-.1,0-.2,0-.2-.1,0,0,.8-.4,1.8,0,.1-.1.2-.2.4ZM7.8,33.9c-.1,0,0-.3.2-.7,0,.2,0,.3,0,.5,0,0-.2.2-.2.2ZM7.9,34.2c0,0,0,.2,0,.2,0,0,0,0,0-.1,0,0,0,0,.1-.1ZM7.6,37.4c0-.4,0-.8-.2-1.2,0,0,0,0,0,0,0,0,0,0,0,0,0,.1.1.2.2.4,0,0,0,0,0,0,0,.3,0,.6,0,.9,0,0-.1,0-.2,0ZM7.7,39.9c0,0,.1,0,.2,0,0,.4,0,.8,0,1.2-.1,0-.2,0-.3,0,0-.5,0-.9,0-1.3ZM8.2,43.9c0-.2-.2-.4-.4-.5.1,0,.3,0,.4-.1,0,.2,0,.3,0,.5,0,0,0,.1-.1.2ZM8.9,48c0-.2-.1-.4-.2-.6,0,0,0,0,0,0,0,.2,0,.4,0,.7ZM8.7,46.5c0,.2,0,.3,0,.5,0,0,0,0-.1.1,0,0,0-.2,0-.3,0-.1,0-.2.1-.4ZM7.8,18.7c0,.2-.2.5-.3.9,0-.3.1-.6.3-.9ZM6.7,29.1c0,0,.1-.1.2-.2,0,0,0,0-.2,0,0-.9,0-1.8.2-2.8,0-.1,0-.3,0-.4,0-.5,0-1.1.2-1.6,0-.1,0-.2,0-.3,0-.3,0-.7.1-1,0,.2,0,.4,0,.6.3,1.6.6,3.6.3,4.1-.2.5-.4,1-.5.9-.1,0,.1-2.9,0-3.1-.2-.1,0,2.9-.2,3.6,0,.2-.1.4-.2.5,0-.1,0-.3,0-.4ZM6.7,31.5c0-.3,0-.7,0-1,0,0,0-.1,0-.2.1-.3.3-.6.4-.9.5-.9.9-1.4,1.2-2,0,.5,0,1.1-.1,1.7-.3.3-.6.8-1.1,1.5,0-.4,0-.8.1-1,0,.4-.1.7-.2,1.1,0,.1-.2.2-.2.4,0,.1-.1.2-.2.3,0,0,0,0,0,0ZM6.7,48.8c0,0,.2,0,.2,0,0,.2,0,.4,0,.6,0,0,0,0,0,0,0,0-.1-.2-.2-.2,0,0,0-.2,0-.3ZM3.3,42.1s0,0,0,0c0,0,0,0,0,0,0,0,0,0,0,0ZM3.8,46c-.1-.4-.2-.8-.3-1.2.1,0,.2-.1.3-.2,0,.2,0,.3,0,.5,0,.1,0,.2,0,.4,0,0,0,.1,0,.2,0,.1,0,.2,0,.4ZM4.2,54.4c0,0-.2-.2-.3-.3,0-.3,0-.5,0-.7,0-.3,0-.5.1-.8,0,.2.1.5.2.7,0,.2,0,.4.1.5,0,.2,0,.3-.1.5ZM5,34.8c0,.4-.1.7-.1,1,0,.2-.2.3-.3.5,0,0,0,0,0-.2,0-.4-.1-.8-.2-1.2.3-.2.5-.3.8-.5,0,.1,0,.2,0,.3ZM6.1,44.6c0,.4-.1.8-.2,1.2,0-.3,0-.7.2-1.2ZM5.6,44.5s0,0-.1,0c0,0,0-.2,0-.3.1,0,.2,0,.3,0,0,.2,0,.4-.2.4ZM5.4,30.4s0,0,0,0c0,.1,0,.2,0,.4,0-.1,0-.2,0-.3,0,0,0,0,0,0ZM5.6,41.7c-.1,0-.3,0-.4,0,0-.6,0-1.2-.1-1.8.2.5.4,1.1.5,1.7ZM5.3,37s0,0-.1,0c0,0,0-.2.1-.2,0,0,0,.2,0,.3ZM5.1,30.6c0,.2,0,.4,0,.6-.1-.1-.2-.2-.3-.3.1-.1.2-.2.3-.3ZM5.2,32.1c0,.6,0,1.3,0,2-.3.1-.6.2-.9.4-.2-.8-.4-1.5-.5-2.1.3-.4.5-.7.8-1.1.2.3.4.5.6.8ZM4.2,30.9c-.2.2-.5.4-.7.7,0,0,0-.2,0-.3,0-.4,0-.9,0-1.3,0,0,0,0,0,0,.3.3.6.6.9.9Z" fill="#286300"/>
</svg>