<?xml version="1.0" encoding="UTF-8"?>
<svg id="_レイヤー_1" data-name="レイヤー_1" xmlns="http://www.w3.org/2000/svg" width="200" height="200" version="1.1" viewBox="0 0 200 200">
  <!-- Generator: Adobe Illustrator 29.6.1, SVG Export Plug-In . SVG Version: 2.1.1 Build 9)  -->
  <g>
    <g>
      <path d="M100-53.9c10.4,0,20.2,2.1,29.2,5.8l28-67.6-104,25.3,17.5,42.4c9-3.7,18.9-5.8,29.2-5.8Z" fill="#65a208"/>
      <g>
        <path d="M82.3-77.8l-1.6-39.6h-.4s0-.4,0-.4h-.1s-.7-17.2-.7-17.2h.5s.2,0,.2,0h0s.5,0,.5,0h.5s.7,17.2.7,17.2h-.1s0,.4,0,.4h-.4s1.6,39.4,1.6,40.2.7,2.3.4,2.8-1,.8-1.3.7-3.7-2.5-4-2.9,0-.6.1-.7,1,.5,2.3.6,1.6-1.1,1.6-1.1Z"/>
        <circle cx="85.4" cy="-76.1" r="1.7" fill="#fff"/>
        <path d="M64.7-146.8s-.3.5-.3,1.6-.5,1.8-.4,2.7.4,2,.4,2c0,0-.5.6-.4,1.8s.2,4.5.4,6.4.6,5.4,1.1,6.5-.2,1.7.5,2.4.3,1.3.3,1.7-.1.9.1,1.7,0,1.2,0,1.2c0,0-.7,2-.7,2.7s.1,1.1.1,1.1c0,0-.6.4-.6,1.3s-.4,1.5-.3,2,.6.7.3,1.6-.5,2.7-.5,6.2.2,5.9.5,7,.8,1.9.9,2.9.3,2.2.3,2.2c0,0-.4.5-.4,1.1s.4,1.7,1.1,2.4.2,1,0,1.4-.2,1.7-.3,2.4-1.4,2.3-1.7,3.2-.1,1.9,0,2.4,3.8-.2,5.2-.5,3.7-2,4-2.8-1-1.8-.8-2.2.4-1,.5-1.8-.6-2.1-.6-2.1c0,0,.6-.5.7-1s0-1,.3-1.5.3-1-.2-1.6-1.3-1.9-1.3-1.9c0,0-.2-1.1,0-1.5s.7-1.5.6-2.8-.2-2.7,0-3.4,0-2.4.1-3-.2-1.7,0-2.2-.1-1.1-.1-1.1c0,0,.6-.8.7-1.4s-.3-2-.1-2.3.4-1.3.5-1.7.5-.8.6-1.3-.1-2.4,0-3.2.4-2.2.4-3.5,0-2.9.2-4.3,1-5.9,1-5.9l1.1-2.2s4.1,4.6,5.5,8.4c1.4,3.8,1.8,5.9,2,6.7s.5,1.1.5,1.4-.4,1.1.2,1.6,1.6,1.5,1.3,2.3,0,1.6.7,2.5,0,1,.4,2.9,2.1,7.6,2.3,8.2.2,1.4,0,2.1-.4,2.9-.1,3.6.9,2.9,1.1,3.3.5.8.5.8c0,0-.4,1.3,0,2.1s-.2,2.5-.2,3.1.3,1.3,1.4,1.7,1.9,1.1,2.9,1.3,4.3,0,5.1-.1,1.4-.4,1.6-1.5.1-1.9-.7-2.7-2.2-1-2.7-2.3-1.7-2.9-1.7-2.9c0,0,.7-1.2.7-2.8s.6-3.2,0-7.4-1.4-9.6-1.7-10.8-1.1-2.7-1.1-2.7c0,0-.1-1.6-.2-2.5s-.6-1.2-1.2-1.3,0-1,0-1.5,0-1.4-.4-2-.8-.5-.6-1,.4-.8,0-1.2-.4-1.2-.3-2.2,0-4.2-.3-6.8-.3-3.9-.3-4.4-.8-1.2-.8-1.5,0-.6,0-1.1-.1-1.5,0-2.1-.1-.9-.3-1.3-.5-1.6-.8-1.9-.9-.5-.9-.8-.5-1.7-.8-2.5-.6-1.3-1.3-1.8-23.2,4.2-23.2,4.2Z"/>
        <path d="M64-150.8s0,1.1.3,1.8.5,2.2.5,2.2l1.9,1.2-2.6-5.2Z" fill="#fff"/>
        <path d="M78.5-135.8c-.1.5-.3,1.5-.4,1.9s-.9,1.4-.9,1.4c0,0,.5,1.1,1.3,1.4s3.6,3.4,3.7,4.9l.2,2.2s.4-1.2.7-1.5.6-.5.6-1.1-.5-2.2,0-2.5.7-.7.8-1.2,0-1,0-1.4-1-2.4-1.2-3.2,0-.8-.2-1.7-4.6.9-4.6.9Z" fill="#fff"/>
        <path d="M63.4-179.2c-2.6,1.2-4.7,3.9-5.5,4.9s-2.1,2.5-2.6,3.6-.7,5.3.7,7.3,1.3,2.7,1.3,3.2.6,2.9.7,3.1,1.9.8,3.4.5,3.1-.8,3.8-1.3,1.2-1,1.2-1c0,0,2.5,4.5,3.4,5.9s3.1,7,3.1,7c0,0,2.3.1,3.8,0s2.7-.7,2.7-.7c0,0-.2-4,0-5.9s0-4.8.2-5.7.7-1.9.9-2.9.6-3.5.6-3.5c0,0,.6.8,2.4.8s3.5-.4,4-.9,1.9-.7,2.1-1.1-.1-1.7-.2-2.6-.4-1.4-.3-2,.1-1.5,0-2.5-.5-2.5-.6-3.5-.9-2.5-1.4-3.1-.7-.8-1.7-1.4-3.6-1.5-5.3-1.7-4-.4-5.3-.4-11.4,3.8-11.4,3.8Z" fill="#fff"/>
        <path d="M73.2-193.9s-.4-.7-1-1.1-1.4-.5-1.4-.5c0,0,.4,0,.8,0s.5,0,.5,0c0,0-.4-.2-.8-.3s-1.4,0-1.4,0l1.3-.4s-.7-.2-1.3-.2-1.1.2-1.6.4c0,0,0-.2,0-.6s.5-.9.5-.9c-.7.2-1.2,1.7-1.2,1.7,0,0-1-1.2-2.4-1.6s-.9-.2-1.3-.1c0,0,1.7.6,2,1.3,0,0-1.1-.5-2-.8s-1.7-.2-1.7-.2c0,0,.9.3,1.4.5s.9.5.9.5c-1.4-.3-3.3,0-3.3,0,0,0,1.5.2,1.9.6-.7-.1-1.3,0-2.4.4s-1.9,1.9-1.9,1.9c0,0,.4-.5.6-.6s.6-.2.6-.2c-.8,1-2.4,3.3-2.1,4.7l.5-1c-.5,1.3-.3,2.9.3,4v-1.4c0,0,.6,1.3.6,1.3,0-.3-.1-1.6,0-1.6.2.3.3,1.9.4,2.2.4,1.8,1,4.2,1.4,5.7s1,2.5,1.3,2.8c.6.7,1.6-.1,1.6-.1.9,1.3,2,1.9,3.4,2.7s1.9,1,2.9,1.3c1.4-1.2,3-2.3,3.9-4s.5-4.2.3-6.2c0-1.1-.3-.9,0-1.6.2-.7.6-3.1.1-3.6,0,0,.1-.3,0-1,0-.5-.2-.9-.5-1.7s-.2-1-.4-1.3-.4-.8-.9-1h.6Z"/>
        <path d="M65.2-176.5c-.6.2-1.4.6-2.4.2s-2.1-3.9-2.5-6c1,.7,2.1.9,3.3.9,3,.1,6.8-1,9.2-2.9s.8-.6.9-.9c0,.9.6,2.4.5,3.4-.2,2.4-.8,3.7-2.3,4s-2.3.3-3.8.5-2.3.5-2.9.7Z" fill="#fff"/>
        <path d="M73.4-185.3c-2,2.7-9.7,4.7-12.7,3.1,0,0-.3-1.1-.4-1.9s-.2-1-.2-1.3c2,.6,4.4.3,6.4-.2s1.6-.4,2.1-.4c0,0,1.7,1,3.1,1l-1.6-1.6s.9.6,1.5.9.8.2.8.2c-.5-.3-1-.7-1.4-1.3.7.5,1.4.9,1.9.8,0,0-.5-.3-.9-.6s-.5-.6-.5-.6l2.3-1.8c.5,1.2.6,2.5-.3,3.6Z" fill="#fff"/>
        <path d="M86.9-163.4s.4.5.4,1.6-.2,2.2-.2,2.2c0,0,1.1,1.3,1.3,2.3s.3,1.2.5,2.2.5,1.7.3,2.2-.5.7-1.1.7c0,0,.5,1.1.4,1.5s-.3.9-1,1.2-2.4.8-2.4.8c0,0,.4-1.9.3-3.1s0-2.1.1-3.3,0-2,.2-2.9.5-1.6.8-2.8.5-2.7.5-2.7Z" fill="#fff"/>
        <path d="M72.9-145.8s-2.2-5.6-3.1-7-3.4-5.9-3.4-5.9c0,0-.5.5-1.2,1s-2.3.9-3.8,1.3-1.1.1-1.6,0c0,0,1.7,2.3,2.6,3.3s1.6,2.3,1.9,3.6,2,6.4,3.6,8.8,4,5,4.9,7.1,3.2,5.4,3.7,6.1.9,2.3,1.3,2.7,1,.9,1.3,1.5.7,2,1.1,1.8.2-.8.2-1.6.2-1.3.2-1.3c0,0,.3,1.6.8,1.8s.8.1,1-.4.1-1.2.2-1.8-.1-1.9-.9-3.2-1.5-2.7-3-3.3-1.4-1.2-1.8-2.1-1.7-3.6-2.3-5.7-1-4.5-1.8-6.5Z"/>
        <path d="M79.5-146.5s-.2-4,0-5.9,0-4.8.2-5.7.7-1.9.9-2.9.6-3.5.6-3.5c0,0,.6.8,2.4.8s2.6-.2,3.4-.6c0,0,0,.5,0,1,0,0-.3,1.5-.5,2.7s-.6,1.9-.8,2.8,0,1.7-.2,2.9-.1,2.1-.1,3.3-.3,3.1-.3,3.1c-.3,1.8-1.4,5.9-1.5,7.4s-.4,4.7-.4,4.7c0,0-.4.8-2.2,1.2s-2.5-.3-2.5-.3c0,0,0-1.2.4-1.8s.6-1.7.6-2.9,0-2.5.2-3.5-.2-1.7-.2-2.5Z"/>
      </g>
    </g>
    <path d="M100-53.9c10.4,0,20.2,2.1,29.2,5.8l69.7-168.3c-30.5-12.6-63.9-19.6-98.9-19.6s-68.5,7-98.9,19.6L70.8-48.1c9-3.7,18.9-5.8,29.2-5.8Z" fill="none"/>
  </g>
  <g>
    <path d="M100,11.9c10.4,0,20.2-2.1,29.2-5.8l69.7,168.3c-30.5,12.6-63.9,19.6-98.9,19.6-35,0-68.5-7-98.9-19.6L70.8,6.1c9,3.7,18.9,5.8,29.2,5.8Z" fill="none"/>
    <g>
      <path d="M100,193.9c34.3,0,67.1-6.7,97-18.9L18.7,131.8,1.1,174.3c30.5,12.6,63.9,19.6,98.9,19.6Z" fill="#65a208"/>
      <g>
        <path d="M56.8,90c-.6,1-1.3,1.5-1.3,2.1s-.1,1.5-.4,1.9-.6.6-.5,1.4-.4,2-.6,2.6-.6,1.6-.5,2.5-.4,2.5-.6,3.5-.5,4.4-.7,6.9,0,2.8,0,3.3.4.9.3,1.5,0,1-.4,1.6-.1.9-.3,1.3-.5.8-.6,1.3-.1.8-.4,1.1-1,.6-1,.9.4.5,0,.9-1.2.7-1.1,1.2.4.8,0,1.1-1,1.3-1.1,1.6-1.3,3.8-1.9,5.7-1.3,5.6-1.3,5.6c0,0-.6.6-.5,2.4s.6,3.6.6,3.9-.9.8-1.3,1.4-.5,1.5-.3,2.1.7,1.3.7,1.3c0,0-.7,1.2-1.1,2s-.5,1.2-1.2,1.8-2,2.4-2.3,3.3,0,1.6.7,1.8,2.9.6,4.7.7,2.9-.2,3.2-.6,1.1-2.3,1-2.7-.2-1.3-.2-1.3c0,0,.6-.8,1-1.9s.2-2.2.2-2.2c0,0,.6-.4,1.2-1s.8-1,.9-1.3,0-.9-.6-1.2-.9-1.6-.9-1.6c0,0,2.1-5.1,2.8-6.4s1.3-3,1.6-4.3.6-3,1-3.4.6-.8,1-1.4.4-2,1-2.5.4-1.1,1-1.6,1.7-3.6,2.2-5,1.8-6.5,2.5-7.5,3.9-4.4,3.9-4.4c0,0,2.4,7.5,2.7,10.3s.4,4.6.4,4.8-.5.3-.5.8.6,1.2.5,1.6,0,1,.2,1.3.1,1.2.2,1.6-.4,1.1-.4,1.6.4,1.4.4,1.4c0,0-.4,1.1-.5,2.8s-.4,7.7-.4,8.5-.2,1.3-.2,1.3c0,0-.7.4-1,1.4s-.3,3.2-.2,4,.5,2.2.5,2.2c0,0-.6,1.7-.7,2.7s-.8,1.4-1.1,1.9,0,1.2.5,1.7,1.1.3,1.3.6.5,1,.9,1.7,1.9.9,3.5,1.1,4,.7,4.6.6.7-.6.8-1-.1-2.2-.8-2.9-1.8-1.7-2.3-2.7-.7-1.5-.7-1.5c0,0,.4-.6,0-.9l.8-1.2c.2-.3.4-1.1.3-1.7s-.2-2.5.2-3.3.9-2,1.2-3.3.6-3.3.9-4.4.8-4.7,1-6.4.1-3,0-3.6,0-1.7.1-2.2,0-1-.3-1.2-.4-.8-.3-1.2.4-.7.4-1.4-.5-1.5-.5-1.5c0,0,.5-.6.4-1.5s-.6-1.6-.4-1.7.7-1,1-2.6.4-4.6.6-5.6.4-1.4.5-3,0-2.8,0-3-.1-1.3,0-1.5,1.2-2.2,1.1-3.4-1.3-2.7-1.5-3.3-.5-1.1-.6-1.9,0-2.3,0-2.3l-23.7-2.3Z"/>
        <path d="M63.8,80.4c-1.2.7-3.8,1.1-5.6.4s-3.5-2.2-3.5-2.2c0,0,.3-2.8.5-3.9,0,0-.8-3,0-6.6s2-3.5,2.4-4,2.1-2.2,3.7-2.9,4-1.7,5.5-1.9,10-.5,11.9,0,5.3,2.4,6.5,3,2.7,1.6,3.1,2.6,1.6,1.2,1.9,2.6-.6,3.2-.4,4.9-.2,4.5,0,5.1.3,1.2.3,1.2c0,0-.9.5-2.9.7s-4.2.6-5.7,0l-1.5-.6s-.6.4-1.7,2.9-3.3,8.1-3.6,9.6-1.1,3.5-1.1,3.5h-1.3c-.5,0-1.2.4-2.3.4s-3.7-.4-3.7-.4c0,0,0-2.7-.7-6.6s-1.5-7.7-1.5-7.7Z" fill="#fff"/>
        <path d="M53.1,162.5l12.4-40.1h-.4c0-.1.1-.5.1-.5h-.1s5-16.5,5-16.5h.5c0,.1.2.2.2.2h0s.5.2.5.2h.5c0,.1-5,16.6-5,16.6h-.1s-.1.4-.1.4h-.4c0-.1-12.4,39.8-12.6,40.6s0,2.4-.6,2.7-1.2.4-1.5.3-2.7-3.5-2.8-4,.1-.6.4-.6.8.8,2,1.3,1.9-.5,1.9-.5Z"/>
        <path d="M81.7,49.3s-.2-.8-.7-1.4-1.3-.9-1.3-.9c0,0,.4,0,.8.2s.5.1.5.1c0,0-.3-.3-.7-.5s-1.3-.4-1.3-.4h1.3s-.6-.4-1.2-.6-1.1,0-1.6,0c0,0,0-.2.2-.6s.7-.7.7-.7c-.7,0-1.6,1.3-1.6,1.3,0,0-.6-1.4-1.9-2.2s-.8-.4-1.2-.5c0,0,1.5,1,1.6,1.8,0,0-.9-.8-1.7-1.3s-1.5-.6-1.5-.6c0,0,.8.5,1.2.9s.8.8.8.8c-1.3-.7-3.2-.9-3.2-.9,0,0,1.4.6,1.7,1.1-.6-.3-1.3-.4-2.4-.3s-2.3,1.3-2.3,1.3c0,0,.5-.3.7-.4s.6,0,.6,0c-1,.8-3.2,2.6-3.3,3.9l.7-.8c-.8,1.1-1.1,2.7-.8,3.9l.3-1.4.3,1.4c0-.3.3-1.6.3-1.5.1.3-.2,1.9-.2,2.2,0,1.9-.2,4.3-.2,5.9s.3,2.7.5,3.1c.4.8,1.2.7,1.2.7.5,1.5,1.7,2.4,2.6,3.7s1.2,1.2,2.1,1.8c1.7-.8,3.4-2.2,4.7-3.6s1.9-3.7,2.2-5.8c.3-1.1.5-.8.9-1.4.4-.6,1.4-2.9,1.1-3.5,0,0,.2-.2.3-.9.1-.4,0-1,0-1.8s0-1,0-1.3-.1-.8-.6-1.2l.5.2Z"/>
        <path d="M68.8,62.4c-.6,0-.6.8-1.6.1s-.8-4.7-.7-6.8c.8.9,1.8,1.4,2.9,1.8,2.9.9,6.6.9,9.4-.4s.6-.3.8-.6c.3.9-.3,2.6-.7,3.6-.8,2.2-.5,3.8-3,3.4s-2.5-.8-4-1-2.5-.2-3.2-.2Z" fill="#fff"/>
        <path d="M79.7,56.3c-2.7,2-10.1,1.9-12.5-.4,0,0-.6-.7-.4-2.1s0-1,.5-1.2c1.8,1.1,4.1,1.4,6.2,1.5s1.7,0,2.1.2c0,0,1.3,1.4,2.7,1.8l-1.1-1.9s.7.9,1.2,1.2.7.4.7.4c-.4-.4-.8-.9-1-1.6.6.7,1.1,1.2,1.6,1.3,0,0-.4-.4-.8-.8s-.3-.7-.3-.7l2.1-.9c.2,1.3.1,2.5-1,3.3Z" fill="#fff"/>
        <circle cx="55.6" cy="164.7" r="1.7" fill="#fff"/>
        <path d="M57.4,82.6c.6,1.8,1,3,1.3,4.9s.3,4.4.3,4.4c0,0-2.2-1.5-2.3-1.9s0-.9,0-.9c0,0-.2-.1,0-1.2s0-1.9.4-3,.3-2.3.3-2.3Z" fill="#fff"/>
        <path d="M82.8,85.9s-.5,1.4-.9,2.5-1.4,3.2-1.5,3.9v.7c0,0,1.5-.2,1.8-.9s.1-1.8.3-3,.2-1.5.3-2.1,0-1.1,0-1.1Z" fill="#fff"/>
        <path d="M87,79.4c-2,.2-4.2.6-5.7,0l-1.5-.6s-.6.4-1.7,2.9-3.3,8.1-3.6,9.6-1.1,3.5-1.1,3.5c-.4,1.3-.5,3-1,4.5s-1.6,3.7-2.2,4.9-1.2,2.1-1.2,2.1c0,0,.5.5,1.6.8s2.9.3,3.3-.3c0,0,.6-2.4,1.4-4.1s2.4-4.6,3.5-6.6,1.9-5.1,2.6-7,1.8-4.2,3.2-6.5,2.2-3.2,2.2-3.2Z"/>
        <path d="M69.1,106.2c-.5.7-.6,1.2-1,1.7s-.8,1.2-.8,1.2c0,0,1.2,1.5,1.5,3.6s0,5.6,0,5.6c0,0,.9-.3,1.1-.8s1.1-.8,1.2-1.3,0-1.9.7-2.2,1.1-.6,1.4-1.3.4-1,.3-1.7-.5-2.5,0-3.4l.6-.8s-.5.4-2.3.3-2.6-.9-2.6-.9Z" fill="#fff"/>
        <path d="M56.1,79.8c-.4-.6,1.3.8,2.1,1.1,1.8.6,4.4.3,5.6-.4,0,0,.8,3.7,1.5,7.7s1,5.8.8,9.6.2,7.6.6,9.3,1.2,2.7,1.7,3.7.9,2.9.6,4.2-.2,3.4-.2,3.9-.1.8-.7.8-.9-1.2-.9-2.2-.1-1.6-.3-.7-.8,3.2-.8,3.2c0,0-.7-.7-.7-1.6s-.6-1-.8-1.9-.4-1.1-.5-1.9.5-2.1,0-3.6-.9-3.3-1.2-5.6-2-5-3-9.1-.5-6.4-.9-8.7-1-5.4-2.6-7.8Z"/>
      </g>
    </g>
  </g>
  <g>
    <path d="M-244.9,1.1L-76.7,70.8c-3.7,9-5.8,18.9-5.8,29.2s2.1,20.2,5.8,29.2l-168.3,69.7c-12.6-30.5-19.6-63.9-19.6-98.9s7-68.5,19.6-98.9Z" fill="none"/>
    <g>
      <path d="M-263.4,125.1l124,30.1-105.5,43.7c-9.6-23.1-15.9-47.9-18.4-73.8Z" fill="#65a208"/>
      <g>
        <circle cx="-174.6" cy="156" r="1.7" fill="#fff"/>
        <g>
          <path d="M-216.3,111.5c-.5.1-1.3.5-1.3.9s.5.5.9.5,1.2-.1,1.2-.1l-.8-1.3Z" fill="#fff"/>
          <path d="M-172.7,156.8c0,0,0-.2,0-.2,0,0,0,0,0-.1-.2-.4-.4-.8-.7-.9,0,0,0,0,0,0-.1,0-.2,0-.3,0h0c-.4,0-1.6.6-3.3,2.1-.5.4-.5.6-.5.9,0,0,0,.2,0,.3l-31.4-41.6.3-.2-.2-.3h.1c0,0-10-13.6-10-13.6-.1-.2-.3-.2-.5,0l-.8.6c-.2.1-.2.3,0,.5l10,13.6h.1c0,0,.2.3.2.3l.3-.2,31.8,42.1s.2.2.6.3c.5,0,2.5-.2,4.1-.8.4-.2.7-.3.8-.9,0-.4,0-1-.2-1.5Z"/>
          <path d="M-218.4,102.4c-.2.3,0,2.2-.3,3.1s-.8,1.8-.8,2.3.6.5.6.5c0,0-.2.5.2.8s.5.3.5.3c0,0-.2,1,.5,1.2l.6.3s1.2-2.4,1.4-3.6-.6-4.1-.8-4.5-1.6-.4-1.6-.4h-.3Z" fill="#fff"/>
          <path d="M-196.1,44.9l-.4.3.2.3c.5,0,1-.3,1.5,0,0,.2-.3,0-.5.2s-.3.3-.3.5c.4,0,1,.2,1.3.5s.4,1,.7,1.3.7.2.9.7.3.7.5,1.2.5,1,.4,1.6l.4.8h-.4c.3.3.5.6.5,1.4l-.6-.9s.2.2.3.7-.3.7-.3.8c-.2.2-.9.6-1.1,1l.3-.7-.6.7.3-.5-.9.3c.2-.9-1.3-.9-2-1.1s-1.7-.5-2.4-.8c-1.1-.5-2.2-1.1-3.2-1.6s-1.9-1-2.9-1.2l-.9.5v-.7c-.1,0-.4.2-.6.2s-.4-.2-.6-.2c-.6,0-.9.8-1.3,1.1,0,.1.1.4.2.4.2.3,1.3,1,1.7,1.2s0,.1,0,.3c-.6,0-.7.5-.9.7-.7.6-1.7,1.1-2.5,1.4-.7-.4-.6-.5-.7-1.2s-.2,0-.2-.1c0-.1,0-.5-.3-.7.4-.6.6-1.4,1.2-1.7s1.5-.4,1.6-.5,0-.3.1-.4c.2-.2.8-.4.7-1l-1-.6.4-1c.3-.7.7-1.1,1.1-1.5s.5-.8.9-1.1,2.7-1,3.1-1,.4.2.6.1c0-.6-.6-.5-1-.5s-.4.2-.1-.1c.3-.2.7-.2,1.1-.2s.5.2.9.3v-.5c-.1,0,.7.3.7.3l.2-.5c.2,0,.1.2.3.3s.3,0,.4,0c.3.1.5.3.9.3.2.1,0,1.1.5,1.3.6.2,1.5-.6,2.2-.4Z"/>
          <path d="M-212.3,54.8l.4.3c1.1,2.6,2.2,5.2,3.3,7.9l.6.9c.9,1.9-.8,1.5-1.1,2.3s-.2,1.3-.3,1.6c-.5,2.6-2,6-2.1,8.2s-1.3-.4-1.3-.4c0,.6-.5,4.2-.5,4.5-2.9.5-4.4-.6-7.1-1.2-.1,1.1,0,2.2,0,3.4.3,1.2-.2,1.3-1.2,1.9-.8,1.1-1.3,2.3-1.5,3.7-.5,1.1-1,1.4-2.2,1.9-.3,1-1.3,2.9-2.3,1.6-.5,0-3.2-1.4-3.9-1.7l-12.9-7.9c.3-.5.2-1.3.5-2,.8-1.8,4.1-3.6,5.5-5.1s2.3-3.6,3.5-5.2c5.9-8.3,12.1-11.6,21.5-14.5.6-.2.8-.1,1.1-.2Z" fill="#fff"/>
          <path d="M-240,146.4c.2-.1.3,0,.4-.3s.5-1.6.6-2c1.5-6.5,2.6-14.3,4.9-19.9s1.8-3.8,2.6-5.9c0-.7-1.6-1.8-2.2-2.3-4.2-3.9-9.4-10-12.5-14.8s-4.1-8.2-2.3-12.6,3-5.1,4.1-6.8l.4-.2,12.7,7.8,3.5,1.6v.4c.1,0-.3,1.1-.4,1.2s-.5.3-.5.5-.3.8-.1,1,.8.9.6,1.3-.5.9-.2,1.3,2.2,2.9,3.4,5.2,2.6,5.4,3.8,7.4,2.4,5.2,1.7,6.7-.9,1.9-.9,1.9c0,0-.1,1.2-.6,2s-2.1,4.6-2.7,6.3-.9,4.6-1.7,6.6-1.9,4.7-1.9,4.7c0,0,.3.3.1.8s-.3,1.6-.1,2,.8.8.8,1.1,0,.8.2,1.1.4.2.8.3,1.7,1.3,2.3,1.9,1.8,1,2.5,1,2.3-.2,2.8.4,1,1.7.3,2.4-1.6,1.1-3.3,1-4.8-.5-6.9-.8-3.3-.4-3.3-.4c0,0,1.9,1.5,2.8,2.4s2.8,2.1,3.8,2.6,1.9.9,2.9,1,1.2,2,1,2.5-1.2,1-2.5,1.1-7.2-.5-9.9-1c-2.7-.5-3.9-.5-6.1-1s-4.3-1.2-4.9-1.5-.5-1-.3-1.5.8-1.4,1.7-1.7c0,0,.2-1.1.6-1.8s.8-1.4,1.1-2.1.6-.7.9-.9Z"/>
          <path d="M-240.7,84.2c0,.1-.9,1.4-1.1,1.5s-1-.4-1.4-.5c-.6-.2-1.6-.1-1.9-.7s.9-2.1.9-2.2c.1-.1,2.3,1.2,2.6,1.4s.8.6.8.6Z" fill="#fff"/>
          <path d="M-228.3,91.5c0,0-.6,1-.8,1.1s-1.2-.4-1.2-.4.5-1.3.5-1.3,1.4.6,1.5.7Z" fill="#fff"/>
          <path d="M-230.6,91.7c-.2.2-3.8-2.6-4.4-3-1.2-.7-2.7-1.4-3.9-2s-1.7-.5-1.8-.6.3-1.9.8-1.4l9.7,5.8c0,.1-.3,1.1-.4,1.2Z" fill="#fff"/>
          <path d="M-208.2,49.5c-.4-.9,15.6,3.4,15,3.8s-.6,1.7-.9,1.9-.7,1.5-.6,1.6c0,.8,3.3,4.1,3.3,4.4,0,.9-3.2.6-3.9.3s-2.2-1.4-2.3-1.4c-1.6.1-1.4,2.9-1.9,3.2s-1-.3-1.3-.3-1.6,1.1-1.9,1.2-.7,0-1,.1-.9.9-1.6.9c-1.5,0-2.2-1.8-3-2.5s-.1.4-.4.5c-.1-.3-.4-.5-.5-.8-1.1-2.6-1.9-5.3-3.1-7.9,0,0,1.1-.8,1.2-.9.6-.7.6-1.8,1.2-2.5s1.2-.7,1.3-1.4h.2c1.3,1.9,12.1,6.6,13,6.2s.9-2.2.7-2.3c-3.9-1-7.8-2.4-11.5-4.1-.9-.4-1.6-.5-1.9-.3Z"/>
          <path d="M-208.2,49.5c0,0,0-.4,0-.4.9-.7,7.1,2.4,8.4,2.9s5.4,1.4,5.6,1.6-.7,2.7-1,2.9-1-.1-1.4-.2c-2.9-.8-6.6-2.5-9.2-4s-2.5-1.4-2.7-1.6,0-.4.1-.6.1-.2.2-.6Z" fill="#fff"/>
          <path d="M-192.2,61.1c-2.9,1-5.2-1.4-6.8-3.6s-1.3-1.8-1.1-2l4.9,1.7,3,3.8Z" fill="#fff"/>
          <path d="M-211.9,76.1s0,2.4-.3,4.1.1,3.9.1,5.5-.4,4.7-.9,6.6c0,0,.3,3.7.3,5.4s.7,4.9.9,6,.6,2.4.5,3.3c0,0,.8,1.3,1,2.6s.2,2.1-.2,3.2-.6,2.1-1,2.6-1.1.9-1.5.9-.6,0-.7-.5-.1-.7-.1-.7c0,0-.5.1-.8-.2s-.1-1-.1-1c0,0-.7-.1-.9-.5s-.4-.9-.6-1.2-.9-1.2-.9-1.2c0,0,.3-.7.8-1.8s.9-2.3.4-3.8-.9-2.4-1.4-3.7-1.6-5.1-2-6.8-.5-3.2-.3-4.2.2-1.4,0-2.6-.4-3.5-.6-4.6-.1-4.5-.1-4.5c0,0,2.6.8,3.7,1.1s2.6.5,3.4.1l.5-4.5.9.5Z"/>
          <path d="M-217.8,100.5c-.3,1.3-.3,1.8-.3,1.8l1.6.4-1.3-2.2Z"/>
        </g>
      </g>
    </g>
  </g>
  <g>
    <path d="M465.7,1.1l-168.3,69.7c3.7,9,5.8,18.9,5.8,29.2s-2.1,20.2-5.8,29.2l168.3,69.7c12.6-30.5,19.6-63.9,19.6-98.9s-7-68.5-19.6-98.9Z" fill="none"/>
    <g>
      <path d="M484.1,125.1l-124,30.1,105.5,43.7c9.6-23.1,15.9-47.9,18.4-73.8Z" fill="#65a208"/>
      <g>
        <circle cx="470.7" cy="142.2" r="1.7" fill="#fff"/>
        <path d="M401.3,86c-.4,1.2-1.1,3.7-1.4,4s-2.3,1.7-2.7,5.2-.3,6.3,3.2,13c1.1,2.2,5.4,11.6,6.1,13.5s1.5,3.3,1.7,3.7-.2.7.7,1.2c0,0-.6.3-.9.8s0,1.7-.6,3-1,2.5-1.4,5.9-1.2,6.1-1.3,7.9,0,5,0,5.7.6,1.1.4,1.5-.4,1.1-.2,1.5,0,1.6,0,1.6c0,0-.6.3-.8.8s0,1.6-.1,2.4,0,2,0,2c0,0-.7.9-.7,1.8s.5,1.5,2.3,1.3,4.4-1.1,7.3-1.5,5.5-.3,8.9-1.7c3.4-1.4,3.7-2.6,3.6-3.2s-.8-1.3-1.8-1.2-1.2.4-2.7.2-3.9-.9-3.9-.9c0,0,4.2-1.1,5.9-1.6s4.6-1.7,5.5-2.6.7-1.4,0-2.3-3.4,0-4.4.4-2.3.4-2.9-.1-1.2-.4-1.2-.4c0,0,0-.4-.5-.4s-.7,0-.7,0c0,0,0-1.1-.5-2.3s-.9-1.7-.9-1.7c0,0,.5-1,.6-2.9s.6-6.3,1.1-8.9.5-4.3.5-4.3c0,0,1.2-1.6,1.6-3.4s.6-3.1.3-4.3-1.9-5.3-2.6-8.8-.9-4.8-1.3-5.6-1.1-1.9-1.1-1.9c0,0,.3-1,.2-2.1s-.9-2-.9-2c0,0,.6-.3.9-.9s.3-1.4.2-1.9-.3-.8.1-1.3.8-1.7.8-1.7l-16.3-7.5Z"/>
        <path d="M428.3,75.6s-.2,1.9,0,3.1,1.1,3.8,1.6,6.2,0,4.3,0,5.4,0,2.2,0,2.2c0,0,.4,2.8,1.1,4.2s1.4,3.6,1.8,4.3,1,2.1,1.3,2.8,1.2,1.3,1.3,2.5.6,3,.3,4.3-.9,1.8-1.3,2.1-.9.7-1.3.3,0-1,0-1c0,0-.2.4-.8.1s-.7-1.2-.7-1.2c0,0-.9-.2-1.1-.5s-.6-.2-.9-1.1l-.3-.9-2.3-8.4s-1.9-2.6-3-4.4-2-4.1-2-6.4c0,0-2-6.4-1.9-10.4s0,0,0,0c0,0,2.5.2,3.8,0s2.5-.4,2.5-.4l.6-2.9h1.3"/>
        <path d="M472.8,142.8c0,0,0-.2-.1-.2,0,0,0,0,0-.1-.2-.4-.5-.7-.8-.8,0,0,0,0,0,0-.1,0-.2,0-.3,0h0c-.4.1-1.5.8-3,2.5-.4.5-.4.7-.4,1,0,0,0,.2,0,.3l-31.9-32.6.3-.3-.3-.3h0c0,0-11.7-12.2-11.7-12.2-.1-.1-.4-.1-.5,0l-.8.8c-.1.1-.1.3,0,.5l11.8,12.1h0c0,0,.3.2.3.2l.3-.3,32.3,33s.2.2.6.2c.5,0,2.5-.5,3.9-1.3.3-.2.6-.4.7-1,0-.4-.1-1-.4-1.5Z"/>
        <path d="M437.7,41.7l-.3.4.3.3c.6,0,.9-.4,1.5-.2,0,.2-.3.1-.5.3s-.3.3-.2.5c.4-.1,1,0,1.4.3s.6.9.8,1.2.7.1,1,.6.4.7.7,1.1.6.9.6,1.5l.5.7h-.4c.4.3.6.6.7,1.3l-.7-.8s.2.2.4.7-.1.8-.2.8c-.1.2-.8.7-.9,1.2l.2-.7-.5.8.2-.6-.9.4c0-.9-1.4-.7-2.1-.8s-1.8-.2-2.5-.4c-1.2-.4-2.3-.8-3.5-1.1s-2-.7-3-.8l-.8.7v-.7c-.3,0-.5.3-.7.3s-.4-.1-.6-.1c-.6,0-.4,0-.6-.5l-1-.4.2-1.1c.2-.7.5-1.2.9-1.7s.4-.8.8-1.2,2.5-1.4,2.9-1.5.4,0,.6,0c-.2-.6-.7-.4-1.1-.3s-.4.2-.2-.1c.3-.3.7-.3,1.1-.4s.6.2.9.1l-.2-.5h.9c0,.1.1-.4.1-.4.2,0,.1.2.3.3s.3,0,.4,0c.3,0,.5.2.9.1.2.1.3,1.1.6,1.2.6,0,1.4-.8,2.1-.7Z"/>
        <path d="M426.7,47.9c-.6-.8,15.8,1.2,15.1,1.6s-.4,1.7-.6,2-.4,1.6-.4,1.7c.2.8,3.9,3.5,3.9,3.8.1.9-3.1,1-3.8.9s-2.3-1.1-2.5-1c-1.5.4-.9,3.1-1.4,3.5s-1.1-.1-1.3,0-1.4,1.3-1.7,1.5-.7.2-1,.3-.8,1-1.5,1.2c-1.4.3-3.6-2.4-4.5-2.9s.2.7,0,.8c-.2-.2.5.2.3,0-1.5-2.4-3.5-3.7-5.1-6-1.2,1.3,2.3-2.5,2.4-2.6.5-.8,0-1.4.5-2.2s1.1-1,1.2-1.8h0c1.6,1.6,13,4.6,13.7,4.1s.5-2.3.4-2.4c-4.1-.4-8.1-1.2-12-2.3-1-.2-1.4-.3-1.7,0Z"/>
        <path d="M426.4,47.6c.8-.8,7.4,1.3,8.8,1.6s5.5.6,5.7.8-.3,2.8-.5,3-1,0-1.4,0c-3-.3-6.9-1.5-9.7-2.5s-2.9-1.1-3.1-1.4,0-.4,0-.6.2-.9.3-.9Z" fill="#fff"/>
        <path d="M444,57.1c-2.7,1.4-5.4-.6-7.2-2.5s-1.5-1.6-1.4-1.8l5.1.9,3.5,3.4Z" fill="#fff"/>
        <path d="M401.4,86.9v.3c-.2.4-.5.9-.6,1.1.8.7,1.8.8,2.7,1.2,0-.2.5-1.2.7-1.4-.6-.3-1-.5-1.3-.6-.8-.3-1.5-.6-1.5-.6Z" fill="#fbfbf9"/>
        <path d="M407.3,89.7c-.7-.4-1.7-.9-2.5-1.3,0,0,0,0,0,0,0,.2-.6,1.2-.5,1.4.2.2,4.5,1.8,5.3,2.1.7.4,4.1,2.4,4.4,2.4.4,0,.5-.8.7-1.1-.5-.2-1-.5-1.6-.7-2.1-.8-4.5-2.1-5.9-2.8Z" fill="#fbfbf9"/>
        <path d="M429.4,62.7s-.4-.4-1-1c-.5-.5-2.3-3.1-3.2-4s-2.3-3.1-2.4-3.4l-1.6,1.2s-.8-.1-1.2.4c-.4.6-.9,1.6-1.5,1.6-.6,0-2.1,1-2.5,1.5-.4.5-2.3,1.4-5,5.8-2.7,4.4-3.7,7.6-4.4,8.8-.7,1.2-1.9,3.2-2,4.3,0,1.1-.1,1.7-.5,2.2-.4.5-3.1,4-3.5,4.6s-.3,1.7.1,1.9c.2,0,.5.2.5.2.3.1,2.9,1,4.8,2,1.9,1,4.8,2.6,6.1,3s2.7,1.3,2.7,1.3c0,0,1.6.8,1.8,1v.2c0,0-.5-.3-1.2-.7-.1.4-.6,1.1-.6,1.2,0,.1,1.1.7,1.3.7,0-.1.7-1.3.8-1.4.4-.3,1-.2,1.5-.7.7-.8.7-2.5,1.1-3.4.3-.5,1.3-1.3,1.7-1.8v-.8c.1,0-.2-1.5-.5-2.8-.3-1.3-.7-5.9-.7-5.9,0,0,1.1.1,3.1.1s3.2-.4,3.2-.4l.6-2.9s1,0,1.3,0,.3-.2.4-.3c0-1.4.6-5.1.6-6.4,0-1.5,0-2.8,0-3.8,0-1-.5-1.8-.5-1.8l.5-.5Z" fill="#fbfbf9"/>
        <path d="M429.2,103.7c-.7-1.2-2-3.3-2-3.3,0,.5.1,2.8.1,2.8h0c-.2.3-.4.8-.5,1.1-.2.6-.3,1.8,0,2s.4,0,.4,0c.2.3.4.7.9.6,0,0,0,.1,0,.3,0,.6.7,1,1.1,1s.5-.6.5-1.1.1-1,.2-1.3,0-.9-.7-2.1Z" fill="#f8f9f8"/>
        <path d="M429.7,109.3c-.5.2-.9.5-.8.9s1,.4,1.7.2l-.9-1.1Z" fill="#f8f9f8"/>
      </g>
    </g>
  </g>
</svg>