<?xml version="1.0" encoding="UTF-8"?>
<svg id="_レイヤー_1" data-name="レイヤー_1" xmlns="http://www.w3.org/2000/svg" width="180" height="180" version="1.1" viewBox="0 0 180 180">
  <!-- Generator: Adobe Illustrator 29.6.1, SVG Export Plug-In . SVG Version: 2.1.1 Build 9)  -->
  <g>
    <path d="M89.7,70.19s-1.72,3.54-2.27,8.16c-.54,4.62-.63,6.62-.63,6.62l6.08.63s-3.45-12.78-3.17-15.41Z" fill="#fff"/>
    <path d="M86.89,84.42s-1.09,5.76-1.09,7.03-3.76,7.84-5.49,12.69l-3.17,5.98-3.21,1.19s-2.41,2.07-2.72,2.72c-.31.65-1.22.37-1.33.82-.1.44.34.82,1.07.92.73.1.2.88-1.18.57,0,0,.64,1.22,2.21.89,0,0,.49.96,1.25.94s1.32-.27,1.76,0c.44.27,2.37-.19,2.93-.31.56-.12,1.48-3.2,1.85-4.83.36-1.63,5.44-7.07,6.12-7.93.68-.86,3.72-4.28,4.81-7.48,1.09-3.2,1.7-5.61,1.7-5.61l-.88-6.77-4.62-.82Z" fill="#286300"/>
    <path d="M92.2,105.86s-1.09,3.6-1.7,7.68c-.61,4.08-2.24,10.68-2.18,15.1.07,4.42.2,10.27-2.92,14.49-3.13,4.22-5.78,20.74-5.92,24.14-.14,3.4,0,4.69,0,4.69,0,0,5.78,2.72,7.89,2.04,0,0,1.16-4.9,2.65-10.34,0,0,1.7-7.68,2.79-10.27,1.09-2.58,3.67-10.2,4.96-14.62,1.29-4.42,3.88-14.14,5.58-15.57,1.7-1.43,4.83-2.65,6.12,2.52,1.29,5.17,3.2,14.14,3.94,16.32.75,2.18,1.5,6.6,1.56,7.41.07.82,2.18,12.31,2.11,13.8-.06,1.29,2.05,9.12,2.64,11.28.08.29.4.44.67.33,1.3-.55,4.72-1.91,7.02-2.01.15,0,.27-.13.27-.28-.02-1.72-.18-11.12-1.29-16.12-1.22-5.51-1.16-10.34-2.58-14.42-1.43-4.08-.54-14.48-1.36-17.75-.82-3.26-3.6-15.71-5.09-20.13,0,0-8.43,9.85-25.17,1.7Z" fill="#286300"/>
    <g>
      <path d="M80.92,172.39s-1.41,1.38-1.75,2.22c-.34.84-1.52,1.41-2.06,2.24-.54.84-.57,1.54-.11,2.13s6.3,0,7.12,0,1.36.29,1.88.11c.52-.18-.03-1.94.08-2.66.12-.71.02-1.29-.05-1.77-.07-.48-1.5-4.82-5.11-2.28Z" fill="#286300"/>
      <path d="M77,178.98s0,.91,1.14,1c1.13.09,6.03-.18,7.03,0,1,.18,1.06-1,1.06-1h-9.23Z" fill="#286300"/>
    </g>
    <g>
      <path d="M126.55,172.39s1.41,1.38,1.75,2.22c.34.84,1.52,1.41,2.06,2.24.54.84.57,1.54.11,2.13s-6.3,0-7.12,0-1.36.29-1.88.11c-.52-.18.03-1.94-.09-2.66-.12-.71-.02-1.29.05-1.77.07-.48,1.5-4.82,5.11-2.28Z" fill="#286300"/>
      <path d="M130.47,178.98s0,.91-1.14,1c-1.13.09-6.03-.18-7.03,0-1,.18-1.06-1-1.06-1h9.23Z" fill="#286300"/>
    </g>
    <path d="M89.53,70.61s.63,8.52,1.99,15.6c1.36,7.07.95,19.72.95,19.72,0,0,6.94,4.9,14.14,3.54,7.21-1.36,10.74-5.3,10.74-5.3,0,0-2.63-7.89-1-14.51,1.63-6.62,1.99-13.69-1.27-16.5-3.26-2.81-13.69-5.71-21.31-4.26,0,0-3.72.63-4.26,1.72Z" fill="#fff"/>
    <path d="M110.45,89.83s-5.44,3.26-8.25,6.26c-2.81,2.99-7.25,8.25-8.98,10.06-1.72,1.81-5.98,6.26-5.98,6.26,0,0-.68.82-.82,2.58-.14,1.77-2.09,2.67-3.49,2.45-1.41-.23-4.31.32-5.26-1-.95-1.31.54-3.81,2.49-4.9,1.95-1.09,3.31-1.04,5.71-3.85,2.4-2.81,6.71-9.75,9.48-12.69,2.77-2.95,4.33-5.9,8.16-9.02,0,0,5.76,3.63,6.94,3.85Z" fill="#286300"/>
    <path d="M118.53,77.71c-.47-1.2-1.64-1.97-2.93-1.92-.89.04-2.06.24-3.57.8-4.17,1.54-9,9.51-9,9.51,0,0,8.07,4.17,8.98,4.81,0,0,2.81-4.17,5.33-6.01,2-1.46,2.2-4.64,1.2-7.19Z" fill="#fff"/>
    <path d="M98.21,66.77s-3.06,1.63-4.28,4.76c0,0-.16.52,1.18.84,1.34.32,1.52,1.01,1.64.93.24-.14,1.81-3.1,1.94-5.14.14-2.04-.48-1.39-.48-1.39Z" fill="#fff"/>
    <path d="M100.25,74.5s1.13-1.13,3.26.27,2.09,1.02,3.13-.35,2.9-3.96,3.08-4.43c.18-.47-.73-2.69-1.99-2.65,0,0-1.72,3.85-5.76,5.76-4.03,1.9-3.68,4.9-3.27,4.81.41-.09.13-2.15,1.54-3.4Z" fill="#fff"/>
    <path d="M96.81,73.15l1.67,3.86s-2.38-2.08-2.38-2.26.71-1.59.71-1.59Z" fill="#fff"/>
    <path d="M104.48,67.33s-2.67-1.5-4.53,0-2.4,3.35-2.86,4.35c-.45,1-.27,1.81,0,2.72.27.91,1.5,2.4,1.5,2.4,0,0,.86-1.68,2.45-1.86,1.59-.18,4.31-3.67,4.85-5.03.54-1.36-1.41-2.58-1.41-2.58Z" fill="#286300"/>
    <path d="M78.51,115.49s-27.94-.61-32.29-.54c-4.35.07-39.71.62-39.71.62,0,0-.9-5.2-1.87-6.41-.97-1.21-1.6-3.42-3.71-2.25-1.45.8-.78,2.32-.75,4.05s1.75,4.91,2.67,5.49c.92.58,5.17.15,5.17.15l2.13-.21,36.3-.59,32.08.83-.02-1.12Z" fill="#286300"/>
    <g>
      <path d="M96.65,70.88s1.7,4.76,5.51,4.15c3.81-.61,4.01-7.28,4.01-7.28l-9.52,3.13Z" fill="#286300"/>
      <path d="M107.47,60.9c.39-2.01-.18-4.12-1.62-5.59-1.03-1.05-2.61-1.91-4.99-1.84-5.95.17-6.87,5.24-6.87,5.44s-.27,4.22.2,5.92c.48,1.7,1.02,4.62,1.43,5.44.41.82.82,1.19,2.11.78,1.29-.41,3.91-.99,6.26-.58,2.35.41,3.3-.44,3.37-2.01.07-1.56-.54-4.08-.54-4.39,0-.19.38-1.78.65-3.18Z" fill="#fff"/>
    </g>
  </g>
  <path d="M87.97,111.65c-.45.46-.72.76-.72.76,0,0-.68.82-.82,2.58-.14,1.77-2.09,2.67-3.49,2.45-1.41-.23-4.31.32-5.26-1-.95-1.31.54-3.81,2.49-4.9,1.59-.89,2.79-1.02,4.49-2.57.19-.17,1.25.38,2.1,1.07.91.73,1.21,1.61,1.21,1.61Z" fill="#fff"/>
</svg>