<?xml version="1.0" encoding="UTF-8"?>
<svg id="_レイヤー_1" xmlns="http://www.w3.org/2000/svg" width="90" height="60" version="1.1" viewBox="0 0 90 60">
  <!-- Generator: Adobe Illustrator 29.6.1, SVG Export Plug-In . SVG Version: 2.1.1 Build 9)  -->
  <path d="M86.88,50v-22.05s0,0,0,0c-.08.08-.16.22-.23.39,0,0,0,0,0,0-.02.06-.05.12-.07.18,0,.01,0,.03-.01.04,0,0,0,.02,0,.02-.02-.23-.06-.45-.1-.75-.07-.52-.03-.95,0-1.14-.12.66-.13,1.24-.14,1.8-.23-.12-.41-.19-.51-.22-.1-.58-.22-1.01-.29-1.25.02-.04.04-.07.04-.07,0,0-.02.01-.05.03-.04-.12-.06-.19-.06-.19.01.07.02.14.03.21-.09.07-.26.22-.44.44-.17-.6-.16-1.01-.16-1.01,0,0-.08.31.08,1.1-.09.12-.18.25-.27.4-.09-.15-.18-.29-.27-.4.16-.79.08-1.1.08-1.1,0,0,0,.41-.16,1.01-.19-.22-.35-.37-.44-.44.01-.07.02-.14.03-.21,0,0-.02.07-.06.19-.03-.02-.05-.03-.05-.03,0,0,.02.03.04.07-.07.24-.19.67-.29,1.25-.1.03-.28.1-.51.22,0-.56-.02-1.14-.14-1.8.03.2.07.63,0,1.14-.04.3-.08.52-.1.75,0,0,0-.02,0-.03,0-.01,0-.03-.01-.04-.02-.06-.04-.13-.07-.18,0,0,0,0,0,0-.07-.17-.14-.31-.22-.39-.12-.11-.19-.17-.26-.2-.34-.69-.72-.99-.72-.99,0,0,.23.41.47.96-.06,0-.13,0-.23,0-.18-.63-.39-1.16-.5-1.37,0,0,.05.71.12,1.37-.22,0-.44,0-.62-.01.01-.09.02-.17.03-.26.03-.2.06-.4.09-.62,0,0-.11.32-.23.86-.04-.24-.08-.48-.14-.79-.11-.59-.08-1.09-.06-1.32-.11.78-.09,1.46-.07,2.12-.06,0-.12.02-.18.03,0-.08,0-.16-.02-.24-.18-1.77-.55-2.9-.55-2.9.04.28.07.54.1.8.04.34.07.65.09.96,0,.08.01.15.02.22.02.23.03.46.04.68,0,.07,0,.14,0,.2,0,.1,0,.2,0,.3,0,.04,0,.07-.01.11-.03.21-.06.38-.08.55-.06.03-.12.07-.18.11-.04-.98-.17-2.45-.17-2.45-.12.39-.31,1.53-.37,2.73,0,.06,0,.12,0,.18-.02.02-.05.05-.07.07,0-.17,0-.34,0-.5-.02-.35-.09-.7-.18-1.02.06-.61.1-1.19.1-1.19-.07.12-.17.36-.27.66-.02-.05-.03-.09-.05-.14.04-.07.07-.12.07-.12,0,0-.03.03-.08.07-.13-.33-.25-.58-.32-.72,0,0,0,0,0,0,0,0,0,0,0,0-.04-.07-.06-.12-.06-.12,0,.14.08.58.16,1.09-.2.25-.46.67-.66,1.28-.15-.22-.29-.41-.43-.56-.06-.49-.02-.9,0-1.09-.06.35-.09.67-.11.98-.35-.36-.63-.53-.63-.53.22.2.43.44.62.71-.02.4-.02.79-.03,1.18,0,0-.01.01-.02.02-.15-.3-.3-.56-.47-.75-.09-.54-.2-.96-.27-1.21.04-.08.07-.13.07-.13,0,0-.04.03-.09.07-.04-.14-.07-.23-.07-.23.01.09.02.17.04.25-.1.09-.26.23-.44.45-.01-.03-.02-.06-.02-.1.11-.71.21-1.4.21-1.59,0,0-.17.36-.34.89-.02-.16-.02-.27-.02-.27,0,0-.03.11-.02.37-.1.3-.19.65-.25,1.02-.05-.08-.1-.16-.15-.23.18-.84.09-1.16.09-1.16,0,0,.01.43-.17,1.06-.17-.22-.33-.37-.44-.45.01-.09.02-.17.04-.25,0,0-.03.08-.07.23-.05-.04-.09-.07-.09-.07,0,0,.03.05.07.13-.07.25-.18.66-.27,1.19-.1.03-.28.1-.51.22,0-.56-.02-1.14-.14-1.8.03.2.07.63,0,1.14-.04.3-.08.52-.1.75,0,0,0-.02,0-.03,0-.01,0-.03-.01-.04-.02-.06-.04-.13-.07-.18,0,0,0,0,0,0-.07-.17-.14-.31-.22-.39-.12-.11-.19-.17-.26-.2-.34-.69-.72-.99-.72-.99,0,0,.23.41.47.96-.06,0-.13,0-.23,0-.18-.63-.39-1.16-.5-1.37,0,0,.05.71.12,1.37-.16,0-.31,0-.46,0,.02-.69-.05-1.08-.13-1.77-.08-.67-.04-1.22,0-1.48-.2,1.21-.14,2.21-.18,3.24-.04,0-.08,0-.11,0-.16,0-.33.04-.45.08-.03-.17-.06-.33-.1-.48-.02-.18-.04-.37-.08-.57.01.08.02.21.03.36-.15-.62-.28-.97-.28-.97.12.7.19,1.32.23,1.88-.02.12-.03.23-.05.33-.02,0-.04.02-.06.02-.06.02-.1.07-.14.12-.05-.98-.17-2.39-.17-2.39-.12.39-.31,1.53-.37,2.73,0,.06,0,.12,0,.18-.02.02-.05.05-.07.07,0-.17,0-.34,0-.5-.02-.3-.07-.61-.15-.9.23-.42.42-.71.42-.71,0,0-.19.11-.43.34.05-.51.08-.95.08-.95-.07.12-.17.36-.27.66-.02-.05-.03-.09-.05-.14.04-.07.07-.12.07-.12,0,0-.03.03-.08.07-.13-.33-.25-.58-.32-.72,0,0,0,0,0,0,0,0,0,0,0,0-.04-.07-.06-.12-.06-.12,0,.14.08.58.16,1.09-.12.15-.26.37-.4.64,0-.01.01-.03.01-.04.22-.88.12-1.22.12-1.22,0,0,.02.7-.41,1.61,0,0-.01,0-.02,0-.01-.04-.02-.08-.04-.11,0,0,0,.05-.01.12-.03,0-.05.02-.08.04-.08-.1-.16-.2-.23-.29.02-.14.03-.26.05-.41.03-.2.06-.4.1-.61,0,0-.21.54-.39,1.42-.07.03-.3.12-.58.28-.01-.56-.02-1.14-.15-1.81.03.2.08.63,0,1.14-.05.33-.1.57-.12.83-.07.05-.14.1-.22.16-.13-.5-.31-.91-.49-1.21.07-.63.13-1.27.13-1.27-.09.15-.24.47-.4.88-.04-.05-.07-.09-.11-.13.12-.22.21-.35.21-.35,0,0-.12.09-.29.26-.17-.18-.29-.26-.29-.26,0,0,.09.14.21.35-.03.04-.07.08-.11.13-.15-.41-.3-.73-.4-.88,0,0,.05.64.13,1.27-.19.31-.36.71-.49,1.21-.07-.06-.15-.11-.22-.16-.02-.26-.07-.5-.12-.83-.08-.52-.03-.95,0-1.14-.13.66-.14,1.24-.15,1.81-.28-.16-.51-.25-.58-.28-.06-.3-.13-.56-.18-.77.17-.3.3-.49.3-.49,0,0-.15.09-.37.28-.08-.28-.15-.44-.15-.44.03.17.06.33.08.49-.13.13-.28.29-.43.49-.31-.77-.3-1.34-.3-1.34,0,0,0,.03-.01.09,0-.06-.01-.09-.01-.09,0,0,.01.56-.3,1.34-.15-.2-.3-.36-.43-.49.03-.16.05-.32.08-.49,0,0-.06.16-.15.44-.21-.19-.37-.28-.37-.28,0,0,.06.08.14.22-.11.07-.35.23-.64.49-.02-.31-.06-.63-.13-.98.03.19.07.6,0,1.09-.16.15-.33.34-.49.56-.23-.61-.52-1.02-.75-1.27.1-.51.18-.95.19-1.09,0,0-.03.05-.07.12,0,0,0,0,0,0,0,0,0,0,0,0-.08.14-.22.39-.36.72-.05-.04-.09-.07-.09-.07,0,0,.03.05.07.12-.02.04-.04.09-.06.14-.12-.3-.23-.54-.31-.66,0,0,.05.59.12,1.19-.1.32-.18.67-.2,1.02-.01.16,0,.33,0,.5-.03-.03-.06-.05-.08-.07,0-.06,0-.12,0-.18-.07-1.2-.29-2.34-.42-2.73,0,0-.14,1.4-.19,2.39-.04-.06-.09-.1-.16-.12-.02,0-.04-.01-.07-.02-.02-.1-.03-.21-.05-.33.04-.56.12-1.18.26-1.88,0,0-.15.36-.32.97,0-.15.02-.28.04-.36-.04.2-.07.39-.09.57-.04.15-.07.31-.11.48-.13-.04-.33-.09-.5-.08-.04,0-.08,0-.13,0-.05-1.03.01-2.03-.21-3.24.04.26.09.81,0,1.48-.1.69-.17,1.08-.15,1.77-.16,0-.34,0-.52,0,.08-.66.14-1.37.14-1.37-.13.21-.36.74-.57,1.37-.11,0-.19,0-.26,0,.27-.55.53-.96.53-.96,0,0-.43.3-.82.99-.08.03-.16.09-.29.2-.09.08-.18.22-.25.39,0,0,0,0,0,0-.03.06-.05.12-.08.18,0,.01-.01.03-.02.04,0,0,0,.02,0,.02-.02-.23-.06-.45-.11-.75-.08-.52-.03-.94,0-1.14-.13.66-.14,1.24-.15,1.8-.26-.12-.46-.19-.57-.22-.18-.91-.4-1.47-.4-1.47.04.21.07.42.1.62.04.26.07.5.09.74,0,.06.01.12.02.18,0,0,0,.02,0,.02-.13-.16-.27-.25-.37-.28,0-.07-.01-.12-.01-.12-.01.03-.02.07-.04.11,0,0-.01,0-.02,0-.08-.17-.15-.33-.2-.48.18-.37.33-.62.33-.62,0,0-.18.12-.41.37-.15-.53-.14-.88-.14-.88,0,0-.08.27.06.97-.06.06-.11.13-.17.21-.22-.98-.66-1.81-.66-1.81,0,.16.09.69.19,1.29-.02.09-.04.19-.07.3-.19-.2-.36-.33-.46-.39.01-.07.02-.14.03-.21,0,0-.02.07-.06.19-.03-.02-.05-.03-.05-.03,0,0,.02.03.05.07-.07.23-.18.65-.28,1.2-.07.03-.27.12-.51.28,0-.56-.02-1.14-.14-1.81.03.2.07.63,0,1.14-.05.33-.09.57-.11.83-.05.04-.1.08-.15.12-.03-.02-.05-.03-.05-.03-.11-.47-.26-.86-.42-1.15.06-.63.11-1.27.11-1.27-.08.15-.21.47-.35.88-.03-.05-.06-.09-.09-.13.11-.22.19-.35.19-.35,0,0-.11.09-.26.26-.15-.18-.26-.26-.26-.26,0,0,.08.14.19.35-.03.04-.06.08-.09.13-.14-.41-.27-.73-.35-.88,0,0,.05.64.11,1.27-.16.31-.32.71-.44,1.21-.06-.06-.13-.11-.19-.16-.02-.26-.06-.5-.11-.83-.07-.52-.03-.95,0-1.14-.12.66-.13,1.24-.14,1.81-.25-.16-.45-.25-.51-.28-.05-.3-.11-.56-.16-.77.15-.3.27-.49.27-.49,0,0-.14.1-.32.28-.08-.28-.13-.44-.13-.44.03.17.05.33.07.49-.12.12-.25.3-.38.5-.27-.78-.26-1.35-.26-1.35,0,0,0,.03-.01.09,0-.06-.01-.09-.01-.09,0,0,0,.57-.26,1.35-.13-.2-.26-.37-.38-.5.02-.16.04-.32.07-.49,0,0-.06.16-.13.44-.18-.18-.32-.28-.32-.28,0,0,.05.08.13.22-.1.07-.31.23-.56.49-.02-.31-.05-.63-.11-.98.03.19.06.6,0,1.09-.14.15-.29.35-.43.56-.2-.61-.46-1.03-.66-1.28.09-.51.16-.95.16-1.09,0,0-.03.05-.06.12,0,0,0,0,0,0,0,0,0,0,0,0-.07.14-.19.39-.32.72-.05-.04-.08-.07-.08-.07,0,0,.03.05.07.12-.02.04-.03.09-.05.14-.11-.3-.21-.54-.27-.66,0,0,.04.59.1,1.19-.09.32-.16.67-.18,1.02,0,.16,0,.33,0,.5-.02-.03-.05-.05-.07-.07,0-.06,0-.12,0-.18-.07-1.2-.25-2.34-.37-2.73,0,0-.12,1.4-.17,2.39-.04-.06-.08-.1-.14-.12-.02,0-.04-.01-.06-.02-.01-.1-.03-.21-.05-.33.04-.56.11-1.18.23-1.88,0,0-.13.36-.28.97,0-.15.02-.28.03-.36-.04.2-.06.39-.08.57-.03.15-.06.31-.1.48-.11-.04-.29-.09-.45-.08-.03,0-.07,0-.11,0-.05-1.03.01-2.03-.18-3.24.03.26.08.81,0,1.48-.09.69-.15,1.08-.13,1.77-.14,0-.3,0-.46,0,.07-.66.12-1.37.12-1.37-.11.21-.32.74-.5,1.37-.09,0-.17,0-.23,0,.24-.55.47-.96.47-.96,0,0-.38.3-.72.99-.07.03-.14.09-.26.2-.08.08-.16.22-.22.39,0,0,0,0,0,0-.02.06-.05.12-.07.18,0,.01,0,.03-.01.04,0,0,0,.02,0,.03-.02-.23-.06-.45-.1-.75-.07-.51-.03-.94,0-1.14-.12.66-.13,1.24-.14,1.8-.23-.12-.41-.19-.51-.22-.07-.41-.15-.75-.22-1,.1-.19.18-.32.18-.32,0,0-.09.06-.21.17-.06-.21-.1-.33-.1-.33.02.13.04.25.06.38-.12.11-.26.27-.41.48-.23-.71-.22-1.21-.22-1.21,0,0-.09.34.11,1.22,0,.03.02.08.03.11-.06.08-.11.17-.16.27-.04-.29-.09-.57-.16-.84.08-.54.02-.77.02-.77,0,0,0,.24-.06.61-.2-.71-.45-1.23-.45-1.23,0,.2.12.98.24,1.75-.13-.17-.24-.29-.35-.39.02-.13.03-.25.06-.38,0,0-.04.12-.1.33-.13-.12-.21-.17-.21-.17,0,0,.07.12.18.32-.06.24-.14.56-.21.95-.07.03-.27.12-.51.28,0-.56-.02-1.14-.14-1.81.03.2.07.63,0,1.14-.05.33-.09.57-.11.83-.06.05-.12.1-.18.15,0,0-.01,0-.01,0-.11-.49-.27-.89-.43-1.2.06-.63.11-1.27.11-1.27-.08.15-.21.47-.35.88-.03-.05-.06-.09-.09-.13.11-.22.19-.35.19-.35,0,0-.11.09-.26.26-.15-.18-.26-.26-.26-.26,0,0,.08.14.19.35-.03.04-.06.08-.09.13-.14-.41-.27-.73-.35-.88,0,0,.05.64.11,1.27-.16.31-.32.71-.44,1.21-.06-.06-.13-.11-.19-.16-.02-.26-.06-.5-.11-.83-.07-.52-.03-.95,0-1.14-.12.66-.13,1.24-.14,1.81-.25-.16-.45-.25-.51-.28-.05-.3-.11-.56-.16-.77.15-.3.27-.49.27-.49,0,0-.14.1-.32.28-.08-.28-.13-.44-.13-.44.03.17.05.33.07.49-.12.12-.25.3-.38.5-.27-.78-.26-1.35-.26-1.35,0,0,0,.03-.01.09,0-.06-.01-.09-.01-.09,0,0,0,.57-.26,1.35-.13-.2-.26-.37-.38-.5.02-.16.04-.32.07-.49,0,0-.06.16-.13.44-.18-.18-.32-.28-.32-.28,0,0,.05.08.13.22-.1.07-.31.23-.56.49-.02-.31-.05-.63-.11-.98.03.19.06.6,0,1.09-.14.15-.29.35-.43.56-.2-.61-.46-1.03-.66-1.28.09-.51.16-.95.16-1.09,0,0-.03.05-.06.12,0,0,0,0,0,0,0,0,0,0,0,0-.07.14-.19.39-.32.72-.05-.04-.08-.07-.08-.07,0,0,.03.05.07.12-.02.04-.03.09-.05.14-.11-.3-.21-.54-.27-.66,0,0,.04.59.1,1.19-.09.32-.16.67-.18,1.02,0,.16,0,.33,0,.5-.02-.03-.05-.05-.07-.07,0-.06,0-.12,0-.18-.07-1.2-.25-2.34-.37-2.73,0,0-.12,1.4-.17,2.39-.04-.06-.08-.1-.14-.12-.02,0-.04-.01-.06-.02-.01-.1-.03-.21-.05-.33.04-.56.11-1.18.23-1.88,0,0-.13.36-.28.97,0-.15.02-.28.03-.36-.04.2-.06.39-.08.57-.03.15-.06.31-.1.48-.11-.04-.29-.09-.45-.08-.03,0-.07,0-.11,0-.02-.39-.17-1.18-.17-1.18,0,0-.16.76-.15,1.19-.14,0-.3,0-.46,0,.07-.66.12-1.37.12-1.37-.11.21-.32.74-.5,1.37-.09,0-.17,0-.23,0,.24-.55.47-.96.47-.96,0,0-.38.3-.72.99-.07.03-.14.09-.26.2-.08.08-.16.22-.22.39,0,0,0,0,0,0-.02.06-.05.12-.07.18,0,.02,0,.03-.01.05,0,0,0,.02,0,.02-.02-.23-.06-.45-.1-.75-.04-.3-.04-.57-.03-.78.03-.06.06-.1.06-.1,0,0-.02.01-.05.04,0-.12.02-.23.03-.3-.02.11-.03.21-.05.32-.13.1-.41.36-.69.78-.13-.63-.27-.99-.27-.99.03.21.06.42.09.62.03.2.04.38.06.56-.04.07-.07.15-.1.22-.07-.06-.13-.1-.19-.13,0-.07-.01-.12-.01-.12-.01.03-.02.07-.03.11,0,0,0,0-.01,0,0-.01-.01-.03-.02-.04.04-.12.07-.24.1-.34.19-.88.11-1.22.11-1.22,0,0,.01.58-.27,1.37-.28-.79-.27-1.37-.27-1.37,0,0-.09.34.11,1.22.02.11.06.22.1.34,0,.01-.01.03-.02.04,0,0,0,0-.01,0-.01-.04-.02-.08-.03-.11,0,0,0,.05-.01.12-.04.02-.09.04-.14.08-.02-.23-.06-.45-.11-.67,0-.02,0-.04,0-.06.03-.2.06-.4.09-.62,0,0-.06.18-.14.49-.08-.31-.18-.46-.22-.54-.28-.56-.16.12-.1.53-.03.03-.08.06-.12.1-.16-.18-.3-.31-.38-.37-.01-.1-.03-.21-.05-.32,0,.07.02.18.03.3-.03-.02-.05-.04-.05-.04,0,0,.02.04.06.1,0,.2,0,.45-.03.73-.14.15-.29.35-.43.56-.2-.61-.46-1.03-.66-1.28.09-.51.16-.95.16-1.09,0,0-.03.05-.06.12,0,0,0,0,0,0,0,0,0,0,0,0-.07.14-.19.39-.32.72-.05-.04-.08-.07-.08-.07,0,0,.03.05.07.12-.02.04-.03.09-.05.14-.11-.3-.21-.54-.27-.66,0,0,.04.59.1,1.19-.09.32-.16.67-.18,1.02,0,.16,0,.33,0,.5-.02-.03-.05-.05-.07-.07,0-.06,0-.12,0-.18-.07-1.2-.25-2.34-.37-2.73,0,0-.12,1.4-.17,2.39-.04-.06-.08-.1-.14-.12-.02,0-.04-.01-.06-.02-.01-.1-.03-.21-.05-.33.04-.56.11-1.18.23-1.88,0,0-.13.36-.28.97,0-.15.02-.28.03-.36-.04.2-.06.39-.08.57-.03.15-.06.31-.1.48-.11-.04-.29-.09-.45-.08-.03,0-.07,0-.11,0-.01-.26-.15-1.33-.13-1.43.08-.5-.21.92-.19,1.44-.14,0-.3,0-.46,0,.07-.66.12-1.37.12-1.37-.11.21-.32.74-.5,1.37-.09,0-.17,0-.23,0,.24-.55.47-.96.47-.96,0,0-.38.3-.72.99-.07.03-.14.09-.26.2-.08.08-.16.22-.22.39,0,0,0,0,0,0-.02.06-.05.12-.07.18,0,.01,0,.03-.01.04,0,0,0,.02,0,.03-.02-.23-.06-.45-.1-.75-.07-.51-.03-.94,0-1.14-.12.66-.13,1.24-.14,1.8-.23-.12-.41-.19-.51-.22-.09-.53-.2-.94-.27-1.19.04-.08.07-.13.07-.13,0,0-.04.03-.09.07-.04-.14-.07-.23-.07-.23.01.09.02.17.04.25-.1.09-.26.23-.44.45-.18-.63-.17-1.06-.17-1.06,0,0-.08.32.09,1.16-.05.07-.1.15-.15.23-.06-.37-.15-.72-.25-1.02.01-.25-.02-.37-.02-.37,0,0,0,.1-.02.27-.17-.53-.34-.89-.34-.89,0,.19.11.88.21,1.59,0,.03-.01.06-.02.1-.17-.22-.33-.37-.44-.45.01-.09.02-.17.04-.25,0,0-.03.08-.07.23-.05-.04-.09-.07-.09-.07,0,0,.03.05.07.13-.07.25-.18.67-.27,1.21-.17.19-.32.44-.47.75,0,0-.01-.01-.02-.02-.01-.39-.02-.77-.03-1.18.19-.27.4-.51.62-.71,0,0-.28.17-.63.53-.02-.31-.05-.63-.11-.98.03.19.06.6,0,1.09-.14.15-.29.35-.43.56-.2-.61-.46-1.03-.66-1.28.09-.51.16-.95.16-1.09,0,0-.03.05-.06.12,0,0,0,0,0,0,0,0,0,0,0,0-.07.14-.19.39-.32.72-.05-.04-.08-.07-.08-.07,0,0,.03.05.07.12-.02.04-.03.09-.05.14-.11-.3-.21-.54-.27-.66,0,0,.04.59.1,1.19-.09.32-.16.67-.18,1.02,0,.16,0,.33,0,.5-.02-.03-.05-.05-.07-.07,0-.06,0-.12,0-.18-.07-1.2-.25-2.34-.37-2.73,0,0-.13,1.47-.17,2.45-.06-.04-.12-.08-.18-.11-.02-.17-.05-.34-.08-.55,0-.04,0-.08-.01-.11,0-.1,0-.2,0-.3,0-.07-.11-.97-.11-.97,0,0-.08.04-.18,1.01,0,.08,0,.16-.02.24-.06-.01-.12-.02-.18-.03.02-.66-.02-1.39-.13-.8-.06.31-.11.55-.14.79-.12-.54-.23-.86-.23-.86.03.21.06.42.09.62.01.09.02.17.03.26-.18,0-.4.01-.62.01.07-.66.12-1.37.12-1.37-.11.21-.32.74-.5,1.37-.09,0-.17,0-.23,0,.24-.55.47-.96.47-.96,0,0-.38.3-.72.99-.07.03-.14.09-.26.2-.08.08-.16.22-.22.39,0,0,0,0,0,0-.02.06-.05.12-.07.18,0,.01,0,.03-.01.04,0,0,0,.02,0,.03-.02-.23-.06-.45-.1-.75-.07-.51-.03-.94,0-1.14-.12.66-.13,1.24-.14,1.8-.23-.12-.41-.19-.51-.22-.1-.58-.22-1.01-.29-1.25.02-.04.04-.07.04-.07,0,0-.02.01-.05.03-.04-.12-.06-.19-.06-.19.01.07.02.14.03.21-.09.07-.26.22-.44.44-.17-.6-.16-1.01-.16-1.01,0,0-.08.31.08,1.1-.09.12-.18.25-.27.4-.09-.15-.18-.29-.27-.4.16-.79.08-1.1.08-1.1,0,0,0,.41-.16,1.01-.19-.22-.35-.37-.44-.44.01-.07.02-.14.03-.21,0,0-.02.07-.06.19-.03-.02-.05-.03-.05-.03,0,0,.02.03.04.07-.07.24-.19.67-.29,1.25-.1.03-.28.1-.51.22,0-.56-.02-1.14-.14-1.8.03.2.07.63,0,1.14-.04.3-.08.52-.1.75,0,0,0-.02,0-.02,0-.01,0-.03-.01-.04-.02-.06-.04-.13-.07-.18,0,0,0,0,0,0-.07-.17-.14-.31-.22-.39-.12-.11-.19-.17-.26-.2-.24-.48-.49-.76-.62-.9v.09c.09.17.23.44.37.77-.06,0-.13,0-.23,0-.05-.16-.09-.31-.14-.46v22.72h83.77ZM3.47,28.18s-.04.07-.06.12c-.01-.04-.02-.09-.03-.13.03,0,.06,0,.09,0ZM3.28,30.04s.03-.05.05-.07c.01.04.03.09.04.13-.04,0-.06,0-.06.01,0-.02-.02-.05-.03-.07ZM3.48,30.57s-.04-.05-.07-.07c-.03-.12-.05-.23-.09-.33,0-.02-.02-.04-.02-.06,0,0,.03.02.08.04.03.11.07.22.1.33,0,.03,0,.06,0,.09ZM3.61,29.2s-.01.01-.02.02c-.02-.13-.05-.26-.07-.39.05.02.09.05.14.08-.01.08-.03.18-.04.29ZM3.5,28.71s0-.03,0-.05c.03-.18.06-.35.09-.48.03,0,.07,0,.1.01,0,0,0,0,0,0,.07.17.13.35.18.52.02.08.04.14.06.21,0,0-.01.01-.02.02-.06-.05-.13-.1-.19-.14,0-.13,0-.21,0-.21,0,0-.01.07-.03.19-.06-.03-.12-.06-.18-.09ZM3.7,28.94s.07.05.11.08c-.04.03-.07.06-.11.09,0-.06,0-.12,0-.18ZM3.75,33.33s0,0,0,0c0,0,0,0,0,0,0,0,0,0,0,0ZM3.81,30.09s-.03,0-.05,0c0-.05-.02-.09-.03-.14.03.05.05.1.08.15,0,0,0,0,0,0ZM3.86,29.94s0-.05.01-.07c0,0,0,.02-.02.06-.05-.08-.1-.16-.15-.23,0-.08,0-.15,0-.23.09-.1.17-.2.26-.3,0,0,0,0,0,0,.05.21.07.39.08.56-.06.08-.11.15-.17.24,0-.01-.01-.02-.02-.03ZM4.1,28.79c-.02-.07-.03-.15-.05-.22.03.06.05.12.08.2,0,0,0,0,0,0,0,0-.02.01-.03.02ZM4.17,29.09s-.02-.07-.03-.11c.01-.01.02-.02.04-.04.03.1.07.22.11.35,0,.04,0,.08,0,.12-.03-.05-.07-.11-.1-.16,0-.05-.02-.1-.03-.16ZM4.38,30.22c-.02-.09-.05-.22-.08-.41.01.02.03.05.04.07.01.1.02.21.04.34,0,0,0,0,0,0ZM4.56,29.09s.03.03.04.04c-.01.01-.03.02-.04.04,0-.03,0-.05,0-.08ZM4.84,29.49s-.03-.04-.03-.04c0,0,0,.03.01.07-.05.1-.11.21-.16.32-.02-.08-.05-.16-.07-.24,0-.1-.02-.2-.02-.3.03-.04.05-.08.08-.11.07.08.13.18.2.27,0,0-.01.02-.02.03ZM4.94,29.05s0,.04,0,.06c-.01.07-.03.13-.04.2-.06-.07-.12-.12-.18-.17.08-.09.16-.17.25-.24,0,.05-.02.1-.02.16ZM4.97,28.86c-.07.04-.17.11-.31.23-.04-.03-.07-.06-.1-.08,0-.12,0-.25,0-.37.16-.13.33-.23.5-.32-.03.17-.06.36-.08.55ZM6.16,28.91s0,.02,0,.02c0,0,0,.01,0,.02,0,0,0-.01,0-.02,0,0,0-.02,0-.02ZM5.2,28.86c0-.1.01-.21.02-.32.11-.19.23-.31.33-.39,0,.02,0,.04,0,.07-.1.21-.2.42-.35.65,0,0,0,0,0-.01ZM5.21,30.18s0-.02,0-.03c0-.05,0-.1,0-.14.03.05.06.1.09.15-.02,0-.05.01-.08.02ZM5.41,29.96c-.07-.12-.15-.22-.23-.32,0,0,0-.02,0-.02,0-.02,0-.05,0-.07.02-.02.03-.04.03-.04,0,0-.02.01-.03.02,0-.02,0-.04,0-.06.11-.25.22-.48.31-.7-.03.39-.07.84-.08,1.19ZM5.6,28.07s-.02-.08-.03-.11c0,0,0,.05-.01.12-.1.04-.22.12-.33.28,0,0,0-.02,0-.03,0-.06,0-.12.01-.18.02-.23.05-.48.08-.74.01-.11.03-.23.05-.34.08.13.21.38.35.69-.01.04-.03.08-.04.12,0,0-.01-.02-.01-.02,0,0,0,.02,0,.04-.02.05-.04.1-.06.15,0,0,0,0-.01,0ZM5.77,28.97c-.03-.24-.07-.45-.11-.63.02-.05.04-.1.05-.15.03.17.07.38.11.6-.02.06-.04.11-.05.17ZM5.95,28.41c-.07-.15-.13-.27-.18-.36.01-.04.02-.07.03-.11.06.13.12.27.18.42,0,.02-.02.03-.03.05ZM6.35,28.36c.06-.15.12-.28.18-.42.01.04.02.07.03.11-.05.09-.11.22-.18.36,0-.02-.02-.04-.03-.05ZM6.55,28.97c-.01-.06-.04-.11-.05-.17.04-.23.08-.44.11-.6.02.05.03.1.05.15-.04.17-.07.39-.11.63ZM6.76,27.96s-.02.07-.03.11c0,0,0,0-.01,0-.02-.05-.04-.1-.06-.15,0-.01,0-.03,0-.04,0,0,0,.01-.01.02-.02-.04-.03-.08-.04-.12.15-.31.28-.55.35-.69.02.11.04.23.05.34.03.26.06.5.08.73,0,.06,0,.12.01.18,0,0,0,.02,0,.02-.11-.16-.24-.25-.33-.28,0-.07-.01-.12-.01-.12ZM6.78,28.23s0-.05,0-.07c.1.07.23.19.33.39,0,.11.01.22.02.32,0,0,0,0,0,.01-.14-.22-.25-.44-.35-.65ZM7.39,29.11s0-.04,0-.06c0-.06-.01-.11-.02-.16.09.07.17.15.25.24-.06.05-.12.11-.18.17-.01-.07-.02-.13-.04-.2ZM7.73,29.6c-.02.08-.04.16-.07.24-.05-.11-.11-.22-.16-.32,0-.04.01-.07.01-.07,0,0-.01.01-.03.04,0-.01-.01-.02-.02-.03.07-.09.13-.18.2-.27.03.03.06.07.08.11,0,.1-.02.2-.02.3ZM7.76,29.17s-.03-.02-.04-.04c.01-.02.03-.03.04-.04,0,.03,0,.05,0,.08ZM7.77,29s-.07.05-.1.08c-.13-.11-.24-.18-.31-.23-.03-.2-.05-.38-.08-.55.17.09.34.2.5.32,0,.12,0,.25,0,.37ZM7.95,30.22s0,0,0,0c.02-.13.03-.25.04-.34.01-.02.03-.05.04-.07-.04.19-.06.32-.08.41ZM8.16,29.09c-.01.06-.02.11-.03.16-.04.05-.07.11-.1.16,0-.04,0-.08,0-.12.04-.13.08-.25.11-.35.01.01.02.02.04.04,0,.04-.02.07-.03.11ZM8.2,28.77s0,0,0,0c.02-.08.05-.14.08-.2-.02.07-.03.15-.05.22,0,0-.02-.01-.03-.02ZM8.28,30.14s0-.03,0-.05c0,.01.02.03.02.04,0,0-.02,0-.02,0ZM8.39,30.44s.02,0,.02-.01c0,0,.01,0,.02,0,0,0,0,.02.01.03-.02,0-.03,0-.05-.01ZM8.57,30.08s-.03,0-.05,0c0,0,0,0,0,0,.03-.05.05-.1.08-.15,0,.05-.02.1-.03.14ZM8.62,29.69c-.05.07-.1.15-.15.23-.01-.04-.02-.06-.02-.06,0,.03,0,.05.01.07,0,.01-.01.02-.02.03-.06-.09-.11-.16-.17-.24,0-.17.03-.35.08-.56,0,0,0,0,0,0,.09.1.18.2.26.3,0,.07,0,.15,0,.23ZM8.52,29.02s.07-.06.11-.08c0,.05,0,.11,0,.18-.04-.03-.07-.06-.11-.09ZM8.73,29.21s-.01-.01-.02-.02c-.02-.11-.03-.21-.04-.29.05-.03.09-.05.14-.08-.03.13-.05.26-.07.39ZM8.83,28.71c-.06.02-.12.05-.18.09-.02-.12-.03-.19-.03-.19,0,0,0,.08,0,.21-.06.04-.13.08-.19.14,0,0-.01-.01-.02-.02.02-.07.03-.13.06-.21.05-.18.11-.35.18-.52,0,0,0,0,0,0,.03,0,.07,0,.1-.01.02.13.05.3.09.48,0,.02,0,.03,0,.05ZM8.92,28.3s-.04-.08-.06-.12c.03,0,.06,0,.09,0-.01.04-.02.08-.03.13ZM9.24,29.1c.02-.11.05-.22.07-.33.07.15.13.31.19.47-.06.07-.11.15-.17.22-.03-.13-.06-.25-.1-.37ZM9.48,30.03s-.05.01-.07.02c0,0,0-.01-.01-.02,0-.04,0-.08,0-.12,0,0,0-.02,0-.02.04-.08.08-.16.12-.24-.01.12-.02.25-.03.38ZM9.59,29.03c-.08-.17-.16-.33-.24-.47.02-.12.04-.26.06-.41.13,0,.25-.02.36-.03-.05.2-.12.53-.18.92ZM9.83,28.1c.06,0,.11-.02.17-.03.03,0,.07-.01.11-.02,0,.05.01.1.02.15,0,.04,0,.08,0,.12,0,.1,0,.22,0,.34-.08.06-.17.13-.25.21-.03-.33-.05-.61-.07-.76,0,0,.02,0,.02,0ZM10.02,29.98s-.04,0-.06,0c0-.03,0-.07,0-.1.04-.02.07-.04.11-.06-.01.06-.03.11-.04.17ZM9.94,29.79c-.01-.23-.03-.48-.05-.72.08-.1.16-.19.24-.27,0,.12,0,.25.02.38,0,.04,0,.08,0,.12-.01.07-.04.23-.08.42-.04.02-.08.03-.13.05ZM10.17,29.98s-.05,0-.07,0c.01-.07.02-.14.03-.21.02,0,.03-.02.05-.03,0,.08,0,.16-.01.24ZM10.18,29.69s0,0,0,0c-.01,0-.03.01-.04.02.02-.15.02-.26.03-.34,0,.06.01.13.02.2,0,.02,0,.05,0,.08,0,.01,0,.03,0,.04ZM10.46,27.97s.02,0,.03,0c.01,0,.03,0,.04-.01.04-.01.07-.02.11-.03,0,.15-.01.29-.02.43-.05.03-.11.06-.17.09,0-.16,0-.32,0-.48ZM10.65,30.42s0-.02,0-.03c0,0,0,0,0,0,0,0,0,.02,0,.03ZM10.73,29.99s-.09,0-.13,0c-.02-.15-.05-.3-.07-.45-.05-.35-.07-.69-.07-1.02.06-.05.12-.09.17-.13,0,.57.04,1.1.11,1.6,0,0,0,0,0,.01ZM11.12,29.99s-.03,0-.05,0c-.01-.08-.02-.16-.03-.25.05-.56.04-.89,0-1.23.05.04.11.09.17.14,0,.14,0,.26-.01.37,0,.22,0,.43.01.63-.05-.01-.08-.02-.08-.02.03.01.05.03.08.05,0,.1.01.21.02.31-.03,0-.07,0-.11,0ZM13.09,28.95s0,.01,0,.02c0,0,0,0-.01,0,0,0,0,0,0-.01ZM13.15,29.18s0,.04.01.06c-.08.02-.15.03-.2.04.03-.07.06-.14.09-.21.04.03.07.07.1.11ZM11.78,29.31s.04.06.06.09c0,.03,0,.06,0,.09-.02.02-.03.04-.05.06,0-.08,0-.16,0-.24ZM11.79,29.69s.03-.05.05-.08c0,.11,0,.22,0,.33-.02-.01-.03-.02-.05-.03,0-.07,0-.15,0-.22ZM11.8,30.69s0-.02,0-.04c0,0,0,.01.01.02,0,0,0,0-.01.01ZM11.8,30.16s0-.08,0-.11c.02.01.04.03.05.04,0,.04,0,.08,0,.12-.02-.02-.04-.04-.06-.05ZM12.05,30.43c0-.06,0-.11,0-.17.03.03.06.06.09.09-.03.03-.06.05-.1.08ZM12.07,30.08c0-.09,0-.17.01-.25.05.11.1.23.14.36-.05-.04-.1-.08-.15-.11ZM12.42,29.88c-.01-.1-.02-.16-.02-.16.01.06.01.11.02.16,0,.01,0,.03-.01.04-.08-.2-.19-.37-.3-.53,0-.07.01-.13.02-.2,0,0,0,0,0,0,0,0,0-.01.01-.01.01-.01,0-.01,0,0,.01-.1.03-.23.06-.38.07.37.16.69.25,1.01,0,.02-.02.05-.03.07ZM12.66,30.57s-.05-.05-.07-.07c0,0,0-.01,0-.02.01-.05.02-.09.04-.13.01.04.03.08.04.13,0,.03,0,.06,0,.09ZM12.83,28.91c-.03.06-.06.1-.09.16-.02-.08-.03-.17-.05-.25.05.02.09.05.14.08,0,0,0,0,0,0ZM12.88,28.81c0-.13,0-.21,0-.21,0,0-.01.07-.03.19-.06-.03-.12-.06-.18-.09-.03-.13-.05-.25-.08-.38-.06-.25-.12-.49-.19-.71.02-.11.04-.22.06-.33.17.35.38.83.54,1.32-.04.06-.07.14-.11.21,0,0,0,0,0,0ZM12.98,30.1s-.03,0-.04,0c0-.04-.02-.09-.03-.13,0,0,0,0,0,0,.02.04.05.09.07.13,0,0,0,0,0,.01ZM13.01,29.89s.03-.01.04-.02c0,0,0,.02-.02.05,0-.01-.01-.02-.02-.03ZM13.23,30.15s-.05-.01-.08-.02c-.04-.07-.07-.13-.11-.2,0-.02,0-.05.01-.07,0,0,.01,0,.02-.01.05-.02.1-.04.16-.05,0,.11,0,.22,0,.35ZM13.47,28.85c-.06-.04-.11-.07-.11-.07.04.03.07.07.11.1,0,.09,0,.19,0,.29-.03,0-.07.01-.1.02,0-.03-.01-.06-.02-.1-.03-.16-.07-.3-.1-.44.1-.19.2-.37.31-.54-.04.27-.07.49-.08.74ZM13.81,29.9c-.01-.08-.02-.17-.03-.25.06-.02.13-.04.19-.06-.05.1-.1.2-.15.31ZM14.12,29.02c-.05.01-.1.03-.16.04.07-.16.14-.31.21-.43-.02.13-.04.26-.05.4ZM14.58,30.04c-.07-.12-.15-.23-.22-.33,0-.02,0-.04,0-.06,0-.02,0-.03,0-.04,0-.05,0-.1,0-.14,0-.01,0-.02.01-.03.02,0,.04-.02.07-.03.03-.01.05-.03.08-.04.04-.02.07-.03.11-.05-.02.26-.03.51-.04.72ZM14.66,28.89s-.03,0-.04.01c.02-.05.04-.09.05-.13,0,.04,0,.08,0,.12ZM14.72,28.23c-.1.21-.2.43-.35.65,0,0,0,0,0-.01,0-.1.01-.21.02-.32.11-.19.23-.31.33-.39,0,.02,0,.04,0,.07ZM14.77,28.07s-.02-.08-.03-.11c0,0,0,.05-.01.12-.1.04-.22.12-.33.28,0,0,0-.02,0-.02,0-.04,0-.09.01-.13.06-.1.1-.16.1-.16-.03.02-.06.05-.1.07.02-.22.04-.45.08-.7.01-.09.03-.18.04-.27.09.15.21.4.34.68-.03.07-.06.15-.09.22,0,0,0,0-.01,0ZM14.99,28.83s-.04,0-.06,0c-.03-.19-.06-.35-.09-.49.04-.11.08-.22.12-.33.06.13.11.27.17.41-.05.13-.09.27-.13.41ZM15.24,29.3s0-.03.01-.05c0,0,0,0,0,0,0,.02,0,.03-.01.05ZM15.25,29.25s0,0,0,0c0-.02,0-.03,0-.04,0,0,0,0,0,.01,0,.01,0,.02,0,.04ZM15.5,28.42c.05-.14.11-.28.17-.41,0,.03.02.06.03.1-.05.1-.11.22-.18.37,0-.02-.01-.04-.02-.06ZM15.67,28.97s-.01-.04-.02-.07c.04-.22.08-.43.11-.61,0,.02.01.03.02.05-.04.17-.07.39-.11.63ZM15.88,27.96s-.02.07-.03.11c0,0,0,0-.01,0,0-.02-.01-.03-.02-.05,0-.06.01-.11.02-.14,0,0-.02.03-.04.07-.02-.04-.02-.07-.04-.11.13-.28.26-.52.34-.68.01.09.03.18.04.26.03.26.06.5.08.74,0,.06,0,.11.01.17,0,0,0,.02,0,.03-.11-.16-.24-.25-.33-.28,0-.07-.01-.12-.01-.12ZM15.9,28.16c.1.07.23.19.33.39,0,.11.01.22.02.32,0,0,0,0,0,0-.14-.22-.25-.44-.35-.65,0-.03,0-.05,0-.07ZM16.24,30.15s0,.02,0,.03c-.01,0-.02,0-.03,0,.01-.02.02-.04.03-.06,0,.01,0,.03,0,.04ZM16.26,29.65s0,.04,0,.06c-.08.1-.15.21-.22.33-.01-.36-.05-.86-.09-1.28.09.22.2.46.31.7,0,.02,0,.04,0,.06,0,0-.02-.01-.03-.02,0,0,.01.02.03.04,0,.02,0,.05,0,.07,0,.01,0,.02,0,.04ZM16.51,29.11s0-.04,0-.06c0-.06-.01-.11-.02-.16.09.08.19.17.27.27-.06.06-.13.12-.2.2-.01-.08-.03-.16-.05-.25ZM16.85,29.6c-.02.08-.04.16-.07.24-.05-.11-.11-.22-.16-.32,0-.01,0-.02,0-.03.06-.09.12-.18.19-.26.02.02.04.05.06.08,0,.1-.02.2-.02.3ZM16.88,29.17s0,0-.01-.01c0,0,0,0,.01-.01,0,0,0,.02,0,.02ZM16.89,29.04s-.05.05-.07.07c-.14-.12-.26-.2-.33-.25-.03-.2-.05-.38-.08-.55.17.09.34.2.5.32,0,.14,0,.27-.01.41ZM17.06,30.23s0,0,0,0c.01-.09.02-.17.03-.24,0-.02.02-.03.03-.05-.02.13-.04.22-.06.29ZM17.12,29.73s.02-.05.03-.07c0,0,.01.02.02.03-.01.02-.03.03-.04.04ZM17.28,29.09c-.01.06-.02.11-.03.16-.04.05-.07.11-.1.16,0-.04,0-.08,0-.12.04-.13.08-.25.11-.35.01.01.02.02.04.04,0,.04-.02.07-.03.11ZM17.32,28.77s0,0,0,0c.02-.08.05-.14.08-.2-.02.07-.03.15-.05.22,0,0-.02-.01-.03-.02ZM17.4,30.15s0-.04,0-.06c0,.02.02.03.03.05-.01,0-.02,0-.03,0ZM17.55,30.44s0,0,.01,0c0,0,0,0,0,0,0,0,0,0-.01,0ZM17.59,29.94s-.01.02-.02.03c-.03-.05-.06-.1-.1-.14.05,0,.12,0,.2-.03-.02.04-.05.08-.07.12-.01-.04-.02-.06-.02-.06,0,.03,0,.05.01.07ZM17.69,30.09s-.03,0-.04,0c0,0,0,0,0-.01.03-.05.05-.1.08-.15,0,.05-.02.1-.03.15ZM17.74,29.62c-.13.06-.25.1-.33.13,0,0,0-.01-.01-.02,0-.08.01-.16.02-.24,0,0,.01-.02.01-.02,0,0,0,0-.01,0,.01-.09.03-.2.05-.31,0,0,0,0,0,0,.09.1.18.2.26.3,0,.05,0,.1,0,.15ZM17.64,29.02s.07-.06.11-.08c0,.05,0,.11,0,.18-.04-.03-.07-.06-.11-.09ZM17.85,29.21s-.01-.01-.02-.02c-.02-.11-.03-.21-.04-.29.05-.03.09-.05.14-.08-.03.13-.05.26-.07.39ZM17.95,28.71c-.06.02-.12.05-.18.09-.02-.12-.03-.19-.03-.19,0,0,0,.08,0,.21-.06.04-.13.08-.19.14,0,0-.01-.01-.02-.02.02-.07.03-.13.06-.21.05-.18.11-.35.18-.52,0,0,0,0,0,0,.03,0,.07,0,.1-.01.02.13.05.3.09.48,0,.02,0,.03,0,.05ZM18.04,28.3s-.04-.08-.06-.12c.03,0,.06,0,.09,0-.01.04-.02.08-.03.13ZM18.15,30.1s-.04,0-.06,0c.01-.04.03-.08.04-.12.02.02.03.05.05.07,0,.02-.02.04-.02.06ZM18.39,29.2s-.02-.06-.03-.09c.02-.11.05-.22.07-.33.04.09.08.18.11.27-.05.05-.09.09-.15.15,0,0,0,0,0,0ZM18.6,30.03s-.05.01-.07.02c0,0,0-.01-.01-.02,0-.04,0-.08,0-.12,0,0,0-.02,0-.02.04-.08.08-.16.12-.24-.01.12-.02.25-.03.38ZM18.74,28.85s-.05.05-.07.07c-.06-.14-.13-.26-.19-.37.02-.12.04-.26.06-.41.13,0,.25-.02.36-.03-.05.17-.1.43-.15.74ZM18.93,28.11s.02,0,.02,0c.03,0,.06-.01.09-.02,0,.12.02.26.03.41-.03.03-.07.07-.1.11-.02-.21-.03-.39-.04-.5ZM19.02,29.09s.08-.06.12-.09c.02.19.05.41.09.64,0,.03-.01.07-.02.1-.04.02-.08.03-.13.05-.01-.22-.03-.47-.05-.7ZM19.07,29.98s0-.07,0-.1c.04-.02.07-.04.11-.06-.01.06-.03.11-.04.17-.02,0-.04,0-.06,0ZM19.24,30.62c-.03-.11-.06-.21-.09-.32.03,0,.05.01.08.02.01,0,.03,0,.04,0,0,.1-.02.2-.03.29ZM19.22,29.98c.01-.06.02-.12.03-.17,0,.06.02.12.03.18-.02,0-.04,0-.05,0ZM19.74,30.58c-.01-.07-.02-.13-.03-.19.02,0,.04,0,.07,0-.01.06-.02.12-.03.18ZM19.76,29.99s-.08,0-.12,0c-.02-.12-.04-.25-.06-.38,0-.17-.02-.34-.04-.52-.01-.12-.03-.24-.05-.35.02,0,.04-.02.05-.02.08-.02.15-.04.22-.05-.05.47-.05.91-.01,1.33ZM19.83,28.23c-.14-.04-.29-.05-.41-.02-.01-.07-.03-.13-.04-.2.01,0,.02,0,.03,0,.02,0,.05-.01.07-.02.04-.01.08-.02.13-.03.01,0,.03,0,.04-.01.04-.01.08-.02.12-.03,0,0,.02,0,.03,0,.04-.01.07-.02.09-.03,0,0,0,0,0,0-.02.12-.04.24-.06.36ZM20.9,29.31s.04.06.06.09c0,.03,0,.06,0,.09-.02.02-.03.04-.05.06,0-.08,0-.16,0-.24ZM20.92,30.69s0-.02,0-.04c0,0,0,.01.01.02,0,0,0,0-.01.01ZM20.92,30.08s0-.02,0-.03c.01,0,.02.02.03.03-.01,0-.02,0-.03,0ZM20.91,29.91c0-.07,0-.15,0-.22.02-.03.03-.05.05-.08,0,.11,0,.22,0,.33-.02-.01-.03-.02-.05-.03ZM22.21,28.95s0,.01,0,.02c0,0,0,0-.01,0,0,0,0,0,0-.01ZM22.17,29.07s.07.07.1.11c0,.02,0,.04.01.06-.02,0-.04,0-.06.01-.03-.03-.06-.05-.09-.08.01-.03.03-.06.04-.1ZM22.16,29.87s0,.02-.02.05c0-.01-.01-.02-.02-.03.01,0,.03-.01.04-.02ZM21.2,29.83c.04.09.08.19.12.29-.02,0-.04-.01-.06-.01-.02,0-.03,0-.05,0,0,0-.01,0-.02-.01,0-.09,0-.17.01-.25ZM21.17,30.43s0-.04,0-.06h0s.03.01.05.02c-.02.01-.03.03-.05.04ZM21.29,30.85s0,0,0-.01c0-.02,0-.03-.01-.05-.01-.04-.03-.08-.04-.12.04-.05.09-.1.14-.14-.03.11-.05.21-.08.32ZM21.54,29.88c-.01-.1-.02-.16-.02-.16.01.06.01.11.02.16,0,.01,0,.03-.01.04-.08-.2-.19-.37-.3-.53,0-.07.01-.13.02-.2,0,0,0,0,0,0,0,0,0-.01.01-.01.01-.01,0-.01,0,0,.01-.1.03-.23.06-.38.05.25.1.48.16.7,0,0-.02-.01-.03-.02,0,0,.02.02.04.05.03.1.05.19.08.29,0,.02-.02.05-.03.07ZM21.87,29.07s0-.04-.01-.07c.01.01.02.02.03.03,0,.01-.01.02-.02.04ZM21.95,28.91s-.03.05-.04.07c-.03-.02-.05-.04-.08-.06,0-.03-.01-.07-.02-.1.05.02.09.05.14.08,0,0,0,0,0,0ZM22,28.81c0-.13,0-.21,0-.21,0,0-.01.07-.03.19-.06-.03-.12-.06-.18-.09-.03-.13-.05-.25-.08-.38-.06-.25-.12-.49-.19-.71.02-.11.04-.22.06-.33.17.35.38.83.54,1.32-.04.06-.07.14-.11.21,0,0,0,0,0,0ZM22.09,29.27s-.01,0-.02,0c0,0,0-.01,0-.02,0,0,0,0,0,.01ZM22.07,30.19c-.02-.07-.03-.15-.05-.23,0,0,0,0,0,0,.02.04.05.09.07.13,0,.03-.02.07-.03.1ZM22.12,30.29s-.01-.02-.02-.03c0,0,0,0,0,0,0-.04.01-.08.02-.11.03.06.05.11.08.17-.03,0-.05-.01-.08-.02ZM22.34,30.29c-.06-.13-.12-.24-.19-.35,0-.02,0-.05.01-.07,0,0,.01,0,.02-.01.05-.02.1-.04.16-.05,0,.14,0,.3,0,.48ZM22.58,29.17s-.07.01-.1.02c0-.03-.01-.06-.02-.1-.03-.16-.07-.3-.1-.44.1-.19.2-.37.31-.54-.05.38-.09.65-.08,1.07ZM23.25,27.34c.01.08.02.16.04.24-.04-.06-.08-.1-.12-.15.03-.03.06-.06.09-.09ZM22.76,27.12c.05.1.13.23.21.4-.05.05-.11.1-.16.16-.01-.18-.03-.37-.05-.57ZM23.07,30.48s-.02-.04-.03-.06c.01-.03.02-.05.04-.08,0,.05,0,.1-.01.14ZM22.93,29.9c-.01-.08-.02-.17-.03-.25.06-.02.13-.04.19-.06-.05.1-.1.2-.15.31ZM23.24,29.02c-.05.01-.1.03-.16.04.07-.16.14-.31.21-.43-.02.13-.04.26-.05.4ZM22.86,29.1c-.02-.41-.02-.81-.03-1.23.06-.09.13-.18.2-.26.1.21.21.45.32.71-.17.2-.33.46-.48.78ZM23.48,29.52s0-.04,0-.05c0-.01,0-.02.01-.03.01,0,.02,0,.03-.01-.01.03-.03.06-.05.1ZM23.84,28.23c-.03.06-.05.12-.08.18,0-.02-.01-.03-.02-.04,0-.04,0-.07-.01-.11.04-.04.08-.08.12-.1,0,.02,0,.04,0,.07ZM24,28.55c-.01-.08-.03-.14-.04-.21.01-.04.03-.08.04-.12.01.04.03.08.04.12-.01.07-.03.13-.04.21ZM24.24,28.41c-.03-.06-.05-.12-.08-.18,0-.03,0-.05,0-.07.05.03.1.08.15.13-.02.04-.04.08-.06.12ZM24.36,29.3s0-.03.01-.05c0,0,0,0,0,0,0,.02,0,.03-.01.05ZM24.37,29.25s0,0,0,0c0-.02,0-.03.01-.06,0,0,0-.01,0-.02,0,0,0,0,0,0,0,.02-.01.05-.02.07ZM24.49,28.85s0-.01-.01-.02c0-.02.01-.04.02-.07,0,.02,0,.04,0,.05,0,.01,0,.02-.01.04ZM24.67,28.41s0-.06-.01-.08c0,0,0,0,0-.01.01,0,.03.02.04.02-.01.02-.02.05-.03.07ZM25.11,29.6c-.02.08-.04.16-.07.24-.05-.11-.11-.22-.16-.32,0-.04.01-.07.01-.07,0,0-.01.01-.03.04-.01-.03-.03-.05-.04-.08-.02-.1-.03-.2-.05-.3,0-.02,0-.04,0-.06,0-.02,0-.04,0-.06,0-.02,0-.05.01-.07.13.11.25.24.36.38,0,.1-.02.2-.02.3ZM25.14,29.17c-.15-.13-.28-.23-.36-.29.03-.16.06-.32.09-.46.1.06.2.13.29.21,0,.18,0,.36-.02.54ZM25.16,28.51c-.11-.06-.2-.1-.28-.14.04-.23.07-.42.08-.49,0,0-.02.04-.06.1,0,0,0,0,0,0,0,0,0,0,0,0-.04.07-.1.18-.17.33-.02,0-.03-.01-.05-.02.21-.52.44-.96.56-1.17-.06.49-.07.95-.08,1.39ZM26.33,28.17s-.02.08-.03.13c-.02-.05-.04-.08-.06-.12.03,0,.06,0,.09,0ZM25.73,29.18s0,0,0,0c.02.02.04.04.06.06-.03.03-.07.07-.1.1,0-.05.02-.11.03-.16ZM25.32,30.23s0-.04,0-.06c0,0,0-.01,0-.02,0,.03-.01.06-.02.08ZM25.39,29.7s.01-.03.02-.04c0,0,0,0,0,0,0,.01-.02.02-.02.03ZM25.54,29.09c-.01.06-.02.11-.03.16-.04.05-.07.11-.1.16,0-.04,0-.08,0-.12.04-.13.08-.25.11-.35.01.01.02.02.04.04,0,.04-.02.07-.03.11ZM25.58,28.77s0,0,0,0c.02-.08.05-.14.08-.2-.02.07-.03.15-.05.22,0,0-.02-.01-.03-.02ZM25.65,30.29c0-.07,0-.14,0-.2.02.03.04.06.05.09-.02.03-.03.07-.05.1ZM25.8,30.44s-.04,0-.06,0c.01-.03.02-.06.03-.08.01.02.02.05.03.07,0,0,0,.01-.01.02ZM25.84,29.94s-.01.02-.02.03c-.03-.05-.06-.1-.1-.14.05,0,.12,0,.2-.03-.02.04-.05.08-.07.12-.01-.04-.02-.06-.02-.06,0,.03,0,.05.01.07ZM25.93,30.16s-.02-.03-.02-.04c0-.01,0-.02,0-.03.03-.05.05-.1.08-.15-.01.08-.03.15-.04.22ZM26,29.62c-.13.06-.25.1-.33.13,0,0,0-.01-.01-.02,0-.05,0-.1,0-.14.07-.1.14-.19.21-.28.04.05.09.1.13.15,0,.05,0,.1,0,.15ZM25.89,29.02s.07-.06.11-.08c0,.03,0,.07,0,.11-.01,0-.02.02-.04.03-.02-.02-.05-.04-.07-.06ZM26.11,29.21s-.01-.01-.02-.02c0-.04-.01-.08-.02-.12.02-.02.05-.05.07-.07-.01.07-.03.14-.04.2ZM26.16,28.93s-.06.05-.1.08c0-.03-.01-.07-.02-.1.05-.03.09-.05.14-.08,0,.03-.01.07-.02.1ZM26.2,28.71c-.06.02-.12.05-.18.09-.02-.12-.03-.19-.03-.19,0,0,0,.08,0,.21-.06.04-.13.08-.19.14,0,0-.01-.01-.02-.02.02-.07.03-.13.06-.21.05-.18.11-.35.18-.52,0,0,0,0,0,0,.03,0,.07,0,.1-.01.02.13.05.3.09.48,0,.02,0,.03,0,.05ZM26.38,30.17c-.03.1-.06.21-.09.33,0,0,0,0-.01.01-.02,0-.04.01-.05.01,0-.02,0-.03,0-.05.05-.17.11-.34.16-.51.02.02.03.05.05.07-.02.04-.04.09-.05.13ZM27.53,29.98s-.04,0-.05,0c.01-.06.02-.12.03-.17,0,.06.02.12.03.18ZM27.48,29.64s-.01.07-.02.1c-.04.02-.08.03-.13.05-.01-.22-.03-.47-.05-.7.04-.03.08-.06.12-.09.02.19.05.41.09.64ZM27.44,29.81c-.01.06-.03.11-.04.17-.02,0-.04,0-.06,0,0-.03,0-.07,0-.1.04-.02.07-.04.11-.06ZM26.65,29.2s-.02-.06-.03-.09c.02-.11.05-.22.07-.33.04.09.08.18.11.27-.05.05-.09.09-.15.15,0,0,0,0,0,0ZM26.86,30.03s-.05.01-.07.02c0,0,0-.01-.01-.02,0-.04,0-.08,0-.12,0,0,0-.02,0-.02.04-.08.08-.16.12-.24-.01.12-.02.25-.03.38ZM26.92,28.92c-.06-.14-.13-.26-.19-.37.02-.12.04-.26.06-.41.13,0,.25-.02.36-.03-.05.17-.1.43-.15.74-.02.02-.05.05-.07.07ZM27.19,28.11s.02,0,.02,0c.03,0,.06-.01.09-.02,0,.12.02.26.03.41-.03.03-.07.07-.1.11-.02-.21-.03-.39-.04-.5ZM27.41,30.3s.05.01.08.02c.01,0,.02,0,.03,0,0,.1-.02.2-.03.29-.03-.11-.06-.21-.09-.32ZM28,30.58c-.01-.07-.02-.13-.03-.19.02,0,.04,0,.07,0-.01.06-.02.12-.04.18ZM28.02,29.99s-.08,0-.12,0c-.02-.12-.04-.25-.06-.38,0-.17-.02-.34-.04-.52-.01-.12-.03-.24-.05-.35.02,0,.04-.02.05-.02.08-.02.15-.04.22-.05-.05.47-.05.91-.01,1.33ZM28.09,28.23c-.14-.04-.29-.05-.41-.02-.01-.07-.03-.13-.04-.2.01,0,.02,0,.03,0,.02,0,.05-.01.07-.02.04-.01.08-.02.12-.03.02,0,.03,0,.05-.01.04-.01.07-.02.11-.03.01,0,.03,0,.04-.01.03-.01.06-.02.09-.03,0,0,0,0,0,0-.02.12-.04.24-.06.36ZM30.47,28.95s0,.01,0,.02c0,0,0,0-.01,0,0,0,0,0,0-.01ZM30.53,29.18s0,.04.01.06c-.08.02-.15.03-.2.04.03-.07.06-.14.09-.21.04.03.07.07.1.11ZM30.42,29.87s0,.02-.02.05c0-.01-.01-.02-.02-.03.01,0,.03-.01.04-.02ZM29.45,29.83c.05.1.09.21.13.32-.04-.02-.07-.04-.07-.04,0,0,.03.02.08.04,0,.01,0,.02.01.04-.05-.04-.1-.08-.15-.11,0-.09,0-.17.01-.25ZM29.16,29.31s.04.06.06.09c0,.03,0,.06,0,.09-.02.02-.03.04-.05.06,0-.08,0-.16,0-.24ZM29.17,29.69s.03-.05.05-.08c0,.11,0,.22,0,.33-.02-.01-.03-.02-.05-.03,0-.07,0-.15,0-.22ZM29.17,30.05s.04.03.05.04c0,.04,0,.08,0,.12-.02-.02-.04-.04-.06-.05,0-.04,0-.08,0-.11ZM29.18,30.65s0,.01.01.02c0,0,0,0-.01.01,0-.01,0-.02,0-.03ZM29.44,30.26s.06.06.09.09c-.03.03-.06.05-.1.08,0-.06,0-.11,0-.17ZM29.54,30.83s0-.03-.01-.04c-.01-.04-.03-.08-.04-.12.04-.05.09-.1.14-.14-.03.11-.05.21-.08.32,0,0,0-.01,0-.02ZM29.8,29.88c-.01-.1-.02-.16-.02-.16.01.06.01.11.02.16,0,.01,0,.03-.01.04-.08-.2-.19-.37-.3-.53,0-.07.01-.13.02-.2,0,0,0,0,0,0,0,0,0-.01.01-.01.01-.01,0-.01,0,0,.01-.1.03-.23.06-.38.07.37.16.69.25,1.01,0,.02-.02.05-.03.07ZM30.03,30.57s-.05-.05-.07-.07c0,0,0-.01,0-.02,0-.04.02-.08.03-.12,0,0,0,0,0,0,.01.04.02.07.04.11,0,.03,0,.06,0,.09ZM30.21,28.91c-.03.06-.06.1-.09.16-.02-.08-.03-.17-.05-.25.05.02.09.05.14.08,0,0,0,0,0,0ZM30.26,28.81c0-.13,0-.21,0-.21,0,0-.01.07-.03.19-.06-.03-.12-.06-.18-.09-.03-.13-.05-.25-.08-.38-.06-.25-.12-.49-.19-.71.02-.11.04-.22.06-.33.17.35.38.83.54,1.32-.04.06-.07.14-.11.21,0,0,0,0,0,0ZM30.33,30.19c-.02-.07-.03-.15-.05-.23,0,0,0,0,0,0,.02.04.05.09.07.13,0,.03-.02.07-.03.1ZM30.36,30.33s0-.05,0-.07c0-.04.01-.08.02-.11.06.12.11.25.16.37-.05-.01-.1-.02-.15-.04-.01-.05-.02-.09-.03-.15ZM30.54,30.65s-.01-.04-.02-.06c0,0,0,.06-.02.17,0,.02-.01.05-.02.07-.02-.08-.04-.15-.06-.21,0-.02-.01-.04-.02-.06.03.01.06.02.09.03.02,0,.03.01.05.02,0,.02,0,.03-.01.05ZM30.6,30.29c-.06-.13-.12-.24-.19-.35,0-.02,0-.05.01-.07,0,0,.01,0,.02-.01.03,0,.05-.02.08-.03.03.04.05.09.08.14,0,.09,0,.2,0,.32ZM30.72,29.09s-.01-.04-.01-.06c.04.05.09.08.14.13,0,0,0,0,0,.01-.03,0-.07.01-.1.02,0-.03-.01-.06-.02-.1ZM30.84,29.75s0,0,0-.01c0,0,0,0,0,0,0,0,0,.01,0,.02ZM30.84,29.06c-.06-.05-.11-.09-.16-.12-.02-.1-.04-.2-.07-.29.1-.19.2-.37.31-.54-.05.34-.08.6-.08.96ZM33.32,28.54c0,.11.01.22.02.32,0,0,0,0,0,.01-.09-.13-.16-.27-.23-.4.01-.06.02-.12.03-.18.06.06.12.14.17.24ZM33.23,27.61c.02.19.04.38.06.55,0,.06,0,.12.01.18,0,0,0,.02,0,.03-.05-.07-.1-.12-.15-.17.03-.15.04-.26.05-.32,0,0-.02.04-.06.1,0,0,0,0,0,0,0,0,0,0,0,0-.02.04-.05.09-.08.15-.02-.01-.04-.02-.06-.03.08-.18.15-.34.22-.49ZM31.78,28.34s0-.09.01-.13c.06-.1.1-.16.1-.16-.03.02-.06.05-.1.07.01-.16.03-.34.06-.51.07.15.15.31.22.49-.02,0-.04.02-.06.03-.03-.06-.06-.11-.08-.15,0,0,0,0,0,0,0,0,0,0,0,0-.03-.06-.06-.1-.06-.1,0,.06.02.17.05.32-.05.04-.1.1-.15.17,0,0,0-.02,0-.03ZM31.97,28.48c-.07.13-.14.26-.23.4,0,0,0,0,0-.01,0-.1.01-.21.02-.32.05-.1.11-.18.17-.24.01.06.02.12.03.18ZM31.18,29.9c-.01-.09-.02-.17-.03-.25.01,0,.03,0,.04-.01.02.04.04.07.06.11-.02.05-.05.1-.07.16ZM31.32,30.59s-.02-.08-.03-.13c.02-.04.04-.08.06-.12,0,.09-.01.18-.02.25ZM31.49,29.02c-.05.01-.1.02-.16.04.07-.16.14-.31.21-.43-.02.13-.04.26-.05.4ZM31.11,29.1c-.02-.41-.02-.81-.03-1.23.17-.25.36-.47.56-.66.04.07.08.16.13.26-.06.23-.12.52-.18.85-.17.2-.33.46-.49.78ZM31.96,30.23c0,.14,0,.27,0,.41-.06-.15-.13-.3-.2-.43,0-.02,0-.03,0-.05-.01-.16-.02-.32-.02-.49,0-.01,0-.03,0-.04,0-.05,0-.1,0-.14,0-.01,0-.02.01-.03.02,0,.04-.02.07-.03.03-.01.06-.03.08-.04.03-.02.07-.03.1-.05-.02.34-.04.67-.05.9ZM32.04,28.89s-.03,0-.04.01c.01-.03.03-.07.04-.1,0,.01,0,.03,0,.04,0,.02,0,.03,0,.05ZM32.09,28.23s0,.02-.01.03c-.01-.02-.02-.04-.03-.06.02-.01.03-.02.05-.04,0,0,0,0,0,0,0,.02,0,.04,0,.07ZM32.33,28.83s-.03-.07-.04-.11c0-.05-.02-.1-.03-.15.03.09.06.17.09.26,0,0-.01,0-.02,0ZM32.35,27.94c.03-.09.05-.18.07-.26.07-.33.11-.59.12-.77.01.19.05.44.12.77.02.08.04.17.07.26-.07.12-.13.25-.19.39-.06-.14-.12-.27-.19-.39ZM32.8,28.72s-.04.1-.06.15c0,0,0,0-.02,0,.03-.1.06-.19.1-.29,0,.05-.02.1-.03.15ZM33,28.26s0-.02-.01-.03c0-.02,0-.04,0-.07,0,0,0,0,0,0,.02.01.03.02.05.04-.01.02-.02.04-.03.06ZM33.05,28.8c.09.21.19.44.3.67,0,.05,0,.1,0,.14,0,.01,0,.03,0,.04,0,.12,0,.23-.01.34-.07,0-.14,0-.21,0-.01-.33-.05-.77-.08-1.15,0-.01,0-.03,0-.04ZM33.12,30.63c0-.09,0-.18,0-.28.02,0,.04,0,.05,0,.02,0,.04,0,.05,0-.04.08-.08.17-.11.26ZM33.77,30.59c0-.05-.01-.11-.02-.17,0,0,.02,0,.03,0,0,.02.01.03.02.05-.01.04-.02.08-.03.13ZM33.9,29.9c-.02-.05-.05-.11-.07-.16.04-.06.07-.12.11-.18-.01.11-.02.22-.04.33ZM33.96,29.33c-.07.07-.15.15-.22.25-.01-.02-.02-.04-.03-.06,0-.04.01-.07.01-.07,0,0-.01.01-.03.04-.01-.03-.03-.05-.04-.08-.02-.1-.03-.2-.05-.3,0-.02,0-.04,0-.06-.03-.3-.08-.57-.12-.81.07.04.27.16.51.37,0,.24-.01.48-.03.72ZM34.35,28.98s-.07.05-.1.08c0-.07,0-.14,0-.2.04.04.07.08.11.12ZM34.2,29.99s-.01,0-.02,0c0-.06.01-.11.02-.16,0,.03,0,.06.01.09,0,.02,0,.05-.01.07ZM34.25,29.74s0,0,0,0c0-.02-.01-.04-.02-.06.01-.03.03-.05.05-.08,0,.05-.02.1-.03.15ZM34.36,29.09c-.01.06-.02.11-.03.16-.04.05-.07.11-.1.16,0-.09,0-.18.01-.25.04-.05.09-.09.14-.13,0,.02-.01.04-.01.06ZM35.56,28.57c.02-.13.04-.31.07-.5.08.21.17.44.23.66.03.09.05.17.07.25-.07-.06-.15-.12-.22-.16,0-.13,0-.21,0-.21,0,0-.01.07-.03.19-.05-.03-.1-.05-.14-.07,0-.05.02-.11.03-.16ZM35.87,29.07c-.06.06-.12.13-.17.2,0-.12,0-.23,0-.33.06.04.11.08.17.13ZM34.67,28.72c.06-.22.15-.44.23-.66.02.19.04.36.07.5,0,.06.02.11.03.16-.05.02-.09.04-.14.07-.02-.12-.03-.19-.03-.19,0,0,0,.08,0,.21-.07.04-.15.1-.22.16.02-.08.04-.15.07-.25ZM34.67,29.94s0,0,0,0c-.05-.03-.09-.05-.13-.07.09-.15.17-.26.21-.32.03.05.05.09.08.14,0,0,0,0,0,0-.05.07-.1.15-.15.23-.01-.04-.02-.06-.02-.06,0,.03,0,.05.01.07ZM34.66,29.07c.06-.05.11-.09.17-.13,0,.09,0,.2,0,.33-.06-.07-.11-.13-.17-.2ZM34.55,29.23c.07.09.13.19.19.29-.09.06-.17.13-.26.23,0-.16.03-.32.07-.52ZM34.48,29.97s0-.01.01-.02c.04.03.08.06.12.09-.01.02-.03.05-.04.08-.03-.03-.06-.05-.09-.07,0-.03,0-.06,0-.08ZM34.62,30.75s-.03-.06-.05-.09c0-.04,0-.07,0-.07,0,.01,0,.03-.01.04,0-.01-.01-.02-.02-.03,0,0,.02,0,.03,0,.02.02.05.05.07.09,0,.02-.01.05-.02.08ZM34.68,30.22s0,0,0,0c.01-.02.02-.05.03-.07,0,.04.01.08.02.11,0,0,0,.01,0,.02-.01-.02-.03-.04-.04-.06ZM34.76,30.19s0-.02,0-.03c0,0,0,0,.01.01,0,0,0,.01,0,.02ZM34.81,29.94s-.01.05-.02.08c0,0-.01,0-.02-.01.01-.02.02-.05.04-.07ZM34.93,29.26c-.02-.14-.04-.26-.05-.36.05-.03.09-.05.14-.08-.03.15-.06.29-.08.43ZM35.05,30.57s0-.06,0-.09c0-.01,0-.02.01-.03.02.02.04.04.06.06-.02.02-.04.04-.06.06ZM35.28,29.98s0-.04,0-.06c0,.03,0,.05,0,.07,0,0,0,.02-.01.03,0,0,0-.02-.01-.03,0-.03,0-.05,0-.07,0,.02,0,.04,0,.06,0-.02-.01-.04-.02-.06,0-.01,0-.03.01-.04,0,.01,0,.03,0,.04,0-.02,0-.03,0-.04,0-.03.02-.05.02-.08,0,.03.02.05.02.08,0,.02,0,.02,0,.04,0-.01,0-.03,0-.04,0,.01,0,.03.01.05,0,.02-.01.04-.02.06ZM35.26,27.78c-.03-.11-.06-.21-.09-.32.03-.07.06-.14.09-.2.03.06.06.13.09.2-.03.1-.06.21-.09.32ZM35.48,30.57s-.04-.04-.06-.06c.02-.02.04-.04.06-.06,0,.01,0,.02.01.03,0,.03,0,.06,0,.09ZM35.6,29.26c-.03-.14-.05-.29-.08-.43.05.02.09.05.14.08-.02.1-.03.22-.05.36ZM35.74,30.02s-.01-.05-.02-.08c.01.02.02.05.04.07,0,0-.01,0-.02.01ZM35.86,29.94s0-.05.01-.07c0,0,0,.02-.02.06-.05-.08-.1-.16-.15-.23,0,0,0,0,0,0,.09-.17.18-.32.28-.46.03.13.05.26.05.37-.06-.05-.12-.09-.18-.13,0,0,.08.1.19.27,0,.03,0,.07,0,.1-.06.03-.12.06-.19.1,0,0,0,0,0,0ZM35.98,30.63s0-.03-.01-.04c0,0,0,.03,0,.07-.02.03-.03.06-.05.09,0-.03-.01-.05-.02-.08.04-.05.08-.09.11-.12,0,0,0,0,0,0,0,0,0,0,0,0-.01.02-.02.04-.03.07ZM36.05,30.05s-.05.04-.09.07c-.01-.03-.03-.05-.04-.08.04-.03.08-.07.13-.1,0,.04,0,.07,0,.11ZM36.29,28.86s0,.06,0,.09c-.02-.01-.03-.03-.05-.04.02-.02.03-.04.05-.06ZM36.16,29.09s-.01-.05-.02-.07c.02-.02.04-.05.06-.07.03.03.05.05.08.08,0,.12,0,.24.01.39-.03-.05-.07-.11-.1-.16,0-.05-.02-.1-.03-.16ZM36.28,29.74s0,0,0,0c0-.05-.02-.09-.03-.15.01.03.03.05.05.08,0,.02-.01.04-.02.06ZM36.31,29.91s.01-.06.01-.09c0,.04.01.09.02.14,0-.01-.02-.02-.03-.04,0,0,0-.01,0-.02ZM36.63,29.9c-.03-.18-.05-.36-.06-.54.07.09.13.17.19.26-.05.09-.09.18-.14.28ZM36.93,29.05s0,.04,0,.06c-.02.1-.04.2-.05.3-.01.02-.02.05-.04.07-.1-.11-.19-.21-.28-.29,0-.19-.01-.38-.02-.57.24-.21.45-.34.51-.37-.04.25-.09.52-.12.81ZM37.19,28.86c0-.1.01-.21.02-.32.11-.19.23-.31.33-.39,0,.02,0,.04,0,.07-.1.21-.2.42-.35.65,0,0,0,0,0-.01ZM37.19,29.95c0-.1-.01-.19-.01-.29,0-.01,0-.03,0-.04,0-.05,0-.1,0-.14.11-.25.22-.48.31-.7-.03.4-.07.87-.08,1.22-.06,0-.12,0-.19,0,0-.01-.02-.03-.03-.04ZM37.61,28.07s0,0-.01,0c-.01-.04-.02-.08-.03-.11,0,0,0,.05-.01.12-.1.04-.22.12-.33.28,0,0,0-.02,0-.03,0-.06,0-.11.01-.17.02-.24.05-.48.08-.74,0-.01,0-.02,0-.04.09.17.2.39.3.64,0,.01-.01.03-.02.04ZM37.77,28.97c-.03-.24-.07-.45-.11-.63.02-.04.03-.08.04-.12.05.12.1.25.14.37,0,.03,0,.06.01.09-.03.1-.07.18-.09.29ZM38.25,28.69s0-.03-.01-.04c.05-.15.11-.29.16-.43,0,.02.02.05.03.07-.06.12-.12.25-.18.4ZM38.54,27.96s-.02.07-.03.11c0,0,0,0-.01,0,0-.01-.01-.03-.02-.04.11-.24.21-.46.3-.64,0,.01,0,.03,0,.04.03.26.06.5.08.74,0,.06,0,.12.01.18,0,0,0,.02,0,.03-.09-.13-.19-.21-.27-.25.02-.11.03-.19.03-.23,0,0-.02.04-.06.1,0,0,0,0,0,0,0,0,0,0,0,0-.01.02-.02.04-.04.07,0-.05,0-.09,0-.09ZM38.61,28.19c.09.08.2.19.29.36,0,.11.01.22.02.32,0,0,0,0,0,.01-.13-.21-.23-.41-.33-.6,0-.03.01-.06.02-.09ZM38.86,30.67s0,.03,0,.04c-.03,0-.05.02-.08.03.03-.07.06-.14.1-.22,0,.05,0,.1-.01.15ZM38.93,29.65c0,.1,0,.2-.01.3-.04.06-.08.13-.12.2-.03,0-.06-.01-.09-.02,0-.36-.05-.91-.09-1.36.09.22.2.46.31.7,0,.02,0,.04,0,.06,0,0-.02-.01-.03-.02,0,0,.01.02.03.04,0,.02,0,.05,0,.07,0,.01,0,.02,0,.04ZM39.23,29.41c-.02-.1-.03-.2-.05-.3,0-.02,0-.04,0-.06,0-.06-.01-.11-.02-.16.12.1.23.22.34.34-.07.07-.15.15-.23.24-.01-.02-.02-.05-.04-.07ZM39.52,29.6c-.02.08-.04.16-.07.24-.04-.07-.07-.14-.11-.21.06-.09.13-.17.19-.26,0,.08-.01.16-.02.24ZM39.55,29.17c-.17-.15-.32-.26-.4-.31-.03-.2-.05-.38-.08-.55.17.09.34.2.5.32,0,.18,0,.36-.02.54ZM40.74,28.17s-.02.08-.03.13c-.02-.05-.04-.08-.06-.12.03,0,.06,0,.09,0ZM39.79,29.93s-.02.02-.03.04c0-.05.01-.1.02-.14,0-.03,0-.06,0-.09,0-.02.02-.05.03-.07,0,.01.01.02.02.03-.02.09-.03.17-.04.24ZM39.94,29.09c-.01.06-.02.11-.03.16-.04.05-.07.11-.1.16,0-.04,0-.08,0-.12.04-.13.08-.25.11-.35.01.01.02.02.04.04,0,.04-.02.07-.03.11ZM39.99,28.77s0,0,0,0c.02-.08.05-.14.08-.2-.02.07-.03.15-.05.22,0,0-.02-.01-.03-.02ZM40.06,30.29c0-.07,0-.14,0-.2.02.03.04.06.05.09-.02.03-.03.07-.05.1ZM40.22,30.45s-.05,0-.07-.01c.01-.03.02-.06.03-.08.01.03.03.06.04.1,0,0,0,0,0,0ZM40.25,29.94s-.01.02-.02.03c-.03-.05-.06-.1-.1-.14.05,0,.12,0,.2-.03-.02.04-.05.08-.07.12-.01-.04-.02-.06-.02-.06,0,.03,0,.05.01.07ZM40.34,30.16s-.02-.03-.02-.04c0-.01,0-.02,0-.03.03-.05.05-.1.08-.15-.01.08-.03.15-.04.22ZM40.41,29.62c-.13.06-.25.1-.33.13,0,0,0,0,0-.01.11-.16.18-.26.18-.26-.06.03-.12.07-.18.13.01-.13.03-.27.07-.42,0,0,0,0,0,0,.09.1.18.2.26.3,0,.05,0,.1,0,.15ZM40.3,29.02s.07-.06.11-.08c0,.05,0,.11,0,.18-.04-.03-.07-.06-.11-.09ZM40.51,29.21s-.01-.01-.02-.02c-.02-.11-.03-.21-.04-.29.05-.03.09-.05.14-.08-.03.13-.05.26-.07.39ZM40.61,28.71c-.06.02-.12.05-.18.09-.02-.12-.03-.19-.03-.19,0,0,0,.08,0,.21-.06.04-.13.08-.19.14,0,0-.01-.01-.02-.02.02-.07.03-.13.06-.21.05-.18.11-.35.18-.52,0,0,0,0,0,0,.03,0,.07,0,.1-.01.02.13.05.3.09.48,0,.02,0,.03,0,.05ZM40.7,30.5s-.05.05-.07.07c0-.03,0-.06,0-.09.02-.06.04-.13.06-.19.03-.01.05-.03.08-.04-.02.08-.05.16-.07.25ZM40.78,30.17s-.01.04-.02.06c-.02.01-.05.02-.07.03.03-.1.06-.2.09-.29.02.02.03.05.05.07-.02.04-.04.09-.05.13ZM41.94,29.98s-.04,0-.05,0c.01-.06.02-.12.03-.17,0,.06.02.12.03.18ZM41.88,29.64s-.01.07-.02.1c-.04.02-.08.03-.13.05-.01-.22-.03-.47-.05-.7.04-.03.08-.06.12-.09.02.19.05.41.09.64ZM41.84,29.81c-.01.06-.03.11-.04.17-.02,0-.04,0-.06,0,0-.03,0-.07,0-.1.04-.02.07-.04.11-.06ZM41.06,29.2s-.02-.06-.03-.09c.02-.11.05-.22.07-.33.04.09.08.18.11.27-.05.05-.09.09-.15.15,0,0,0,0,0,0ZM41.27,30.03s-.05.01-.07.02c0,0,0-.01-.01-.02,0-.04,0-.08,0-.12,0,0,0-.02,0-.02.04-.08.08-.16.12-.24-.01.12-.02.25-.03.38ZM41.33,28.92c-.06-.14-.13-.26-.19-.37.02-.12.04-.26.06-.41.13,0,.25-.02.36-.03-.05.17-.1.43-.15.74-.02.02-.05.05-.07.07ZM41.6,28.11s.02,0,.02,0c.03,0,.06-.01.09-.02,0,.12.02.26.03.41-.03.03-.07.07-.1.11-.02-.21-.03-.39-.04-.5ZM41.82,30.3s.05,0,.07.01c.02,0,.03,0,.05.01,0,.1-.02.2-.03.29-.03-.11-.06-.21-.09-.32ZM42.4,30.58c-.01-.07-.02-.13-.03-.19.02,0,.04,0,.07,0-.01.06-.02.12-.03.18ZM42.43,29.99s-.08,0-.12,0c-.02-.12-.04-.25-.06-.38,0-.17-.02-.34-.04-.52-.01-.12-.03-.24-.05-.35.02,0,.04-.02.05-.02.08-.02.15-.04.22-.05-.05.47-.05.91-.01,1.33ZM42.5,28.23c-.14-.04-.29-.05-.41-.02-.01-.07-.03-.13-.04-.2.01,0,.03,0,.04-.01.02,0,.04-.01.06-.02.05-.01.09-.02.13-.04,0,0,.02,0,.03,0,.04-.01.08-.02.12-.04,0,0,.02,0,.02,0,.04-.01.07-.02.1-.03-.02.12-.04.24-.06.36ZM44.88,28.95s0,.01,0,.02c0,0,0,0-.01,0,0,0,0,0,0-.01ZM44.93,29.18s0,.04.01.06c-.08.02-.15.03-.2.04.03-.07.06-.14.09-.21.04.03.07.07.1.11ZM44.83,29.87s0,.02-.02.05c0-.01-.01-.02-.02-.03.01,0,.03-.01.04-.02ZM43.86,29.83c.05.1.09.21.13.32-.04-.02-.07-.04-.07-.04,0,0,.03.02.08.04,0,.01,0,.02.01.04-.05-.04-.1-.08-.16-.11,0-.09,0-.17.01-.25ZM43.57,29.31s.04.06.06.09c0,.03,0,.06,0,.09-.02.02-.03.04-.05.06,0-.08,0-.16,0-.24ZM43.58,29.69s.03-.05.05-.08c0,.11,0,.22,0,.33-.02-.01-.03-.02-.05-.03,0-.07,0-.15,0-.22ZM43.58,30.05s.04.03.05.04c0,.04,0,.08,0,.12-.02-.02-.04-.04-.06-.05,0-.04,0-.08,0-.11ZM43.58,30.65s0,.01.01.02c0,0,0,0-.01.01,0-.01,0-.02,0-.03ZM43.84,30.26s.06.06.09.09c-.03.03-.06.05-.1.08,0-.06,0-.11,0-.17ZM43.95,30.84s0-.03-.01-.04c-.01-.04-.03-.08-.04-.12.04-.05.09-.1.14-.14-.03.11-.05.21-.08.32,0,0,0,0,0-.01ZM44.21,29.88c-.01-.1-.02-.16-.02-.16.01.06.01.11.02.16,0,.01,0,.03-.01.04-.08-.2-.19-.37-.3-.53,0-.07.01-.13.02-.2,0,0,0,0,0,0,0,0,0-.01.01-.01.01-.01,0-.01,0,0,.01-.1.03-.23.06-.38.07.37.16.69.25,1.01,0,.02-.02.05-.03.07ZM44.44,30.57s-.05-.05-.07-.07c0,0,0-.01,0-.02,0-.04.02-.08.03-.12,0,0,0,0,0,0,.01.04.02.07.04.11,0,.03,0,.06,0,.09ZM44.62,28.91c-.03.06-.06.1-.09.16-.02-.08-.03-.17-.05-.25.05.02.09.05.14.08,0,0,0,0,0,0ZM44.66,28.81c0-.13,0-.21,0-.21,0,0-.01.07-.03.19-.06-.03-.12-.06-.18-.09-.03-.13-.05-.25-.08-.38-.06-.25-.12-.49-.19-.71.02-.11.04-.22.06-.33.17.35.38.83.54,1.32-.04.06-.07.14-.11.21,0,0,0,0,0,0ZM44.74,30.19c-.02-.07-.03-.15-.05-.23,0,0,0,0,0,0,.02.04.05.09.07.13,0,.03-.02.07-.03.1ZM44.77,30.33s0-.05,0-.07c0-.04.01-.08.02-.11.06.12.11.25.16.37-.05-.01-.1-.02-.15-.04-.01-.05-.02-.09-.03-.15ZM44.95,30.65s-.01-.04-.02-.06c0,0,0,.06-.02.17,0,.02-.01.05-.02.07-.02-.08-.04-.15-.06-.21,0-.02-.01-.04-.02-.06.03.01.06.02.09.03.02,0,.03.01.05.02,0,.02,0,.03-.01.05ZM45.01,30.29c-.06-.13-.12-.24-.19-.35,0-.02,0-.05.01-.07,0,0,.01,0,.02-.01.03,0,.05-.02.08-.03.03.04.05.09.08.14,0,.09,0,.2,0,.32ZM45.13,29.09s-.01-.04-.01-.06c.04.05.09.08.14.13,0,0,0,0,0,.01-.03,0-.07.01-.1.02,0-.03-.01-.06-.02-.1ZM45.25,29.75s0,0,0-.01c0,0,0,0,0,0,0,0,0,.01,0,.02ZM45.25,29.06c-.06-.05-.11-.09-.16-.12-.02-.1-.04-.2-.07-.29.1-.19.2-.37.31-.54-.05.34-.08.6-.08.96ZM47.73,28.54c0,.11.01.22.02.32,0,0,0,0,0,.01-.09-.13-.16-.27-.23-.4.01-.06.02-.12.03-.18.06.06.12.14.17.24ZM47.64,27.61c.02.19.04.38.06.55,0,.06,0,.11.01.17,0,0,0,.02,0,.03-.05-.07-.1-.12-.15-.17.03-.15.04-.26.05-.32,0,0-.02.04-.06.1,0,0,0,0,0,0,0,0,0,0,0,0-.02.04-.05.09-.08.15-.02-.01-.04-.02-.06-.03.08-.18.15-.34.22-.49ZM46.19,28.35s0-.09.01-.13c.06-.1.1-.16.1-.16-.03.02-.06.05-.1.07.01-.16.03-.34.06-.51.07.15.15.31.22.49-.02,0-.04.02-.06.03-.03-.06-.06-.11-.08-.15,0,0,0,0,0,0,0,0,0,0,0,0-.03-.06-.06-.1-.06-.1,0,.06.02.17.05.32-.05.04-.1.1-.15.17,0,0,0-.02,0-.02ZM46.38,28.48c-.07.13-.14.26-.23.4,0,0,0,0,0-.01,0-.1.01-.21.02-.32.05-.1.11-.18.17-.24.01.06.02.12.03.18ZM45.59,29.9c-.01-.08-.02-.17-.03-.25.01,0,.03,0,.04-.01.02.04.04.07.06.11-.02.05-.05.1-.07.16ZM45.72,30.59s-.02-.08-.03-.13c.02-.04.04-.08.06-.12,0,.09-.01.18-.02.25ZM45.9,29.02c-.05.01-.1.02-.16.04.07-.16.14-.31.21-.43-.02.13-.04.26-.05.4ZM45.52,29.1c-.02-.41-.02-.81-.03-1.23.17-.25.36-.47.56-.66.04.07.08.16.13.26-.06.23-.12.52-.18.85-.17.2-.33.46-.49.78ZM46.36,30.23c0,.14,0,.27,0,.41-.06-.15-.13-.3-.2-.43,0-.02,0-.03,0-.05-.01-.16-.02-.32-.02-.49,0-.02,0-.03,0-.04,0-.05,0-.1,0-.14,0-.01,0-.02.01-.03.02,0,.04-.02.07-.03.03-.02.07-.03.11-.05.03-.01.05-.02.08-.04-.02.34-.04.67-.05.9ZM46.44,28.89s-.03,0-.04.01c.01-.03.03-.07.04-.1,0,.01,0,.03,0,.04,0,.02,0,.03,0,.05ZM46.5,28.23s0,.02-.01.03c-.01-.02-.02-.04-.03-.06.02-.01.03-.02.05-.04h0s0,.05,0,.07ZM46.74,28.83s-.03-.07-.04-.11c0-.05-.02-.1-.03-.15.03.09.06.17.09.26,0,0-.01,0-.02,0ZM46.76,27.94c.03-.09.05-.18.07-.26.07-.33.11-.59.12-.77.01.19.05.44.12.77.02.08.04.17.07.26-.07.12-.13.25-.19.39-.06-.14-.12-.27-.19-.39ZM47.21,28.72s-.04.1-.06.15c0,0,0,0-.02,0,.03-.1.06-.19.1-.29,0,.05-.02.1-.03.15ZM47.41,28.26s0-.02-.01-.03c0-.02,0-.04,0-.07,0,0,0,0,0,0,.02.01.03.02.05.04-.01.02-.02.04-.03.06ZM47.46,28.8c.09.21.19.44.3.67,0,.05,0,.1,0,.14,0,.01,0,.02,0,.04,0,.12,0,.23-.02.34-.07,0-.14,0-.21,0-.01-.33-.05-.77-.08-1.15,0-.01,0-.03,0-.04ZM47.53,30.63c0-.09,0-.18,0-.28.02,0,.04,0,.05,0,.02,0,.04,0,.05,0-.04.08-.08.17-.11.26ZM48.17,30.59c0-.05-.01-.11-.02-.17,0,0,.02,0,.03,0,0,.02.01.03.02.05-.01.04-.02.08-.03.13ZM48.31,29.9c-.02-.05-.05-.11-.07-.16.04-.06.07-.12.11-.18-.01.11-.02.22-.04.33ZM48.37,29.33c-.07.07-.15.15-.22.25-.01-.02-.02-.04-.03-.06,0-.04.01-.07.01-.07,0,0-.01.01-.03.04-.01-.03-.03-.05-.04-.08-.02-.1-.03-.2-.05-.3,0-.02,0-.04,0-.06-.03-.3-.08-.57-.12-.81.07.04.27.16.51.37,0,.24-.01.48-.03.72ZM48.75,28.98s-.07.05-.1.08c0-.07,0-.14,0-.2.04.04.07.08.11.12ZM48.61,29.99s-.01,0-.02,0c0-.06.01-.11.02-.16,0,.03,0,.06.01.09,0,.02,0,.05-.01.07ZM48.65,29.74s0,0,0,0c0-.02-.01-.04-.02-.06.01-.03.03-.05.05-.08,0,.05-.02.1-.03.15ZM48.77,29.09c-.01.06-.02.11-.03.16-.04.05-.07.11-.1.16,0-.09,0-.18.01-.25.04-.05.09-.09.14-.13,0,.02-.01.04-.01.06ZM49.96,28.57c.02-.13.04-.31.07-.5.08.21.17.44.23.66.03.09.05.17.07.25-.07-.06-.15-.12-.22-.16,0-.13,0-.21,0-.21,0,0-.01.07-.03.19-.05-.03-.1-.05-.14-.07,0-.05.02-.11.03-.16ZM50.28,29.07c-.06.06-.12.13-.17.2,0-.12,0-.23,0-.33.06.04.11.08.17.13ZM49.08,28.72c.06-.22.15-.44.23-.66.02.19.04.36.07.5,0,.06.02.11.03.16-.05.02-.09.04-.14.07-.02-.12-.03-.19-.03-.19,0,0,0,.08,0,.21-.07.04-.15.1-.22.16.02-.08.04-.15.07-.25ZM49.08,29.94s0,0,0,0c-.05-.03-.09-.05-.13-.07.09-.15.17-.26.21-.32.03.05.05.09.08.14h0c-.05.07-.1.15-.15.23-.01-.04-.02-.06-.02-.06,0,.03,0,.05.01.07ZM49.07,29.07c.06-.05.11-.09.17-.13,0,.09,0,.2,0,.33-.06-.07-.11-.13-.17-.2ZM48.95,29.23c.07.09.13.19.19.29-.09.06-.17.13-.26.23,0-.16.03-.32.06-.52ZM48.89,29.97s0-.01.01-.02c.04.03.08.06.12.09-.01.02-.03.05-.04.08-.03-.03-.06-.05-.09-.07,0-.03,0-.06,0-.08ZM49.02,30.75s-.03-.06-.05-.09c0-.04,0-.07,0-.07,0,.01,0,.03-.01.04,0-.01-.01-.02-.02-.03,0,0,.02,0,.03,0,.02.02.05.05.07.09,0,.02-.01.05-.02.08ZM49.08,30.22s0,0,0,0c.01-.02.02-.05.03-.07,0,.04.01.08.02.11,0,0,0,.02,0,.02-.01-.02-.03-.04-.04-.06ZM49.16,30.19s0-.02,0-.03c0,0,0,0,.01.01,0,0,0,.01,0,.02ZM49.21,29.94s-.01.05-.02.08c0,0-.01,0-.02-.01.01-.02.02-.05.04-.07ZM49.34,29.26c-.02-.14-.04-.26-.05-.36.05-.03.09-.05.14-.08-.03.15-.06.29-.08.43ZM49.46,30.57s0-.06,0-.09c0-.01,0-.02.01-.03.02.02.04.04.06.06-.02.02-.04.04-.06.06ZM49.69,29.98s0-.04,0-.06c0,.03,0,.05,0,.08,0,0,0,.02-.01.03,0,0,0-.02-.01-.03,0-.03,0-.05,0-.07,0,.02,0,.04,0,.06,0-.02-.01-.04-.02-.06,0-.01,0-.03.01-.05,0,.01,0,.03,0,.04,0-.02,0-.03,0-.04,0-.03.02-.05.02-.08,0,.03.02.05.02.08,0,.02,0,.02,0,.04,0-.01,0-.03,0-.04,0,.01,0,.03.01.05,0,.02-.01.04-.02.06ZM49.67,27.78c-.03-.11-.06-.21-.09-.32.03-.07.06-.14.09-.2.03.06.06.13.09.2-.03.1-.06.21-.09.32ZM49.88,30.57s-.04-.04-.06-.06c.02-.02.04-.04.06-.06,0,.01,0,.02.01.03,0,.03,0,.06,0,.09ZM50.01,29.26c-.03-.14-.05-.29-.08-.43.05.02.09.05.14.08-.02.1-.03.22-.05.36ZM50.14,30.02s-.01-.05-.02-.08c.01.02.02.05.04.07,0,0-.01,0-.02.01ZM50.26,29.94s0-.05.01-.07c0,0,0,.02-.02.06-.05-.08-.1-.16-.15-.23h0c.09-.17.18-.32.28-.46.02.12.04.23.05.33-.04-.03-.09-.06-.14-.08,0,0,.06.06.14.17,0,.06,0,.13,0,.2-.06.03-.12.06-.19.1,0,0,0,0,0,0ZM50.38,30.63s0-.03-.01-.04c0,0,0,0,0,0,0,0,0,.03,0,.07-.02.03-.03.06-.05.09,0-.03-.01-.05-.02-.08.03-.03.05-.06.08-.08h0s0,0,0,0c.01-.01.03-.03.04-.04,0,0,0,0,0,.01-.01.02-.02.04-.03.07ZM50.45,30.05s-.05.04-.09.07c-.01-.03-.03-.05-.04-.08.04-.03.08-.07.13-.1,0,.04,0,.07,0,.11ZM50.51,28.84s0-.04-.01-.06c.02.01.03.03.04.04,0,0-.02.02-.03.03ZM50.69,28.86s0,.02,0,.03c0,0-.01,0-.02-.01,0,0,.01-.01.02-.02ZM50.57,29.09s-.01-.05-.02-.07c.03-.04.06-.07.09-.11.01.01.03.02.04.04,0,.14,0,.29.01.47-.03-.05-.07-.11-.1-.16,0-.05-.02-.1-.03-.16ZM50.69,29.74s0,0,0,0c0-.05-.02-.09-.03-.15.01.03.03.05.05.08,0,.02-.01.04-.02.06ZM51.03,29.9c-.03-.24-.06-.47-.07-.71.09.09.17.2.26.3,0,0,0,.01,0,.02-.06.12-.13.25-.19.39ZM51.34,29.05s0,.04,0,.06c-.02.08-.03.16-.05.25-.12-.11-.23-.2-.33-.28,0-.16-.01-.31-.01-.47.24-.22.45-.34.51-.37-.04.25-.09.52-.12.81ZM52.34,27.33c.01.08.03.17.04.25-.02-.03-.05-.06-.07-.08.01-.06.02-.12.03-.17ZM51.6,28.86c0-.1.01-.21.02-.32.11-.19.23-.31.33-.39,0,.02,0,.04,0,.07-.1.21-.2.42-.35.65,0,0,0,0,0-.01ZM51.59,29.47c.11-.25.22-.48.31-.7-.03.38-.07.83-.08,1.18-.07-.1-.15-.19-.23-.28,0,0,0,0,0,0,0-.02,0-.03,0-.04,0-.05,0-.1,0-.14ZM51.81,30.42s-.11-.02-.18-.03c0,0,0,0,0,0,.04,0,.09,0,.13-.01,0,0,.02,0,.03,0,0,.02.02.04.03.05ZM52,28.07s-.02-.08-.03-.11c0,0,0,.05-.01.12-.1.04-.22.12-.33.28,0,0,0-.02,0-.02,0-.06,0-.12.01-.18.02-.23.05-.48.08-.73.01-.11.03-.23.05-.34.08.13.22.35.37.63-.04.11-.08.22-.13.34,0,0,0,0-.01,0ZM52.17,28.97c-.03-.24-.07-.45-.11-.63.06-.17.11-.33.16-.47.07.13.13.26.2.4-.09.21-.18.43-.24.7ZM52.46,29.3s0-.03.01-.05c0,0,0,0,0,0,0,.01,0,.03-.01.04ZM52.47,29.25s0-.03.01-.06c.03-.12.06-.24.1-.37,0,.01,0,.03,0,.04-.04.12-.08.25-.12.39,0,0,0,0,0,0ZM53.11,28.97c-.04-.16-.1-.31-.16-.45.06-.3.1-.54.1-.63,0,0-.02.04-.06.1,0,0,0,0,0,0,0,0,0,0,0,0-.03.06-.08.14-.13.24,0-.04,0-.08-.01-.12.05-.13.11-.25.16-.36.05.18.12.38.21.6-.04.17-.08.39-.12.63ZM53.78,29.61s0,.03,0,.05c0,.17-.01.33-.02.49,0,.01,0,.02,0,.03-.09-.02-.16-.03-.22-.05,0-.04,0-.07,0-.11.08-.15.16-.3.26-.43,0,0,0,.02,0,.03ZM53.5,29.69c-.02-.3-.05-.63-.08-.93.1.2.2.42.32.64-.08.09-.16.18-.24.29ZM53.36,28.16c.12.07.26.19.38.39,0,.11.02.22.02.32,0,0,0,0,0,.01-.16-.22-.28-.44-.39-.65,0-.03,0-.05,0-.07ZM53.7,30.63c-.06,0-.12.02-.18.03,0-.07,0-.15,0-.22.01,0,.02,0,.03.01.02,0,.04.02.07.03.03.01.06.02.09.04,0,.04,0,.08-.01.12ZM54.05,29.05c0-.06-.02-.11-.02-.16.05.04.09.08.13.11-.03.03-.07.06-.1.09,0-.01,0-.03,0-.04ZM54.44,29.6s-.01.04-.02.06c-.03.03-.07.06-.1.1-.05-.09-.1-.17-.14-.25,0-.04.02-.07.02-.07,0,0-.01.01-.03.04-.02-.03-.03-.05-.05-.08-.01-.07-.03-.15-.04-.22.04-.05.09-.09.13-.14.09.08.18.16.26.25,0,.1-.02.2-.03.3ZM54.48,29.17c-.08-.06-.15-.12-.22-.17.08-.08.15-.16.23-.23,0,0-.12.07-.28.19-.07-.05-.14-.09-.18-.11-.03-.2-.06-.38-.09-.55.19.09.38.2.57.32,0,.18,0,.36-.02.54ZM55.82,28.17s-.02.08-.04.13c-.03-.05-.05-.08-.07-.12.03,0,.07,0,.11,0ZM54.68,30.23c.03-.16.05-.3.06-.41,0-.04,0-.07,0-.1,0-.02.02-.04.03-.06,0,.01.02.02.02.03-.06.26-.09.43-.12.54ZM54.92,29.09c-.01.06-.02.11-.03.16-.04.05-.08.11-.12.16,0-.04,0-.08,0-.12.05-.13.09-.25.13-.35.01.01.03.02.04.04,0,.04-.02.07-.03.11ZM54.97,28.77s0,0,0,0c.03-.08.06-.14.09-.2-.02.07-.04.15-.06.22,0,0-.02-.01-.03-.02ZM55.07,30.28s0,0,0,0c0-.07,0-.13,0-.19.02.03.04.06.06.09-.02.03-.03.06-.05.09ZM55.16,30.43s.03-.06.04-.08c.02.03.03.07.05.1-.03,0-.06,0-.09-.01ZM55.27,29.94s-.02.02-.02.03c-.04-.05-.07-.1-.11-.14.06,0,.14,0,.23-.03-.03.04-.06.08-.08.12-.01-.04-.02-.06-.02-.06,0,.03,0,.05.01.07ZM55.37,30.16s0-.01-.01-.02c0,0,.01,0,.02,0,0,0,0,.02,0,.03ZM55.38,30.13s-.01,0-.02,0c0,0-.01-.02-.02-.02,0,0,0-.02,0-.03.03-.05.06-.1.09-.15-.01.07-.03.13-.04.2ZM55.45,29.62c-.15.06-.28.1-.38.13,0,0,0-.01-.01-.02,0-.18.03-.35.09-.57,0,0,0,0,0,0,.1.1.2.2.3.3,0,.05,0,.1,0,.15ZM55.33,29.02s.08-.06.12-.08c0,.06,0,.11,0,.18-.04-.03-.08-.07-.13-.1ZM55.57,29.21s-.01-.01-.02-.02c-.02-.11-.04-.21-.05-.29.05-.03.1-.06.15-.08-.03.13-.06.26-.09.39ZM55.68,28.71c-.06.02-.13.05-.2.09-.02-.12-.04-.19-.04-.19,0,0,0,.08,0,.21-.07.04-.14.08-.22.14,0,0-.01-.01-.02-.02.02-.07.04-.13.06-.21.06-.18.13-.35.2-.52,0,0,0,0,0,0,.03,0,.07,0,.11-.01.02.13.06.3.1.48,0,.02,0,.03-.01.05ZM55.88,30.17c-.04.1-.07.21-.1.32-.03.02-.05.04-.08.07,0-.03,0-.05,0-.08.06-.17.12-.34.18-.51.02.02.03.05.05.07-.02.04-.04.09-.06.13ZM57.18,29.98s-.04,0-.06,0c.01-.06.02-.12.03-.17,0,.06.02.12.03.18ZM57.12,29.64s-.02.06-.03.1c-.05.02-.1.04-.15.06-.01-.22-.03-.47-.05-.7.05-.03.09-.06.13-.09.03.19.06.41.1.64ZM57.07,29.81c-.02.06-.03.11-.05.17-.02,0-.05,0-.07,0,0-.03,0-.07,0-.1.04-.02.08-.04.13-.06ZM56.18,29.2s-.02-.06-.03-.09c.03-.11.05-.22.08-.33.04.09.09.18.13.27-.06.05-.11.09-.17.15,0,0,0,0,0,0ZM56.42,30.03s-.05.01-.08.02c0,0,0-.01-.01-.02,0-.04,0-.08,0-.12,0,0,0-.02,0-.02.04-.08.09-.16.13-.24-.01.12-.03.25-.04.38ZM56.49,28.92c-.07-.14-.15-.26-.22-.37.02-.12.04-.26.06-.41.15,0,.28-.02.41-.03-.05.17-.11.43-.17.74-.03.02-.05.05-.08.07ZM56.79,28.11s.02,0,.03,0c.03,0,.07-.01.1-.02,0,.12.02.26.04.41-.04.03-.08.07-.11.11-.02-.21-.04-.39-.05-.5ZM57.05,30.3s.06.01.08.02c.02,0,.03,0,.05,0,0,.1-.02.2-.03.29-.03-.11-.07-.21-.1-.32ZM57.71,30.58c-.01-.07-.03-.13-.04-.19.02,0,.05,0,.08,0-.01.06-.03.12-.04.18ZM57.74,29.99s-.09,0-.13,0c-.02-.12-.04-.25-.07-.39,0-.17-.02-.34-.04-.52-.02-.12-.03-.24-.05-.35.02,0,.04-.02.06-.02.09-.02.17-.04.25-.05-.06.47-.05.91-.01,1.33ZM57.81,28.23c-.16-.04-.33-.05-.47-.02-.01-.07-.03-.13-.04-.2.01,0,.02,0,.03,0,.03,0,.06-.01.08-.02.05-.01.09-.02.14-.03.02,0,.03,0,.05-.01.05-.01.09-.02.13-.03.01,0,.03,0,.04-.01.04-.01.07-.02.1-.03,0,0,0,0,0,0-.02.12-.04.24-.07.36ZM60.51,28.95s0,.01,0,.02c0,0,0,0-.01,0,0,0,0,0,0-.01ZM60.57,29.16s.01.05.02.07c-.09.02-.17.03-.23.04.03-.07.07-.14.1-.21.04.03.08.06.11.1ZM60.45,29.87s0,.02-.02.05c0-.01-.02-.02-.02-.03.01,0,.03-.01.04-.02ZM59.36,29.83c.05.1.1.21.15.32-.05-.02-.08-.04-.08-.04,0,0,.04.02.09.04,0,.01,0,.02.01.03-.06-.04-.12-.07-.17-.11,0-.09,0-.17.01-.25ZM59.02,29.31s.04.06.06.09c0,.03,0,.06,0,.09-.02.02-.04.04-.06.06,0-.08,0-.16,0-.24ZM59.03,29.69s.03-.05.05-.08c0,.11,0,.22.01.33-.02-.01-.04-.02-.06-.03,0-.07,0-.15,0-.22ZM59.04,30.05s.04.03.06.04c0,.04,0,.08,0,.12-.02-.02-.04-.04-.06-.05,0-.04,0-.08,0-.11ZM59.04,30.65s0,.01.01.02c0,0,0,0-.01.01,0-.01,0-.02,0-.03ZM59.34,30.26s.07.06.1.09c-.04.03-.07.05-.11.08,0-.06,0-.11,0-.17ZM59.46,30.84s0-.03-.01-.04c-.02-.04-.03-.08-.05-.12.05-.05.11-.1.16-.14-.03.11-.06.21-.09.32,0,0,0,0,0-.01ZM59.75,29.88s0-.05-.01-.08c0,.02,0,.05.01.08,0,.01,0,.03-.01.04-.09-.2-.21-.37-.34-.53,0-.07.02-.13.03-.2,0,0,0,0,0,0,0,0,0-.01.01-.01.01-.01,0-.01-.01,0,.02-.1.04-.23.07-.38.08.37.18.69.29,1.01-.01.02-.02.05-.03.07ZM60.01,30.56s-.05-.04-.08-.07c0,0,0,0,0-.01.01-.04.02-.08.04-.12,0,0,0,0,0,0,.01.04.03.07.04.11,0,.03,0,.05,0,.08ZM60.11,29.07c-.02-.08-.04-.17-.06-.25.05.02.1.05.15.08-.03.06-.06.11-.1.17ZM60.23,28.8c-.07-.03-.14-.06-.2-.09-.03-.13-.06-.25-.09-.38-.07-.25-.14-.49-.22-.71.02-.11.04-.22.07-.33.19.35.43.83.61,1.32-.04.06-.09.13-.13.2,0-.12,0-.2,0-.2,0,0-.02.07-.04.19ZM60.35,30.19c-.02-.07-.03-.15-.05-.23,0,0,0,0,0,0,.03.04.05.09.08.13,0,.03-.02.07-.03.1ZM60.38,30.33s0-.05,0-.07c0-.04.01-.07.02-.11.07.12.13.25.18.37-.06-.01-.11-.02-.17-.04-.01-.05-.03-.09-.04-.15ZM60.58,30.65s-.01-.04-.02-.06c0,0,0,.06-.02.17,0,.02-.01.04-.02.07-.02-.08-.04-.15-.07-.21,0-.02-.01-.04-.02-.06.03.01.07.02.1.03.02,0,.04.01.06.02,0,.02-.01.03-.02.05ZM60.65,30.29c-.07-.13-.14-.24-.21-.35,0-.02,0-.05.01-.07,0,0,.01,0,.02-.01.03,0,.06-.02.09-.03.03.04.06.09.09.14,0,.09,0,.2,0,.32ZM60.79,29.09s-.01-.04-.02-.06c.05.05.11.08.15.13,0,0,0,0,0,.01-.04,0-.08.01-.12.02,0-.03-.01-.06-.02-.1ZM60.92,29.75s0,0,0-.01c0,0,0,0,0,0,0,0,0,.01,0,.02ZM60.92,29.06c-.07-.05-.12-.09-.18-.12-.02-.1-.05-.2-.08-.29.11-.19.22-.37.35-.54-.06.34-.09.6-.09.96ZM63.73,28.54c0,.11.02.22.02.32,0,0,0,0,0,.01-.1-.13-.18-.27-.26-.4.01-.06.03-.12.04-.18.07.06.13.14.2.24ZM63.63,27.61c.03.19.05.38.07.55,0,.06.01.12.02.17,0,0,0,.02,0,.03-.06-.07-.11-.12-.17-.17.03-.15.05-.26.05-.32,0,0-.03.04-.06.1,0,0,0,0,0,0,0,0,0,0,0,0-.03.04-.06.09-.09.15-.02-.01-.04-.02-.06-.03.09-.18.17-.34.25-.49ZM61.98,28.34s0-.09.01-.13c.07-.1.12-.16.12-.16-.04.02-.07.05-.11.07.02-.16.04-.34.06-.51.08.15.17.31.25.49-.02,0-.04.02-.06.03-.04-.06-.07-.11-.09-.15,0,0,0,0,0,0,0,0,0,0,0,0-.04-.06-.06-.1-.06-.1,0,.06.02.17.05.32-.06.04-.11.1-.17.17,0,0,0-.02,0-.02ZM62.21,28.48c-.08.13-.16.26-.26.4h0c0-.12.01-.23.02-.33.06-.1.13-.18.2-.24.01.06.02.12.04.18ZM61.31,29.9c-.01-.08-.03-.17-.04-.25.02,0,.03,0,.05-.01.03.04.05.07.07.11-.03.05-.06.1-.08.16ZM61.46,30.59s-.03-.08-.04-.13c.02-.04.04-.08.06-.12,0,.09-.02.18-.02.25ZM61.66,29.02c-.06.01-.12.02-.18.04.08-.16.16-.31.24-.43-.02.13-.04.26-.06.4ZM61.23,29.1c-.02-.41-.02-.81-.04-1.23.2-.25.41-.47.64-.66.04.07.1.16.15.26-.06.23-.13.52-.2.85-.19.2-.38.46-.55.78ZM62.19,30.23c0,.14,0,.27.01.41-.07-.15-.15-.3-.23-.43,0-.02,0-.03,0-.05-.01-.16-.02-.32-.02-.49,0-.01,0-.03,0-.04,0-.05,0-.1,0-.14,0-.01.01-.02.02-.03.03,0,.05-.02.08-.03.03-.01.06-.03.1-.04.04-.02.08-.03.11-.05-.03.34-.05.67-.05.9ZM62.28,28.89s-.03,0-.05.01c.02-.03.03-.07.05-.1,0,.01,0,.03,0,.04,0,.02,0,.03,0,.05ZM62.34,28.23s0,.02-.01.03c-.01-.02-.02-.04-.04-.06.02-.01.04-.02.06-.04,0,0,0,0,0,0,0,.02,0,.04,0,.07ZM62.61,28.83s-.03-.07-.05-.11c0-.05-.02-.1-.03-.15.03.09.07.17.1.26,0,0-.01,0-.02,0ZM62.63,27.94c.03-.09.06-.18.08-.26.08-.33.12-.59.13-.78.01.19.05.44.13.78.02.08.05.17.08.26-.08.12-.15.24-.22.38-.07-.14-.14-.27-.22-.38ZM63.14,28.72s-.04.1-.06.15c0,0,0,0-.01,0,0,0,0,0,0,0,.03-.1.07-.19.11-.28,0,.05-.02.1-.03.15ZM63.37,28.26s0-.02-.01-.03c0-.02,0-.04,0-.07,0,0,0,0,0,0,.02.01.04.02.06.04-.01.02-.02.04-.04.06ZM63.42,28.8c.1.21.21.44.33.67,0,.05,0,.1,0,.14,0,.01,0,.02,0,.04,0,.12-.01.23-.02.34-.08,0-.16,0-.24,0-.02-.33-.05-.77-.09-1.15,0-.01,0-.03,0-.04ZM63.5,30.63c0-.09,0-.18,0-.28.02,0,.04,0,.06,0,.02,0,.04,0,.06,0-.05.08-.09.17-.13.26ZM64.23,30.59c0-.05-.01-.11-.02-.17.01,0,.02,0,.03,0,0,.02.02.03.02.05-.01.04-.03.08-.04.13ZM64.38,29.9c-.03-.05-.06-.11-.08-.16.04-.06.08-.12.13-.18-.01.11-.03.22-.05.33ZM64.45,29.33c-.08.07-.16.15-.25.25-.01-.02-.02-.04-.04-.06,0-.04.02-.07.02-.07,0,0-.01.01-.03.04-.02-.03-.03-.05-.05-.08-.02-.1-.04-.2-.06-.3,0-.02,0-.04,0-.06-.04-.3-.09-.57-.14-.81.08.04.3.16.58.37,0,.24-.01.48-.03.72ZM64.89,28.98s-.07.05-.12.08c0-.07,0-.14,0-.2.04.04.08.08.12.12ZM64.72,29.99s-.01,0-.02,0c0-.06.02-.11.02-.16,0,.03.01.06.02.09,0,.02-.01.05-.02.07ZM64.78,29.74s0,0,0,0c0-.02-.01-.04-.02-.06.02-.04.04-.07.06-.1-.01.06-.02.12-.03.17ZM64.91,29.09c-.01.06-.02.11-.03.16-.04.05-.08.11-.12.16,0-.09.01-.18.01-.25.05-.05.1-.09.15-.13,0,.02-.01.04-.02.06ZM66.81,29.84c-.07.03-.14.06-.21.1,0,0,0,0,0,0,0-.03,0-.05.01-.07,0,0,0,.02-.02.06-.06-.08-.11-.16-.17-.23h0c.1-.17.21-.32.32-.46.05.23.07.41.07.61ZM66.41,29.27c0-.13,0-.24,0-.33.06.04.13.08.19.13-.07.06-.13.13-.2.2ZM66.26,28.57c.02-.13.05-.31.07-.5.1.21.19.44.26.66.03.09.05.17.08.25-.08-.06-.17-.12-.25-.16,0-.13,0-.21,0-.21,0,0-.02.07-.04.19-.06-.03-.11-.05-.16-.07.01-.05.02-.11.03-.16ZM65.26,28.72c.07-.22.16-.44.26-.66.02.19.05.36.07.5.01.06.02.11.03.16-.05.02-.11.04-.16.07-.02-.12-.04-.19-.04-.19,0,0,0,.08,0,.21-.08.04-.16.1-.25.16.02-.08.05-.15.08-.25ZM65.26,29.94s0,0,0,0c-.05-.03-.1-.05-.15-.07.1-.15.19-.26.24-.32.03.05.06.09.09.14,0,0,0,0,0,0-.06.07-.11.15-.17.23-.01-.04-.02-.06-.02-.06,0,.03,0,.05.01.07ZM65.24,29.07c.06-.05.13-.09.19-.13,0,.09,0,.21,0,.33-.06-.07-.13-.14-.2-.2ZM65.12,29.23c.07.09.15.19.22.29-.1.06-.2.13-.29.23,0-.16.03-.32.07-.52ZM65.04,29.97s0-.01.01-.02c.05.03.09.06.13.09-.02.02-.03.05-.05.08-.04-.03-.07-.05-.1-.07,0-.03,0-.06,0-.08ZM65.19,30.75s-.04-.06-.05-.09c0-.04,0-.07,0-.07,0,.01,0,.03-.01.04,0-.01-.01-.02-.02-.03.01,0,.02,0,.03,0,.03.02.06.05.08.09,0,.02-.02.05-.02.08ZM65.26,30.22s0,0,0,0c.01-.02.02-.05.04-.07,0,.04.01.08.02.11,0,0,0,.02,0,.02-.02-.02-.03-.04-.05-.06ZM65.35,30.19s0-.02,0-.03c0,0,0,0,.01.01,0,0,0,.01,0,.02ZM65.41,29.94s-.01.05-.02.08c0,0-.01,0-.02-.01.01-.02.03-.04.04-.07ZM65.55,29.26c-.02-.14-.04-.26-.06-.36.05-.03.1-.06.15-.08-.03.15-.07.29-.09.44ZM65.69,30.56s0-.05,0-.08c0-.01,0-.02.01-.03.02.02.04.04.06.05-.02.02-.05.04-.07.06ZM65.88,29.92s.01-.03.02-.05c0,.03,0,.07,0,.11,0-.02-.02-.04-.03-.06ZM65.93,30.02s0-.01,0-.02c0-.04,0-.08-.02-.13,0-.02.02-.05.03-.08,0,.03.02.05.03.08,0,.04-.01.08-.02.13,0,0,0,.01,0,.02ZM65.94,29.98s0-.08.01-.11c0,.02.01.03.02.05,0,.02-.02.04-.03.06ZM65.93,27.78c-.04-.11-.07-.21-.11-.32.04-.07.07-.14.11-.2.03.06.07.13.11.2-.04.1-.07.21-.11.32ZM66.17,30.56s-.05-.04-.07-.06c.02-.02.04-.04.06-.05,0,.01,0,.02.01.03,0,.03,0,.05,0,.08ZM66.31,29.26c-.03-.14-.06-.29-.09-.44.05.02.1.05.15.08-.02.1-.04.22-.06.36ZM66.46,30.01s-.01-.05-.02-.08c.01.02.03.04.04.07,0,0-.01,0-.02.01ZM66.5,30.19s0-.01,0-.02c0,0,0,0,.01-.01,0,.01,0,.02,0,.03ZM66.59,30.22s-.03.04-.05.06c0,0,0-.02,0-.02,0-.04.01-.07.02-.11.01.02.02.05.04.07,0,0,0,0,0,0ZM66.73,30.63s0-.03-.01-.04h0s0,.03,0,.07c-.02.03-.03.06-.05.09,0-.03-.02-.05-.02-.08.03-.03.06-.06.09-.08h0s0,0,0,0c.01-.01.03-.03.04-.04,0,0,0,0,0,.01-.01.02-.02.04-.04.07ZM66.81,30.05s-.06.04-.1.07c-.02-.03-.03-.05-.05-.08.05-.03.1-.07.15-.1,0,.04,0,.07,0,.11ZM66.94,29.09s-.01-.05-.02-.07c.05-.06.11-.11.16-.16,0,.16,0,.34.01.56-.04-.05-.08-.11-.12-.16-.01-.05-.02-.1-.03-.16ZM67.08,29.73s0,0,0,0c-.01-.05-.02-.11-.03-.17.02.03.04.07.06.1,0,.02-.01.04-.02.06ZM67.11,29.91s.01-.06.02-.09c0,.05.01.1.02.16,0,0-.02,0-.02,0,0-.02-.01-.05-.02-.07ZM67.62,30.59s-.03-.08-.04-.13c0-.02.02-.03.02-.05.01,0,.02,0,.03,0,0,.06-.01.12-.02.17ZM67.81,29.05s0,.04,0,.06c-.02.1-.04.2-.06.3-.02.03-.03.05-.05.08-.02-.03-.03-.04-.03-.04,0,0,0,.03.02.07-.07.12-.15.25-.22.39-.07-.44-.09-.86-.1-1.28.28-.22.5-.34.58-.37-.05.25-.1.52-.14.81ZM68.17,30.39v.23h0c0-.07-.02-.15-.03-.23,0,0,.02,0,.03,0h0ZM68.17,29.44v.54h0s-.04,0-.06,0c0-.11-.01-.22-.02-.34,0-.01,0-.02,0-.03,0-.05,0-.1,0-.15.02-.05.05-.1.07-.14v.12ZM68.17,28.78s-.04.06-.06.1c0,0,0,0,0-.01,0-.1.01-.21.02-.32.01-.02.03-.04.04-.06v.3ZM68.17,28.34s-.02.02-.03.03c0,0,0-.02,0-.03,0-.06,0-.11.01-.17,0-.03,0-.07.01-.1v.27ZM68.2,28.11s.05.08.07.12c-.02.01-.03.02-.05.04,0-.05-.01-.1-.02-.16ZM68.24,28.39s.05-.06.08-.08c.02.04.05.08.07.13-.04.06-.08.13-.12.19,0-.08-.02-.16-.03-.23ZM68.42,29.04s0,.03-.01.05c0,.04-.01.07-.02.1-.03,0-.07-.01-.1-.02,0-.03,0-.06,0-.08.06-.11.11-.22.16-.33,0,.09-.02.18-.03.28ZM68.5,28.22s-.02-.03-.03-.04c.01,0,.02-.01.03-.02,0,.02,0,.04,0,.06ZM69.29,27.84c-.15.22-.3.48-.42.79,0-.01,0-.02,0-.02,0,0,0,.01,0,.03-.01.03-.03.07-.04.11-.02-.04-.05-.1-.07-.14.15-.49.37-.97.54-1.32.02.11.04.22.06.33-.02.07-.04.14-.06.22ZM69.37,29.75c.06-.28.13-.59.2-.89.02.13.04.23.05.32-.02-.01-.02-.01,0,0,0,0,0,.01.01.01,0,0,0,0,0,0,0,.06.02.13.02.2-.09.13-.17.26-.25.41,0-.02-.02-.04-.02-.06ZM69.67,29.83c0,.08,0,.16.01.25-.05.03-.1.07-.15.11.04-.13.09-.25.14-.36ZM69.57,30.8s0,0,0,.01c0-.02-.01-.05-.02-.07,0-.05,0-.11,0-.16.03.03.06.06.09.09-.02.04-.04.08-.06.13ZM69.6,30.35s.06-.06.09-.08c0,.05,0,.11,0,.16-.03-.03-.07-.05-.1-.08ZM69.95,30.69s0,0-.01-.01c0,0,0-.01.01-.02,0,.01,0,.02,0,.03ZM69.95,30.1s-.04.06-.06.08c0-.03,0-.07,0-.1.02-.01.04-.03.05-.04,0,.02,0,.04,0,.05ZM69.95,29.91s-.03.02-.05.03c0-.11,0-.22,0-.33.01.02.03.05.05.08,0,.07,0,.15,0,.22ZM69.96,29.55s-.03-.04-.05-.06c0-.03,0-.06,0-.09.02-.03.04-.06.06-.09,0,.08,0,.16,0,.24ZM71.74,28.99s.08.06.12.09c-.02.24-.04.48-.05.7-.05-.02-.09-.04-.13-.05,0-.03-.02-.07-.02-.1.03-.23.06-.45.09-.64ZM71.8,29.87s0,.07,0,.1c-.02,0-.04,0-.06,0-.02-.06-.03-.11-.04-.17.04.02.07.04.11.06ZM71.62,29.81c0,.06.02.11.03.17-.02,0-.04,0-.05,0,0-.06.02-.12.03-.18ZM71.13,30.54s0,0-.01,0c0-.05-.02-.1-.03-.15.02,0,.05,0,.07,0,0,.05-.02.1-.03.15ZM71.22,29.99s-.03,0-.04,0c.02-.03.04-.06.06-.08,0,.03,0,.06-.01.08ZM71.32,29.09c-.02.18-.03.35-.04.52,0,.03,0,.05-.01.08-.05.05-.11.1-.16.16.02-.27.02-.55,0-.85.08-.07.16-.15.24-.21-.01.1-.03.19-.04.29ZM71.36,28.79s-.11.06-.25.15c0-.09-.01-.18-.02-.27.07.01.14.03.22.05.02,0,.04.01.05.02,0,.02,0,.03,0,.05ZM71.45,28.22c-.12-.03-.27-.02-.41.02-.02-.13-.04-.25-.06-.36,0,0,0,0,0,0,.03,0,.06.02.09.03.01,0,.02,0,.03,0,.04.01.07.02.11.03.01,0,.03,0,.05.01.04.01.08.02.12.03.02,0,.05.01.07.02.01,0,.02,0,.03,0-.01.07-.03.13-.04.2ZM71.63,30.62s0-.1-.01-.14c.02,0,.04-.01.06-.02-.02.06-.03.11-.05.17ZM71.61,30.42s0-.06,0-.09c.01,0,.03,0,.04,0,.03,0,.05-.01.08-.02,0,.03-.02.06-.03.09-.03,0-.05.02-.08.03ZM71.79,28.49c.01-.15.02-.28.03-.41.03,0,.06.01.09.02,0,0,.02,0,.02,0-.01.11-.03.28-.04.5-.03-.04-.07-.07-.1-.11ZM72.13,28.85c-.05-.31-.1-.57-.15-.74.11.01.23.02.36.03.02.16.04.3.06.41-.06.11-.13.24-.19.37-.03-.03-.05-.05-.07-.07ZM72.23,29.65c.04.08.08.16.12.24,0,0,0,.02,0,.02,0,.04,0,.08,0,.12,0,0,0,.01-.01.02-.02,0-.04-.01-.07-.02,0-.13-.02-.25-.03-.38ZM72.47,29.19c-.06-.06-.1-.1-.15-.15.04-.09.08-.18.11-.27.02.11.04.22.07.33,0,.03-.02.06-.03.09,0,0,0,0,0,0ZM72.89,28.18s-.04.07-.06.12c-.01-.04-.02-.09-.03-.13.03,0,.06,0,.09,0ZM72.7,30.04s.03-.05.05-.07c.01.04.03.08.04.12-.02,0-.04,0-.06,0,0-.02-.02-.04-.02-.06ZM72.9,30.57s-.04-.05-.07-.07c-.03-.12-.06-.23-.09-.33,0,0,0-.02,0-.02.02.01.05.03.07.04.03.1.06.19.09.29,0,.03,0,.06,0,.09ZM73.04,29.2s-.01.01-.02.02c-.02-.13-.05-.26-.07-.39.05.02.09.05.14.08-.01.08-.03.18-.04.29ZM72.92,28.71s0-.03,0-.05c.03-.18.06-.35.09-.48.03,0,.07,0,.1.01,0,0,0,0,0,0,.07.17.13.35.18.52.02.08.04.14.06.21,0,0-.01.01-.02.02-.06-.05-.13-.1-.19-.14,0-.13,0-.21,0-.21,0,0-.01.07-.03.19-.06-.03-.12-.06-.18-.09ZM73.13,28.94s.07.05.11.08c-.04.03-.07.06-.11.09,0-.06,0-.12,0-.18ZM73.12,29.47c.09-.1.17-.2.26-.3,0,0,0,0,0,0,.02.11.04.21.05.31,0,0,0,0-.01,0,0,0,0,0,.01.02.01.08.02.16.02.24,0,0,0,.01-.01.02-.09-.03-.2-.07-.33-.13,0-.05,0-.1,0-.15ZM73.22,30.1s-.03,0-.04,0c0-.05-.02-.1-.03-.15.03.05.05.1.08.15,0,0,0,0,0,.01ZM73.31,30.45s0,0,0,0c0,0,0,0,.01,0,0,0,0,0-.01,0ZM73.3,29.97s-.01-.02-.02-.03c0-.03,0-.05.01-.07,0,0,0,.02-.02.06-.02-.04-.05-.08-.07-.12.08.02.15.02.2.03-.03.05-.07.09-.1.14ZM73.47,30.15s-.02,0-.03,0c0-.02.02-.03.03-.05,0,.02,0,.04,0,.06ZM73.52,28.79c-.02-.07-.03-.15-.05-.22.03.06.05.12.08.2,0,0,0,0,0,0,0,0-.02.01-.03.02ZM73.59,29.09s-.02-.07-.03-.11c.01-.01.02-.02.04-.04.03.1.07.22.11.35,0,.04,0,.08,0,.12-.03-.05-.07-.11-.1-.16,0-.05-.02-.1-.03-.16ZM73.72,29.66s.02.05.03.07c-.01-.02-.03-.03-.04-.04,0,0,.01-.02.02-.03ZM73.81,30.23c-.02-.07-.04-.16-.06-.29,0,.02.02.03.03.05,0,.07.02.16.03.24,0,0,0,0,0,0ZM73.99,29.15s0,0,.01.01c0,0,0,0-.01.01,0,0,0-.02,0-.02ZM74.09,29.83c-.02-.08-.05-.16-.07-.24,0-.1-.02-.2-.02-.3.02-.02.04-.05.06-.08.07.08.13.17.19.26,0,0,0,.02,0,.03-.05.1-.11.21-.16.32ZM74.36,29.05s0,.04,0,.06c-.02.08-.03.16-.05.25-.07-.07-.14-.14-.2-.2.09-.1.18-.18.27-.27,0,.05-.02.1-.02.16ZM74.39,28.86c-.07.05-.19.13-.33.25-.02-.02-.05-.05-.07-.07,0-.14,0-.27-.01-.41.16-.13.33-.23.5-.32-.03.17-.06.36-.08.55ZM74.62,28.87c0-.1.01-.22.02-.32.11-.19.23-.31.33-.39,0,.02,0,.04,0,.07-.1.21-.2.43-.35.65,0,0,0,0,0,0ZM74.61,29.54s.03-.04.03-.04c0,0-.02.01-.03.02,0-.02,0-.04,0-.06.11-.25.22-.48.31-.7-.04.42-.07.92-.09,1.28-.07-.12-.15-.23-.22-.33,0-.02,0-.04,0-.06,0-.01,0-.02,0-.04,0-.02,0-.05,0-.07ZM74.63,30.18s0-.02,0-.03c0-.01,0-.03,0-.04.01.02.02.04.03.06-.01,0-.02,0-.03,0ZM75.06,28.02s-.01.03-.02.05c0,0,0,0-.01,0-.01-.04-.02-.08-.03-.11,0,0,0,.05-.01.12-.1.04-.22.12-.33.28,0,0,0-.02,0-.03,0-.06,0-.11.01-.17.02-.24.05-.48.08-.74.01-.08.03-.18.04-.26.09.15.21.4.34.68-.01.04-.02.07-.04.11-.03-.04-.04-.07-.04-.07,0,.03,0,.08.02.14ZM75.19,28.97c-.03-.24-.07-.45-.11-.63,0-.02.01-.03.02-.05.03.17.07.39.11.61,0,.02-.01.04-.02.07ZM75.35,28.48c-.07-.15-.13-.27-.18-.37.01-.03.02-.07.03-.1.06.13.11.27.17.41,0,.02-.01.04-.02.06ZM75.62,29.25s0-.02,0-.04c0,0,0,0,0-.01,0,.02,0,.03,0,.04,0,0,0,0,0,0ZM75.62,29.26s0,0,0,0c0,.02,0,.03,0,.05,0-.01,0-.03-.01-.04ZM76.51,29.61s0,.03,0,.04c0,.02,0,.04,0,.06-.08.1-.15.21-.22.33,0-.21-.02-.46-.04-.72.03.02.06.03.1.05.03.01.06.03.09.04.02.01.04.02.07.03,0,.01,0,.02.01.03,0,.05,0,.1,0,.14ZM76.49,30.11s0,.03,0,.04c0,.05,0,.09-.01.14,0,.04,0,.07-.01.11-.05,0-.09.01-.12.02.05-.1.09-.21.14-.31ZM76.21,28.89s0-.08,0-.12c.02.04.03.09.05.13-.02,0-.03,0-.04-.01ZM76.5,28.86s0,0,0,.01c-.14-.22-.25-.44-.35-.65,0-.03,0-.05,0-.07.1.07.23.19.33.39,0,.11.01.22.02.32ZM75.94,28.84s-.04,0-.06,0c-.04-.14-.08-.29-.13-.41.05-.14.11-.28.17-.41.03.1.07.21.12.33-.03.14-.06.31-.09.49ZM76.1,28.07s0,0-.01,0c-.03-.08-.06-.15-.09-.22.13-.28.26-.52.34-.68.01.09.03.18.04.27.03.24.06.47.08.7-.03-.02-.06-.05-.1-.07,0,0,.04.06.1.16,0,.05,0,.09.01.13,0,0,0,.02,0,.02-.11-.16-.24-.25-.33-.28,0-.07-.01-.12-.01-.12-.01.03-.02.07-.03.11ZM76.75,29.02c-.02-.14-.03-.27-.05-.4.07.13.14.27.21.43-.05-.01-.1-.03-.16-.04ZM77.06,29.9c-.05-.11-.1-.21-.15-.31.06.02.12.04.19.06,0,.08-.02.17-.03.25ZM78.8,30.08c-.05.03-.1.07-.15.11.04-.13.09-.25.14-.36,0,.08,0,.16.01.25ZM77.77,28.95s0,0,0,.01c0,0,0,0-.01,0,0,0,0-.01,0-.02ZM77.72,29.18s.07-.08.1-.11c.03.07.06.14.09.21-.05-.01-.12-.03-.2-.04,0-.02,0-.04.01-.06ZM77.86,29.89s-.01.02-.02.03c0-.03-.02-.05-.02-.05.01,0,.03.01.04.02ZM77.53,29.09s-.01.07-.02.1c-.03,0-.07-.01-.1-.02,0-.11,0-.2,0-.29.04-.03.07-.07.11-.1,0,0-.05.03-.11.07-.01-.25-.04-.47-.08-.74.11.17.21.35.31.54-.04.14-.08.28-.1.44ZM77.64,29.81c.06.02.11.04.16.05,0,0,.01,0,.02.01,0,.02,0,.05.01.07-.04.06-.08.13-.11.2-.03,0-.05.01-.08.02,0-.13,0-.24,0-.35ZM77.82,30.61c-.02.06-.04.14-.06.21,0-.02-.01-.05-.02-.07,0-.1-.02-.17-.02-.17,0,.02-.01.04-.02.06,0-.03-.02-.06-.03-.09.01-.03.02-.06.03-.08.02-.01.05-.02.07-.03.01,0,.03-.01.04-.02.02,0,.03-.01.05-.02-.02.07-.04.14-.05.2ZM77.94,30.09s-.03,0-.04,0c0,0,0,0,0-.01.02-.05.05-.09.07-.13,0,0,0,0,0,0,0,.05-.02.09-.03.13ZM78.12,29.08c-.03-.06-.06-.11-.09-.16,0,0,0,0,0,0,.05-.03.09-.05.14-.08-.02.08-.03.17-.05.25ZM78.02,28.8c-.02-.12-.03-.19-.03-.19,0,0,0,.08,0,.21,0,0,0,0,0,0-.04-.07-.07-.15-.11-.21.15-.49.37-.97.54-1.32.02.11.04.22.06.33-.07.23-.13.47-.19.71-.03.13-.06.25-.08.38-.06.02-.12.05-.18.09ZM78.28,30.5s-.05.05-.07.07c0-.03,0-.06,0-.09.01-.04.03-.08.04-.13.01.04.02.08.04.13,0,0,0,.01,0,.02ZM78.67,28.8c.03.15.05.28.06.38-.02-.01-.02-.01,0,0,0,0,0,.01.01.01,0,0,0,0,0,0,0,.06.02.13.02.2-.11.16-.22.33-.3.53,0-.01,0-.03-.01-.04,0-.05,0-.1.02-.16,0,0-.01.06-.02.16,0-.03-.02-.05-.03-.07.1-.32.18-.64.25-1.01ZM78.72,30.8s0,.03-.01.04c0,0,0,.01,0,.02-.02-.1-.05-.21-.08-.32.05.05.09.09.14.14-.01.04-.03.08-.04.12ZM78.72,30.35s.06-.06.09-.09c0,.06,0,.11,0,.17-.03-.03-.06-.05-.1-.08ZM79.07,30.69s0,0-.01-.01c0,0,.01-.01.02-.02,0,.01,0,.02,0,.03ZM79.07,30.16s-.04.03-.06.05c0-.04,0-.08,0-.12.02-.01.04-.03.05-.04,0,.04,0,.08,0,.11ZM79.07,29.91s-.03.02-.05.03c0-.11,0-.22,0-.33.01.02.03.05.05.08,0,.07,0,.15,0,.22ZM79.08,29.55s-.03-.04-.05-.06c0-.03,0-.06,0-.09.02-.03.04-.06.06-.09,0,.08,0,.16,0,.24ZM79.7,30.65c-.03-.07-.06-.15-.09-.22.04,0,.08,0,.13,0-.01.08-.02.15-.04.23ZM79.79,29.99s-.03,0-.05,0c-.04,0-.08,0-.11,0,0-.1.01-.2.02-.31.03-.01.05-.03.08-.05,0,0-.03,0-.08.02,0-.2.01-.41.01-.63,0-.11,0-.23-.01-.37.06-.05.11-.1.17-.14-.04.34-.05.67,0,1.23,0,.09-.02.17-.03.25ZM80.74,28.2s.01-.1.02-.15c0,0,0,0,0,0,.03,0,.07.01.1.02.06.01.12.02.17.03,0,0,.02,0,.02,0-.01.15-.04.43-.07.76-.09-.08-.17-.15-.25-.21,0-.12,0-.23,0-.34,0-.04,0-.08,0-.12ZM80.69,29.57c0-.07.01-.14.02-.2,0,.08.01.2.03.34-.01,0-.03-.01-.04-.02,0,0,0,0,0,0,0-.01,0-.03,0-.04,0-.02,0-.05,0-.08ZM80.74,29.77c0,.07.02.14.03.21-.02,0-.05,0-.07,0,0-.08,0-.16-.01-.24.02,0,.03.02.05.03ZM80.34,27.95s.03,0,.05.01c0,0,.02,0,.03,0,0,.16,0,.32,0,.48-.06-.04-.12-.07-.17-.09,0-.14,0-.29-.02-.43.03.01.07.02.11.03ZM80.22,30.42s0-.02,0-.03c0,0,0,0,0,0,0,0,0,.02,0,.03ZM80.35,29.54c-.02.15-.05.3-.07.45-.04,0-.09,0-.13,0,0,0,0,0,0-.01.07-.49.11-1.03.11-1.6.05.04.11.08.17.13,0,.33-.02.67-.07,1.02ZM80.76,30.58s-.01-.01-.02-.02c0-.08-.02-.15-.02-.23.01,0,.03,0,.04,0,.03,0,.05-.01.08-.02-.02.09-.05.18-.08.27ZM80.92,29.98s-.04,0-.06,0c-.02-.06-.03-.11-.04-.17.04.02.07.04.11.06,0,.04,0,.07,0,.1ZM80.79,29.74c-.05-.2-.07-.35-.08-.42,0-.04,0-.09,0-.12,0-.14.01-.27.02-.38.08.08.16.17.24.27-.02.24-.04.49-.05.72-.05-.02-.09-.04-.13-.05ZM81.1,28.11c.11.01.23.02.36.03.02.16.04.3.06.41-.08.14-.16.3-.24.47-.06-.39-.12-.71-.18-.92ZM81.35,29.65c.04.08.08.16.12.24,0,0,0,.02,0,.02,0,.04,0,.08,0,.12,0,0,0,.01-.01.02-.02,0-.04-.01-.07-.02,0-.13-.02-.26-.03-.38ZM81.36,29.25c.06-.16.13-.32.19-.47.02.11.04.22.07.33-.04.12-.07.24-.1.37-.05-.08-.11-.15-.17-.22ZM82.01,28.18s-.04.07-.06.12c-.01-.04-.02-.09-.03-.13.03,0,.06,0,.09,0ZM81.82,30.04s.03-.05.05-.07c.01.04.03.09.04.13-.04,0-.06,0-.06.01,0-.02-.02-.05-.03-.07ZM82.02,30.57s-.04-.05-.07-.07c-.03-.12-.06-.23-.09-.33,0-.02-.02-.04-.02-.06,0,0,.03.02.08.04.03.11.07.22.1.33,0,.03,0,.06,0,.09ZM82.16,29.2s-.01.01-.02.02c-.02-.13-.05-.26-.07-.39.05.02.09.05.14.08-.01.08-.03.18-.04.29ZM82.04,28.71s0-.03,0-.05c.03-.18.06-.35.09-.48.03,0,.07,0,.1.01,0,0,0,0,0,0,.07.17.13.35.18.52.02.08.04.14.06.21,0,0-.01.01-.02.02-.06-.05-.13-.1-.19-.14,0-.13,0-.21,0-.21,0,0-.01.07-.03.19-.06-.03-.12-.06-.18-.09ZM82.25,28.94s.07.05.11.08c-.04.03-.07.06-.11.09,0-.06,0-.12,0-.18ZM82.35,30.09s-.03,0-.05,0c0-.05-.02-.09-.03-.14.03.05.05.1.08.15,0,0,0,0,0,0ZM82.4,29.94s0-.05.01-.07c0,0,0,.02-.02.06-.05-.08-.1-.16-.15-.23,0-.08,0-.15,0-.23.09-.1.17-.2.26-.3,0,0,0,0,0,0,.05.21.07.39.08.56-.06.08-.11.15-.17.24,0-.01-.01-.02-.02-.03ZM82.43,30.45s0-.02.01-.03c0,0,.02,0,.02.01,0,0,.01,0,.02,0-.02,0-.04,0-.05.01ZM82.59,30.14s-.02,0-.02,0c0-.01.02-.03.02-.04,0,.02,0,.03,0,.05ZM82.64,28.79c-.02-.07-.03-.15-.05-.22.03.06.05.12.08.2,0,0,0,0,0,0,0,0-.02.01-.03.02ZM82.71,29.09s-.02-.07-.03-.11c.01-.01.02-.02.04-.04.03.1.07.22.11.35,0,.04,0,.08,0,.12-.03-.05-.07-.11-.1-.16,0-.05-.02-.1-.03-.16ZM82.92,30.22c-.02-.09-.05-.22-.08-.41.01.02.03.05.04.07.01.1.03.21.04.34,0,0,0,0,0,0ZM83.1,29.09s.03.03.04.04c-.01.01-.03.02-.04.04,0-.03,0-.05,0-.08ZM83.38,29.49s-.03-.04-.03-.04c0,0,0,.03.01.07-.05.1-.11.21-.16.32-.02-.08-.05-.16-.07-.24,0-.1-.02-.2-.02-.3.03-.04.05-.08.08-.11.07.08.13.18.2.27,0,0-.01.02-.02.03ZM83.48,29.05s0,.04,0,.06c-.01.07-.03.13-.04.2-.06-.07-.12-.12-.18-.17.08-.09.16-.17.25-.24,0,.05-.02.1-.02.16ZM83.51,28.86c-.07.04-.17.12-.31.23-.04-.03-.07-.06-.1-.08,0-.12,0-.25,0-.37.16-.13.33-.23.5-.32-.03.17-.06.36-.08.55ZM85.68,29.53s-.02-.01-.03-.02c0,0,.01.02.03.04,0,.02,0,.05,0,.07,0,0,0,.02,0,.02-.08.1-.15.2-.23.32-.02-.35-.05-.8-.08-1.19.09.22.2.46.31.7,0,.02,0,.04,0,.06ZM85.67,30.01s0,.1,0,.14c0,0,0,.02,0,.03-.03,0-.05-.01-.08-.02.03-.05.06-.1.09-.15ZM85.67,28.86s0,0,0,.01c-.14-.22-.25-.44-.35-.65,0-.03,0-.05,0-.07.1.07.23.19.33.39,0,.11.01.22.02.32ZM84.7,28.91s0,.02,0,.02c0,0,0,.01,0,.02,0,0,0-.01,0-.02,0,0,0-.02,0-.02ZM83.74,28.86c0-.1.01-.21.02-.32.11-.19.23-.31.33-.39,0,.02,0,.04,0,.07-.1.21-.2.42-.35.65,0,0,0,0,0-.01ZM83.73,29.54s.03-.04.03-.04c0,0-.02.01-.03.02,0-.02,0-.04,0-.06.11-.25.22-.48.31-.7-.03.39-.07.84-.08,1.19-.07-.12-.15-.22-.23-.32,0,0,0-.02,0-.02,0-.02,0-.05,0-.07ZM83.83,30.16s-.05.01-.08.02c0,0,0-.02,0-.03,0-.04,0-.1,0-.14.03.05.06.1.09.15ZM84.14,28.07s-.02-.08-.03-.11c0,0,0,.05-.01.12-.1.04-.22.12-.33.28,0,0,0-.02,0-.03,0-.06,0-.12.01-.18.02-.24.05-.48.08-.74.01-.11.03-.23.05-.34.08.13.21.38.35.69-.01.04-.03.08-.04.12,0,0-.01-.02-.01-.02,0,0,0,.02,0,.04-.02.05-.04.1-.06.15,0,0,0,0-.01,0ZM84.31,28.97c-.03-.24-.07-.45-.11-.63.02-.05.04-.1.05-.15.03.17.07.38.11.6-.02.06-.04.11-.05.17ZM84.49,28.41c-.07-.15-.13-.27-.18-.36.01-.04.02-.07.03-.11.06.13.12.27.18.42,0,.02-.02.03-.03.05ZM84.89,28.36c.06-.15.12-.28.18-.42.01.04.02.07.03.11-.05.09-.11.22-.18.36,0-.02-.02-.04-.03-.05ZM85.09,28.97c-.01-.06-.04-.11-.05-.17.04-.23.08-.44.11-.6.02.05.03.1.05.15-.04.17-.07.39-.11.63ZM85.27,28.07s0,0-.01,0c-.02-.05-.04-.1-.06-.15,0-.01,0-.03,0-.04,0,0,0,.01-.01.02-.02-.04-.03-.08-.04-.12.15-.31.28-.55.35-.69.02.11.04.23.05.34.03.26.06.5.08.74,0,.06,0,.12.01.18,0,0,0,.02,0,.03-.11-.16-.24-.25-.33-.28,0-.07-.01-.12-.01-.12-.01.03-.02.07-.03.11ZM85.93,29.11s0-.04,0-.06c0-.06-.01-.11-.02-.16.09.07.17.15.25.24-.06.05-.12.11-.18.17-.01-.07-.02-.13-.04-.2ZM86.27,29.6c-.02.08-.04.16-.07.24-.05-.11-.11-.22-.16-.32,0-.04.01-.07.01-.07,0,0-.01.01-.03.04,0,0-.01-.02-.02-.03.07-.09.13-.18.2-.27.03.03.06.07.08.11,0,.1-.02.2-.02.3ZM86.3,29.17s-.03-.02-.04-.04c.01-.02.03-.03.04-.04,0,.03,0,.05,0,.08ZM86.31,29s-.07.05-.1.08c-.13-.11-.24-.18-.31-.23-.03-.2-.05-.38-.08-.55.17.09.34.2.5.32,0,.12,0,.25,0,.37ZM86.49,30.22s0,0,0,0c.02-.13.03-.25.04-.34.01-.02.03-.05.04-.07-.04.19-.06.32-.08.41Z" fill="#286300"/>
  <g>
    <path d="M46.89,32.28c-8.97.44-9.33.79-9.76,9.76-.44-8.97-.79-9.33-9.76-9.76,8.97-.44,9.33-.79,9.76-9.76.44,8.97.79,9.33,9.76,9.76Z" fill="#f1d500"/>
    <path d="M62.64,23.64c-14.1.69-14.66,1.24-15.34,15.34-.69-14.1-1.24-14.66-15.34-15.34,14.1-.69,14.66-1.24,15.34-15.34.69,14.1,1.24,14.66,15.34,15.34Z" fill="#f1d500"/>
  </g>
</svg>