<?xml version="1.0" encoding="UTF-8"?>
<svg id="_レイヤー_1" data-name="レイヤー_1" xmlns="http://www.w3.org/2000/svg" width="90" height="60" version="1.1" viewBox="0 0 90 60">
  <!-- Generator: Adobe Illustrator 29.6.1, SVG Export Plug-In . SVG Version: 2.1.1 Build 9)  -->
  <path d="M58.7,35.5c-8.4,1-13.2-2-19-6.7-6.4-5.1-10.9-3.4-15-.5-3.1,2.1-5.8,5.3-10.3,6.6-2.7.7-4.9-.6-7.2.5-2.3,1.1-1.6,4.2.5,5.6,4.6,2.9,10.7,5,16.9,6.6,12.8,3.4,41.5,6.5,51.2,2.7,6.9-2.7,11.7-5.8,13.5-8.7-.1,0-5.2-1.2-11.9-3.4-6.8-2.2-15.1-3-18.6-2.6Z" fill="#eee4ce"/>
  <path d="M89.9,38c-.9-3.8-4.6-4.9-8.7-4.7-4.1.2-9.8-1.4-15.6-5.3-5.7-3.9-14-12.9-22.8-17.1-8.8-4.2-19.1-1.4-21.3,3.6-2.2,5-5.7,6.9-11.9,7C3.4,21.5.4,24.5,0,28.8c-.5,5.2,2.6,9.1,7.5,12.1-2-1.4-2.8-4.5-.5-5.6,2.3-1.1,4.5.2,7.2-.5,4.5-1.2,7.2-4.4,10.3-6.6,4.1-2.8,8.6-4.5,15,.5,5.9,4.7,10.7,7.7,19,6.7,3.5-.4,11.8.4,18.6,2.6,6.7,2.2,11.8,3.3,11.9,3.4.7-1.2,1-2.4.7-3.5Z" fill="#cfbca0"/>
</svg>