<?xml version="1.0" encoding="UTF-8"?>
<svg id="_レイヤー_1" xmlns="http://www.w3.org/2000/svg" width="90" height="60" version="1.1" viewBox="0 0 90 60">
  <!-- Generator: Adobe Illustrator 29.6.1, SVG Export Plug-In . SVG Version: 2.1.1 Build 9)  -->
  <path d="M3.1,29.8c0,.2,0,.4,0,.5,0,.2,0,.3,0,.5v19.2h83.8v-21.1h0v-.4.2h0c0-.3-.2-.5-.3-.8.2-.4.4-.7.5-.9h0c0,0-.3.2-.6.5-.2-.9-.2-1.5-.2-1.5,0,0,0,.5,0,1.6,0,0-.2.2-.3.4-.4-1.6-1.1-3-1.1-3,0,.3.2,1.1.3,2.1,0,.2,0,.3,0,.5-.3-.3-.6-.5-.8-.7v-.4s0,0,0,.3h0c0,.5-.3,1.2-.5,2.1,0,0-.4.2-.9.5,0-.9,0-1.9-.2-3,0,.3,0,1,0,1.9,0,.6,0,1-.2,1.4,0,0-.2,0-.3.2h0c-.2-.8-.4-1.4-.7-1.9,0-1,.2-2.1.2-2.1,0,.3-.4.8-.6,1.5,0,0,0,0-.2-.2.2-.4.3-.6.3-.6,0,0-.2,0-.4.4-.2-.3-.4-.4-.4-.4,0,0,0,.2.3.6,0,0,0,0-.2.2-.2-.7-.4-1.2-.6-1.5,0,0,0,1.1.2,2.1-.3.5-.5,1.2-.7,2,0,0-.2-.2-.3-.3,0-.4,0-.8-.2-1.4,0-.9,0-1.6,0-1.9-.2,1.1-.2,2.1-.2,3-.4-.3-.7-.4-.9-.5,0-.5-.2-.9-.3-1.3.3-.5.4-.8.4-.8,0,0-.2.2-.5.5,0-.5-.2-.7-.2-.7,0,.3,0,.6,0,.8-.2.2-.4.5-.6.8-.5-1.3-.4-2.2-.4-2.2v.2-.2s0,.9-.4,2.2c-.2-.3-.4-.6-.6-.8,0-.3,0-.5,0-.8,0,0,0,.3-.2.7-.3-.3-.5-.5-.5-.5,0,0,0,0,.2.4-.2,0-.5.4-.9.8,0-.5,0-1.1-.2-1.6,0,.3,0,1,0,1.8-.2.3-.5.6-.7.9-.3-1-.8-1.7-1.1-2.1,0-.9.3-1.6.3-1.8v.2h0c0,.2-.3.6-.5,1.2h0q0,0,0,.1v.2c-.2-.5-.3-.9-.5-1.1,0,0,0,1,.2,2,0,.5-.3,1.1-.3,1.7v.8h0v-.4c0-2-.4-3.9-.6-4.5,0,0-.2,2.3-.3,4,0,0,0-.2-.2-.2h0v-.5c0-.9.2-2,.4-3.1,0,0-.2.6-.5,1.6v-.6c0,.3,0,.6,0,.9,0,.2,0,.5-.2.8-.2,0-.5,0-.7,0h-.2c0-1.7,0-3.4-.3-5.4,0,.4,0,1.4,0,2.5,0,1.2-.3,1.8-.2,2.9h-.8c0-1.1.2-2.3.2-2.3-.2.3-.5,1.2-.8,2.3h-.4c.4-.9.8-1.6.8-1.6,0,0-.6.5-1.2,1.7,0,0-.2.2-.4.3,0,0-.3.4-.4.6h0s0,.2,0,.3h0c0-.4,0-.8-.2-1.2,0-.9,0-1.6,0-1.9-.2,1.1-.2,2.1-.2,3-.4-.2-.7-.3-.8-.4,0-.7-.3-1.2-.4-1.7.2-.3.3-.5.3-.5,0,0,0,0-.4.3,0-.4-.2-.6-.2-.6v.6c-.2.2-.4.4-.7.8-.4-1.2-.4-2-.4-2,0,0,0,.6.2,2v.2c0,0-.2.3-.3.5,0-.5-.2-1-.3-1.4,0-.9,0-1.3,0-1.3,0,0,0,.4,0,1-.3-1.2-.7-2-.7-2,0,.3.2,1.6.4,2.9-.2-.3-.4-.5-.6-.6v-.6s0,.2-.2.6c-.2-.2-.4-.3-.4-.3,0,0,0,.2.3.5,0,.4-.2.9-.3,1.6,0,0-.4.2-.9.5,0-.9,0-1.9-.2-3,0,.3,0,1,0,1.9,0,.6,0,1-.2,1.4,0,0-.2.2-.3.2h0c-.2-.8-.4-1.5-.7-2,0-1,.2-2.1.2-2.1,0,.3-.4.8-.6,1.5l-.2-.2.3-.6s-.2,0-.4.4c-.2-.3-.4-.4-.4-.4,0,0,0,.2.3.6l-.2.2c-.2-.7-.4-1.2-.6-1.5,0,0,0,1.1.2,2.1-.3.5-.5,1.2-.7,2,0,0-.2-.2-.3-.3,0-.4,0-.8-.2-1.4,0-.9,0-1.6,0-1.9-.2,1.1-.2,2.1-.2,3-.4-.3-.7-.4-.9-.5,0-.5-.2-.9-.3-1.3.3-.5.4-.8.4-.8l-.5.5c0-.5-.2-.7-.2-.7,0,.3,0,.6,0,.8-.2.2-.4.5-.6.8-.5-1.3-.4-2.2-.4-2.2v.2-.2s0,.9-.4,2.2c-.2-.3-.4-.6-.6-.8,0-.3,0-.5,0-.8,0,0,0,.3-.2.7l-.5-.5s0,0,.2.4c-.2,0-.5.4-.9.8,0-.5,0-1.1-.2-1.6,0,.3,0,1,0,1.8-.2.3-.5.6-.7.9-.3-1-.8-1.7-1.1-2.1,0-.9.3-1.6.3-1.8v.2h0c0,.2-.3.6-.5,1.2h0q0,0,0,.1v.2c-.2-.5-.3-.9-.5-1.1,0,0,0,1,.2,2,0,.5-.3,1.1-.3,1.7v.8h0v-.4c0-2-.4-3.9-.6-4.5,0,0-.2,2.3-.3,4,0,0,0-.2-.2-.2h0v-.5c0-.9.2-2,.4-3.1,0,0-.2.6-.5,1.6v-.6c0,.3,0,.6,0,.9,0,.2,0,.5-.2.8-.2,0-.5,0-.7,0h-.2c0-1.7,0-3.4-.3-5.4,0,.4,0,1.4,0,2.5,0,1.2-.3,1.8-.2,2.9h-.8c0-1.1.2-2.3.2-2.3-.2.3-.5,1.2-.8,2.3h-.4c.4-.9.8-1.6.8-1.6,0,0-.6.5-1.2,1.7,0,0-.2.2-.4.3,0,0-.3.4-.4.6h0s0,.2,0,.3h0c0-.4,0-.8-.2-1.2v-1.5h0v-.5.5c-.2.2-.7.6-1.1,1.3-.2-1-.4-1.7-.4-1.7,0,.4,0,.7.2,1,0,.3,0,.6,0,.9,0,0,0,.2-.2.4,0,0-.2-.2-.3-.2v-.2.2h0c0-.2,0-.4.2-.6.3-1.5.2-2,.2-2,0,0,0,1-.5,2.3-.5-1.3-.5-2.3-.5-2.3,0,0,0,.6.2,2,0,.2,0,.4.2.6h0v-.2.2s0,0-.2,0c0-.4,0-.8-.2-1.1h0c0-.4,0-.8.2-1.1,0,0,0,.3-.2.8-.3-1.4-.8-2.4-.8-2.4,0,.3.2,1.3.3,2.4l-.2.2-.6-.6v-.5.5h0v1.4c-.2.3-.5.6-.7.9-.3-1-.8-1.7-1.1-2.1,0-.9.3-1.6.3-1.8v.2h0c0,.2-.3.6-.5,1.2h0q0,0,0,.1v.2c-.2-.5-.3-.9-.5-1.1,0,0,0,1,.2,2,0,.5-.3,1.1-.3,1.7v.8h0v-.4c0-2-.4-3.9-.6-4.5,0,0-.2,2.3-.3,4,0,0,0-.2-.2-.2h0v-.5c0-.9.2-2,.4-3.1,0,0-.2.6-.5,1.6v-.6c0,.3,0,.6,0,.9,0,.2,0,.5-.2.8-.2,0-.5,0-.7,0h-.2c0-1.7,0-3.4-.3-5.4,0,.4,0,1.4,0,2.5-.1,1.2-.3,1.8-.2,2.9h-.8c.1-1.1.2-2.3.2-2.3-.2.3-.5,1.2-.8,2.3h-.4c.4-.9.8-1.6.8-1.6,0,0-.6.5-1.2,1.7-.1,0-.2.2-.4.3-.1,0-.3.4-.4.6h0s0,.2-.1.3h0c0-.4,0-.8-.2-1.2-.1-.9,0-1.6,0-1.9-.2,1.1-.2,2.1-.2,3-.4-.2-.7-.3-.8-.4-.2-.9-.3-1.6-.4-2,0,0,.1-.2.1-.2h-.2c0-.1-.1-.3-.1-.3v.4c-.2,0-.4.4-.7.8-.3-1-.3-1.8-.3-1.8,0,0-.1.5.2,1.9,0,0-.2.2-.2.4-.1-.6-.3-1.2-.4-1.7v-.6.4c-.3-.9-.6-1.5-.6-1.5,0,.3.2,1.5.4,2.6v.2c-.3-.4-.6-.6-.7-.8v-.4s0,0-.1.4h-.2q0,0,.1.1c-.1.4-.3,1.1-.5,2-.3.3-.5.7-.8,1.2h0v-2c.3-.5.7-.9,1-1.2,0,0-.5.3-1,.9,0-.5,0-1.1-.2-1.6,0,.3.1,1,0,1.8-.2.3-.5.6-.7.9-.3-1-.8-1.7-1.1-2.1.1-.9.3-1.6.3-1.8v.2h-.1c-.1.2-.3.6-.5,1.2h-.1q0,0,.1.1v.2c-.2-.5-.3-.9-.5-1.1,0,0,0,1,.2,2-.1.5-.3,1.1-.3,1.7v.8h-.1v-.4c-.1-2-.4-3.9-.6-4.5,0,0-.2,2.4-.3,4.1-.1,0-.2,0-.3-.2,0-.3,0-.6-.1-.9v-2.5c0-.5,0-1,.2-1.6,0-.4.1-.9.2-1.3,0,0-.6,1.9-.9,4.8v.4h-.3c0-1.1,0-2.2-.1-3.5v2.2c0,.5-.2.9-.2,1.3-.2-.9-.4-1.4-.4-1.4,0,.4.1.7.2,1v.4h-1c.1-1.1.2-2.3.2-2.3-.2.3-.5,1.2-.8,2.3h-.4c.4-.9.8-1.6.8-1.6,0,0-.6.5-1.2,1.7-.1,0-.2.2-.4.3-.1,0-.3.4-.4.6h0s0,.2-.1.3h0c0-.4,0-.8-.2-1.2-.1-.9,0-1.6,0-1.9-.2,1.1-.2,2.1-.2,3-.4-.2-.7-.3-.8-.4-.2-1-.4-1.7-.5-2.1h0c0-.3-.1-.4-.1-.4v.4c-.2,0-.4.4-.7.7-.3-1-.3-1.7-.3-1.7,0,0-.1.5.1,1.8-.1.2-.3.4-.4.7-.1-.3-.3-.5-.4-.7.3-1.3.1-1.8.1-1.8,0,0,0,.7-.3,1.7-.3-.4-.6-.6-.7-.7v-.4s0,0-.1.3h0c-.1.5-.3,1.2-.5,2.2-.2,0-.5.2-.8.4,0-.9,0-1.9-.2-3,0,.3.1,1,0,1.9,0,.5-.1.9-.2,1.2h0c0,0,0-.2,0-.3h0c0-.3-.2-.5-.4-.6-.2-.2-.3-.3-.4-.3-.6-1.2-1.2-1.7-1.2-1.7,0,0,.4.7.8,1.6h-.4c0-.5-.3-.9-.4-1.3v3h-2.7ZM86.3,28.1c0,.3.2.6.4,1,0,.3,0,.6-.2,1,0-.3-.2-.5-.3-.8,0-.5.2-.9.2-1.1v.2h0l-.2.4v-.2c0-.2.2-.4.3-.6h-.2ZM84.1,33.9h0v-.6h.2v.5s0,0-.2,0h0ZM84,32.5h.2-.3.1ZM84.2,34.3v-.3s0,0,.2-.2v.3h0,0v.5s0-.2-.2-.3ZM84.5,35.6h0v-.2h0v-.4.6ZM85.6,32.2v2-2ZM85.4,30.5c0-.2,0-.4.2-.6h0c0,.2,0,.4-.2.6h0ZM85.4,30.6h0ZM85.1,27.4v.4h0v-.4h0ZM85.3,29c-.2.3-.3.7-.4,1.2,0-.4,0-.8-.2-1,0-.3.2-.5.3-.8,0,.2.2.4.3.7h0ZM84,29.1v-.3c0-.4,0-.8,0-1.2v-.6c0,.2.4.6.6,1.1,0,.2,0,.4-.2.6h0v-.2.2c-.2,0-.4.2-.5.5h0ZM83.9,29.9v-.5c.2-.3.4-.5.6-.6h0c-.2.4-.3.8-.6,1.2h0ZM83.9,31c.2-.4.4-.8.5-1.2,0,.6,0,1.4,0,2,0-.2-.2-.3-.4-.5h0v-.2h0ZM83.8,35.1c0,.2,0,.4.2.6h0v.4c0-.2-.2-.6-.2-1h0c0,0,0,0,0,0ZM83,31.7c0-.4,0-.8,0-1.2.2.2.3.3.4.5h0c0,.2-.2.4-.3.6h0ZM83.7,28.9c0,.4,0,.9-.2,1.4h0v.4c-.2-.2-.4-.3-.5-.5v-.8c.4-.4.7-.6.9-.6h-.2ZM82.5,35.8h0c0,0,0,0,0,0ZM82.4,31.3h0c0,0,0-.1,0-.1h0ZM82.4,29.9h0ZM82.3,30h0v.8s0-.2-.2-.3v-.3h0c0,0,0-.2.2-.3h0ZM82.2,29.9h0c0,0,0,0,0,0ZM79.4,33.4h0c0,0,0,0,0,0ZM79.6,33.1h0v-.2h0v.2h0ZM80,31.3h0c0,0-.2.2-.2.4h0q0,0,0,0h0s0,0-.2,0c0-.2.3-.4.4-.5,0,0,0,.2,0,.2h-.1ZM79.7,30.3s.2-.2.3-.2v.5c0,0-.2-.2-.3-.3ZM79.8,34.9h0ZM79.7,32.2h0c0,0,0,0,0,.1h0ZM79.9,32.1h0ZM79.9,31.7h0q0,0,0,0ZM80,37c0,0,0,.2,0,.3v-.6h0v.3h0ZM80,36.7h0c0,0,0,0,0,.1h0ZM80.7,35.8h0ZM80.7,31.8h0q0,0,0,0h0q0,0,0,0h0q0,0,0,0h0ZM81.4,36.5h0c0,0,0,0,0-.1h0ZM81.4,37v-.3h0v.6c0,0,0-.2,0-.3h0ZM81.5,31.9h0q0,0,0,0h0ZM81.6,34.9h0ZM81.9,32.9h0v.2h0q0,0,0-.2h0c0,0,0,0,0,0ZM82,33.3h0c0,0,0,0,0,0ZM82,31.9h0q0,0,0,0s0,0,.2-.2v.2h0ZM82,31.1s0,0-.2,0c0,0,0,0,.2.3v.3c0,0-.2,0-.3.2h0q0,0,0,0c0,0-.2-.3-.2-.4h0c0-.3.3-.5.5-.8v.5ZM81.4,30.6v-.5s.2,0,.3.2c0,0-.2.2-.3.3ZM81.2,29.4c0-.2,0-.5,0-.8,0,.4.3.7.4,1.1,0,.2,0,.3,0,.4,0,0-.2-.2-.4-.3v-.3.3s-.2,0-.2,0v-.3ZM81.4,30v.6c0-.2,0-.5,0-.7,0,0,0,0,.2,0h0ZM81,32.6h0q0,0,0,0h0ZM80.7,27.3c0,0,0,.2.2.3,0,.2,0,.3-.2.5,0-.2,0-.4-.2-.5,0,0,0-.2.2-.3ZM80.4,32.6h0q0,0,0,0h0ZM80.2,30.6v-.6s.2,0,.2,0c0,.2,0,.5,0,.7h0ZM79.7,29.7c0-.4.2-.7.4-1.1,0,.3,0,.6,0,.8v.3s-.2,0-.2,0v-.3.3c0,0-.2.2-.4.3,0,0,0-.3,0-.4ZM79.5,30.6c0,.2.2.3.3.5,0,0-.3.2-.4.4,0-.3,0-.5,0-.9ZM79.4,31.8s0,0,.2.2h0q0,0,0,0h0c0,0,0-.2,0-.2ZM79.2,30.1s0,0-.2,0v-.3s0,0,.2.2ZM79,30.4s.2,0,.2-.2h0v.4s0,.2-.2.3v-.4h0ZM79.1,31.2v.2h0v-.2ZM78.9,31.5h0v.2h0v-.3h0ZM78.9,35.8h0c0,0,0,0,0,0ZM78.2,32.8v-.3h0v.2h0ZM78.4,31.7s0-.2,0-.3c0,0,0-.2.2-.3v.6h0ZM78.6,29.5v1.2c0,0-.2.3-.4.4h0v-.2h0v-.6h0c0-.5,0-.9-.2-1.4,0,0,.4.3.9.6h-.3ZM73.9,31.7v-.4h0s0,0,0,.2c0,0,0,.2,0,.3h0ZM74.1,32.8v-.4.4ZM74.4,30.2h-.3c0-.3.2-.5.3-.7v.7ZM74.7,35.4h0v.3c0,0,0-.2-.2-.4h0ZM75.1,33.9h0q0,0,0,0h0ZM75.1,34h0v.2h0v-.2ZM75.2,34.3h0c0,0,0,0,0,0ZM75.2,32.2v.7c0-.3-.2-.5-.3-.7h0v-.8h0v-.2h.4v1.5-.5ZM74.9,30h0v-.5c0-.2.2-.3.3-.4v.3c0,.2-.2.4-.4.7h0ZM75.3,30h0v-.2h0v.2ZM77.2,34.3h0c0,0,0,0,0,0ZM77.2,34.2h0v-.2h0v.2ZM77.3,33.8h0q0,0,0,0h0ZM77.1,32.9v-.5h0c0,0,0,.3-.2.4h.2ZM77.5,35.8v-.3h0c0,0,0,.2-.2.4h0ZM77.5,31.2h0v.6h-.4c0-.6,0-1.3,0-1.9h0c.2.4.3.7.5,1.1v.2ZM77.5,29.4v.5h0c0-.2-.3-.4-.4-.7v-.3c0,0,.2.2.3.4h0ZM77.3,27.9v1.2h0c0,0-.2-.2-.2-.3v-.5.2h0s0,0,0,.3h0c0-.3.3-.6.4-.8h-.1ZM76.9,28.8h0q0,0,0,0h0ZM76.7,29.5v.4h0c0-.2,0-.3.2-.5h-.2ZM76,28c0-.6.2-1,.2-1.3,0,.3,0,.7.2,1.3,0,0,0,.3,0,.4,0,.2-.2.4-.3.6,0-.2-.2-.5-.3-.6,0,0,0-.3,0-.4h0ZM75.9,29.9h0v-.4c0,0,0,.3,0,.4h0ZM75.4,28.8h0q0,0,0,0h0ZM74.9,29.1v-.2c0-.2.2-.3.2-.3,0,0,0,0-.2,0v-.9c0,.2.2.5.4.8h0c0,0,0-.2,0-.3h0v-.2.5s-.2.2-.2.3h0v.2ZM74.7,27.2c0,0,0,.3.2.4,0,.4-.2.9-.3,1.4-.3.3-.6.8-.8,1.3v-2c.3-.4.6-.8.9-1.1ZM70.6,32.9h0ZM70.7,36.1h0q0,0,0,0ZM71.2,33.2h0v-.2l.2-.2c0,.2,0,.4,0,.5h0ZM71.5,37.7h0ZM71.5,37.6h0v-.2.2ZM71.4,36.6v-.3.2h0c0,0,0,0,0,0ZM71.6,36.4h0v-.2h0v.2ZM71.7,36.1h0ZM71.5,35.9v-.4c0,0,0,.2,0,.3h-.2,0ZM72,32.8h0v-.3h0v.2h0c0,0,0,0,0,0ZM72.3,30s0,.2,0,.3v-.4s0,0,.2,0h0ZM72.3,36.7h0ZM72.3,36.8h0ZM72.4,37.3h0ZM72.5,32.1v-.4h0s0,0,0,.2v.2h0ZM72.6,32.4h0v-.3c0,.2.2.4.3.6h-.3v-.2h0ZM72.6,31.7h0ZM72.9,32.9h0v.3h0v-.3h0c0,0,0,0,.2,0h-.2ZM73.2,30.3h0c0,0,.2,0,.2.1h-.2v-.2h0ZM73.4,31.4h0ZM73.5,28.7c0,.6,0,1,0,1.6,0,0-.2,0-.3-.2,0-.2,0-.3,0-.5.2-.3.3-.6.5-.9ZM73,32.3c0-.2-.2-.4-.3-.6h0q0,0,0,0s0,0,0,.2v.5h.1ZM72.7,30.1h0ZM72.8,30.5h-.3c0,0,0-.2,0-.3,0,0,0,0,.2.2h0ZM71.7,27.3c.3.6.6,1.4.9,2.2,0,0,0,.2-.2.3h0v-.3.3c0,0-.2,0-.3,0,0-.2,0-.4,0-.6,0-.4-.2-.8-.3-1.2v-.6ZM71.1,30.5h0v-.6c0,.6.3,1.2.4,1.7h0v-.2.3h0c0-.3-.3-.6-.5-.9v-.3h0ZM71,31.5c0,.2,0,.3.2.5h0,0s-.2,0-.3-.2v-.4h.1ZM71,32.3s0,0,.2.2c0,0,0,0-.2,0v-.3ZM71,34.1h0v.3-.3ZM70.7,35.7h0v-1.3s0,0,0,.2v1h0ZM70.7,34.5s0,0,0-.2v-.6h0v.7h0ZM70.7,32.2h0v-.2h0v.2ZM70.7,31.7h0v-.4h0v.4ZM70.7,30.8v.2h0v-.4h0v.2ZM70.1,36.9h0v-.3c0-.3,0-.6-.2-1h0v1.2h0ZM69.8,33.7v.2h0v-.3h0ZM69.8,34.8s0,0,0-.2v.5s0,0-.2-.2v-.2h0ZM69.3,35.8h0v.7c0-.2,0-.4,0-.5v-.2h0ZM69,33.9v.3h0v-.2h0ZM66.6,36.8v-.7h0v.7ZM66.6,35.9h0v-.6s0-.2,0-.3v.8h0ZM66.7,34.9s0,0,0,.2v-.8h0v.7h0ZM66.7,33.6h0v-.8h0v.7h0ZM66.7,31.9h0v-.2h0c0,0,0-.3.2-.4v.6h0ZM67.3,35.4h0v.2c0,.3,0,.6-.2.8,0-.5,0-.9.2-1.4v.4ZM67.4,34.7v-.3h0v.3ZM67.7,33.8s0-.2,0-.3h0v-.3c0,.2,0,.4.2.6h0ZM67.5,31.6s0,0,.2,0v.3h0v-.2h0ZM67.6,32.3h0v.5c0-.2,0-.4,0-.5ZM68.1,34.1h0v-.2h0v.3h0ZM68.3,34.7h0ZM68.6,32.8v-.3h0v.3h0ZM68.7,31.8h-.2c0-.2,0-.4,0-.6v-1.5h.4v2.2h-.1ZM68.1,28.5h.7v.6h-.7v-.3h0v-.3ZM68,36.1c0,.2,0,.5-.2.7v-1.1c0,0,0,.3,0,.4h0ZM67.8,31.8h0v-.3.3ZM67.8,31.2v.2h-.2v-1.2s0,0,.2-.2c0,.3,0,.7,0,1.1h0ZM67.3,28.7h.2v.7s0,0-.2.2v-.8h0ZM66.6,28.7h.6c0,.3-.2.7-.2,1.2h0c0-.1-.2-.3-.3-.5v-.7ZM66.4,29.8c0,0,0,.3.2.4,0,0-.2.2-.3.2h0v-.2c0-.2,0-.4,0-.5h0ZM66.4,35.5h0c0-.3,0-.5-.2-.8h0v.9h0ZM66.2,32.7v1.2h0v-1.2h0ZM64.7,33.4h0ZM64.7,32.3v-.3.4h0ZM65,32.6h0c0,0,0,0,0,.1h0ZM65,31.7h0s0-.2-.2-.2h.3s0,0,0,.2h0q0,0,0,0ZM65.1,34.9h0ZM65.2,37.4h0ZM65.2,32.1h0s0-.2,0-.2v.4-.2ZM65.4,36.5h0ZM65.5,30.5h0v-.5s.2,0,.2,0c0,.2,0,.4,0,.6h0ZM66,31.9v.2h0c0-.2,0-.3.2-.5h0c0,0,0,.3,0,.3ZM65.9,28.8v.2s0,0,0-.2h.2,0ZM65.8,32.3h0c0,0,0,.3,0,.4h0q0,0,0,0c0,0,0-.2,0-.3h0ZM65,29.7c0-.3.2-.6.3-.9h.2c0,.2,0,.5,0,.8h0s-.2,0-.3,0v-.3.3c0,0-.2,0-.3.2h0v-.3h0ZM65.3,30.4s0,0-.2-.2c0,0,0,0,.2,0v.3ZM64.9,30.5h0c0,.2.3.3.4.5v.2c-.2,0-.4.2-.6.2h0c.2-.3.3-.4.3-.4,0,0-.2,0-.3.2,0-.2,0-.4,0-.7h0ZM64.6,29.8c0,0,0-.2,0-.3v.4h0ZM64.3,30.7c0-.2,0-.4.2-.6h0v.5s0,.2-.2.3v-.2ZM64.3,31.5v-.2h0v.3h0v-.2h0ZM64.2,35.8h0c0,0,0,0,0,0ZM63.3,30.8v-.5h0v-.3l.6.6c0,0-.2.3-.4.4h0c0,0-.2-.2-.2-.2ZM63.8,31.2c0,0,0,.3,0,.4,0,0,0-.2-.2-.4,0-.2.2-.3.3-.4v.4ZM63.9,29.6v.9c-.3-.3-.5-.4-.7-.5,0-.3,0-.6,0-.9.3,0,.6.3.8.5ZM62.2,35.6h0ZM62.5,34.3c0,0-.2.2-.2.3v-.4h.2ZM62.5,34.1h-.2v-.3l.2.2h0ZM62.6,33.8h0c0,0,0,0-.2,0h0c0-.2.2-.3.3-.3v.4h0ZM62.7,32.9h0c0,0,0-.2.2-.4v.4ZM62.8,31h0v.6c0,0,0,.2-.2.3h0c0-.6,0-1.5,0-2.3.2.4.3.8.5,1.2h0v.2ZM62.8,29.9h0c-.2-.3-.4-.7-.5-1h0c.2,0,.3.2.5.5v.5ZM62.6,27.5h0c0,.4,0,.8,0,1.2v.3h0l-.4-.4v-.4.2h0c0,0,0,0,0,0v.2h0c.2-.4.4-.8.5-1.1h-.2ZM62,28.9h0c0,.3-.2.5-.3.8h0c0-.2.2-.5.3-.7h0ZM60.2,33.9h0v-.5l.3.3h0s0,0-.2,0h0ZM60.2,34l.2-.2v.3h-.2ZM60.3,34.3h0c0,0,0,0,.2,0v.4s0-.2-.2-.3ZM60.5,35.6h0v-.2h0v-.4.6ZM60.8,28.9c0,.2.2.4.2.6h0c0,.3,0,.4-.2.6,0-.4,0-.8-.2-1v-.2h.2ZM60,29.1v-.3c0-.4,0-.8,0-1.2h0c.2.3.3.7.5,1.1h0v-.2.2c-.2,0-.4.2-.5.5h0ZM60,29.9v-.5c.2-.3.4-.5.6-.6h0c-.2.4-.3.8-.6,1.2h0ZM59.9,31c.2-.4.4-.8.5-1.2,0,.7,0,1.4,0,2h-.3v-.5h0v-.2h-.1ZM59.9,34.8h0c0,0,0,0,0,0ZM59,31.7v-.9c0,0,.2.3.3.4,0,0-.2.3-.2.5h0ZM59.7,28.9c0,.4,0,.9-.2,1.4h0v.5h0c-.2-.1-.3-.2-.5-.4v-1c.4-.4.7-.6.9-.6h-.2ZM58.5,35.8h0c0,0,0,0,0,0ZM58.5,31.5v.2h0v-.2ZM58.5,31.3h0c0,0,0-.1,0-.1h0ZM58.4,29.9v.2h0v-.2ZM58.3,30.1h0v.7s0-.2-.2-.3v-.3h0v-.2h.1ZM55.5,33.4h0c0,0,0,0,0,0ZM55.7,33.1h0v-.2h0v.2h0ZM56,31.3h0c0,0-.2.2-.2.4h0q0,0,0,0h0s0,0-.2,0c0-.2.3-.4.4-.5,0,0,0,.2,0,.2h0ZM55.7,30.3s.2-.2.3-.2v.5c0,0-.2-.2-.3-.3ZM55.8,34.9h0ZM55.8,32.2h0c0,0,0,0,0,.1h0ZM55.9,32.1h0ZM56,31.7h0q0,0,0,0ZM56.1,37c0,0,0,.2,0,.3v-.6h0v.3h0ZM56.1,36.7h0c0,0,0,0,0,.1h0ZM56.7,35.8h0ZM56.8,31.8h0q0,0,0,0h0q0,0,0,0h0q0,0,0,0h0ZM57.4,36.5h0c0,0,0,0,0-.1h0ZM57.4,37v-.3h0v.6c0,0,0-.2,0-.3h0ZM57.5,31.9h0q0,0,0,0h0ZM57.7,34.9h0ZM57.9,32.9h0v.2h0c0,0,0-.3.2-.3h0c0,0-.2.1-.2.1ZM58,33.3h0c0,0,0,0,0,0ZM58.1,31.9h0q0,0,0,0l.2-.2v.2h-.1ZM58,31.2s-.2-.2-.3-.2c0,0,0,.2.3.4v.2c0,0-.2,0-.3.2h0q0,0,0,0c0,0-.2-.3-.2-.4h0c0-.3.3-.5.5-.8v.6ZM57.5,30.6v-.5s.2,0,.3.2c0,0-.2.2-.3.3ZM57.2,29.4c0-.2,0-.5,0-.8,0,.4.3.7.4,1.1,0,.2,0,.3,0,.4,0,0-.2-.2-.4-.3v-.3.3s-.2,0-.2,0c0,0,0-.2,0-.3ZM57.4,30v.6c0-.2,0-.5,0-.7,0,0,0,0,.2,0h-.1ZM57.1,32.6h0q0,0,0,0h0ZM56.7,27.3c0,0,0,.2.2.3,0,.2,0,.3-.2.5,0-.2,0-.4-.2-.5,0,0,0-.2.2-.3ZM56.4,32.6h0q0,0,0,0h0ZM56.2,30.6v-.6s.2,0,.2,0c0,.2,0,.5,0,.7h-.1ZM55.8,29.7c0-.4.2-.7.4-1.1,0,.3,0,.6,0,.8v.3s-.2,0-.2,0v-.3.3c0,0-.2.2-.4.3,0,0,0-.3.1-.4ZM55.6,30.6c0,.2.2.3.3.5,0,0-.3.2-.4.4,0-.3,0-.5.1-.9ZM55.5,31.8l.2.2h0q0,0,0,0h0c0,0-.1-.2-.1-.2ZM55.2,30.1s0,0-.2,0v-.3l.2.2ZM55.1,30.4s.2,0,.2-.2h0v.4s0,.2-.2.3v-.4h0ZM55.1,31.2v.2h0v-.2ZM55,31.5h0v.2h0v-.3h0ZM55,35.8h0c0,0,0,0,0,0ZM54.3,32.8v-.3h0v.2h0ZM54.5,31.7s0-.2,0-.3c0,0,0-.2.2-.3v.6h-.1ZM54.6,29.5v1.2c0,0-.2.3-.4.4h0v-.2h0v-.6h0c0-.5,0-.9-.2-1.4,0,0,.4.3.9.6h-.3ZM50,31.7v-.4h0s0,0,0,.2c0,0,0,.2,0,.3h0ZM50.2,32.8v-.4.4ZM50.5,30.2h-.3c0-.3.2-.5.3-.7v.7ZM50.8,35.4h0v.3c0,0,0-.2-.2-.4h.1ZM51.1,33.9h0q0,0,0,0h0ZM51.2,34h0v.2h0v-.2ZM51.2,34.3h0c0,0,0,0,0,0ZM51.3,32.2v.7c0-.3-.2-.5-.3-.7h0v-.8h0v-.2h.4v1.5-.5ZM50.9,30h0v-.5c0-.2.2-.3.3-.4v.3c0,.2-.2.4-.4.7h.1ZM51.4,30h0v-.2h0v.2ZM53.2,34.3h0c0,0,0,0,0,0ZM53.3,34.2h0v-.2h0v.2ZM53.3,33.8h0q0,0,0,0h0ZM53.2,32.9v-.5h0c0,0,0,.3-.2.4h.2ZM53.5,35.8v-.3h0c0,0,0,.2-.2.4h.1ZM53.6,31.2h0v.6h-.4c0-.6,0-1.3,0-1.9h0c.2.4.3.7.5,1.1v.2ZM53.5,29.4v.5h0c0-.2-.3-.4-.4-.7v-.3c0,0,.2.2.3.4h.1ZM53.4,27.9v1.2h0c0,0-.2-.2-.2-.3v-.5.2h0s0,0,0,.3h0c0-.3.3-.6.4-.8h-.1ZM53,28.8h0q0,0,0,0h0ZM52.7,29.5v.4h0c0-.2,0-.3.2-.5h-.2ZM52,28c0-.6.2-1,.2-1.3,0,.3,0,.7.2,1.3,0,0,0,.3,0,.4,0,.2-.2.4-.3.6,0-.2-.2-.5-.3-.6,0,0,0-.3,0-.4ZM51.9,29.9h0v-.4c0,0,0,.3,0,.4h0ZM51.5,28.8h0q0,0,0,0h0ZM51,29.1v-.2c0-.2.2-.3.2-.3,0,0,0,0-.2,0v-.9c0,.2.2.5.4.8h0c0,0,0-.2,0-.3h0v-.2.5s-.2.2-.2.3h0v.2ZM50.7,27.2c0,0,0,.3.2.4,0,.4-.2.9-.3,1.4-.3.3-.6.8-.8,1.3v-2c.3-.4.6-.8.9-1.1ZM46.6,32.9h0ZM46.8,36.1h0q0,0,0,0ZM47.2,33.2h0v-.2l.2-.2c0,.2,0,.4,0,.5h-.1ZM47.6,37.7h0ZM47.6,37.6h0v-.2.2ZM47.4,36.6v-.3.2h0c0,0,0,0,0,0ZM47.7,36.4h0v-.2h0v.2ZM47.7,36.1h0ZM47.5,35.9v-.4c0,0,0,.2,0,.3h-.2.1ZM48.1,32.8h0v-.3h0v.2h0c0,0,0,0,0,0ZM48.3,30s0,.2,0,.3v-.4s0,0,.2,0h-.1ZM48.4,36.7h0ZM48.4,36.8h0ZM48.5,37.3h0ZM48.5,32.1v-.4h0s0,0,0,.2v.2h0ZM48.6,32.4h0v-.3c0,.2.2.4.3.6h-.3v-.2h0ZM48.6,31.7h0ZM48.9,32.9h0v.3h0v-.3h0c0,0,0,0,.2,0h-.2ZM49.2,30.3h0c0,0,.2,0,.2.1h-.2v-.2h0ZM49.4,31.4h0ZM49.5,28.7c0,.6,0,1,0,1.6,0,0-.2,0-.3-.2,0-.2,0-.3,0-.5.2-.3.3-.6.5-.9ZM49,32.3c0-.2-.2-.4-.3-.6h0q0,0,0,0s0,0,0,.2v.5h.1ZM48.8,30.1h0ZM48.9,30.5h-.3c0,0,0-.2,0-.3l.2.2h0ZM47.7,27.3c.3.6.6,1.4.9,2.2,0,0,0,.2-.2.3h0v-.3.3c0,0-.2,0-.3,0,0-.2,0-.4,0-.6,0-.4-.2-.8-.3-1.2,0-.2,0-.4,0-.6ZM47.2,30.5h0v-.6c0,.6.3,1.2.4,1.7h0v-.2.3h0c0-.3-.3-.6-.5-.9v-.3h0ZM47.1,31.5c0,.2,0,.3.2.5h0,0s-.2,0-.3-.2v-.4h0ZM47.1,32.3s0,0,.2.2c0,0,0,0-.2,0v-.3ZM47,34.1h0v.3-.3ZM46.8,35.7h0v-1.3s0,0,0,.2v1h0ZM46.8,34.5s0,0,0-.2v-.6h0v.7h0ZM46.7,32.2h0v-.2h0v.2ZM46.7,31.7h0v-.4h0v.4ZM46.7,30.8v.2h0v-.4h0v.2ZM46.2,36.9h0v-.3c0-.3,0-.6-.2-1h0v1.2h.1ZM45.9,33.7v.2h0v-.3h0ZM45.9,34.8s0,0,0-.2v.5l-.2-.2v-.2h.1ZM45.3,35.8h0v.7c0-.2,0-.4,0-.5v-.2h0ZM45,33.9v.3h0v-.2h0ZM42.6,36.8v-.7h0v.7ZM42.7,35.9h0v-.6s0-.2,0-.3v.8h0ZM42.7,34.9s0,0,0,.2v-.6h0v.4h0ZM42.7,33.6h0v-.8h0v.7h0ZM42.8,31.9h0v-.2h0c0,0,0-.3.2-.4v.6h-.1ZM43.4,35.4h0v.2c0,.3,0,.6-.2.8,0-.5,0-.9.2-1.4v.4ZM43.4,34.7v-.3h0v.3ZM43.7,33.8s0-.2,0-.3h0v-.3c0,.2,0,.4.2.6h-.1ZM43.5,31.6s0,0,.2,0v.3h0v-.2h-.1ZM43.7,32.3h0v.5c0-.2,0-.4,0-.5ZM44.2,34.1h0v-.2h0v.3h0ZM44.3,34.7h0ZM44.7,32.8v-.3h0v.3h0ZM44.7,31.8h-.2c0-.2,0-.4,0-.6v-1.5h.4v2.2h-.1ZM44.1,28.5h.6v.6h-.7v-.3h0v-.3ZM44,36.1c0,.2,0,.5-.2.7v-1.1c0,0,0,.3,0,.4h.1ZM43.9,31.8h0v-.3.3ZM43.8,31.2v.2h-.2v-1.2l.2-.2c0,.3,0,.7,0,1.1h0ZM43.4,28.7h.2v.7l-.2.2v-.8h0ZM42.6,28.7h.6c0,.3-.2.7-.2,1.2h0c0-.1-.2-.3-.3-.5v-.7ZM42.5,29.8c0,0,0,.3.2.4,0,0-.2.2-.3.2h0v-.2c0-.2,0-.4,0-.5h0ZM42.4,35.5h0c0-.3,0-.5-.2-.8h.2v.9h0ZM42.3,32.7v1.2h0v-1.2h0ZM40.8,32.3v-.3.4h0ZM41,32.6h0q0,0,0,0h0ZM41.1,31.7h0s0-.2-.2-.2h.3s0,0,0,.2h0q0,0,0,0ZM41.3,37.4h0ZM41.2,32.1h0s0-.2,0-.2v.4-.2ZM41.4,36.5h0ZM41.5,30.5h0v-.2h0v.2h0ZM41.6,30s0,0-.2,0v-.2s.2,0,.2,0v.2ZM41.9,28.8v.2s0,0,0-.2h.2-.1ZM42,31.8h0v.3c0,.2,0,.4,0,.5h0c0-.3.2-.6.3-.9h-.2ZM41.1,29.7c0-.3.2-.6.3-.9h.2c0,.2,0,.5,0,.8h0s-.2,0-.3,0v-.3.3c0,0-.2,0-.3.2h0v-.3h0ZM41.3,30.3h0c0,0,0,0,.2-.2v.2h-.1ZM40.9,30.5h0c0,0,0,.2-.2.3v-.3h.2ZM41.1,30.7s0,.2.2.3v.2c-.2,0-.4.2-.6.2h0v-.2c0-.2.2-.3.3-.5h0ZM40.6,29.8c0,0,0-.2,0-.3v.4h0ZM40.4,30.7c0-.2,0-.4.2-.6h0v.5s0,.2-.2.3v-.2ZM40.4,31.3h0ZM40.2,32.1h0q0,0,0,0ZM39.9,31.2c0,0,0,.3,0,.4,0-.2-.2-.4-.3-.5h0v-.7h0v-.2l.6.6v.5h-.2ZM39.9,30.5c-.3-.2-.5-.4-.6-.5,0-.3,0-.5,0-.8.2,0,.3.2.5.3v.9h0ZM40.1,27c0,.8,0,1.6,0,2.3-.2,0-.3-.2-.5-.2,0-.4,0-.7,0-.8v.2h0c0,0-.2.3-.3.5h0c.3-.9.7-1.6.9-2h-.1ZM39.1,29h0q0,0,0,0h0ZM38.9,29.8h0c0,0,0,0,0,0ZM38.7,30.5h0c0,0,0,0,0,0ZM38.6,30.6h0ZM38.5,29v.2c0,0,0-.2,0-.3h0c0,0,.2,0,.2.1h-.1ZM38,28.9v.5-.5ZM37.8,28.8h0c0,.2,0,.3,0,.4h0v-.2l.2-.2h-.1ZM36.5,32.6h0c0,0,0,.1,0,.1h0ZM36.2,31.7v-.4h.3c0,.2-.2.3-.3.5h0ZM36.8,30.2h-.3c0-.3.2-.5.3-.7v.7ZM37.3,33.4v-2.1,2h0ZM37.2,31h0v.2h0v-.2ZM36.8,27.4v.4s0-.2-.2-.2c0,0,0,0,0-.2h.1ZM36.9,29c-.3.3-.5.8-.8,1.3v-2c0-.2.2-.3.3-.4.2.3.4.8.5,1.2h0ZM36.3,27.7l-.3.3v-.9c0,.2.2.4.4.7h-.1ZM32.9,31.9h0ZM32.9,32.9h0ZM33,36.1h0q0,0,0,0ZM33.5,33.2h0v-.2l.2-.2c0,.2,0,.4,0,.5h-.1ZM33.8,37.7h0ZM33.8,37.6h0v-.2.2ZM33.7,36.6v-.3.2h0c0,0,0,0,0,0ZM34,36.4h0v-.2h0v.2ZM34,36.1h0ZM33.8,35.9v-.4c0,0,0,.2,0,.3h-.2.1ZM34.5,30.3h0c0,0,0,0,0,0ZM34.6,30h0q0,0,0,0v-.2s0,0,.2,0h-.1ZM34.6,36.7h0ZM34.6,36.8h0ZM34.7,37.3h0ZM34.8,32.1v-.4h0s0,0,0,.2v.2h0ZM34.8,30.6h0ZM34.9,32.3h0v-.2s0,.2,0,.3h0ZM34.9,31.7h0ZM35.8,28.7c0,.6-.2,1.1,0,1.8h-.2v-.2c0-.3,0-.5-.2-.7.2-.3.3-.6.5-.9ZM35.3,32.3c0-.2-.2-.4-.3-.6h0c0,0,.2,0,.3,0v.8h0ZM35.1,30.1h0ZM35,30.3l.2.2h0s0,0-.2,0v-.2h0ZM34,27.3c.3.6.6,1.4.9,2.2,0,0,0,.2-.2.3h0v-.3.3c0,0-.2,0-.3,0,0-.2,0-.4,0-.6,0-.4-.2-.8-.3-1.2,0-.2,0-.4,0-.6ZM33.4,30.5h0v-.6c0,.4.2.8.3,1.2h0c0,.2,0,.3,0,.5h0v-.2.3h0c0-.3-.3-.6-.5-.9v-.3h.1ZM33.4,31.5c0,.2,0,.3.2.5h0v-.4h-.1ZM33.3,32.4h0c0,0,0,0,0,0ZM33.3,34.1h0v.3-.3ZM33,35.7h0v-1.3s0,0,0,.2v1h0ZM33,33.8v.6s0,0,0-.2v-.6h0c0,0,0,.2,0,.2ZM33,31.7h0v-.4h0v.4ZM33,30.8v.2h0v-.4h0v.2ZM32.5,36.9h0v-.3c0-.3,0-.6-.2-1h0v1.2h.1ZM32.1,33.7v.2h0v-.3h0ZM32.1,34.8s0,0,0-.2v.5l-.2-.2v-.2h.1ZM31.6,35.8h0v.7c0-.2,0-.4-.1-.5v-.2h.1ZM31.3,33.9v.3h0v-.2h0ZM28.9,36.8v-.7h0v.7ZM28.9,35.9h0v-.6s0-.2.1-.3v.8h-.1ZM29,34.9s0,0-.1.2v-.8h0v.7h.1ZM29,33.6h0v-.8h0v.7h0ZM29,31.9h-.1v-.2h0c0,0,.1-.3.2-.4v.6h-.1ZM29.6,35.4h0v.2c0,.3-.1.6-.2.8,0-.5.1-.9.2-1.4v.4ZM29.7,34.7v-.3h0v.3ZM30,33.8s0-.2-.1-.3h0v-.3c0,.2.1.4.2.6h-.1ZM29.8,31.6s.1,0,.2,0v.3h-.1v-.2h-.1ZM30,32.3h.1v.5c0-.2,0-.4-.1-.5ZM30.4,34.1h0v-.2h0v.3h0ZM30.6,34.7h0ZM30.9,32.8v-.3h.1v.3h-.1ZM31,31.8h-.2c0-.2,0-.4-.1-.6v-1.5h.4v2.2h0ZM30.4,28.5h.7v.6h-.7v-.3h0v-.3ZM30.3,36.1c0,.2-.1.5-.2.7v-1.1c0,0,0,.3.1.4h.1ZM30.2,31.8h0v-.3.3ZM30.1,31.2v.2h-.2v-1.2s.1,0,.2-.2c0,.3,0,.7.1,1.1h-.1ZM29.6,28.7h.2v.7s-.1,0-.2.2v-.8h0ZM28.9,28.7h.6c0,.3-.2.7-.2,1.2h-.1c-.1-.1-.2-.3-.3-.5v-.7ZM28.8,29.8c0,0,.1.3.2.4l-.3.3h0v-.2c0-.2,0-.4,0-.5ZM28.7,35.5h0c0-.3-.1-.5-.2-.8h.1v.9h.1ZM28.5,32.7v1.2h-.1v-1.2h.1ZM26.5,35.9h0c0,0,0,0,0,0ZM27,33.4h0ZM27,32.1h0ZM27.3,32.6h0ZM27.4,31.7h0s-.1-.2-.2-.2h.3s0,0-.1.2h0q0,0,0,0ZM27.4,34.9h0ZM27.5,37.4h0ZM27.5,32h0s0-.2.1-.2v.3h-.1ZM27.7,36.5h0ZM27.8,30.5h0v-.5s.2,0,.2,0c0,.2,0,.4-.1.6h-.1ZM28.2,31.8h0v.2h-.1v-.2h.1ZM28.2,28.8v.2s0,0-.1-.2h.2-.1ZM28.1,32.1h0c0,.2-.1.4-.1.5h-.1q0,0,0,0c0-.2.1-.3.2-.5ZM27.4,29.7c0-.3.2-.6.3-.9h.2c0,.2,0,.5.1.8h0s-.2,0-.3,0v-.3.3c-.1,0-.2,0-.3.2h0v-.3h0ZM27.6,30.4s-.1,0-.2-.2c0,0,.1,0,.2,0v.3ZM27.1,31v-.5h0c.1.2.3.3.4.5v.2c-.2,0-.4.2-.6.2h0v-.4h.2ZM26.9,29.8c0,0,0-.2.1-.3v.4h-.1ZM26.6,30.7c0-.2.1-.4.2-.6h0v.5s-.1.2-.2.3v-.2ZM26.6,31.3h0c0,0,0,0,0,0ZM26.5,31.8h0c0,.2,0,.4-.1.5h0v-.4h.1ZM25.6,30.4h0v-.3c.2,0,.3.3.5.4-.1,0-.2.2-.3.3v-.4h-.2ZM26.1,31.2c0,0,0,.3-.1.4,0-.2-.2-.4-.3-.5h0c.1,0,.2-.3.3-.4h0v.6h.1ZM26.2,30.5h0ZM26.2,29.6v.7h-.1c-.2-.1-.4-.2-.6-.3,0-.3,0-.6-.1-.9.3,0,.6.3.8.5ZM24.2,30.1h0c0-.5.1-.8.2-1.1h0c0,.3-.1.6-.2,1h0ZM24.6,35.4h0v.2h0v-.6h0v.3h0ZM24.8,34.3c-.1,0-.2.2-.2.3v-.5h.2v.2ZM24.8,34.2h-.2v-.3s.1,0,.2.2v.2h0ZM24.9,33.8h0c0,0-.1,0-.2,0v-.4h.2v.5h0ZM25.3,35.2c0,.4-.2.7-.2,1v-.2c0-.3.2-.5.2-.8h0ZM25.1,32.1h0c0,0,0,0,0,0ZM25.2,31h0v.2c-.1.2-.2.3-.4.5,0-.6,0-1.4-.1-2.1.2.4.3.8.5,1.2h0v.2ZM25.1,29.9h0c-.2-.4-.4-.7-.6-1.1h0c.2,0,.4.2.6.5v.5h0ZM24.9,27.1v.4c0,.4,0,.8.1,1.2v.3h0c-.2-.3-.4-.4-.5-.5v-.2.2h0v-.2h0c0,0,0,0,0-.1.2-.5.4-.9.6-1.1h-.2ZM24.2,28.5v.2c0,.2-.2.4-.3.6h0c0-.2.2-.5.3-.7h0ZM23.6,33.4v.2h0v-.2ZM23.5,30.5h0ZM23.5,30.6h0ZM22.2,33.8v-.5h.2v.4s-.1,0-.2,0h0c0,0,0,0,0,0ZM22.1,32.5v-.4h0c0,.2.2.3.2.5h-.2ZM22.3,34s.1,0,.2-.2v.3h-.2v-.2h0ZM22.4,30v-.2.2h0ZM22.3,34.3h0q0,0,.2,0v.5s-.1-.2-.2-.3h0ZM22.6,35.6h0v-.2h0v-.4.6ZM23.3,29.2c0,.2-.1.4-.2.7h-.1c0-.3,0-.6-.1-.8,0-.2.1-.4.2-.5,0,.2.2.4.3.7h0ZM22.1,29.1v-.2c.1-.2.2-.3.2-.3,0,0-.1,0-.2,0,0-.4,0-.8.1-1.2v-.4c.1.3.4.7.6,1.1,0,0,0,.2-.1.4h0v-.2.2c-.2,0-.4.2-.5.5h-.1ZM22,29.9v-.5c.2-.3.4-.5.6-.6h0c-.2.4-.3.8-.6,1.2h0ZM22,31h.4v1.2c-.1-.2-.2-.4-.4-.5h0v-.7ZM21.8,35.2c0,.3.2.5.2.8v.2c0-.2-.2-.6-.2-1h0ZM21.7,29.6v.7h-.3c.1-.3.2-.5.3-.7ZM21.3,31.1c0,.2-.2.3-.3.5v-.4h.3ZM17.7,32.9h0ZM17.9,36.1h0q0,0,0,0ZM18.3,33.2h0v-.2l.2-.2c0,.2,0,.4-.1.5h-.1ZM18.7,37.7h0ZM18.7,37.6h0v-.2.2ZM18.5,36.6v-.3.2h-.1c0,0,.1,0,.1,0ZM18.8,36.4h0v-.2h0v.2ZM18.8,36.1h0ZM18.6,35.9v-.4c0,0,0,.2.1.3h-.2.1ZM19.2,32.8h-.1v-.3.2h0c0,0,.1,0,.1,0ZM19.4,30s0,.2-.1.3v-.4s.1,0,.2,0h-.1ZM19.5,36.7h0ZM19.5,36.8h0ZM19.6,37.3h0ZM19.7,32h0v-.2h0s0,0,.1.2h-.1ZM20,32.9h0v.3h0v-.6h.1v.2h-.1ZM19.7,31.7h0ZM20.6,28.7c0,.4-.1.8-.1,1.2-.1,0-.2,0-.2,0,0,0,.1,0,.2.2v.5h-.2v-.2c0-.3-.1-.5-.2-.7.2-.3.3-.6.5-.9ZM20.1,32.1h-.1c0,0-.1-.2-.2-.3h0c0,0,.2,0,.3,0v.6-.2ZM19.9,30.1h0ZM20,30.5h-.3c0,0,0-.2.1-.3,0,0,.1,0,.2.2h0ZM18.8,27.3c.3.6.6,1.4.9,2.2,0,0-.1.2-.2.3h0v-.3.3c-.1,0-.2,0-.3,0,0-.2,0-.4-.1-.6,0-.4-.2-.8-.3-1.2v-.6ZM18.3,30.5h0v-.6c.1.6.3,1.2.4,1.7h0v-.2.3h0c-.1-.3-.3-.6-.5-.9v-.3h.1ZM18.2,31.5c0,.2.2.4.2.6,0,0-.2,0-.3-.2v-.4h0ZM18.2,32.3s0,0,.2.2c0,0-.1,0-.2,0v-.3ZM18.1,34.1h0v.3-.3ZM17.9,35.7h0v-1.3s0,0,.1.2v1h-.1ZM17.9,34.5s0,0-.1-.2v-.6h0v.7h.1ZM17.8,32.2h0v-.2h0v.2ZM17.8,31.7h0v-.4h0v.4ZM17.8,30.8v.2h0v-.4h0v.2ZM17.1,34.6v.5h0v-.4h0ZM17,33.9h0q0,0,0,0ZM16.9,33.1v.3-.2h0ZM16.7,32.9v-.4h.2c0,0-.1.2-.1.4h-.1ZM16.5,29.4s.2.2.3.2v1.7h-.1.1v.5h-.2v-2.4h0ZM16.4,35.9v.2-.2h0ZM13.5,35.5c0-.2,0-.4-.1-.6h.1v.7h0ZM13.7,36.8v-.7h0v.7ZM13.8,35.9h0v-.6s0-.2.1-.3v.8h-.1ZM13.8,34.9s0,0-.1.2v-.4h.1v.3h0ZM13.8,33.6h0v-.8h0v.7h0ZM13.9,31.9h-.1v-.2h0c0,0,.1-.3.2-.4v.6h0ZM14.5,35.4h0v.2c0,.3-.1.6-.2.8,0-.5.1-.9.2-1.4v.4ZM14.5,34.7v-.3h0v.3ZM14.7,31.8v-.2s.1,0,.2,0v.3h-.2ZM14.9,32.8c0-.2,0-.3-.1-.5h.1v.4h0ZM14.9,31.8v-.3h0v.4h-.1.1ZM15.8,32.5h0ZM16.2,33.4h0v.8h-.1c0-.2,0-.5.1-.7h0ZM15.5,28.5h.2v.7s-.2,0-.3.2v-.8h.1ZM15.8,29.2c0,.9,0,1.8.2,2.7h-.2c0-.2,0-.5-.1-.8,0-.6-.1-1.1-.1-1.7,0,0,.2-.2.3-.2h0ZM15.4,34.7h0ZM15.3,34h0v-.3.5h-.1c0,0,.1-.2.1-.2ZM15.1,36.1c0,.2-.1.5-.2.7v-1.1c0,0,0,.3.1.4h0ZM15,31.1h0v-.5.5ZM15,30.7c0,0,0,.4-.1.7h-.2v-1.2c.1-.2.3-.3.4-.4v.8h0ZM14.5,28.7h.5v1c-.1,0-.3.2-.4.3,0-.5,0-1-.1-1.3h0ZM13.8,28.7h.6c0,.3-.2.9-.3,1.5-.1-.3-.3-.6-.4-.8v-.7h0ZM13.6,29.8c.1.3.2.5.3.8,0,0-.2.2-.3.4,0-.2,0-.4-.2-.6,0-.2,0-.4.1-.5h0ZM13.4,32.7v1.2h-.1v-1.2h.1ZM11.3,35.9h0c0,0,0,0,0,0ZM11.9,33.4h0ZM11.9,32.1h0ZM12.1,32.6h0ZM12.2,34.9h0ZM12.4,37.4h0ZM12.4,32h0s0-.2.1-.2v.2h-.1ZM12.5,36.5h0ZM12.6,30.5h0v-.5s.2,0,.2,0c0,.2,0,.4-.1.6h0ZM13.1,31.8h0v.2h-.1v-.2h.1ZM13,28.8v.2s0,0-.1-.2h.2,0ZM13,32.1h.1c0,.3-.1.5-.1.6h-.1q0,0,0,0c0-.2.1-.4.2-.5h0ZM12.2,29.7c0-.3.2-.6.3-.9h.2c0,.2,0,.5.1.8h0s-.2,0-.3,0v-.3.3c-.1,0-.2,0-.3.2h0v-.3h0ZM12.5,30.4s-.1,0-.2-.2c0,0,.1,0,.2,0v.3ZM12,30.5h0c.1.2.3.3.4.5v.4c0,0-.2.2-.2.4h0q0,0,0,0h0c0,0-.2-.3-.3-.4,0-.3,0-.6.1-.9ZM11.8,29.8c0,0,0-.2.1-.3v.4h-.1ZM11.5,30.7c0-.2.1-.4.2-.6h0v.5s-.1.2-.2.3v-.2ZM11.4,31.6h0c0,.2-.1.4-.1.6h0v-.6h.1ZM10.4,30.4h0v-.3c.1,0,.3.3.4.4,0,0-.2.2-.3.3v-.3h0ZM11,31.2c0,0,0,.3-.1.4,0-.2-.2-.4-.3-.5h0c.1-.3.2-.4.3-.5,0,0,0,0,.1.2v.5h0ZM11,30.5h0c0,0,0,0,0,0ZM11,29.6v.6s-.1,0-.2,0c-.2-.2-.4-.3-.5-.4,0-.3,0-.6-.1-.9.3,0,.6.3.8.5h0ZM7,33.9h0v-.6h.2v.5s0,0-.2,0h0ZM6.8,32.1h0v-.2s0,.2,0,.3h0ZM7.1,34.3v-.3s0,0,.2-.2v.3h0,0v.5s0-.2-.2-.3ZM7.3,35.6h0v-.2h0v-.3h0v.6h0ZM7.7,30.1c0-.4,0-.8-.2-1v-.2c0,.3,0,.6.2,1v.3h0ZM9,30.1v-.3c0-.4.1-.7.2-1v.2c0,.3-.1.6-.2,1h0ZM9.4,35.4h0v.2h0v-.6h0v.3h0ZM9.7,34.3c-.1,0-.2.2-.2.3v-.5h.1-.1v-.3s.1,0,.2.2v.3ZM9.8,33.8h0c0,0-.1,0-.2,0v-.5h.2v.5ZM9.8,32.1s0-.2.1-.3v.2h-.1ZM10.1,35.2c0,.4-.2.7-.2,1v-.7c0-.2.1-.4.2-.6v.2h0ZM10,31h0c-.1.3-.3.4-.4.6,0-.6,0-1.3-.1-2,.2.4.3.8.5,1.2h0v.2ZM10,29.9h0c-.2-.4-.4-.7-.6-1.1h0c.2,0,.4.2.6.5v.5h0ZM9.7,27v.6c0,.4,0,.8.1,1.2v.3h0c-.2-.3-.4-.4-.5-.5v-.2.2h0s0-.2-.1-.2h0v-.2c.2-.5.5-.9.6-1.1h-.1ZM9,28.4v.2c0,0-.2.4-.3.6h0c0-.2.2-.5.3-.7h0ZM8.4,30h0ZM8.4,33.1v.9-.9ZM7.8,28.4c0,.2.2.4.3.7h0c-.1-.2-.2-.5-.3-.6v-.2h0ZM6.8,29.1v-.3c0-.4,0-.8,0-1.2v-.6c0,.2.3.6.6,1.1v.2h0s0,.2,0,.2h0v-.2.2c-.2,0-.4.2-.5.5h0ZM6.8,29.9v-.5c.2-.3.4-.5.6-.6h0c-.2.4-.3.8-.6,1.2h0ZM6.7,31.1h0c.2-.4.4-.8.5-1.2,0,.6,0,1.4,0,2,0-.2-.2-.4-.4-.5h0v-.3ZM6.6,35c0,.2,0,.4.2.6v.7c0-.2-.2-.6-.2-1v-.2h0ZM5.7,30.3h0c0,0,0,0,0,0ZM6.2,31h0c0,.3-.2.4-.3.6,0,0,0-.3,0-.4v-.5s0,0,0-.2c0,0,.2.3.3.4h0ZM6.3,30.3h0v.3c0,0-.2-.2-.3-.3,0,0,.3-.3.4-.4v.3h0ZM6.5,29c0,.3,0,.6,0,.9,0,0-.3.2-.5.4,0,0,0,0-.2,0v-.6c.3-.2.5-.4.8-.5h0ZM4.1,30.5h0c0-.2,0-.4,0-.6,0,0,0,0,.2,0v.5h0ZM4.2,36.5h0ZM4.3,37.4h0ZM4.4,32h0v-.2s0,.2,0,.2h0ZM4.5,34.9h0ZM4.6,32.6h0ZM4.8,33.3h0ZM4.8,32.1h0ZM5.3,35.8h0c0,0,0,0,0,0ZM5.3,31.6v.6h0c0-.2,0-.4,0-.7h0c0,0,0,.1,0,.1ZM5.1,30.1c0,.2,0,.4.2.6v.2s0-.2-.2-.3v-.5h0ZM5,29.8h0v-.4s0,.2,0,.3h0ZM4.7,30.5c0,.4,0,.6,0,.9s-.2.3-.3.4h0q0,0,0,0c0,0-.2-.3-.2-.4v-.4c0-.2.3-.3.4-.5h0ZM4.3,30.4v-.3s0,0,.2,0c0,0,0,0-.2.2ZM4.1,28.8h.2c0,.3.2.6.3.9v.3h0c0,0-.2-.2-.3-.2v-.3.3c0,0-.2,0-.3,0h0c0-.3.1-.6.1-.8h0ZM3.9,32.6h0q0,0,0,0c0-.2,0-.4,0-.5h0q0,0,0,0c0,.2,0,.4.2.5h0ZM3.9,28.8s0,0,0,.2v-.2h.2,0ZM3.6,31.8v.2h0v-.2h0ZM3.2,35.5h0v-.7h0c0,.2,0,.4,0,.6h0ZM3.3,32.7v1.2h0v-1.2h0Z" fill="#286300"/>
</svg>